<?xml version="1.0" encoding="utf-8" standalone="no"?>
<!DOCTYPE svg PUBLIC "-//W3C//DTD SVG 1.1//EN"
  "http://www.w3.org/Graphics/SVG/1.1/DTD/svg11.dtd">
<!-- Created with matplotlib (https://matplotlib.org/) -->
<svg height="392.429687pt" version="1.1" viewBox="0 0 896.8075 392.429687" width="896.8075pt" xmlns="http://www.w3.org/2000/svg" xmlns:xlink="http://www.w3.org/1999/xlink">
 <defs>
  <style type="text/css">*{stroke-linecap:butt;stroke-linejoin:round;}</style>
 </defs>
 <g id="figure_1">
  <g id="patch_1">
   <path d="M 0 392.429687 
L 896.8075 392.429687 
L 896.8075 0 
L 0 0 
z
" style="fill:none;"/>
  </g>
  <g id="axes_1">
   <g id="patch_2">
    <path d="M 66.1875 340.35625 
L 442.0075 340.35625 
L 442.0075 31.43625 
L 66.1875 31.43625 
z
" style="fill:none;"/>
   </g>
   <g id="matplotlib.axis_1">
    <g id="xtick_1">
     <g id="line2d_1">
      <path clip-path="url(#pe5a09bc7e2)" d="M 167.034099 340.35625 
L 167.034099 31.43625 
" style="fill:none;stroke:#b0b0b0;stroke-linecap:square;stroke-width:0.8;"/>
     </g>
     <g id="line2d_2">
      <defs>
       <path d="M 0 0 
L 0 3.5 
" id="m005f0a59be" style="stroke:#000000;stroke-width:0.8;"/>
      </defs>
      <g>
       <use style="stroke:#000000;stroke-width:0.8;" x="167.034099" xlink:href="#m005f0a59be" y="340.35625"/>
      </g>
     </g>
     <g id="text_1">
      <!-- 16 M -->
      <g transform="translate(148.635662 358.753906)scale(0.15 -0.15)">
       <defs>
        <path d="M 12.40625 8.296875 
L 28.515625 8.296875 
L 28.515625 63.921875 
L 10.984375 60.40625 
L 10.984375 69.390625 
L 28.421875 72.90625 
L 38.28125 72.90625 
L 38.28125 8.296875 
L 54.390625 8.296875 
L 54.390625 0 
L 12.40625 0 
z
" id="DejaVuSans-49"/>
        <path d="M 33.015625 40.375 
Q 26.375 40.375 22.484375 35.828125 
Q 18.609375 31.296875 18.609375 23.390625 
Q 18.609375 15.53125 22.484375 10.953125 
Q 26.375 6.390625 33.015625 6.390625 
Q 39.65625 6.390625 43.53125 10.953125 
Q 47.40625 15.53125 47.40625 23.390625 
Q 47.40625 31.296875 43.53125 35.828125 
Q 39.65625 40.375 33.015625 40.375 
z
M 52.59375 71.296875 
L 52.59375 62.3125 
Q 48.875 64.0625 45.09375 64.984375 
Q 41.3125 65.921875 37.59375 65.921875 
Q 27.828125 65.921875 22.671875 59.328125 
Q 17.53125 52.734375 16.796875 39.40625 
Q 19.671875 43.65625 24.015625 45.921875 
Q 28.375 48.1875 33.59375 48.1875 
Q 44.578125 48.1875 50.953125 41.515625 
Q 57.328125 34.859375 57.328125 23.390625 
Q 57.328125 12.15625 50.6875 5.359375 
Q 44.046875 -1.421875 33.015625 -1.421875 
Q 20.359375 -1.421875 13.671875 8.265625 
Q 6.984375 17.96875 6.984375 36.375 
Q 6.984375 53.65625 15.1875 63.9375 
Q 23.390625 74.21875 37.203125 74.21875 
Q 40.921875 74.21875 44.703125 73.484375 
Q 48.484375 72.75 52.59375 71.296875 
z
" id="DejaVuSans-54"/>
        <path id="DejaVuSans-32"/>
        <path d="M 9.8125 72.90625 
L 24.515625 72.90625 
L 43.109375 23.296875 
L 61.8125 72.90625 
L 76.515625 72.90625 
L 76.515625 0 
L 66.890625 0 
L 66.890625 64.015625 
L 48.09375 14.015625 
L 38.1875 14.015625 
L 19.390625 64.015625 
L 19.390625 0 
L 9.8125 0 
z
" id="DejaVuSans-77"/>
       </defs>
       <use xlink:href="#DejaVuSans-49"/>
       <use x="63.623047" xlink:href="#DejaVuSans-54"/>
       <use x="127.246094" xlink:href="#DejaVuSans-32"/>
       <use x="159.033203" xlink:href="#DejaVuSans-77"/>
      </g>
     </g>
    </g>
    <g id="xtick_2">
     <g id="line2d_3">
      <path clip-path="url(#pe5a09bc7e2)" d="M 334.06521 340.35625 
L 334.06521 31.43625 
" style="fill:none;stroke:#b0b0b0;stroke-linecap:square;stroke-width:0.8;"/>
     </g>
     <g id="line2d_4">
      <g>
       <use style="stroke:#000000;stroke-width:0.8;" x="334.06521" xlink:href="#m005f0a59be" y="340.35625"/>
      </g>
     </g>
     <g id="text_2">
      <!-- 256 M -->
      <g transform="translate(310.894898 358.753906)scale(0.15 -0.15)">
       <defs>
        <path d="M 19.1875 8.296875 
L 53.609375 8.296875 
L 53.609375 0 
L 7.328125 0 
L 7.328125 8.296875 
Q 12.9375 14.109375 22.625 23.890625 
Q 32.328125 33.6875 34.8125 36.53125 
Q 39.546875 41.84375 41.421875 45.53125 
Q 43.3125 49.21875 43.3125 52.78125 
Q 43.3125 58.59375 39.234375 62.25 
Q 35.15625 65.921875 28.609375 65.921875 
Q 23.96875 65.921875 18.8125 64.3125 
Q 13.671875 62.703125 7.8125 59.421875 
L 7.8125 69.390625 
Q 13.765625 71.78125 18.9375 73 
Q 24.125 74.21875 28.421875 74.21875 
Q 39.75 74.21875 46.484375 68.546875 
Q 53.21875 62.890625 53.21875 53.421875 
Q 53.21875 48.921875 51.53125 44.890625 
Q 49.859375 40.875 45.40625 35.40625 
Q 44.1875 33.984375 37.640625 27.21875 
Q 31.109375 20.453125 19.1875 8.296875 
z
" id="DejaVuSans-50"/>
        <path d="M 10.796875 72.90625 
L 49.515625 72.90625 
L 49.515625 64.59375 
L 19.828125 64.59375 
L 19.828125 46.734375 
Q 21.96875 47.46875 24.109375 47.828125 
Q 26.265625 48.1875 28.421875 48.1875 
Q 40.625 48.1875 47.75 41.5 
Q 54.890625 34.8125 54.890625 23.390625 
Q 54.890625 11.625 47.5625 5.09375 
Q 40.234375 -1.421875 26.90625 -1.421875 
Q 22.3125 -1.421875 17.546875 -0.640625 
Q 12.796875 0.140625 7.71875 1.703125 
L 7.71875 11.625 
Q 12.109375 9.234375 16.796875 8.0625 
Q 21.484375 6.890625 26.703125 6.890625 
Q 35.15625 6.890625 40.078125 11.328125 
Q 45.015625 15.765625 45.015625 23.390625 
Q 45.015625 31 40.078125 35.4375 
Q 35.15625 39.890625 26.703125 39.890625 
Q 22.75 39.890625 18.8125 39.015625 
Q 14.890625 38.140625 10.796875 36.28125 
z
" id="DejaVuSans-53"/>
       </defs>
       <use xlink:href="#DejaVuSans-50"/>
       <use x="63.623047" xlink:href="#DejaVuSans-53"/>
       <use x="127.246094" xlink:href="#DejaVuSans-54"/>
       <use x="190.869141" xlink:href="#DejaVuSans-32"/>
       <use x="222.65625" xlink:href="#DejaVuSans-77"/>
      </g>
     </g>
    </g>
    <g id="xtick_3">
     <g id="line2d_5">
      <defs>
       <path d="M 0 0 
L 0 2 
" id="m6449f80ab4" style="stroke:#000000;stroke-width:0.6;"/>
      </defs>
      <g>
       <use style="stroke:#000000;stroke-width:0.6;" x="83.518544" xlink:href="#m6449f80ab4" y="340.35625"/>
      </g>
     </g>
    </g>
    <g id="xtick_4">
     <g id="line2d_6">
      <g>
       <use style="stroke:#000000;stroke-width:0.6;" x="125.276321" xlink:href="#m6449f80ab4" y="340.35625"/>
      </g>
     </g>
    </g>
    <g id="xtick_5">
     <g id="line2d_7">
      <g>
       <use style="stroke:#000000;stroke-width:0.6;" x="208.791877" xlink:href="#m6449f80ab4" y="340.35625"/>
      </g>
     </g>
    </g>
    <g id="xtick_6">
     <g id="line2d_8">
      <g>
       <use style="stroke:#000000;stroke-width:0.6;" x="250.549655" xlink:href="#m6449f80ab4" y="340.35625"/>
      </g>
     </g>
    </g>
    <g id="xtick_7">
     <g id="line2d_9">
      <g>
       <use style="stroke:#000000;stroke-width:0.6;" x="292.307433" xlink:href="#m6449f80ab4" y="340.35625"/>
      </g>
     </g>
    </g>
    <g id="xtick_8">
     <g id="line2d_10">
      <g>
       <use style="stroke:#000000;stroke-width:0.6;" x="375.822988" xlink:href="#m6449f80ab4" y="340.35625"/>
      </g>
     </g>
    </g>
    <g id="xtick_9">
     <g id="line2d_11">
      <g>
       <use style="stroke:#000000;stroke-width:0.6;" x="417.580766" xlink:href="#m6449f80ab4" y="340.35625"/>
      </g>
     </g>
    </g>
    <g id="text_3">
     <!-- Total Buffer Size -->
     <g transform="translate(173.356875 381.070312)scale(0.2 -0.2)">
      <defs>
       <path d="M -0.296875 72.90625 
L 61.375 72.90625 
L 61.375 64.59375 
L 35.5 64.59375 
L 35.5 0 
L 25.59375 0 
L 25.59375 64.59375 
L -0.296875 64.59375 
z
" id="DejaVuSans-84"/>
       <path d="M 30.609375 48.390625 
Q 23.390625 48.390625 19.1875 42.75 
Q 14.984375 37.109375 14.984375 27.296875 
Q 14.984375 17.484375 19.15625 11.84375 
Q 23.34375 6.203125 30.609375 6.203125 
Q 37.796875 6.203125 41.984375 11.859375 
Q 46.1875 17.53125 46.1875 27.296875 
Q 46.1875 37.015625 41.984375 42.703125 
Q 37.796875 48.390625 30.609375 48.390625 
z
M 30.609375 56 
Q 42.328125 56 49.015625 48.375 
Q 55.71875 40.765625 55.71875 27.296875 
Q 55.71875 13.875 49.015625 6.21875 
Q 42.328125 -1.421875 30.609375 -1.421875 
Q 18.84375 -1.421875 12.171875 6.21875 
Q 5.515625 13.875 5.515625 27.296875 
Q 5.515625 40.765625 12.171875 48.375 
Q 18.84375 56 30.609375 56 
z
" id="DejaVuSans-111"/>
       <path d="M 18.3125 70.21875 
L 18.3125 54.6875 
L 36.8125 54.6875 
L 36.8125 47.703125 
L 18.3125 47.703125 
L 18.3125 18.015625 
Q 18.3125 11.328125 20.140625 9.421875 
Q 21.96875 7.515625 27.59375 7.515625 
L 36.8125 7.515625 
L 36.8125 0 
L 27.59375 0 
Q 17.1875 0 13.234375 3.875 
Q 9.28125 7.765625 9.28125 18.015625 
L 9.28125 47.703125 
L 2.6875 47.703125 
L 2.6875 54.6875 
L 9.28125 54.6875 
L 9.28125 70.21875 
z
" id="DejaVuSans-116"/>
       <path d="M 34.28125 27.484375 
Q 23.390625 27.484375 19.1875 25 
Q 14.984375 22.515625 14.984375 16.5 
Q 14.984375 11.71875 18.140625 8.90625 
Q 21.296875 6.109375 26.703125 6.109375 
Q 34.1875 6.109375 38.703125 11.40625 
Q 43.21875 16.703125 43.21875 25.484375 
L 43.21875 27.484375 
z
M 52.203125 31.203125 
L 52.203125 0 
L 43.21875 0 
L 43.21875 8.296875 
Q 40.140625 3.328125 35.546875 0.953125 
Q 30.953125 -1.421875 24.3125 -1.421875 
Q 15.921875 -1.421875 10.953125 3.296875 
Q 6 8.015625 6 15.921875 
Q 6 25.140625 12.171875 29.828125 
Q 18.359375 34.515625 30.609375 34.515625 
L 43.21875 34.515625 
L 43.21875 35.40625 
Q 43.21875 41.609375 39.140625 45 
Q 35.0625 48.390625 27.6875 48.390625 
Q 23 48.390625 18.546875 47.265625 
Q 14.109375 46.140625 10.015625 43.890625 
L 10.015625 52.203125 
Q 14.9375 54.109375 19.578125 55.046875 
Q 24.21875 56 28.609375 56 
Q 40.484375 56 46.34375 49.84375 
Q 52.203125 43.703125 52.203125 31.203125 
z
" id="DejaVuSans-97"/>
       <path d="M 9.421875 75.984375 
L 18.40625 75.984375 
L 18.40625 0 
L 9.421875 0 
z
" id="DejaVuSans-108"/>
       <path d="M 19.671875 34.8125 
L 19.671875 8.109375 
L 35.5 8.109375 
Q 43.453125 8.109375 47.28125 11.40625 
Q 51.125 14.703125 51.125 21.484375 
Q 51.125 28.328125 47.28125 31.5625 
Q 43.453125 34.8125 35.5 34.8125 
z
M 19.671875 64.796875 
L 19.671875 42.828125 
L 34.28125 42.828125 
Q 41.5 42.828125 45.03125 45.53125 
Q 48.578125 48.25 48.578125 53.8125 
Q 48.578125 59.328125 45.03125 62.0625 
Q 41.5 64.796875 34.28125 64.796875 
z
M 9.8125 72.90625 
L 35.015625 72.90625 
Q 46.296875 72.90625 52.390625 68.21875 
Q 58.5 63.53125 58.5 54.890625 
Q 58.5 48.1875 55.375 44.234375 
Q 52.25 40.28125 46.1875 39.3125 
Q 53.46875 37.75 57.5 32.78125 
Q 61.53125 27.828125 61.53125 20.40625 
Q 61.53125 10.640625 54.890625 5.3125 
Q 48.25 0 35.984375 0 
L 9.8125 0 
z
" id="DejaVuSans-66"/>
       <path d="M 8.5 21.578125 
L 8.5 54.6875 
L 17.484375 54.6875 
L 17.484375 21.921875 
Q 17.484375 14.15625 20.5 10.265625 
Q 23.53125 6.390625 29.59375 6.390625 
Q 36.859375 6.390625 41.078125 11.03125 
Q 45.3125 15.671875 45.3125 23.6875 
L 45.3125 54.6875 
L 54.296875 54.6875 
L 54.296875 0 
L 45.3125 0 
L 45.3125 8.40625 
Q 42.046875 3.421875 37.71875 1 
Q 33.40625 -1.421875 27.6875 -1.421875 
Q 18.265625 -1.421875 13.375 4.4375 
Q 8.5 10.296875 8.5 21.578125 
z
M 31.109375 56 
z
" id="DejaVuSans-117"/>
       <path d="M 37.109375 75.984375 
L 37.109375 68.5 
L 28.515625 68.5 
Q 23.6875 68.5 21.796875 66.546875 
Q 19.921875 64.59375 19.921875 59.515625 
L 19.921875 54.6875 
L 34.71875 54.6875 
L 34.71875 47.703125 
L 19.921875 47.703125 
L 19.921875 0 
L 10.890625 0 
L 10.890625 47.703125 
L 2.296875 47.703125 
L 2.296875 54.6875 
L 10.890625 54.6875 
L 10.890625 58.5 
Q 10.890625 67.625 15.140625 71.796875 
Q 19.390625 75.984375 28.609375 75.984375 
z
" id="DejaVuSans-102"/>
       <path d="M 56.203125 29.59375 
L 56.203125 25.203125 
L 14.890625 25.203125 
Q 15.484375 15.921875 20.484375 11.0625 
Q 25.484375 6.203125 34.421875 6.203125 
Q 39.59375 6.203125 44.453125 7.46875 
Q 49.3125 8.734375 54.109375 11.28125 
L 54.109375 2.78125 
Q 49.265625 0.734375 44.1875 -0.34375 
Q 39.109375 -1.421875 33.890625 -1.421875 
Q 20.796875 -1.421875 13.15625 6.1875 
Q 5.515625 13.8125 5.515625 26.8125 
Q 5.515625 40.234375 12.765625 48.109375 
Q 20.015625 56 32.328125 56 
Q 43.359375 56 49.78125 48.890625 
Q 56.203125 41.796875 56.203125 29.59375 
z
M 47.21875 32.234375 
Q 47.125 39.59375 43.09375 43.984375 
Q 39.0625 48.390625 32.421875 48.390625 
Q 24.90625 48.390625 20.390625 44.140625 
Q 15.875 39.890625 15.1875 32.171875 
z
" id="DejaVuSans-101"/>
       <path d="M 41.109375 46.296875 
Q 39.59375 47.171875 37.8125 47.578125 
Q 36.03125 48 33.890625 48 
Q 26.265625 48 22.1875 43.046875 
Q 18.109375 38.09375 18.109375 28.8125 
L 18.109375 0 
L 9.078125 0 
L 9.078125 54.6875 
L 18.109375 54.6875 
L 18.109375 46.1875 
Q 20.953125 51.171875 25.484375 53.578125 
Q 30.03125 56 36.53125 56 
Q 37.453125 56 38.578125 55.875 
Q 39.703125 55.765625 41.0625 55.515625 
z
" id="DejaVuSans-114"/>
       <path d="M 53.515625 70.515625 
L 53.515625 60.890625 
Q 47.90625 63.578125 42.921875 64.890625 
Q 37.9375 66.21875 33.296875 66.21875 
Q 25.25 66.21875 20.875 63.09375 
Q 16.5 59.96875 16.5 54.203125 
Q 16.5 49.359375 19.40625 46.890625 
Q 22.3125 44.4375 30.421875 42.921875 
L 36.375 41.703125 
Q 47.40625 39.59375 52.65625 34.296875 
Q 57.90625 29 57.90625 20.125 
Q 57.90625 9.515625 50.796875 4.046875 
Q 43.703125 -1.421875 29.984375 -1.421875 
Q 24.8125 -1.421875 18.96875 -0.25 
Q 13.140625 0.921875 6.890625 3.21875 
L 6.890625 13.375 
Q 12.890625 10.015625 18.65625 8.296875 
Q 24.421875 6.59375 29.984375 6.59375 
Q 38.421875 6.59375 43.015625 9.90625 
Q 47.609375 13.234375 47.609375 19.390625 
Q 47.609375 24.75 44.3125 27.78125 
Q 41.015625 30.8125 33.5 32.328125 
L 27.484375 33.5 
Q 16.453125 35.6875 11.515625 40.375 
Q 6.59375 45.0625 6.59375 53.421875 
Q 6.59375 63.09375 13.40625 68.65625 
Q 20.21875 74.21875 32.171875 74.21875 
Q 37.3125 74.21875 42.625 73.28125 
Q 47.953125 72.359375 53.515625 70.515625 
z
" id="DejaVuSans-83"/>
       <path d="M 9.421875 54.6875 
L 18.40625 54.6875 
L 18.40625 0 
L 9.421875 0 
z
M 9.421875 75.984375 
L 18.40625 75.984375 
L 18.40625 64.59375 
L 9.421875 64.59375 
z
" id="DejaVuSans-105"/>
       <path d="M 5.515625 54.6875 
L 48.1875 54.6875 
L 48.1875 46.484375 
L 14.40625 7.171875 
L 48.1875 7.171875 
L 48.1875 0 
L 4.296875 0 
L 4.296875 8.203125 
L 38.09375 47.515625 
L 5.515625 47.515625 
z
" id="DejaVuSans-122"/>
      </defs>
      <use xlink:href="#DejaVuSans-84"/>
      <use x="44.083984" xlink:href="#DejaVuSans-111"/>
      <use x="105.265625" xlink:href="#DejaVuSans-116"/>
      <use x="144.474609" xlink:href="#DejaVuSans-97"/>
      <use x="205.753906" xlink:href="#DejaVuSans-108"/>
      <use x="233.537109" xlink:href="#DejaVuSans-32"/>
      <use x="265.324219" xlink:href="#DejaVuSans-66"/>
      <use x="333.927734" xlink:href="#DejaVuSans-117"/>
      <use x="397.306641" xlink:href="#DejaVuSans-102"/>
      <use x="432.511719" xlink:href="#DejaVuSans-102"/>
      <use x="467.716797" xlink:href="#DejaVuSans-101"/>
      <use x="529.240234" xlink:href="#DejaVuSans-114"/>
      <use x="570.353516" xlink:href="#DejaVuSans-32"/>
      <use x="602.140625" xlink:href="#DejaVuSans-83"/>
      <use x="665.617188" xlink:href="#DejaVuSans-105"/>
      <use x="693.400391" xlink:href="#DejaVuSans-122"/>
      <use x="745.890625" xlink:href="#DejaVuSans-101"/>
     </g>
    </g>
   </g>
   <g id="matplotlib.axis_2">
    <g id="ytick_1">
     <g id="line2d_12">
      <path clip-path="url(#pe5a09bc7e2)" d="M 66.1875 340.35625 
L 442.0075 340.35625 
" style="fill:none;stroke:#b0b0b0;stroke-linecap:square;stroke-width:0.8;"/>
     </g>
     <g id="line2d_13">
      <defs>
       <path d="M 0 0 
L -3.5 0 
" id="mc3ce260a5b" style="stroke:#000000;stroke-width:0.8;"/>
      </defs>
      <g>
       <use style="stroke:#000000;stroke-width:0.8;" x="66.1875" xlink:href="#mc3ce260a5b" y="340.35625"/>
      </g>
     </g>
     <g id="text_4">
      <!-- 0 -->
      <g transform="translate(49.64375 346.055078)scale(0.15 -0.15)">
       <defs>
        <path d="M 31.78125 66.40625 
Q 24.171875 66.40625 20.328125 58.90625 
Q 16.5 51.421875 16.5 36.375 
Q 16.5 21.390625 20.328125 13.890625 
Q 24.171875 6.390625 31.78125 6.390625 
Q 39.453125 6.390625 43.28125 13.890625 
Q 47.125 21.390625 47.125 36.375 
Q 47.125 51.421875 43.28125 58.90625 
Q 39.453125 66.40625 31.78125 66.40625 
z
M 31.78125 74.21875 
Q 44.046875 74.21875 50.515625 64.515625 
Q 56.984375 54.828125 56.984375 36.375 
Q 56.984375 17.96875 50.515625 8.265625 
Q 44.046875 -1.421875 31.78125 -1.421875 
Q 19.53125 -1.421875 13.0625 8.265625 
Q 6.59375 17.96875 6.59375 36.375 
Q 6.59375 54.828125 13.0625 64.515625 
Q 19.53125 74.21875 31.78125 74.21875 
z
" id="DejaVuSans-48"/>
       </defs>
       <use xlink:href="#DejaVuSans-48"/>
      </g>
     </g>
    </g>
    <g id="ytick_2">
     <g id="line2d_14">
      <path clip-path="url(#pe5a09bc7e2)" d="M 66.1875 278.57225 
L 442.0075 278.57225 
" style="fill:none;stroke:#b0b0b0;stroke-linecap:square;stroke-width:0.8;"/>
     </g>
     <g id="line2d_15">
      <g>
       <use style="stroke:#000000;stroke-width:0.8;" x="66.1875" xlink:href="#mc3ce260a5b" y="278.57225"/>
      </g>
     </g>
     <g id="text_5">
      <!-- 20 -->
      <g transform="translate(40.1 284.271078)scale(0.15 -0.15)">
       <use xlink:href="#DejaVuSans-50"/>
       <use x="63.623047" xlink:href="#DejaVuSans-48"/>
      </g>
     </g>
    </g>
    <g id="ytick_3">
     <g id="line2d_16">
      <path clip-path="url(#pe5a09bc7e2)" d="M 66.1875 216.78825 
L 442.0075 216.78825 
" style="fill:none;stroke:#b0b0b0;stroke-linecap:square;stroke-width:0.8;"/>
     </g>
     <g id="line2d_17">
      <g>
       <use style="stroke:#000000;stroke-width:0.8;" x="66.1875" xlink:href="#mc3ce260a5b" y="216.78825"/>
      </g>
     </g>
     <g id="text_6">
      <!-- 40 -->
      <g transform="translate(40.1 222.487078)scale(0.15 -0.15)">
       <defs>
        <path d="M 37.796875 64.3125 
L 12.890625 25.390625 
L 37.796875 25.390625 
z
M 35.203125 72.90625 
L 47.609375 72.90625 
L 47.609375 25.390625 
L 58.015625 25.390625 
L 58.015625 17.1875 
L 47.609375 17.1875 
L 47.609375 0 
L 37.796875 0 
L 37.796875 17.1875 
L 4.890625 17.1875 
L 4.890625 26.703125 
z
" id="DejaVuSans-52"/>
       </defs>
       <use xlink:href="#DejaVuSans-52"/>
       <use x="63.623047" xlink:href="#DejaVuSans-48"/>
      </g>
     </g>
    </g>
    <g id="ytick_4">
     <g id="line2d_18">
      <path clip-path="url(#pe5a09bc7e2)" d="M 66.1875 155.00425 
L 442.0075 155.00425 
" style="fill:none;stroke:#b0b0b0;stroke-linecap:square;stroke-width:0.8;"/>
     </g>
     <g id="line2d_19">
      <g>
       <use style="stroke:#000000;stroke-width:0.8;" x="66.1875" xlink:href="#mc3ce260a5b" y="155.00425"/>
      </g>
     </g>
     <g id="text_7">
      <!-- 60 -->
      <g transform="translate(40.1 160.703078)scale(0.15 -0.15)">
       <use xlink:href="#DejaVuSans-54"/>
       <use x="63.623047" xlink:href="#DejaVuSans-48"/>
      </g>
     </g>
    </g>
    <g id="ytick_5">
     <g id="line2d_20">
      <path clip-path="url(#pe5a09bc7e2)" d="M 66.1875 93.22025 
L 442.0075 93.22025 
" style="fill:none;stroke:#b0b0b0;stroke-linecap:square;stroke-width:0.8;"/>
     </g>
     <g id="line2d_21">
      <g>
       <use style="stroke:#000000;stroke-width:0.8;" x="66.1875" xlink:href="#mc3ce260a5b" y="93.22025"/>
      </g>
     </g>
     <g id="text_8">
      <!-- 80 -->
      <g transform="translate(40.1 98.919078)scale(0.15 -0.15)">
       <defs>
        <path d="M 31.78125 34.625 
Q 24.75 34.625 20.71875 30.859375 
Q 16.703125 27.09375 16.703125 20.515625 
Q 16.703125 13.921875 20.71875 10.15625 
Q 24.75 6.390625 31.78125 6.390625 
Q 38.8125 6.390625 42.859375 10.171875 
Q 46.921875 13.96875 46.921875 20.515625 
Q 46.921875 27.09375 42.890625 30.859375 
Q 38.875 34.625 31.78125 34.625 
z
M 21.921875 38.8125 
Q 15.578125 40.375 12.03125 44.71875 
Q 8.5 49.078125 8.5 55.328125 
Q 8.5 64.0625 14.71875 69.140625 
Q 20.953125 74.21875 31.78125 74.21875 
Q 42.671875 74.21875 48.875 69.140625 
Q 55.078125 64.0625 55.078125 55.328125 
Q 55.078125 49.078125 51.53125 44.71875 
Q 48 40.375 41.703125 38.8125 
Q 48.828125 37.15625 52.796875 32.3125 
Q 56.78125 27.484375 56.78125 20.515625 
Q 56.78125 9.90625 50.3125 4.234375 
Q 43.84375 -1.421875 31.78125 -1.421875 
Q 19.734375 -1.421875 13.25 4.234375 
Q 6.78125 9.90625 6.78125 20.515625 
Q 6.78125 27.484375 10.78125 32.3125 
Q 14.796875 37.15625 21.921875 38.8125 
z
M 18.3125 54.390625 
Q 18.3125 48.734375 21.84375 45.5625 
Q 25.390625 42.390625 31.78125 42.390625 
Q 38.140625 42.390625 41.71875 45.5625 
Q 45.3125 48.734375 45.3125 54.390625 
Q 45.3125 60.0625 41.71875 63.234375 
Q 38.140625 66.40625 31.78125 66.40625 
Q 25.390625 66.40625 21.84375 63.234375 
Q 18.3125 60.0625 18.3125 54.390625 
z
" id="DejaVuSans-56"/>
       </defs>
       <use xlink:href="#DejaVuSans-56"/>
       <use x="63.623047" xlink:href="#DejaVuSans-48"/>
      </g>
     </g>
    </g>
    <g id="ytick_6">
     <g id="line2d_22">
      <path clip-path="url(#pe5a09bc7e2)" d="M 66.1875 31.43625 
L 442.0075 31.43625 
" style="fill:none;stroke:#b0b0b0;stroke-linecap:square;stroke-width:0.8;"/>
     </g>
     <g id="line2d_23">
      <g>
       <use style="stroke:#000000;stroke-width:0.8;" x="66.1875" xlink:href="#mc3ce260a5b" y="31.43625"/>
      </g>
     </g>
     <g id="text_9">
      <!-- 100 -->
      <g transform="translate(30.55625 37.135078)scale(0.15 -0.15)">
       <use xlink:href="#DejaVuSans-49"/>
       <use x="63.623047" xlink:href="#DejaVuSans-48"/>
       <use x="127.246094" xlink:href="#DejaVuSans-48"/>
      </g>
     </g>
    </g>
    <g id="text_10">
     <!-- Cache Miss (%) -->
     <g transform="translate(22.396875 262.482187)rotate(-90)scale(0.2 -0.2)">
      <defs>
       <path d="M 64.40625 67.28125 
L 64.40625 56.890625 
Q 59.421875 61.53125 53.78125 63.8125 
Q 48.140625 66.109375 41.796875 66.109375 
Q 29.296875 66.109375 22.65625 58.46875 
Q 16.015625 50.828125 16.015625 36.375 
Q 16.015625 21.96875 22.65625 14.328125 
Q 29.296875 6.6875 41.796875 6.6875 
Q 48.140625 6.6875 53.78125 8.984375 
Q 59.421875 11.28125 64.40625 15.921875 
L 64.40625 5.609375 
Q 59.234375 2.09375 53.4375 0.328125 
Q 47.65625 -1.421875 41.21875 -1.421875 
Q 24.65625 -1.421875 15.125 8.703125 
Q 5.609375 18.84375 5.609375 36.375 
Q 5.609375 53.953125 15.125 64.078125 
Q 24.65625 74.21875 41.21875 74.21875 
Q 47.75 74.21875 53.53125 72.484375 
Q 59.328125 70.75 64.40625 67.28125 
z
" id="DejaVuSans-67"/>
       <path d="M 48.78125 52.59375 
L 48.78125 44.1875 
Q 44.96875 46.296875 41.140625 47.34375 
Q 37.3125 48.390625 33.40625 48.390625 
Q 24.65625 48.390625 19.8125 42.84375 
Q 14.984375 37.3125 14.984375 27.296875 
Q 14.984375 17.28125 19.8125 11.734375 
Q 24.65625 6.203125 33.40625 6.203125 
Q 37.3125 6.203125 41.140625 7.25 
Q 44.96875 8.296875 48.78125 10.40625 
L 48.78125 2.09375 
Q 45.015625 0.34375 40.984375 -0.53125 
Q 36.96875 -1.421875 32.421875 -1.421875 
Q 20.0625 -1.421875 12.78125 6.34375 
Q 5.515625 14.109375 5.515625 27.296875 
Q 5.515625 40.671875 12.859375 48.328125 
Q 20.21875 56 33.015625 56 
Q 37.15625 56 41.109375 55.140625 
Q 45.0625 54.296875 48.78125 52.59375 
z
" id="DejaVuSans-99"/>
       <path d="M 54.890625 33.015625 
L 54.890625 0 
L 45.90625 0 
L 45.90625 32.71875 
Q 45.90625 40.484375 42.875 44.328125 
Q 39.84375 48.1875 33.796875 48.1875 
Q 26.515625 48.1875 22.3125 43.546875 
Q 18.109375 38.921875 18.109375 30.90625 
L 18.109375 0 
L 9.078125 0 
L 9.078125 75.984375 
L 18.109375 75.984375 
L 18.109375 46.1875 
Q 21.34375 51.125 25.703125 53.5625 
Q 30.078125 56 35.796875 56 
Q 45.21875 56 50.046875 50.171875 
Q 54.890625 44.34375 54.890625 33.015625 
z
" id="DejaVuSans-104"/>
       <path d="M 44.28125 53.078125 
L 44.28125 44.578125 
Q 40.484375 46.53125 36.375 47.5 
Q 32.28125 48.484375 27.875 48.484375 
Q 21.1875 48.484375 17.84375 46.4375 
Q 14.5 44.390625 14.5 40.28125 
Q 14.5 37.15625 16.890625 35.375 
Q 19.28125 33.59375 26.515625 31.984375 
L 29.59375 31.296875 
Q 39.15625 29.25 43.1875 25.515625 
Q 47.21875 21.78125 47.21875 15.09375 
Q 47.21875 7.46875 41.1875 3.015625 
Q 35.15625 -1.421875 24.609375 -1.421875 
Q 20.21875 -1.421875 15.453125 -0.5625 
Q 10.6875 0.296875 5.421875 2 
L 5.421875 11.28125 
Q 10.40625 8.6875 15.234375 7.390625 
Q 20.0625 6.109375 24.8125 6.109375 
Q 31.15625 6.109375 34.5625 8.28125 
Q 37.984375 10.453125 37.984375 14.40625 
Q 37.984375 18.0625 35.515625 20.015625 
Q 33.0625 21.96875 24.703125 23.78125 
L 21.578125 24.515625 
Q 13.234375 26.265625 9.515625 29.90625 
Q 5.8125 33.546875 5.8125 39.890625 
Q 5.8125 47.609375 11.28125 51.796875 
Q 16.75 56 26.8125 56 
Q 31.78125 56 36.171875 55.265625 
Q 40.578125 54.546875 44.28125 53.078125 
z
" id="DejaVuSans-115"/>
       <path d="M 31 75.875 
Q 24.46875 64.65625 21.28125 53.65625 
Q 18.109375 42.671875 18.109375 31.390625 
Q 18.109375 20.125 21.3125 9.0625 
Q 24.515625 -2 31 -13.1875 
L 23.1875 -13.1875 
Q 15.875 -1.703125 12.234375 9.375 
Q 8.59375 20.453125 8.59375 31.390625 
Q 8.59375 42.28125 12.203125 53.3125 
Q 15.828125 64.359375 23.1875 75.875 
z
" id="DejaVuSans-40"/>
       <path d="M 72.703125 32.078125 
Q 68.453125 32.078125 66.03125 28.46875 
Q 63.625 24.859375 63.625 18.40625 
Q 63.625 12.0625 66.03125 8.421875 
Q 68.453125 4.78125 72.703125 4.78125 
Q 76.859375 4.78125 79.265625 8.421875 
Q 81.6875 12.0625 81.6875 18.40625 
Q 81.6875 24.8125 79.265625 28.4375 
Q 76.859375 32.078125 72.703125 32.078125 
z
M 72.703125 38.28125 
Q 80.421875 38.28125 84.953125 32.90625 
Q 89.5 27.546875 89.5 18.40625 
Q 89.5 9.28125 84.9375 3.921875 
Q 80.375 -1.421875 72.703125 -1.421875 
Q 64.890625 -1.421875 60.34375 3.921875 
Q 55.8125 9.28125 55.8125 18.40625 
Q 55.8125 27.59375 60.375 32.9375 
Q 64.9375 38.28125 72.703125 38.28125 
z
M 22.3125 68.015625 
Q 18.109375 68.015625 15.6875 64.375 
Q 13.28125 60.75 13.28125 54.390625 
Q 13.28125 47.953125 15.671875 44.328125 
Q 18.0625 40.71875 22.3125 40.71875 
Q 26.5625 40.71875 28.96875 44.328125 
Q 31.390625 47.953125 31.390625 54.390625 
Q 31.390625 60.6875 28.953125 64.34375 
Q 26.515625 68.015625 22.3125 68.015625 
z
M 66.40625 74.21875 
L 74.21875 74.21875 
L 28.609375 -1.421875 
L 20.796875 -1.421875 
z
M 22.3125 74.21875 
Q 30.03125 74.21875 34.609375 68.875 
Q 39.203125 63.53125 39.203125 54.390625 
Q 39.203125 45.171875 34.640625 39.84375 
Q 30.078125 34.515625 22.3125 34.515625 
Q 14.546875 34.515625 10.03125 39.859375 
Q 5.515625 45.21875 5.515625 54.390625 
Q 5.515625 63.484375 10.046875 68.84375 
Q 14.59375 74.21875 22.3125 74.21875 
z
" id="DejaVuSans-37"/>
       <path d="M 8.015625 75.875 
L 15.828125 75.875 
Q 23.140625 64.359375 26.78125 53.3125 
Q 30.421875 42.28125 30.421875 31.390625 
Q 30.421875 20.453125 26.78125 9.375 
Q 23.140625 -1.703125 15.828125 -13.1875 
L 8.015625 -13.1875 
Q 14.5 -2 17.703125 9.0625 
Q 20.90625 20.125 20.90625 31.390625 
Q 20.90625 42.671875 17.703125 53.65625 
Q 14.5 64.65625 8.015625 75.875 
z
" id="DejaVuSans-41"/>
      </defs>
      <use xlink:href="#DejaVuSans-67"/>
      <use x="69.824219" xlink:href="#DejaVuSans-97"/>
      <use x="131.103516" xlink:href="#DejaVuSans-99"/>
      <use x="186.083984" xlink:href="#DejaVuSans-104"/>
      <use x="249.462891" xlink:href="#DejaVuSans-101"/>
      <use x="310.986328" xlink:href="#DejaVuSans-32"/>
      <use x="342.773438" xlink:href="#DejaVuSans-77"/>
      <use x="429.052734" xlink:href="#DejaVuSans-105"/>
      <use x="456.835938" xlink:href="#DejaVuSans-115"/>
      <use x="508.935547" xlink:href="#DejaVuSans-115"/>
      <use x="561.035156" xlink:href="#DejaVuSans-32"/>
      <use x="592.822266" xlink:href="#DejaVuSans-40"/>
      <use x="631.835938" xlink:href="#DejaVuSans-37"/>
      <use x="726.855469" xlink:href="#DejaVuSans-41"/>
     </g>
    </g>
   </g>
   <g id="line2d_24">
    <path clip-path="url(#pe5a09bc7e2)" d="M -1 340.348946 
L 0.002988 340.349524 
L 41.760766 340.152011 
L 66.1875 339.935453 
L 83.518544 339.308863 
L 96.961546 338.162422 
L 107.945278 336.633631 
L 117.231891 335.547518 
L 125.276321 333.998103 
L 138.719323 330.90589 
L 149.703056 322.106459 
L 158.989669 301.302469 
L 167.034099 276.00116 
L 208.791877 200.779949 
L 250.549655 158.17582 
L 292.307433 142.078899 
" style="fill:none;stroke:#1f77b4;stroke-linecap:square;stroke-width:1.5;"/>
   </g>
   <g id="line2d_25">
    <path clip-path="url(#pe5a09bc7e2)" d="M 0.002988 340.338912 
L 41.760766 340.349235 
L 83.518544 340.122526 
L 107.945278 339.804673 
L 125.276321 338.120594 
L 138.719323 335.799107 
L 149.703056 330.576833 
L 158.989669 314.711493 
L 167.034099 283.957438 
L 180.477101 268.552119 
L 191.460833 219.54058 
L 200.747447 160.637 
L 208.791877 199.360306 
L 250.549655 123.673624 
L 292.307433 95.606494 
L 334.06521 82.534038 
" style="fill:none;stroke:#ff7f0e;stroke-linecap:square;stroke-width:1.5;"/>
   </g>
   <g id="line2d_26">
    <path clip-path="url(#pe5a09bc7e2)" d="M 24.429722 340.341278 
L 66.1875 340.343544 
L 107.945278 340.07504 
L 132.372012 338.85072 
L 149.703056 334.805325 
L 163.146057 318.461926 
L 174.12979 264.184501 
L 183.416403 220.423208 
L 191.460833 296.549406 
L 204.903835 226.389682 
L 215.887567 135.656119 
L 225.174181 144.445696 
L 233.218611 114.934805 
L 274.976389 75.556626 
L 316.734167 59.056329 
L 358.491944 53.200636 
" style="fill:none;stroke:#2ca02c;stroke-linecap:square;stroke-width:1.5;"/>
   </g>
   <g id="line2d_27">
    <path clip-path="url(#pe5a09bc7e2)" d="M 41.760766 340.340682 
L 83.518544 340.335504 
L 125.276321 339.577738 
L 149.703056 334.846726 
L 167.034099 324.379604 
L 180.477101 209.631369 
L 191.460833 270.53172 
L 200.747447 144.957223 
L 208.791877 252.98827 
L 222.234879 101.913743 
L 233.218611 118.47362 
L 242.505224 101.02857 
L 250.549655 91.788765 
L 292.307433 63.975614 
L 334.06521 54.09093 
L 375.822988 50.365242 
" style="fill:none;stroke:#d62728;stroke-linecap:square;stroke-width:1.5;"/>
   </g>
   <g id="line2d_28">
    <path clip-path="url(#pe5a09bc7e2)" d="M 55.203768 340.344674 
L 96.961546 340.280107 
L 138.719323 338.941226 
L 163.146057 331.132639 
L 180.477101 311.276191 
L 193.920103 278.661928 
L 204.903835 196.662137 
L 214.190448 96.939594 
L 222.234879 154.93347 
L 235.677881 101.690645 
L 246.661613 94.20278 
L 255.948226 84.768686 
L 263.992657 76.94001 
L 305.750434 58.605008 
L 347.508212 52.29515 
L 389.26599 49.937837 
" style="fill:none;stroke:#9467bd;stroke-linecap:square;stroke-width:1.5;"/>
   </g>
   <g id="line2d_29">
    <path clip-path="url(#pe5a09bc7e2)" d="M -1 340.21335 
L 66.1875 340.344611 
L 107.945278 340.236535 
L 149.703056 335.962039 
L 174.12979 286.604849 
L 191.460833 283.250603 
L 204.903835 223.149059 
L 215.887567 109.595747 
L 225.174181 104.380449 
L 233.218611 102.684727 
L 246.661613 92.408609 
L 257.645345 81.081561 
L 266.931959 75.548709 
L 274.976389 72.149331 
L 316.734167 55.450697 
L 358.491944 51.29874 
L 400.249722 49.818882 
" style="fill:none;stroke:#8c564b;stroke-linecap:square;stroke-width:1.5;"/>
   </g>
   <g id="line2d_30">
    <path clip-path="url(#pe5a09bc7e2)" d="M 75.474113 340.331724 
L 117.231891 340.162365 
L 158.989669 331.810007 
L 183.416403 248.712043 
L 200.747447 260.563041 
L 214.190448 106.40723 
L 225.174181 103.77578 
L 234.460794 94.87021 
L 242.505224 95.352069 
L 255.948226 81.539354 
L 266.931959 73.201309 
L 276.218572 69.229398 
L 284.263002 66.818722 
L 326.02078 53.49561 
L 367.778558 50.455955 
L 409.536336 49.645174 
" style="fill:none;stroke:#e377c2;stroke-linecap:square;stroke-width:1.5;"/>
   </g>
   <g id="line2d_31">
    <path clip-path="url(#pe5a09bc7e2)" d="M 83.518544 340.342056 
L 125.276321 339.210763 
L 167.034099 332.873269 
L 191.460833 273.953904 
L 208.791877 128.797699 
L 222.234879 108.286945 
L 233.218611 93.325035 
L 242.505224 90.627938 
L 250.549655 84.277034 
L 263.992657 75.386604 
L 274.976389 70.084099 
L 284.263002 66.448147 
L 292.307433 62.747516 
L 334.06521 52.262588 
L 375.822988 50.196457 
L 417.580766 49.304478 
" style="fill:none;stroke:#7f7f7f;stroke-linecap:square;stroke-width:1.5;"/>
   </g>
   <g id="line2d_32">
    <path clip-path="url(#pe5a09bc7e2)" d="M 167.034099 340.35625 
L 167.034099 31.43625 
" style="fill:none;stroke:#2ca02c;stroke-linecap:square;stroke-width:3;"/>
   </g>
   <g id="patch_3">
    <path d="M 66.1875 340.35625 
L 66.1875 31.43625 
" style="fill:none;stroke:#000000;stroke-linecap:square;stroke-linejoin:miter;stroke-width:0.8;"/>
   </g>
   <g id="patch_4">
    <path d="M 442.0075 340.35625 
L 442.0075 31.43625 
" style="fill:none;stroke:#000000;stroke-linecap:square;stroke-linejoin:miter;stroke-width:0.8;"/>
   </g>
   <g id="patch_5">
    <path d="M 66.1875 340.35625 
L 442.0075 340.35625 
" style="fill:none;stroke:#000000;stroke-linecap:square;stroke-linejoin:miter;stroke-width:0.8;"/>
   </g>
   <g id="patch_6">
    <path d="M 66.1875 31.43625 
L 442.0075 31.43625 
" style="fill:none;stroke:#000000;stroke-linecap:square;stroke-linejoin:miter;stroke-width:0.8;"/>
   </g>
   <g id="text_11">
    <!-- L3 -->
    <g style="fill:#2ca02c;" transform="translate(163.082693 197.233906)rotate(-90)scale(0.19 -0.19)">
     <defs>
      <path d="M 9.8125 72.90625 
L 19.671875 72.90625 
L 19.671875 8.296875 
L 55.171875 8.296875 
L 55.171875 0 
L 9.8125 0 
z
" id="DejaVuSans-76"/>
      <path d="M 40.578125 39.3125 
Q 47.65625 37.796875 51.625 33 
Q 55.609375 28.21875 55.609375 21.1875 
Q 55.609375 10.40625 48.1875 4.484375 
Q 40.765625 -1.421875 27.09375 -1.421875 
Q 22.515625 -1.421875 17.65625 -0.515625 
Q 12.796875 0.390625 7.625 2.203125 
L 7.625 11.71875 
Q 11.71875 9.328125 16.59375 8.109375 
Q 21.484375 6.890625 26.8125 6.890625 
Q 36.078125 6.890625 40.9375 10.546875 
Q 45.796875 14.203125 45.796875 21.1875 
Q 45.796875 27.640625 41.28125 31.265625 
Q 36.765625 34.90625 28.71875 34.90625 
L 20.21875 34.90625 
L 20.21875 43.015625 
L 29.109375 43.015625 
Q 36.375 43.015625 40.234375 45.921875 
Q 44.09375 48.828125 44.09375 54.296875 
Q 44.09375 59.90625 40.109375 62.90625 
Q 36.140625 65.921875 28.71875 65.921875 
Q 24.65625 65.921875 20.015625 65.03125 
Q 15.375 64.15625 9.8125 62.3125 
L 9.8125 71.09375 
Q 15.4375 72.65625 20.34375 73.4375 
Q 25.25 74.21875 29.59375 74.21875 
Q 40.828125 74.21875 47.359375 69.109375 
Q 53.90625 64.015625 53.90625 55.328125 
Q 53.90625 49.265625 50.4375 45.09375 
Q 46.96875 40.921875 40.578125 39.3125 
z
" id="DejaVuSans-51"/>
     </defs>
     <use xlink:href="#DejaVuSans-76"/>
     <use x="55.712891" xlink:href="#DejaVuSans-51"/>
    </g>
   </g>
   <g id="text_12">
    <!-- Normal -->
    <g transform="translate(210.678125 25.43625)scale(0.24 -0.24)">
     <defs>
      <path d="M 9.8125 72.90625 
L 23.09375 72.90625 
L 55.421875 11.921875 
L 55.421875 72.90625 
L 64.984375 72.90625 
L 64.984375 0 
L 51.703125 0 
L 19.390625 60.984375 
L 19.390625 0 
L 9.8125 0 
z
" id="DejaVuSans-78"/>
      <path d="M 52 44.1875 
Q 55.375 50.25 60.0625 53.125 
Q 64.75 56 71.09375 56 
Q 79.640625 56 84.28125 50.015625 
Q 88.921875 44.046875 88.921875 33.015625 
L 88.921875 0 
L 79.890625 0 
L 79.890625 32.71875 
Q 79.890625 40.578125 77.09375 44.375 
Q 74.3125 48.1875 68.609375 48.1875 
Q 61.625 48.1875 57.5625 43.546875 
Q 53.515625 38.921875 53.515625 30.90625 
L 53.515625 0 
L 44.484375 0 
L 44.484375 32.71875 
Q 44.484375 40.625 41.703125 44.40625 
Q 38.921875 48.1875 33.109375 48.1875 
Q 26.21875 48.1875 22.15625 43.53125 
Q 18.109375 38.875 18.109375 30.90625 
L 18.109375 0 
L 9.078125 0 
L 9.078125 54.6875 
L 18.109375 54.6875 
L 18.109375 46.1875 
Q 21.1875 51.21875 25.484375 53.609375 
Q 29.78125 56 35.6875 56 
Q 41.65625 56 45.828125 52.96875 
Q 50 49.953125 52 44.1875 
z
" id="DejaVuSans-109"/>
     </defs>
     <use xlink:href="#DejaVuSans-78"/>
     <use x="74.804688" xlink:href="#DejaVuSans-111"/>
     <use x="135.986328" xlink:href="#DejaVuSans-114"/>
     <use x="175.349609" xlink:href="#DejaVuSans-109"/>
     <use x="272.761719" xlink:href="#DejaVuSans-97"/>
     <use x="334.041016" xlink:href="#DejaVuSans-108"/>
    </g>
   </g>
   <g id="legend_1">
    <g id="patch_7">
     <path d="M 261.82775 333.41625 
L 432.2915 333.41625 
Q 435.0675 333.41625 435.0675 330.64025 
L 435.0675 250.5353 
Q 435.0675 247.7593 432.2915 247.7593 
L 261.82775 247.7593 
Q 259.05175 247.7593 259.05175 250.5353 
L 259.05175 330.64025 
Q 259.05175 333.41625 261.82775 333.41625 
z
" style="fill:#ffffff;opacity:0.8;stroke:#cccccc;stroke-linejoin:miter;"/>
    </g>
    <g id="line2d_33">
     <path d="M 264.60375 258.999931 
L 278.48375 258.999931 
" style="fill:none;stroke:#1f77b4;stroke-linecap:square;stroke-width:1.5;"/>
    </g>
    <g id="line2d_34"/>
    <g id="text_13">
     <!-- 1 cores -->
     <g transform="translate(289.58775 263.857931)scale(0.1388 -0.1388)">
      <use xlink:href="#DejaVuSans-49"/>
      <use x="63.623047" xlink:href="#DejaVuSans-32"/>
      <use x="95.410156" xlink:href="#DejaVuSans-99"/>
      <use x="150.390625" xlink:href="#DejaVuSans-111"/>
      <use x="211.572266" xlink:href="#DejaVuSans-114"/>
      <use x="250.435547" xlink:href="#DejaVuSans-101"/>
      <use x="311.958984" xlink:href="#DejaVuSans-115"/>
     </g>
    </g>
    <g id="line2d_35">
     <path d="M 264.60375 279.373169 
L 278.48375 279.373169 
" style="fill:none;stroke:#ff7f0e;stroke-linecap:square;stroke-width:1.5;"/>
    </g>
    <g id="line2d_36"/>
    <g id="text_14">
     <!-- 2 cores -->
     <g transform="translate(289.58775 284.231169)scale(0.1388 -0.1388)">
      <use xlink:href="#DejaVuSans-50"/>
      <use x="63.623047" xlink:href="#DejaVuSans-32"/>
      <use x="95.410156" xlink:href="#DejaVuSans-99"/>
      <use x="150.390625" xlink:href="#DejaVuSans-111"/>
      <use x="211.572266" xlink:href="#DejaVuSans-114"/>
      <use x="250.435547" xlink:href="#DejaVuSans-101"/>
      <use x="311.958984" xlink:href="#DejaVuSans-115"/>
     </g>
    </g>
    <g id="line2d_37">
     <path d="M 264.60375 299.746406 
L 278.48375 299.746406 
" style="fill:none;stroke:#2ca02c;stroke-linecap:square;stroke-width:1.5;"/>
    </g>
    <g id="line2d_38"/>
    <g id="text_15">
     <!-- 3 cores -->
     <g transform="translate(289.58775 304.604406)scale(0.1388 -0.1388)">
      <use xlink:href="#DejaVuSans-51"/>
      <use x="63.623047" xlink:href="#DejaVuSans-32"/>
      <use x="95.410156" xlink:href="#DejaVuSans-99"/>
      <use x="150.390625" xlink:href="#DejaVuSans-111"/>
      <use x="211.572266" xlink:href="#DejaVuSans-114"/>
      <use x="250.435547" xlink:href="#DejaVuSans-101"/>
      <use x="311.958984" xlink:href="#DejaVuSans-115"/>
     </g>
    </g>
    <g id="line2d_39">
     <path d="M 264.60375 320.119644 
L 278.48375 320.119644 
" style="fill:none;stroke:#d62728;stroke-linecap:square;stroke-width:1.5;"/>
    </g>
    <g id="line2d_40"/>
    <g id="text_16">
     <!-- 4 cores -->
     <g transform="translate(289.58775 324.977644)scale(0.1388 -0.1388)">
      <use xlink:href="#DejaVuSans-52"/>
      <use x="63.623047" xlink:href="#DejaVuSans-32"/>
      <use x="95.410156" xlink:href="#DejaVuSans-99"/>
      <use x="150.390625" xlink:href="#DejaVuSans-111"/>
      <use x="211.572266" xlink:href="#DejaVuSans-114"/>
      <use x="250.435547" xlink:href="#DejaVuSans-101"/>
      <use x="311.958984" xlink:href="#DejaVuSans-115"/>
     </g>
    </g>
    <g id="line2d_41">
     <path d="M 353.999625 258.999931 
L 367.879625 258.999931 
" style="fill:none;stroke:#9467bd;stroke-linecap:square;stroke-width:1.5;"/>
    </g>
    <g id="line2d_42"/>
    <g id="text_17">
     <!-- 5 cores -->
     <g transform="translate(378.983625 263.857931)scale(0.1388 -0.1388)">
      <use xlink:href="#DejaVuSans-53"/>
      <use x="63.623047" xlink:href="#DejaVuSans-32"/>
      <use x="95.410156" xlink:href="#DejaVuSans-99"/>
      <use x="150.390625" xlink:href="#DejaVuSans-111"/>
      <use x="211.572266" xlink:href="#DejaVuSans-114"/>
      <use x="250.435547" xlink:href="#DejaVuSans-101"/>
      <use x="311.958984" xlink:href="#DejaVuSans-115"/>
     </g>
    </g>
    <g id="line2d_43">
     <path d="M 353.999625 279.373169 
L 367.879625 279.373169 
" style="fill:none;stroke:#8c564b;stroke-linecap:square;stroke-width:1.5;"/>
    </g>
    <g id="line2d_44"/>
    <g id="text_18">
     <!-- 6 cores -->
     <g transform="translate(378.983625 284.231169)scale(0.1388 -0.1388)">
      <use xlink:href="#DejaVuSans-54"/>
      <use x="63.623047" xlink:href="#DejaVuSans-32"/>
      <use x="95.410156" xlink:href="#DejaVuSans-99"/>
      <use x="150.390625" xlink:href="#DejaVuSans-111"/>
      <use x="211.572266" xlink:href="#DejaVuSans-114"/>
      <use x="250.435547" xlink:href="#DejaVuSans-101"/>
      <use x="311.958984" xlink:href="#DejaVuSans-115"/>
     </g>
    </g>
    <g id="line2d_45">
     <path d="M 353.999625 299.746406 
L 367.879625 299.746406 
" style="fill:none;stroke:#e377c2;stroke-linecap:square;stroke-width:1.5;"/>
    </g>
    <g id="line2d_46"/>
    <g id="text_19">
     <!-- 7 cores -->
     <g transform="translate(378.983625 304.604406)scale(0.1388 -0.1388)">
      <defs>
       <path d="M 8.203125 72.90625 
L 55.078125 72.90625 
L 55.078125 68.703125 
L 28.609375 0 
L 18.3125 0 
L 43.21875 64.59375 
L 8.203125 64.59375 
z
" id="DejaVuSans-55"/>
      </defs>
      <use xlink:href="#DejaVuSans-55"/>
      <use x="63.623047" xlink:href="#DejaVuSans-32"/>
      <use x="95.410156" xlink:href="#DejaVuSans-99"/>
      <use x="150.390625" xlink:href="#DejaVuSans-111"/>
      <use x="211.572266" xlink:href="#DejaVuSans-114"/>
      <use x="250.435547" xlink:href="#DejaVuSans-101"/>
      <use x="311.958984" xlink:href="#DejaVuSans-115"/>
     </g>
    </g>
    <g id="line2d_47">
     <path d="M 353.999625 320.119644 
L 367.879625 320.119644 
" style="fill:none;stroke:#7f7f7f;stroke-linecap:square;stroke-width:1.5;"/>
    </g>
    <g id="line2d_48"/>
    <g id="text_20">
     <!-- 8 cores -->
     <g transform="translate(378.983625 324.977644)scale(0.1388 -0.1388)">
      <use xlink:href="#DejaVuSans-56"/>
      <use x="63.623047" xlink:href="#DejaVuSans-32"/>
      <use x="95.410156" xlink:href="#DejaVuSans-99"/>
      <use x="150.390625" xlink:href="#DejaVuSans-111"/>
      <use x="211.572266" xlink:href="#DejaVuSans-114"/>
      <use x="250.435547" xlink:href="#DejaVuSans-101"/>
      <use x="311.958984" xlink:href="#DejaVuSans-115"/>
     </g>
    </g>
   </g>
  </g>
  <g id="axes_2">
   <g id="patch_8">
    <path d="M 513.7875 340.35625 
L 889.6075 340.35625 
L 889.6075 31.43625 
L 513.7875 31.43625 
z
" style="fill:none;"/>
   </g>
   <g id="matplotlib.axis_3">
    <g id="xtick_10">
     <g id="line2d_49">
      <path clip-path="url(#p32233d5a82)" d="M 614.634099 340.35625 
L 614.634099 31.43625 
" style="fill:none;stroke:#b0b0b0;stroke-linecap:square;stroke-width:0.8;"/>
     </g>
     <g id="line2d_50">
      <g>
       <use style="stroke:#000000;stroke-width:0.8;" x="614.634099" xlink:href="#m005f0a59be" y="340.35625"/>
      </g>
     </g>
     <g id="text_21">
      <!-- 16 M -->
      <g transform="translate(596.235662 358.753906)scale(0.15 -0.15)">
       <use xlink:href="#DejaVuSans-49"/>
       <use x="63.623047" xlink:href="#DejaVuSans-54"/>
       <use x="127.246094" xlink:href="#DejaVuSans-32"/>
       <use x="159.033203" xlink:href="#DejaVuSans-77"/>
      </g>
     </g>
    </g>
    <g id="xtick_11">
     <g id="line2d_51">
      <path clip-path="url(#p32233d5a82)" d="M 781.66521 340.35625 
L 781.66521 31.43625 
" style="fill:none;stroke:#b0b0b0;stroke-linecap:square;stroke-width:0.8;"/>
     </g>
     <g id="line2d_52">
      <g>
       <use style="stroke:#000000;stroke-width:0.8;" x="781.66521" xlink:href="#m005f0a59be" y="340.35625"/>
      </g>
     </g>
     <g id="text_22">
      <!-- 256 M -->
      <g transform="translate(758.494898 358.753906)scale(0.15 -0.15)">
       <use xlink:href="#DejaVuSans-50"/>
       <use x="63.623047" xlink:href="#DejaVuSans-53"/>
       <use x="127.246094" xlink:href="#DejaVuSans-54"/>
       <use x="190.869141" xlink:href="#DejaVuSans-32"/>
       <use x="222.65625" xlink:href="#DejaVuSans-77"/>
      </g>
     </g>
    </g>
    <g id="xtick_12">
     <g id="line2d_53">
      <g>
       <use style="stroke:#000000;stroke-width:0.6;" x="531.118544" xlink:href="#m6449f80ab4" y="340.35625"/>
      </g>
     </g>
    </g>
    <g id="xtick_13">
     <g id="line2d_54">
      <g>
       <use style="stroke:#000000;stroke-width:0.6;" x="572.876321" xlink:href="#m6449f80ab4" y="340.35625"/>
      </g>
     </g>
    </g>
    <g id="xtick_14">
     <g id="line2d_55">
      <g>
       <use style="stroke:#000000;stroke-width:0.6;" x="656.391877" xlink:href="#m6449f80ab4" y="340.35625"/>
      </g>
     </g>
    </g>
    <g id="xtick_15">
     <g id="line2d_56">
      <g>
       <use style="stroke:#000000;stroke-width:0.6;" x="698.149655" xlink:href="#m6449f80ab4" y="340.35625"/>
      </g>
     </g>
    </g>
    <g id="xtick_16">
     <g id="line2d_57">
      <g>
       <use style="stroke:#000000;stroke-width:0.6;" x="739.907433" xlink:href="#m6449f80ab4" y="340.35625"/>
      </g>
     </g>
    </g>
    <g id="xtick_17">
     <g id="line2d_58">
      <g>
       <use style="stroke:#000000;stroke-width:0.6;" x="823.422988" xlink:href="#m6449f80ab4" y="340.35625"/>
      </g>
     </g>
    </g>
    <g id="xtick_18">
     <g id="line2d_59">
      <g>
       <use style="stroke:#000000;stroke-width:0.6;" x="865.180766" xlink:href="#m6449f80ab4" y="340.35625"/>
      </g>
     </g>
    </g>
    <g id="text_23">
     <!-- Total Buffer Size -->
     <g transform="translate(620.956875 381.070312)scale(0.2 -0.2)">
      <use xlink:href="#DejaVuSans-84"/>
      <use x="44.083984" xlink:href="#DejaVuSans-111"/>
      <use x="105.265625" xlink:href="#DejaVuSans-116"/>
      <use x="144.474609" xlink:href="#DejaVuSans-97"/>
      <use x="205.753906" xlink:href="#DejaVuSans-108"/>
      <use x="233.537109" xlink:href="#DejaVuSans-32"/>
      <use x="265.324219" xlink:href="#DejaVuSans-66"/>
      <use x="333.927734" xlink:href="#DejaVuSans-117"/>
      <use x="397.306641" xlink:href="#DejaVuSans-102"/>
      <use x="432.511719" xlink:href="#DejaVuSans-102"/>
      <use x="467.716797" xlink:href="#DejaVuSans-101"/>
      <use x="529.240234" xlink:href="#DejaVuSans-114"/>
      <use x="570.353516" xlink:href="#DejaVuSans-32"/>
      <use x="602.140625" xlink:href="#DejaVuSans-83"/>
      <use x="665.617188" xlink:href="#DejaVuSans-105"/>
      <use x="693.400391" xlink:href="#DejaVuSans-122"/>
      <use x="745.890625" xlink:href="#DejaVuSans-101"/>
     </g>
    </g>
   </g>
   <g id="matplotlib.axis_4">
    <g id="ytick_7">
     <g id="line2d_60">
      <path clip-path="url(#p32233d5a82)" d="M 513.7875 340.35625 
L 889.6075 340.35625 
" style="fill:none;stroke:#b0b0b0;stroke-linecap:square;stroke-width:0.8;"/>
     </g>
     <g id="line2d_61">
      <g>
       <use style="stroke:#000000;stroke-width:0.8;" x="513.7875" xlink:href="#mc3ce260a5b" y="340.35625"/>
      </g>
     </g>
     <g id="text_24">
      <!-- 0 -->
      <g transform="translate(497.24375 346.055078)scale(0.15 -0.15)">
       <use xlink:href="#DejaVuSans-48"/>
      </g>
     </g>
    </g>
    <g id="ytick_8">
     <g id="line2d_62">
      <path clip-path="url(#p32233d5a82)" d="M 513.7875 278.57225 
L 889.6075 278.57225 
" style="fill:none;stroke:#b0b0b0;stroke-linecap:square;stroke-width:0.8;"/>
     </g>
     <g id="line2d_63">
      <g>
       <use style="stroke:#000000;stroke-width:0.8;" x="513.7875" xlink:href="#mc3ce260a5b" y="278.57225"/>
      </g>
     </g>
     <g id="text_25">
      <!-- 20 -->
      <g transform="translate(487.7 284.271078)scale(0.15 -0.15)">
       <use xlink:href="#DejaVuSans-50"/>
       <use x="63.623047" xlink:href="#DejaVuSans-48"/>
      </g>
     </g>
    </g>
    <g id="ytick_9">
     <g id="line2d_64">
      <path clip-path="url(#p32233d5a82)" d="M 513.7875 216.78825 
L 889.6075 216.78825 
" style="fill:none;stroke:#b0b0b0;stroke-linecap:square;stroke-width:0.8;"/>
     </g>
     <g id="line2d_65">
      <g>
       <use style="stroke:#000000;stroke-width:0.8;" x="513.7875" xlink:href="#mc3ce260a5b" y="216.78825"/>
      </g>
     </g>
     <g id="text_26">
      <!-- 40 -->
      <g transform="translate(487.7 222.487078)scale(0.15 -0.15)">
       <use xlink:href="#DejaVuSans-52"/>
       <use x="63.623047" xlink:href="#DejaVuSans-48"/>
      </g>
     </g>
    </g>
    <g id="ytick_10">
     <g id="line2d_66">
      <path clip-path="url(#p32233d5a82)" d="M 513.7875 155.00425 
L 889.6075 155.00425 
" style="fill:none;stroke:#b0b0b0;stroke-linecap:square;stroke-width:0.8;"/>
     </g>
     <g id="line2d_67">
      <g>
       <use style="stroke:#000000;stroke-width:0.8;" x="513.7875" xlink:href="#mc3ce260a5b" y="155.00425"/>
      </g>
     </g>
     <g id="text_27">
      <!-- 60 -->
      <g transform="translate(487.7 160.703078)scale(0.15 -0.15)">
       <use xlink:href="#DejaVuSans-54"/>
       <use x="63.623047" xlink:href="#DejaVuSans-48"/>
      </g>
     </g>
    </g>
    <g id="ytick_11">
     <g id="line2d_68">
      <path clip-path="url(#p32233d5a82)" d="M 513.7875 93.22025 
L 889.6075 93.22025 
" style="fill:none;stroke:#b0b0b0;stroke-linecap:square;stroke-width:0.8;"/>
     </g>
     <g id="line2d_69">
      <g>
       <use style="stroke:#000000;stroke-width:0.8;" x="513.7875" xlink:href="#mc3ce260a5b" y="93.22025"/>
      </g>
     </g>
     <g id="text_28">
      <!-- 80 -->
      <g transform="translate(487.7 98.919078)scale(0.15 -0.15)">
       <use xlink:href="#DejaVuSans-56"/>
       <use x="63.623047" xlink:href="#DejaVuSans-48"/>
      </g>
     </g>
    </g>
    <g id="ytick_12">
     <g id="line2d_70">
      <path clip-path="url(#p32233d5a82)" d="M 513.7875 31.43625 
L 889.6075 31.43625 
" style="fill:none;stroke:#b0b0b0;stroke-linecap:square;stroke-width:0.8;"/>
     </g>
     <g id="line2d_71">
      <g>
       <use style="stroke:#000000;stroke-width:0.8;" x="513.7875" xlink:href="#mc3ce260a5b" y="31.43625"/>
      </g>
     </g>
     <g id="text_29">
      <!-- 100 -->
      <g transform="translate(478.15625 37.135078)scale(0.15 -0.15)">
       <use xlink:href="#DejaVuSans-49"/>
       <use x="63.623047" xlink:href="#DejaVuSans-48"/>
       <use x="127.246094" xlink:href="#DejaVuSans-48"/>
      </g>
     </g>
    </g>
    <g id="text_30">
     <!-- Cache Miss (%) -->
     <g transform="translate(469.996875 262.482187)rotate(-90)scale(0.2 -0.2)">
      <use xlink:href="#DejaVuSans-67"/>
      <use x="69.824219" xlink:href="#DejaVuSans-97"/>
      <use x="131.103516" xlink:href="#DejaVuSans-99"/>
      <use x="186.083984" xlink:href="#DejaVuSans-104"/>
      <use x="249.462891" xlink:href="#DejaVuSans-101"/>
      <use x="310.986328" xlink:href="#DejaVuSans-32"/>
      <use x="342.773438" xlink:href="#DejaVuSans-77"/>
      <use x="429.052734" xlink:href="#DejaVuSans-105"/>
      <use x="456.835938" xlink:href="#DejaVuSans-115"/>
      <use x="508.935547" xlink:href="#DejaVuSans-115"/>
      <use x="561.035156" xlink:href="#DejaVuSans-32"/>
      <use x="592.822266" xlink:href="#DejaVuSans-40"/>
      <use x="631.835938" xlink:href="#DejaVuSans-37"/>
      <use x="726.855469" xlink:href="#DejaVuSans-41"/>
     </g>
    </g>
   </g>
   <g id="line2d_72">
    <path clip-path="url(#p32233d5a82)" d="M 405.84521 340.343833 
L 447.602988 340.355997 
L 489.360766 340.355006 
L 513.7875 340.35379 
L 531.118544 340.346738 
L 544.561546 340.28938 
L 555.545278 339.456017 
L 564.831891 337.886964 
L 572.876321 334.613921 
L 586.319323 330.015339 
L 597.303056 322.731629 
L 606.589669 303.365002 
L 614.634099 272.456638 
L 656.391877 107.797348 
L 698.149655 62.538644 
L 739.907433 48.589074 
" style="fill:none;stroke:#1f77b4;stroke-linecap:square;stroke-width:1.5;"/>
   </g>
   <g id="line2d_73">
    <path clip-path="url(#p32233d5a82)" d="M 447.602988 340.355424 
L 489.360766 340.35606 
L 531.118544 340.354275 
L 555.545278 340.325716 
L 572.876321 339.982775 
L 586.319323 336.694913 
L 597.303056 316.357676 
L 606.589669 328.521367 
L 614.634099 271.257136 
L 628.077101 311.021236 
L 639.060833 275.644268 
L 648.347447 119.142536 
L 656.391877 167.375634 
L 698.149655 74.463037 
L 739.907433 48.288375 
L 781.66521 38.574923 
" style="fill:none;stroke:#ff7f0e;stroke-linecap:square;stroke-width:1.5;"/>
   </g>
   <g id="line2d_74">
    <path clip-path="url(#p32233d5a82)" d="M 472.029722 340.355576 
L 513.7875 340.355738 
L 555.545278 340.343387 
L 579.972012 340.019683 
L 597.303056 338.486738 
L 610.746057 318.984575 
L 621.72979 298.700203 
L 631.016403 229.291497 
L 639.060833 219.140171 
L 652.503835 206.493547 
L 663.487567 194.609951 
L 672.774181 120.149393 
L 680.818611 95.958902 
L 722.576389 58.357881 
L 764.334167 40.672616 
L 806.091944 34.442373 
" style="fill:none;stroke:#2ca02c;stroke-linecap:square;stroke-width:1.5;"/>
   </g>
   <g id="line2d_75">
    <path clip-path="url(#p32233d5a82)" d="M 489.360766 340.348695 
L 531.118544 340.355911 
L 572.876321 340.09128 
L 597.303056 331.399879 
L 614.634099 330.10497 
L 628.077101 294.365279 
L 639.060833 292.752948 
L 648.347447 150.859236 
L 656.391877 193.892271 
L 669.834879 77.149808 
L 680.818611 110.122274 
L 690.105224 89.693182 
L 698.149655 77.168263 
L 739.907433 46.590807 
L 781.66521 36.859938 
L 823.422988 32.910962 
" style="fill:none;stroke:#d62728;stroke-linecap:square;stroke-width:1.5;"/>
   </g>
   <g id="line2d_76">
    <path clip-path="url(#p32233d5a82)" d="M 502.803768 340.343182 
L 544.561546 340.355601 
L 586.319323 337.838895 
L 610.746057 336.65066 
L 628.077101 203.312459 
L 641.520103 220.98378 
L 652.503835 260.548383 
L 661.790448 119.624813 
L 669.834879 97.554365 
L 683.277881 89.890389 
L 694.261613 76.073978 
L 703.548226 71.815434 
L 711.592657 63.144454 
L 753.350434 41.85618 
L 795.108212 34.102402 
L 836.86599 32.511946 
" style="fill:none;stroke:#9467bd;stroke-linecap:square;stroke-width:1.5;"/>
   </g>
   <g id="line2d_77">
    <path clip-path="url(#p32233d5a82)" d="M 513.7875 340.340437 
L 555.545278 340.354378 
L 597.303056 336.831158 
L 621.72979 299.135027 
L 639.060833 232.926948 
L 652.503835 194.412092 
L 663.487567 93.378995 
L 672.774181 87.772477 
L 680.818611 87.988292 
L 694.261613 72.2977 
L 705.245345 65.011332 
L 714.531959 60.405553 
L 722.576389 54.938906 
L 764.334167 37.963913 
L 806.091944 33.597256 
L 847.849722 32.242262 
" style="fill:none;stroke:#8c564b;stroke-linecap:square;stroke-width:1.5;"/>
   </g>
   <g id="line2d_78">
    <path clip-path="url(#p32233d5a82)" d="M 523.074113 340.34809 
L 564.831891 340.323962 
L 606.589669 334.75729 
L 631.016403 330.727535 
L 648.347447 269.26272 
L 661.790448 93.489328 
L 672.774181 98.901523 
L 682.060794 86.051255 
L 690.105224 84.415446 
L 703.548226 62.822201 
L 714.531959 57.982534 
L 723.818572 54.068958 
L 731.863002 50.141125 
L 773.62078 36.181371 
L 815.378558 33.095063 
L 857.136336 31.97026 
" style="fill:none;stroke:#e377c2;stroke-linecap:square;stroke-width:1.5;"/>
   </g>
   <g id="line2d_79">
    <path clip-path="url(#p32233d5a82)" d="M 531.118544 340.346919 
L 572.876321 340.101872 
L 614.634099 333.626705 
L 639.060833 222.819318 
L 656.391877 229.964387 
L 669.834879 109.585721 
L 680.818611 85.17236 
L 690.105224 76.59992 
L 698.149655 70.120005 
L 711.592657 59.455963 
L 722.576389 55.422851 
L 731.863002 51.177397 
L 739.907433 47.761733 
L 781.66521 35.459084 
L 823.422988 32.870029 
L 865.180766 31.841657 
" style="fill:none;stroke:#7f7f7f;stroke-linecap:square;stroke-width:1.5;"/>
   </g>
   <g id="line2d_80">
    <path clip-path="url(#p32233d5a82)" d="M 614.634099 340.35625 
L 614.634099 31.43625 
" style="fill:none;stroke:#2ca02c;stroke-linecap:square;stroke-width:3;"/>
   </g>
   <g id="patch_9">
    <path d="M 513.7875 340.35625 
L 513.7875 31.43625 
" style="fill:none;stroke:#000000;stroke-linecap:square;stroke-linejoin:miter;stroke-width:0.8;"/>
   </g>
   <g id="patch_10">
    <path d="M 889.6075 340.35625 
L 889.6075 31.43625 
" style="fill:none;stroke:#000000;stroke-linecap:square;stroke-linejoin:miter;stroke-width:0.8;"/>
   </g>
   <g id="patch_11">
    <path d="M 513.7875 340.35625 
L 889.6075 340.35625 
" style="fill:none;stroke:#000000;stroke-linecap:square;stroke-linejoin:miter;stroke-width:0.8;"/>
   </g>
   <g id="patch_12">
    <path d="M 513.7875 31.43625 
L 889.6075 31.43625 
" style="fill:none;stroke:#000000;stroke-linecap:square;stroke-linejoin:miter;stroke-width:0.8;"/>
   </g>
   <g id="text_31">
    <!-- L3 -->
    <g style="fill:#2ca02c;" transform="translate(610.682693 197.233906)rotate(-90)scale(0.19 -0.19)">
     <use xlink:href="#DejaVuSans-76"/>
     <use x="55.712891" xlink:href="#DejaVuSans-51"/>
    </g>
   </g>
   <g id="text_32">
    <!-- No Prefetcher -->
    <g transform="translate(619.65875 25.43625)scale(0.24 -0.24)">
     <defs>
      <path d="M 19.671875 64.796875 
L 19.671875 37.40625 
L 32.078125 37.40625 
Q 38.96875 37.40625 42.71875 40.96875 
Q 46.484375 44.53125 46.484375 51.125 
Q 46.484375 57.671875 42.71875 61.234375 
Q 38.96875 64.796875 32.078125 64.796875 
z
M 9.8125 72.90625 
L 32.078125 72.90625 
Q 44.34375 72.90625 50.609375 67.359375 
Q 56.890625 61.8125 56.890625 51.125 
Q 56.890625 40.328125 50.609375 34.8125 
Q 44.34375 29.296875 32.078125 29.296875 
L 19.671875 29.296875 
L 19.671875 0 
L 9.8125 0 
z
" id="DejaVuSans-80"/>
     </defs>
     <use xlink:href="#DejaVuSans-78"/>
     <use x="74.804688" xlink:href="#DejaVuSans-111"/>
     <use x="135.986328" xlink:href="#DejaVuSans-32"/>
     <use x="167.773438" xlink:href="#DejaVuSans-80"/>
     <use x="226.326172" xlink:href="#DejaVuSans-114"/>
     <use x="265.189453" xlink:href="#DejaVuSans-101"/>
     <use x="326.712891" xlink:href="#DejaVuSans-102"/>
     <use x="361.917969" xlink:href="#DejaVuSans-101"/>
     <use x="423.441406" xlink:href="#DejaVuSans-116"/>
     <use x="462.650391" xlink:href="#DejaVuSans-99"/>
     <use x="517.630859" xlink:href="#DejaVuSans-104"/>
     <use x="581.009766" xlink:href="#DejaVuSans-101"/>
     <use x="642.533203" xlink:href="#DejaVuSans-114"/>
    </g>
   </g>
   <g id="legend_2">
    <g id="patch_13">
     <path d="M 709.42775 333.41625 
L 879.8915 333.41625 
Q 882.6675 333.41625 882.6675 330.64025 
L 882.6675 250.5353 
Q 882.6675 247.7593 879.8915 247.7593 
L 709.42775 247.7593 
Q 706.65175 247.7593 706.65175 250.5353 
L 706.65175 330.64025 
Q 706.65175 333.41625 709.42775 333.41625 
z
" style="fill:#ffffff;opacity:0.8;stroke:#cccccc;stroke-linejoin:miter;"/>
    </g>
    <g id="line2d_81">
     <path d="M 712.20375 258.999931 
L 726.08375 258.999931 
" style="fill:none;stroke:#1f77b4;stroke-linecap:square;stroke-width:1.5;"/>
    </g>
    <g id="line2d_82"/>
    <g id="text_33">
     <!-- 1 cores -->
     <g transform="translate(737.18775 263.857931)scale(0.1388 -0.1388)">
      <use xlink:href="#DejaVuSans-49"/>
      <use x="63.623047" xlink:href="#DejaVuSans-32"/>
      <use x="95.410156" xlink:href="#DejaVuSans-99"/>
      <use x="150.390625" xlink:href="#DejaVuSans-111"/>
      <use x="211.572266" xlink:href="#DejaVuSans-114"/>
      <use x="250.435547" xlink:href="#DejaVuSans-101"/>
      <use x="311.958984" xlink:href="#DejaVuSans-115"/>
     </g>
    </g>
    <g id="line2d_83">
     <path d="M 712.20375 279.373169 
L 726.08375 279.373169 
" style="fill:none;stroke:#ff7f0e;stroke-linecap:square;stroke-width:1.5;"/>
    </g>
    <g id="line2d_84"/>
    <g id="text_34">
     <!-- 2 cores -->
     <g transform="translate(737.18775 284.231169)scale(0.1388 -0.1388)">
      <use xlink:href="#DejaVuSans-50"/>
      <use x="63.623047" xlink:href="#DejaVuSans-32"/>
      <use x="95.410156" xlink:href="#DejaVuSans-99"/>
      <use x="150.390625" xlink:href="#DejaVuSans-111"/>
      <use x="211.572266" xlink:href="#DejaVuSans-114"/>
      <use x="250.435547" xlink:href="#DejaVuSans-101"/>
      <use x="311.958984" xlink:href="#DejaVuSans-115"/>
     </g>
    </g>
    <g id="line2d_85">
     <path d="M 712.20375 299.746406 
L 726.08375 299.746406 
" style="fill:none;stroke:#2ca02c;stroke-linecap:square;stroke-width:1.5;"/>
    </g>
    <g id="line2d_86"/>
    <g id="text_35">
     <!-- 3 cores -->
     <g transform="translate(737.18775 304.604406)scale(0.1388 -0.1388)">
      <use xlink:href="#DejaVuSans-51"/>
      <use x="63.623047" xlink:href="#DejaVuSans-32"/>
      <use x="95.410156" xlink:href="#DejaVuSans-99"/>
      <use x="150.390625" xlink:href="#DejaVuSans-111"/>
      <use x="211.572266" xlink:href="#DejaVuSans-114"/>
      <use x="250.435547" xlink:href="#DejaVuSans-101"/>
      <use x="311.958984" xlink:href="#DejaVuSans-115"/>
     </g>
    </g>
    <g id="line2d_87">
     <path d="M 712.20375 320.119644 
L 726.08375 320.119644 
" style="fill:none;stroke:#d62728;stroke-linecap:square;stroke-width:1.5;"/>
    </g>
    <g id="line2d_88"/>
    <g id="text_36">
     <!-- 4 cores -->
     <g transform="translate(737.18775 324.977644)scale(0.1388 -0.1388)">
      <use xlink:href="#DejaVuSans-52"/>
      <use x="63.623047" xlink:href="#DejaVuSans-32"/>
      <use x="95.410156" xlink:href="#DejaVuSans-99"/>
      <use x="150.390625" xlink:href="#DejaVuSans-111"/>
      <use x="211.572266" xlink:href="#DejaVuSans-114"/>
      <use x="250.435547" xlink:href="#DejaVuSans-101"/>
      <use x="311.958984" xlink:href="#DejaVuSans-115"/>
     </g>
    </g>
    <g id="line2d_89">
     <path d="M 801.599625 258.999931 
L 815.479625 258.999931 
" style="fill:none;stroke:#9467bd;stroke-linecap:square;stroke-width:1.5;"/>
    </g>
    <g id="line2d_90"/>
    <g id="text_37">
     <!-- 5 cores -->
     <g transform="translate(826.583625 263.857931)scale(0.1388 -0.1388)">
      <use xlink:href="#DejaVuSans-53"/>
      <use x="63.623047" xlink:href="#DejaVuSans-32"/>
      <use x="95.410156" xlink:href="#DejaVuSans-99"/>
      <use x="150.390625" xlink:href="#DejaVuSans-111"/>
      <use x="211.572266" xlink:href="#DejaVuSans-114"/>
      <use x="250.435547" xlink:href="#DejaVuSans-101"/>
      <use x="311.958984" xlink:href="#DejaVuSans-115"/>
     </g>
    </g>
    <g id="line2d_91">
     <path d="M 801.599625 279.373169 
L 815.479625 279.373169 
" style="fill:none;stroke:#8c564b;stroke-linecap:square;stroke-width:1.5;"/>
    </g>
    <g id="line2d_92"/>
    <g id="text_38">
     <!-- 6 cores -->
     <g transform="translate(826.583625 284.231169)scale(0.1388 -0.1388)">
      <use xlink:href="#DejaVuSans-54"/>
      <use x="63.623047" xlink:href="#DejaVuSans-32"/>
      <use x="95.410156" xlink:href="#DejaVuSans-99"/>
      <use x="150.390625" xlink:href="#DejaVuSans-111"/>
      <use x="211.572266" xlink:href="#DejaVuSans-114"/>
      <use x="250.435547" xlink:href="#DejaVuSans-101"/>
      <use x="311.958984" xlink:href="#DejaVuSans-115"/>
     </g>
    </g>
    <g id="line2d_93">
     <path d="M 801.599625 299.746406 
L 815.479625 299.746406 
" style="fill:none;stroke:#e377c2;stroke-linecap:square;stroke-width:1.5;"/>
    </g>
    <g id="line2d_94"/>
    <g id="text_39">
     <!-- 7 cores -->
     <g transform="translate(826.583625 304.604406)scale(0.1388 -0.1388)">
      <use xlink:href="#DejaVuSans-55"/>
      <use x="63.623047" xlink:href="#DejaVuSans-32"/>
      <use x="95.410156" xlink:href="#DejaVuSans-99"/>
      <use x="150.390625" xlink:href="#DejaVuSans-111"/>
      <use x="211.572266" xlink:href="#DejaVuSans-114"/>
      <use x="250.435547" xlink:href="#DejaVuSans-101"/>
      <use x="311.958984" xlink:href="#DejaVuSans-115"/>
     </g>
    </g>
    <g id="line2d_95">
     <path d="M 801.599625 320.119644 
L 815.479625 320.119644 
" style="fill:none;stroke:#7f7f7f;stroke-linecap:square;stroke-width:1.5;"/>
    </g>
    <g id="line2d_96"/>
    <g id="text_40">
     <!-- 8 cores -->
     <g transform="translate(826.583625 324.977644)scale(0.1388 -0.1388)">
      <use xlink:href="#DejaVuSans-56"/>
      <use x="63.623047" xlink:href="#DejaVuSans-32"/>
      <use x="95.410156" xlink:href="#DejaVuSans-99"/>
      <use x="150.390625" xlink:href="#DejaVuSans-111"/>
      <use x="211.572266" xlink:href="#DejaVuSans-114"/>
      <use x="250.435547" xlink:href="#DejaVuSans-101"/>
      <use x="311.958984" xlink:href="#DejaVuSans-115"/>
     </g>
    </g>
   </g>
  </g>
 </g>
 <defs>
  <clipPath id="pe5a09bc7e2">
   <rect height="308.92" width="375.82" x="66.1875" y="31.43625"/>
  </clipPath>
  <clipPath id="p32233d5a82">
   <rect height="308.92" width="375.82" x="513.7875" y="31.43625"/>
  </clipPath>
 </defs>
</svg>
