<?xml version="1.0" encoding="utf-8" standalone="no"?>
<!DOCTYPE svg PUBLIC "-//W3C//DTD SVG 1.1//EN"
  "http://www.w3.org/Graphics/SVG/1.1/DTD/svg11.dtd">
<!-- Created with matplotlib (https://matplotlib.org/) -->
<svg height="392.429687pt" version="1.1" viewBox="0 0 894.245216 392.429687" width="894.245216pt" xmlns="http://www.w3.org/2000/svg" xmlns:xlink="http://www.w3.org/1999/xlink">
 <defs>
  <style type="text/css">*{stroke-linecap:butt;stroke-linejoin:round;}</style>
 </defs>
 <g id="figure_1">
  <g id="patch_1">
   <path d="M 0 392.429687 
L 894.245216 392.429687 
L 894.245216 0 
L 0 0 
z
" style="fill:none;"/>
  </g>
  <g id="axes_1">
   <g id="patch_2">
    <path d="M 56.64375 340.35625 
L 433.400196 340.35625 
L 433.400196 31.43625 
L 56.64375 31.43625 
z
" style="fill:none;"/>
   </g>
   <g id="matplotlib.axis_1">
    <g id="xtick_1">
     <g id="line2d_1">
      <path clip-path="url(#pe8b6f9316c)" d="M 142.270215 340.35625 
L 142.270215 31.43625 
" style="fill:none;stroke:#b0b0b0;stroke-linecap:square;stroke-width:0.8;"/>
     </g>
     <g id="line2d_2">
      <defs>
       <path d="M 0 0 
L 0 3.5 
" id="m005f0a59be" style="stroke:#000000;stroke-width:0.8;"/>
      </defs>
      <g>
       <use style="stroke:#000000;stroke-width:0.8;" x="142.270215" xlink:href="#m005f0a59be" y="340.35625"/>
      </g>
     </g>
     <g id="text_1">
      <!-- 64 k -->
      <g transform="translate(125.999903 358.753906)scale(0.15 -0.15)">
       <defs>
        <path d="M 33.015625 40.375 
Q 26.375 40.375 22.484375 35.828125 
Q 18.609375 31.296875 18.609375 23.390625 
Q 18.609375 15.53125 22.484375 10.953125 
Q 26.375 6.390625 33.015625 6.390625 
Q 39.65625 6.390625 43.53125 10.953125 
Q 47.40625 15.53125 47.40625 23.390625 
Q 47.40625 31.296875 43.53125 35.828125 
Q 39.65625 40.375 33.015625 40.375 
z
M 52.59375 71.296875 
L 52.59375 62.3125 
Q 48.875 64.0625 45.09375 64.984375 
Q 41.3125 65.921875 37.59375 65.921875 
Q 27.828125 65.921875 22.671875 59.328125 
Q 17.53125 52.734375 16.796875 39.40625 
Q 19.671875 43.65625 24.015625 45.921875 
Q 28.375 48.1875 33.59375 48.1875 
Q 44.578125 48.1875 50.953125 41.515625 
Q 57.328125 34.859375 57.328125 23.390625 
Q 57.328125 12.15625 50.6875 5.359375 
Q 44.046875 -1.421875 33.015625 -1.421875 
Q 20.359375 -1.421875 13.671875 8.265625 
Q 6.984375 17.96875 6.984375 36.375 
Q 6.984375 53.65625 15.1875 63.9375 
Q 23.390625 74.21875 37.203125 74.21875 
Q 40.921875 74.21875 44.703125 73.484375 
Q 48.484375 72.75 52.59375 71.296875 
z
" id="DejaVuSans-54"/>
        <path d="M 37.796875 64.3125 
L 12.890625 25.390625 
L 37.796875 25.390625 
z
M 35.203125 72.90625 
L 47.609375 72.90625 
L 47.609375 25.390625 
L 58.015625 25.390625 
L 58.015625 17.1875 
L 47.609375 17.1875 
L 47.609375 0 
L 37.796875 0 
L 37.796875 17.1875 
L 4.890625 17.1875 
L 4.890625 26.703125 
z
" id="DejaVuSans-52"/>
        <path id="DejaVuSans-32"/>
        <path d="M 9.078125 75.984375 
L 18.109375 75.984375 
L 18.109375 31.109375 
L 44.921875 54.6875 
L 56.390625 54.6875 
L 27.390625 29.109375 
L 57.625 0 
L 45.90625 0 
L 18.109375 26.703125 
L 18.109375 0 
L 9.078125 0 
z
" id="DejaVuSans-107"/>
       </defs>
       <use xlink:href="#DejaVuSans-54"/>
       <use x="63.623047" xlink:href="#DejaVuSans-52"/>
       <use x="127.246094" xlink:href="#DejaVuSans-32"/>
       <use x="159.033203" xlink:href="#DejaVuSans-107"/>
      </g>
     </g>
    </g>
    <g id="xtick_2">
     <g id="line2d_3">
      <path clip-path="url(#pe8b6f9316c)" d="M 233.605111 340.35625 
L 233.605111 31.43625 
" style="fill:none;stroke:#b0b0b0;stroke-linecap:square;stroke-width:0.8;"/>
     </g>
     <g id="line2d_4">
      <g>
       <use style="stroke:#000000;stroke-width:0.8;" x="233.605111" xlink:href="#m005f0a59be" y="340.35625"/>
      </g>
     </g>
     <g id="text_2">
      <!-- 1 M -->
      <g transform="translate(219.978549 358.753906)scale(0.15 -0.15)">
       <defs>
        <path d="M 12.40625 8.296875 
L 28.515625 8.296875 
L 28.515625 63.921875 
L 10.984375 60.40625 
L 10.984375 69.390625 
L 28.421875 72.90625 
L 38.28125 72.90625 
L 38.28125 8.296875 
L 54.390625 8.296875 
L 54.390625 0 
L 12.40625 0 
z
" id="DejaVuSans-49"/>
        <path d="M 9.8125 72.90625 
L 24.515625 72.90625 
L 43.109375 23.296875 
L 61.8125 72.90625 
L 76.515625 72.90625 
L 76.515625 0 
L 66.890625 0 
L 66.890625 64.015625 
L 48.09375 14.015625 
L 38.1875 14.015625 
L 19.390625 64.015625 
L 19.390625 0 
L 9.8125 0 
z
" id="DejaVuSans-77"/>
       </defs>
       <use xlink:href="#DejaVuSans-49"/>
       <use x="63.623047" xlink:href="#DejaVuSans-32"/>
       <use x="95.410156" xlink:href="#DejaVuSans-77"/>
      </g>
     </g>
    </g>
    <g id="xtick_3">
     <g id="line2d_5">
      <path clip-path="url(#pe8b6f9316c)" d="M 324.940007 340.35625 
L 324.940007 31.43625 
" style="fill:none;stroke:#b0b0b0;stroke-linecap:square;stroke-width:0.8;"/>
     </g>
     <g id="line2d_6">
      <g>
       <use style="stroke:#000000;stroke-width:0.8;" x="324.940007" xlink:href="#m005f0a59be" y="340.35625"/>
      </g>
     </g>
     <g id="text_3">
      <!-- 16 M -->
      <g transform="translate(306.54157 358.753906)scale(0.15 -0.15)">
       <use xlink:href="#DejaVuSans-49"/>
       <use x="63.623047" xlink:href="#DejaVuSans-54"/>
       <use x="127.246094" xlink:href="#DejaVuSans-32"/>
       <use x="159.033203" xlink:href="#DejaVuSans-77"/>
      </g>
     </g>
    </g>
    <g id="xtick_4">
     <g id="line2d_7">
      <path clip-path="url(#pe8b6f9316c)" d="M 416.274903 340.35625 
L 416.274903 31.43625 
" style="fill:none;stroke:#b0b0b0;stroke-linecap:square;stroke-width:0.8;"/>
     </g>
     <g id="line2d_8">
      <g>
       <use style="stroke:#000000;stroke-width:0.8;" x="416.274903" xlink:href="#m005f0a59be" y="340.35625"/>
      </g>
     </g>
     <g id="text_4">
      <!-- 256 M -->
      <g transform="translate(393.104591 358.753906)scale(0.15 -0.15)">
       <defs>
        <path d="M 19.1875 8.296875 
L 53.609375 8.296875 
L 53.609375 0 
L 7.328125 0 
L 7.328125 8.296875 
Q 12.9375 14.109375 22.625 23.890625 
Q 32.328125 33.6875 34.8125 36.53125 
Q 39.546875 41.84375 41.421875 45.53125 
Q 43.3125 49.21875 43.3125 52.78125 
Q 43.3125 58.59375 39.234375 62.25 
Q 35.15625 65.921875 28.609375 65.921875 
Q 23.96875 65.921875 18.8125 64.3125 
Q 13.671875 62.703125 7.8125 59.421875 
L 7.8125 69.390625 
Q 13.765625 71.78125 18.9375 73 
Q 24.125 74.21875 28.421875 74.21875 
Q 39.75 74.21875 46.484375 68.546875 
Q 53.21875 62.890625 53.21875 53.421875 
Q 53.21875 48.921875 51.53125 44.890625 
Q 49.859375 40.875 45.40625 35.40625 
Q 44.1875 33.984375 37.640625 27.21875 
Q 31.109375 20.453125 19.1875 8.296875 
z
" id="DejaVuSans-50"/>
        <path d="M 10.796875 72.90625 
L 49.515625 72.90625 
L 49.515625 64.59375 
L 19.828125 64.59375 
L 19.828125 46.734375 
Q 21.96875 47.46875 24.109375 47.828125 
Q 26.265625 48.1875 28.421875 48.1875 
Q 40.625 48.1875 47.75 41.5 
Q 54.890625 34.8125 54.890625 23.390625 
Q 54.890625 11.625 47.5625 5.09375 
Q 40.234375 -1.421875 26.90625 -1.421875 
Q 22.3125 -1.421875 17.546875 -0.640625 
Q 12.796875 0.140625 7.71875 1.703125 
L 7.71875 11.625 
Q 12.109375 9.234375 16.796875 8.0625 
Q 21.484375 6.890625 26.703125 6.890625 
Q 35.15625 6.890625 40.078125 11.328125 
Q 45.015625 15.765625 45.015625 23.390625 
Q 45.015625 31 40.078125 35.4375 
Q 35.15625 39.890625 26.703125 39.890625 
Q 22.75 39.890625 18.8125 39.015625 
Q 14.890625 38.140625 10.796875 36.28125 
z
" id="DejaVuSans-53"/>
       </defs>
       <use xlink:href="#DejaVuSans-50"/>
       <use x="63.623047" xlink:href="#DejaVuSans-53"/>
       <use x="127.246094" xlink:href="#DejaVuSans-54"/>
       <use x="190.869141" xlink:href="#DejaVuSans-32"/>
       <use x="222.65625" xlink:href="#DejaVuSans-77"/>
      </g>
     </g>
    </g>
    <g id="xtick_5">
     <g id="line2d_9">
      <defs>
       <path d="M 0 0 
L 0 2 
" id="m6449f80ab4" style="stroke:#000000;stroke-width:0.6;"/>
      </defs>
      <g>
       <use style="stroke:#000000;stroke-width:0.6;" x="73.769043" xlink:href="#m6449f80ab4" y="340.35625"/>
      </g>
     </g>
    </g>
    <g id="xtick_6">
     <g id="line2d_10">
      <g>
       <use style="stroke:#000000;stroke-width:0.6;" x="96.602767" xlink:href="#m6449f80ab4" y="340.35625"/>
      </g>
     </g>
    </g>
    <g id="xtick_7">
     <g id="line2d_11">
      <g>
       <use style="stroke:#000000;stroke-width:0.6;" x="119.436491" xlink:href="#m6449f80ab4" y="340.35625"/>
      </g>
     </g>
    </g>
    <g id="xtick_8">
     <g id="line2d_12">
      <g>
       <use style="stroke:#000000;stroke-width:0.6;" x="165.103939" xlink:href="#m6449f80ab4" y="340.35625"/>
      </g>
     </g>
    </g>
    <g id="xtick_9">
     <g id="line2d_13">
      <g>
       <use style="stroke:#000000;stroke-width:0.6;" x="187.937663" xlink:href="#m6449f80ab4" y="340.35625"/>
      </g>
     </g>
    </g>
    <g id="xtick_10">
     <g id="line2d_14">
      <g>
       <use style="stroke:#000000;stroke-width:0.6;" x="210.771387" xlink:href="#m6449f80ab4" y="340.35625"/>
      </g>
     </g>
    </g>
    <g id="xtick_11">
     <g id="line2d_15">
      <g>
       <use style="stroke:#000000;stroke-width:0.6;" x="256.438835" xlink:href="#m6449f80ab4" y="340.35625"/>
      </g>
     </g>
    </g>
    <g id="xtick_12">
     <g id="line2d_16">
      <g>
       <use style="stroke:#000000;stroke-width:0.6;" x="279.272559" xlink:href="#m6449f80ab4" y="340.35625"/>
      </g>
     </g>
    </g>
    <g id="xtick_13">
     <g id="line2d_17">
      <g>
       <use style="stroke:#000000;stroke-width:0.6;" x="302.106283" xlink:href="#m6449f80ab4" y="340.35625"/>
      </g>
     </g>
    </g>
    <g id="xtick_14">
     <g id="line2d_18">
      <g>
       <use style="stroke:#000000;stroke-width:0.6;" x="347.773731" xlink:href="#m6449f80ab4" y="340.35625"/>
      </g>
     </g>
    </g>
    <g id="xtick_15">
     <g id="line2d_19">
      <g>
       <use style="stroke:#000000;stroke-width:0.6;" x="370.607455" xlink:href="#m6449f80ab4" y="340.35625"/>
      </g>
     </g>
    </g>
    <g id="xtick_16">
     <g id="line2d_20">
      <g>
       <use style="stroke:#000000;stroke-width:0.6;" x="393.441179" xlink:href="#m6449f80ab4" y="340.35625"/>
      </g>
     </g>
    </g>
    <g id="text_5">
     <!-- Buffer Size -->
     <g transform="translate(190.812598 381.070312)scale(0.2 -0.2)">
      <defs>
       <path d="M 19.671875 34.8125 
L 19.671875 8.109375 
L 35.5 8.109375 
Q 43.453125 8.109375 47.28125 11.40625 
Q 51.125 14.703125 51.125 21.484375 
Q 51.125 28.328125 47.28125 31.5625 
Q 43.453125 34.8125 35.5 34.8125 
z
M 19.671875 64.796875 
L 19.671875 42.828125 
L 34.28125 42.828125 
Q 41.5 42.828125 45.03125 45.53125 
Q 48.578125 48.25 48.578125 53.8125 
Q 48.578125 59.328125 45.03125 62.0625 
Q 41.5 64.796875 34.28125 64.796875 
z
M 9.8125 72.90625 
L 35.015625 72.90625 
Q 46.296875 72.90625 52.390625 68.21875 
Q 58.5 63.53125 58.5 54.890625 
Q 58.5 48.1875 55.375 44.234375 
Q 52.25 40.28125 46.1875 39.3125 
Q 53.46875 37.75 57.5 32.78125 
Q 61.53125 27.828125 61.53125 20.40625 
Q 61.53125 10.640625 54.890625 5.3125 
Q 48.25 0 35.984375 0 
L 9.8125 0 
z
" id="DejaVuSans-66"/>
       <path d="M 8.5 21.578125 
L 8.5 54.6875 
L 17.484375 54.6875 
L 17.484375 21.921875 
Q 17.484375 14.15625 20.5 10.265625 
Q 23.53125 6.390625 29.59375 6.390625 
Q 36.859375 6.390625 41.078125 11.03125 
Q 45.3125 15.671875 45.3125 23.6875 
L 45.3125 54.6875 
L 54.296875 54.6875 
L 54.296875 0 
L 45.3125 0 
L 45.3125 8.40625 
Q 42.046875 3.421875 37.71875 1 
Q 33.40625 -1.421875 27.6875 -1.421875 
Q 18.265625 -1.421875 13.375 4.4375 
Q 8.5 10.296875 8.5 21.578125 
z
M 31.109375 56 
z
" id="DejaVuSans-117"/>
       <path d="M 37.109375 75.984375 
L 37.109375 68.5 
L 28.515625 68.5 
Q 23.6875 68.5 21.796875 66.546875 
Q 19.921875 64.59375 19.921875 59.515625 
L 19.921875 54.6875 
L 34.71875 54.6875 
L 34.71875 47.703125 
L 19.921875 47.703125 
L 19.921875 0 
L 10.890625 0 
L 10.890625 47.703125 
L 2.296875 47.703125 
L 2.296875 54.6875 
L 10.890625 54.6875 
L 10.890625 58.5 
Q 10.890625 67.625 15.140625 71.796875 
Q 19.390625 75.984375 28.609375 75.984375 
z
" id="DejaVuSans-102"/>
       <path d="M 56.203125 29.59375 
L 56.203125 25.203125 
L 14.890625 25.203125 
Q 15.484375 15.921875 20.484375 11.0625 
Q 25.484375 6.203125 34.421875 6.203125 
Q 39.59375 6.203125 44.453125 7.46875 
Q 49.3125 8.734375 54.109375 11.28125 
L 54.109375 2.78125 
Q 49.265625 0.734375 44.1875 -0.34375 
Q 39.109375 -1.421875 33.890625 -1.421875 
Q 20.796875 -1.421875 13.15625 6.1875 
Q 5.515625 13.8125 5.515625 26.8125 
Q 5.515625 40.234375 12.765625 48.109375 
Q 20.015625 56 32.328125 56 
Q 43.359375 56 49.78125 48.890625 
Q 56.203125 41.796875 56.203125 29.59375 
z
M 47.21875 32.234375 
Q 47.125 39.59375 43.09375 43.984375 
Q 39.0625 48.390625 32.421875 48.390625 
Q 24.90625 48.390625 20.390625 44.140625 
Q 15.875 39.890625 15.1875 32.171875 
z
" id="DejaVuSans-101"/>
       <path d="M 41.109375 46.296875 
Q 39.59375 47.171875 37.8125 47.578125 
Q 36.03125 48 33.890625 48 
Q 26.265625 48 22.1875 43.046875 
Q 18.109375 38.09375 18.109375 28.8125 
L 18.109375 0 
L 9.078125 0 
L 9.078125 54.6875 
L 18.109375 54.6875 
L 18.109375 46.1875 
Q 20.953125 51.171875 25.484375 53.578125 
Q 30.03125 56 36.53125 56 
Q 37.453125 56 38.578125 55.875 
Q 39.703125 55.765625 41.0625 55.515625 
z
" id="DejaVuSans-114"/>
       <path d="M 53.515625 70.515625 
L 53.515625 60.890625 
Q 47.90625 63.578125 42.921875 64.890625 
Q 37.9375 66.21875 33.296875 66.21875 
Q 25.25 66.21875 20.875 63.09375 
Q 16.5 59.96875 16.5 54.203125 
Q 16.5 49.359375 19.40625 46.890625 
Q 22.3125 44.4375 30.421875 42.921875 
L 36.375 41.703125 
Q 47.40625 39.59375 52.65625 34.296875 
Q 57.90625 29 57.90625 20.125 
Q 57.90625 9.515625 50.796875 4.046875 
Q 43.703125 -1.421875 29.984375 -1.421875 
Q 24.8125 -1.421875 18.96875 -0.25 
Q 13.140625 0.921875 6.890625 3.21875 
L 6.890625 13.375 
Q 12.890625 10.015625 18.65625 8.296875 
Q 24.421875 6.59375 29.984375 6.59375 
Q 38.421875 6.59375 43.015625 9.90625 
Q 47.609375 13.234375 47.609375 19.390625 
Q 47.609375 24.75 44.3125 27.78125 
Q 41.015625 30.8125 33.5 32.328125 
L 27.484375 33.5 
Q 16.453125 35.6875 11.515625 40.375 
Q 6.59375 45.0625 6.59375 53.421875 
Q 6.59375 63.09375 13.40625 68.65625 
Q 20.21875 74.21875 32.171875 74.21875 
Q 37.3125 74.21875 42.625 73.28125 
Q 47.953125 72.359375 53.515625 70.515625 
z
" id="DejaVuSans-83"/>
       <path d="M 9.421875 54.6875 
L 18.40625 54.6875 
L 18.40625 0 
L 9.421875 0 
z
M 9.421875 75.984375 
L 18.40625 75.984375 
L 18.40625 64.59375 
L 9.421875 64.59375 
z
" id="DejaVuSans-105"/>
       <path d="M 5.515625 54.6875 
L 48.1875 54.6875 
L 48.1875 46.484375 
L 14.40625 7.171875 
L 48.1875 7.171875 
L 48.1875 0 
L 4.296875 0 
L 4.296875 8.203125 
L 38.09375 47.515625 
L 5.515625 47.515625 
z
" id="DejaVuSans-122"/>
      </defs>
      <use xlink:href="#DejaVuSans-66"/>
      <use x="68.603516" xlink:href="#DejaVuSans-117"/>
      <use x="131.982422" xlink:href="#DejaVuSans-102"/>
      <use x="167.1875" xlink:href="#DejaVuSans-102"/>
      <use x="202.392578" xlink:href="#DejaVuSans-101"/>
      <use x="263.916016" xlink:href="#DejaVuSans-114"/>
      <use x="305.029297" xlink:href="#DejaVuSans-32"/>
      <use x="336.816406" xlink:href="#DejaVuSans-83"/>
      <use x="400.292969" xlink:href="#DejaVuSans-105"/>
      <use x="428.076172" xlink:href="#DejaVuSans-122"/>
      <use x="480.566406" xlink:href="#DejaVuSans-101"/>
     </g>
    </g>
   </g>
   <g id="matplotlib.axis_2">
    <g id="ytick_1">
     <g id="line2d_21">
      <path clip-path="url(#pe8b6f9316c)" d="M 56.64375 308.261416 
L 433.400196 308.261416 
" style="fill:none;stroke:#b0b0b0;stroke-linecap:square;stroke-width:0.8;"/>
     </g>
     <g id="line2d_22">
      <defs>
       <path d="M 0 0 
L -3.5 0 
" id="mc3ce260a5b" style="stroke:#000000;stroke-width:0.8;"/>
      </defs>
      <g>
       <use style="stroke:#000000;stroke-width:0.8;" x="56.64375" xlink:href="#mc3ce260a5b" y="308.261416"/>
      </g>
     </g>
     <g id="text_6">
      <!-- 25 -->
      <g transform="translate(30.55625 313.960244)scale(0.15 -0.15)">
       <use xlink:href="#DejaVuSans-50"/>
       <use x="63.623047" xlink:href="#DejaVuSans-53"/>
      </g>
     </g>
    </g>
    <g id="ytick_2">
     <g id="line2d_23">
      <path clip-path="url(#pe8b6f9316c)" d="M 56.64375 273.601876 
L 433.400196 273.601876 
" style="fill:none;stroke:#b0b0b0;stroke-linecap:square;stroke-width:0.8;"/>
     </g>
     <g id="line2d_24">
      <g>
       <use style="stroke:#000000;stroke-width:0.8;" x="56.64375" xlink:href="#mc3ce260a5b" y="273.601876"/>
      </g>
     </g>
     <g id="text_7">
      <!-- 30 -->
      <g transform="translate(30.55625 279.300704)scale(0.15 -0.15)">
       <defs>
        <path d="M 40.578125 39.3125 
Q 47.65625 37.796875 51.625 33 
Q 55.609375 28.21875 55.609375 21.1875 
Q 55.609375 10.40625 48.1875 4.484375 
Q 40.765625 -1.421875 27.09375 -1.421875 
Q 22.515625 -1.421875 17.65625 -0.515625 
Q 12.796875 0.390625 7.625 2.203125 
L 7.625 11.71875 
Q 11.71875 9.328125 16.59375 8.109375 
Q 21.484375 6.890625 26.8125 6.890625 
Q 36.078125 6.890625 40.9375 10.546875 
Q 45.796875 14.203125 45.796875 21.1875 
Q 45.796875 27.640625 41.28125 31.265625 
Q 36.765625 34.90625 28.71875 34.90625 
L 20.21875 34.90625 
L 20.21875 43.015625 
L 29.109375 43.015625 
Q 36.375 43.015625 40.234375 45.921875 
Q 44.09375 48.828125 44.09375 54.296875 
Q 44.09375 59.90625 40.109375 62.90625 
Q 36.140625 65.921875 28.71875 65.921875 
Q 24.65625 65.921875 20.015625 65.03125 
Q 15.375 64.15625 9.8125 62.3125 
L 9.8125 71.09375 
Q 15.4375 72.65625 20.34375 73.4375 
Q 25.25 74.21875 29.59375 74.21875 
Q 40.828125 74.21875 47.359375 69.109375 
Q 53.90625 64.015625 53.90625 55.328125 
Q 53.90625 49.265625 50.4375 45.09375 
Q 46.96875 40.921875 40.578125 39.3125 
z
" id="DejaVuSans-51"/>
        <path d="M 31.78125 66.40625 
Q 24.171875 66.40625 20.328125 58.90625 
Q 16.5 51.421875 16.5 36.375 
Q 16.5 21.390625 20.328125 13.890625 
Q 24.171875 6.390625 31.78125 6.390625 
Q 39.453125 6.390625 43.28125 13.890625 
Q 47.125 21.390625 47.125 36.375 
Q 47.125 51.421875 43.28125 58.90625 
Q 39.453125 66.40625 31.78125 66.40625 
z
M 31.78125 74.21875 
Q 44.046875 74.21875 50.515625 64.515625 
Q 56.984375 54.828125 56.984375 36.375 
Q 56.984375 17.96875 50.515625 8.265625 
Q 44.046875 -1.421875 31.78125 -1.421875 
Q 19.53125 -1.421875 13.0625 8.265625 
Q 6.59375 17.96875 6.59375 36.375 
Q 6.59375 54.828125 13.0625 64.515625 
Q 19.53125 74.21875 31.78125 74.21875 
z
" id="DejaVuSans-48"/>
       </defs>
       <use xlink:href="#DejaVuSans-51"/>
       <use x="63.623047" xlink:href="#DejaVuSans-48"/>
      </g>
     </g>
    </g>
    <g id="ytick_3">
     <g id="line2d_25">
      <path clip-path="url(#pe8b6f9316c)" d="M 56.64375 238.942336 
L 433.400196 238.942336 
" style="fill:none;stroke:#b0b0b0;stroke-linecap:square;stroke-width:0.8;"/>
     </g>
     <g id="line2d_26">
      <g>
       <use style="stroke:#000000;stroke-width:0.8;" x="56.64375" xlink:href="#mc3ce260a5b" y="238.942336"/>
      </g>
     </g>
     <g id="text_8">
      <!-- 35 -->
      <g transform="translate(30.55625 244.641164)scale(0.15 -0.15)">
       <use xlink:href="#DejaVuSans-51"/>
       <use x="63.623047" xlink:href="#DejaVuSans-53"/>
      </g>
     </g>
    </g>
    <g id="ytick_4">
     <g id="line2d_27">
      <path clip-path="url(#pe8b6f9316c)" d="M 56.64375 204.282796 
L 433.400196 204.282796 
" style="fill:none;stroke:#b0b0b0;stroke-linecap:square;stroke-width:0.8;"/>
     </g>
     <g id="line2d_28">
      <g>
       <use style="stroke:#000000;stroke-width:0.8;" x="56.64375" xlink:href="#mc3ce260a5b" y="204.282796"/>
      </g>
     </g>
     <g id="text_9">
      <!-- 40 -->
      <g transform="translate(30.55625 209.981624)scale(0.15 -0.15)">
       <use xlink:href="#DejaVuSans-52"/>
       <use x="63.623047" xlink:href="#DejaVuSans-48"/>
      </g>
     </g>
    </g>
    <g id="ytick_5">
     <g id="line2d_29">
      <path clip-path="url(#pe8b6f9316c)" d="M 56.64375 169.623256 
L 433.400196 169.623256 
" style="fill:none;stroke:#b0b0b0;stroke-linecap:square;stroke-width:0.8;"/>
     </g>
     <g id="line2d_30">
      <g>
       <use style="stroke:#000000;stroke-width:0.8;" x="56.64375" xlink:href="#mc3ce260a5b" y="169.623256"/>
      </g>
     </g>
     <g id="text_10">
      <!-- 45 -->
      <g transform="translate(30.55625 175.322084)scale(0.15 -0.15)">
       <use xlink:href="#DejaVuSans-52"/>
       <use x="63.623047" xlink:href="#DejaVuSans-53"/>
      </g>
     </g>
    </g>
    <g id="ytick_6">
     <g id="line2d_31">
      <path clip-path="url(#pe8b6f9316c)" d="M 56.64375 134.963716 
L 433.400196 134.963716 
" style="fill:none;stroke:#b0b0b0;stroke-linecap:square;stroke-width:0.8;"/>
     </g>
     <g id="line2d_32">
      <g>
       <use style="stroke:#000000;stroke-width:0.8;" x="56.64375" xlink:href="#mc3ce260a5b" y="134.963716"/>
      </g>
     </g>
     <g id="text_11">
      <!-- 50 -->
      <g transform="translate(30.55625 140.662544)scale(0.15 -0.15)">
       <use xlink:href="#DejaVuSans-53"/>
       <use x="63.623047" xlink:href="#DejaVuSans-48"/>
      </g>
     </g>
    </g>
    <g id="ytick_7">
     <g id="line2d_33">
      <path clip-path="url(#pe8b6f9316c)" d="M 56.64375 100.304176 
L 433.400196 100.304176 
" style="fill:none;stroke:#b0b0b0;stroke-linecap:square;stroke-width:0.8;"/>
     </g>
     <g id="line2d_34">
      <g>
       <use style="stroke:#000000;stroke-width:0.8;" x="56.64375" xlink:href="#mc3ce260a5b" y="100.304176"/>
      </g>
     </g>
     <g id="text_12">
      <!-- 55 -->
      <g transform="translate(30.55625 106.003004)scale(0.15 -0.15)">
       <use xlink:href="#DejaVuSans-53"/>
       <use x="63.623047" xlink:href="#DejaVuSans-53"/>
      </g>
     </g>
    </g>
    <g id="ytick_8">
     <g id="line2d_35">
      <path clip-path="url(#pe8b6f9316c)" d="M 56.64375 65.644636 
L 433.400196 65.644636 
" style="fill:none;stroke:#b0b0b0;stroke-linecap:square;stroke-width:0.8;"/>
     </g>
     <g id="line2d_36">
      <g>
       <use style="stroke:#000000;stroke-width:0.8;" x="56.64375" xlink:href="#mc3ce260a5b" y="65.644636"/>
      </g>
     </g>
     <g id="text_13">
      <!-- 60 -->
      <g transform="translate(30.55625 71.343464)scale(0.15 -0.15)">
       <use xlink:href="#DejaVuSans-54"/>
       <use x="63.623047" xlink:href="#DejaVuSans-48"/>
      </g>
     </g>
    </g>
    <g id="text_14">
     <!-- Total Throughput (B/ns) -->
     <g transform="translate(22.396875 303.265)rotate(-90)scale(0.2 -0.2)">
      <defs>
       <path d="M -0.296875 72.90625 
L 61.375 72.90625 
L 61.375 64.59375 
L 35.5 64.59375 
L 35.5 0 
L 25.59375 0 
L 25.59375 64.59375 
L -0.296875 64.59375 
z
" id="DejaVuSans-84"/>
       <path d="M 30.609375 48.390625 
Q 23.390625 48.390625 19.1875 42.75 
Q 14.984375 37.109375 14.984375 27.296875 
Q 14.984375 17.484375 19.15625 11.84375 
Q 23.34375 6.203125 30.609375 6.203125 
Q 37.796875 6.203125 41.984375 11.859375 
Q 46.1875 17.53125 46.1875 27.296875 
Q 46.1875 37.015625 41.984375 42.703125 
Q 37.796875 48.390625 30.609375 48.390625 
z
M 30.609375 56 
Q 42.328125 56 49.015625 48.375 
Q 55.71875 40.765625 55.71875 27.296875 
Q 55.71875 13.875 49.015625 6.21875 
Q 42.328125 -1.421875 30.609375 -1.421875 
Q 18.84375 -1.421875 12.171875 6.21875 
Q 5.515625 13.875 5.515625 27.296875 
Q 5.515625 40.765625 12.171875 48.375 
Q 18.84375 56 30.609375 56 
z
" id="DejaVuSans-111"/>
       <path d="M 18.3125 70.21875 
L 18.3125 54.6875 
L 36.8125 54.6875 
L 36.8125 47.703125 
L 18.3125 47.703125 
L 18.3125 18.015625 
Q 18.3125 11.328125 20.140625 9.421875 
Q 21.96875 7.515625 27.59375 7.515625 
L 36.8125 7.515625 
L 36.8125 0 
L 27.59375 0 
Q 17.1875 0 13.234375 3.875 
Q 9.28125 7.765625 9.28125 18.015625 
L 9.28125 47.703125 
L 2.6875 47.703125 
L 2.6875 54.6875 
L 9.28125 54.6875 
L 9.28125 70.21875 
z
" id="DejaVuSans-116"/>
       <path d="M 34.28125 27.484375 
Q 23.390625 27.484375 19.1875 25 
Q 14.984375 22.515625 14.984375 16.5 
Q 14.984375 11.71875 18.140625 8.90625 
Q 21.296875 6.109375 26.703125 6.109375 
Q 34.1875 6.109375 38.703125 11.40625 
Q 43.21875 16.703125 43.21875 25.484375 
L 43.21875 27.484375 
z
M 52.203125 31.203125 
L 52.203125 0 
L 43.21875 0 
L 43.21875 8.296875 
Q 40.140625 3.328125 35.546875 0.953125 
Q 30.953125 -1.421875 24.3125 -1.421875 
Q 15.921875 -1.421875 10.953125 3.296875 
Q 6 8.015625 6 15.921875 
Q 6 25.140625 12.171875 29.828125 
Q 18.359375 34.515625 30.609375 34.515625 
L 43.21875 34.515625 
L 43.21875 35.40625 
Q 43.21875 41.609375 39.140625 45 
Q 35.0625 48.390625 27.6875 48.390625 
Q 23 48.390625 18.546875 47.265625 
Q 14.109375 46.140625 10.015625 43.890625 
L 10.015625 52.203125 
Q 14.9375 54.109375 19.578125 55.046875 
Q 24.21875 56 28.609375 56 
Q 40.484375 56 46.34375 49.84375 
Q 52.203125 43.703125 52.203125 31.203125 
z
" id="DejaVuSans-97"/>
       <path d="M 9.421875 75.984375 
L 18.40625 75.984375 
L 18.40625 0 
L 9.421875 0 
z
" id="DejaVuSans-108"/>
       <path d="M 54.890625 33.015625 
L 54.890625 0 
L 45.90625 0 
L 45.90625 32.71875 
Q 45.90625 40.484375 42.875 44.328125 
Q 39.84375 48.1875 33.796875 48.1875 
Q 26.515625 48.1875 22.3125 43.546875 
Q 18.109375 38.921875 18.109375 30.90625 
L 18.109375 0 
L 9.078125 0 
L 9.078125 75.984375 
L 18.109375 75.984375 
L 18.109375 46.1875 
Q 21.34375 51.125 25.703125 53.5625 
Q 30.078125 56 35.796875 56 
Q 45.21875 56 50.046875 50.171875 
Q 54.890625 44.34375 54.890625 33.015625 
z
" id="DejaVuSans-104"/>
       <path d="M 45.40625 27.984375 
Q 45.40625 37.75 41.375 43.109375 
Q 37.359375 48.484375 30.078125 48.484375 
Q 22.859375 48.484375 18.828125 43.109375 
Q 14.796875 37.75 14.796875 27.984375 
Q 14.796875 18.265625 18.828125 12.890625 
Q 22.859375 7.515625 30.078125 7.515625 
Q 37.359375 7.515625 41.375 12.890625 
Q 45.40625 18.265625 45.40625 27.984375 
z
M 54.390625 6.78125 
Q 54.390625 -7.171875 48.1875 -13.984375 
Q 42 -20.796875 29.203125 -20.796875 
Q 24.46875 -20.796875 20.265625 -20.09375 
Q 16.0625 -19.390625 12.109375 -17.921875 
L 12.109375 -9.1875 
Q 16.0625 -11.328125 19.921875 -12.34375 
Q 23.78125 -13.375 27.78125 -13.375 
Q 36.625 -13.375 41.015625 -8.765625 
Q 45.40625 -4.15625 45.40625 5.171875 
L 45.40625 9.625 
Q 42.625 4.78125 38.28125 2.390625 
Q 33.9375 0 27.875 0 
Q 17.828125 0 11.671875 7.65625 
Q 5.515625 15.328125 5.515625 27.984375 
Q 5.515625 40.671875 11.671875 48.328125 
Q 17.828125 56 27.875 56 
Q 33.9375 56 38.28125 53.609375 
Q 42.625 51.21875 45.40625 46.390625 
L 45.40625 54.6875 
L 54.390625 54.6875 
z
" id="DejaVuSans-103"/>
       <path d="M 18.109375 8.203125 
L 18.109375 -20.796875 
L 9.078125 -20.796875 
L 9.078125 54.6875 
L 18.109375 54.6875 
L 18.109375 46.390625 
Q 20.953125 51.265625 25.265625 53.625 
Q 29.59375 56 35.59375 56 
Q 45.5625 56 51.78125 48.09375 
Q 58.015625 40.1875 58.015625 27.296875 
Q 58.015625 14.40625 51.78125 6.484375 
Q 45.5625 -1.421875 35.59375 -1.421875 
Q 29.59375 -1.421875 25.265625 0.953125 
Q 20.953125 3.328125 18.109375 8.203125 
z
M 48.6875 27.296875 
Q 48.6875 37.203125 44.609375 42.84375 
Q 40.53125 48.484375 33.40625 48.484375 
Q 26.265625 48.484375 22.1875 42.84375 
Q 18.109375 37.203125 18.109375 27.296875 
Q 18.109375 17.390625 22.1875 11.75 
Q 26.265625 6.109375 33.40625 6.109375 
Q 40.53125 6.109375 44.609375 11.75 
Q 48.6875 17.390625 48.6875 27.296875 
z
" id="DejaVuSans-112"/>
       <path d="M 31 75.875 
Q 24.46875 64.65625 21.28125 53.65625 
Q 18.109375 42.671875 18.109375 31.390625 
Q 18.109375 20.125 21.3125 9.0625 
Q 24.515625 -2 31 -13.1875 
L 23.1875 -13.1875 
Q 15.875 -1.703125 12.234375 9.375 
Q 8.59375 20.453125 8.59375 31.390625 
Q 8.59375 42.28125 12.203125 53.3125 
Q 15.828125 64.359375 23.1875 75.875 
z
" id="DejaVuSans-40"/>
       <path d="M 25.390625 72.90625 
L 33.6875 72.90625 
L 8.296875 -9.28125 
L 0 -9.28125 
z
" id="DejaVuSans-47"/>
       <path d="M 54.890625 33.015625 
L 54.890625 0 
L 45.90625 0 
L 45.90625 32.71875 
Q 45.90625 40.484375 42.875 44.328125 
Q 39.84375 48.1875 33.796875 48.1875 
Q 26.515625 48.1875 22.3125 43.546875 
Q 18.109375 38.921875 18.109375 30.90625 
L 18.109375 0 
L 9.078125 0 
L 9.078125 54.6875 
L 18.109375 54.6875 
L 18.109375 46.1875 
Q 21.34375 51.125 25.703125 53.5625 
Q 30.078125 56 35.796875 56 
Q 45.21875 56 50.046875 50.171875 
Q 54.890625 44.34375 54.890625 33.015625 
z
" id="DejaVuSans-110"/>
       <path d="M 44.28125 53.078125 
L 44.28125 44.578125 
Q 40.484375 46.53125 36.375 47.5 
Q 32.28125 48.484375 27.875 48.484375 
Q 21.1875 48.484375 17.84375 46.4375 
Q 14.5 44.390625 14.5 40.28125 
Q 14.5 37.15625 16.890625 35.375 
Q 19.28125 33.59375 26.515625 31.984375 
L 29.59375 31.296875 
Q 39.15625 29.25 43.1875 25.515625 
Q 47.21875 21.78125 47.21875 15.09375 
Q 47.21875 7.46875 41.1875 3.015625 
Q 35.15625 -1.421875 24.609375 -1.421875 
Q 20.21875 -1.421875 15.453125 -0.5625 
Q 10.6875 0.296875 5.421875 2 
L 5.421875 11.28125 
Q 10.40625 8.6875 15.234375 7.390625 
Q 20.0625 6.109375 24.8125 6.109375 
Q 31.15625 6.109375 34.5625 8.28125 
Q 37.984375 10.453125 37.984375 14.40625 
Q 37.984375 18.0625 35.515625 20.015625 
Q 33.0625 21.96875 24.703125 23.78125 
L 21.578125 24.515625 
Q 13.234375 26.265625 9.515625 29.90625 
Q 5.8125 33.546875 5.8125 39.890625 
Q 5.8125 47.609375 11.28125 51.796875 
Q 16.75 56 26.8125 56 
Q 31.78125 56 36.171875 55.265625 
Q 40.578125 54.546875 44.28125 53.078125 
z
" id="DejaVuSans-115"/>
       <path d="M 8.015625 75.875 
L 15.828125 75.875 
Q 23.140625 64.359375 26.78125 53.3125 
Q 30.421875 42.28125 30.421875 31.390625 
Q 30.421875 20.453125 26.78125 9.375 
Q 23.140625 -1.703125 15.828125 -13.1875 
L 8.015625 -13.1875 
Q 14.5 -2 17.703125 9.0625 
Q 20.90625 20.125 20.90625 31.390625 
Q 20.90625 42.671875 17.703125 53.65625 
Q 14.5 64.65625 8.015625 75.875 
z
" id="DejaVuSans-41"/>
      </defs>
      <use xlink:href="#DejaVuSans-84"/>
      <use x="44.083984" xlink:href="#DejaVuSans-111"/>
      <use x="105.265625" xlink:href="#DejaVuSans-116"/>
      <use x="144.474609" xlink:href="#DejaVuSans-97"/>
      <use x="205.753906" xlink:href="#DejaVuSans-108"/>
      <use x="233.537109" xlink:href="#DejaVuSans-32"/>
      <use x="265.324219" xlink:href="#DejaVuSans-84"/>
      <use x="326.408203" xlink:href="#DejaVuSans-104"/>
      <use x="389.787109" xlink:href="#DejaVuSans-114"/>
      <use x="428.650391" xlink:href="#DejaVuSans-111"/>
      <use x="489.832031" xlink:href="#DejaVuSans-117"/>
      <use x="553.210938" xlink:href="#DejaVuSans-103"/>
      <use x="616.6875" xlink:href="#DejaVuSans-104"/>
      <use x="680.066406" xlink:href="#DejaVuSans-112"/>
      <use x="743.542969" xlink:href="#DejaVuSans-117"/>
      <use x="806.921875" xlink:href="#DejaVuSans-116"/>
      <use x="846.130859" xlink:href="#DejaVuSans-32"/>
      <use x="877.917969" xlink:href="#DejaVuSans-40"/>
      <use x="916.931641" xlink:href="#DejaVuSans-66"/>
      <use x="985.535156" xlink:href="#DejaVuSans-47"/>
      <use x="1019.226562" xlink:href="#DejaVuSans-110"/>
      <use x="1082.605469" xlink:href="#DejaVuSans-115"/>
      <use x="1134.705078" xlink:href="#DejaVuSans-41"/>
     </g>
    </g>
   </g>
   <g id="line2d_37">
    <path clip-path="url(#pe8b6f9316c)" d="M 73.769043 320.769818 
L 96.602767 320.293822 
L 119.436491 319.833868 
L 142.270215 319.601486 
L 165.103939 320.205609 
L 187.937663 319.764979 
L 210.771387 319.742317 
L 233.605111 319.788578 
L 256.438835 319.705479 
L 269.795707 319.886675 
L 279.272559 319.98277 
L 286.623376 319.679966 
L 292.629431 319.828208 
L 297.707479 325.645755 
L 302.106283 325.506234 
L 305.986304 325.284595 
L 309.4571 325.372622 
L 312.596818 325.620327 
L 315.463155 325.538724 
L 318.09993 325.211456 
L 320.541203 326.314432 
L 322.813973 325.555402 
L 324.940007 325.464066 
L 347.773731 326.136912 
L 370.607455 325.479882 
L 393.441179 326.278786 
L 416.274903 325.463187 
" style="fill:none;stroke:#1f77b4;stroke-linecap:square;stroke-width:1.5;"/>
   </g>
   <g id="line2d_38">
    <path clip-path="url(#pe8b6f9316c)" d="M 73.769043 165.673701 
L 96.602767 167.341842 
L 119.436491 165.936188 
L 142.270215 166.377476 
L 165.103939 166.025981 
L 187.937663 165.988274 
L 210.771387 166.155193 
L 233.605111 166.461647 
L 256.438835 166.787161 
L 269.795707 166.935386 
L 279.272559 166.617334 
L 286.623376 166.25741 
L 292.629431 168.634414 
L 297.707479 176.318144 
L 302.106283 176.467603 
L 305.986304 177.573061 
L 309.4571 177.222726 
L 312.596818 178.422184 
L 315.463155 177.488054 
L 318.09993 177.643032 
L 320.541203 177.649694 
L 322.813973 179.76833 
L 324.940007 177.596388 
L 347.773731 177.797851 
L 370.607455 179.29953 
L 393.441179 178.175083 
L 416.274903 177.959162 
" style="fill:none;stroke:#ff7f0e;stroke-linecap:square;stroke-width:1.5;"/>
   </g>
   <g id="line2d_39">
    <path clip-path="url(#pe8b6f9316c)" d="M 73.769043 45.478068 
L 96.602767 78.960583 
L 119.436491 71.194813 
L 142.270215 67.9649 
L 165.103939 68.429132 
L 187.937663 68.213579 
L 210.771387 69.905254 
L 233.605111 70.963897 
L 256.438835 68.17455 
L 269.795707 67.755037 
L 279.272559 67.794145 
L 286.623376 68.047141 
L 292.629431 68.425029 
L 297.707479 60.820872 
L 302.106283 60.514204 
L 305.986304 61.755152 
L 309.4571 60.624997 
L 312.596818 61.048455 
L 315.463155 60.852791 
L 318.09993 60.460917 
L 320.541203 60.422543 
L 322.813973 60.055498 
L 324.940007 59.377348 
L 347.773731 57.124103 
L 370.607455 55.13761 
L 393.441179 53.434523 
L 416.274903 51.986371 
" style="fill:none;stroke:#2ca02c;stroke-linecap:square;stroke-width:1.5;"/>
   </g>
   <g id="line2d_40">
    <path clip-path="url(#pe8b6f9316c)" d="M 73.769043 85.954483 
L 96.602767 77.467842 
L 119.436491 82.567372 
L 142.270215 80.670928 
L 165.103939 80.844734 
L 187.937663 80.785367 
L 210.771387 80.96631 
L 233.605111 80.643394 
L 256.438835 79.480659 
L 269.795707 78.93184 
L 279.272559 79.057499 
L 286.623376 78.517777 
L 292.629431 77.995695 
L 297.707479 78.662722 
L 302.106283 78.230505 
L 305.986304 78.032402 
L 309.4571 77.628255 
L 312.596818 79.075027 
L 315.463155 78.196768 
L 318.09993 78.356603 
L 320.541203 77.507589 
L 322.813973 77.906101 
L 324.940007 77.80324 
L 347.773731 76.821959 
L 370.607455 74.757004 
L 393.441179 73.113573 
L 416.274903 70.942109 
" style="fill:none;stroke:#d62728;stroke-linecap:square;stroke-width:1.5;"/>
   </g>
   <g id="line2d_41">
    <path clip-path="url(#pe8b6f9316c)" d="M 73.769043 68.483293 
L 96.602767 72.900774 
L 119.436491 78.854944 
L 142.270215 79.45646 
L 165.103939 80.163129 
L 187.937663 79.932891 
L 210.771387 80.678462 
L 233.605111 80.679622 
L 256.438835 80.151507 
L 269.795707 80.386138 
L 279.272559 79.84561 
L 286.623376 79.934054 
L 292.629431 79.248761 
L 297.707479 79.780416 
L 302.106283 79.689575 
L 305.986304 79.379473 
L 309.4571 79.726848 
L 312.596818 79.491445 
L 315.463155 79.360805 
L 318.09993 79.556733 
L 320.541203 79.573051 
L 322.813973 79.46579 
L 324.940007 79.427302 
L 347.773731 79.337468 
L 370.607455 77.848799 
L 393.441179 77.04899 
L 416.274903 75.57897 
" style="fill:none;stroke:#9467bd;stroke-linecap:square;stroke-width:1.5;"/>
   </g>
   <g id="line2d_42">
    <path clip-path="url(#pe8b6f9316c)" d="M 73.769043 88.160789 
L 96.602767 77.338732 
L 119.436491 82.536271 
L 142.270215 83.101083 
L 165.103939 82.125276 
L 187.937663 84.375801 
L 210.771387 83.377648 
L 233.605111 83.346196 
L 256.438835 83.046678 
L 269.795707 83.022812 
L 279.272559 83.017083 
L 286.623376 82.841334 
L 292.629431 83.348102 
L 297.707479 82.532443 
L 302.106283 82.701771 
L 305.986304 82.32082 
L 309.4571 82.657778 
L 312.596818 82.910124 
L 315.463155 82.951196 
L 318.09993 82.699858 
L 320.541203 82.722807 
L 322.813973 82.875732 
L 324.940007 82.840379 
L 347.773731 82.823177 
L 370.607455 83.380507 
L 393.441179 82.431926 
L 416.274903 81.041533 
" style="fill:none;stroke:#8c564b;stroke-linecap:square;stroke-width:1.5;"/>
   </g>
   <g id="line2d_43">
    <path clip-path="url(#pe8b6f9316c)" d="M 73.769043 86.77463 
L 96.602767 83.886178 
L 119.436491 81.872484 
L 142.270215 83.422026 
L 165.103939 85.021179 
L 187.937663 85.430685 
L 210.771387 85.83854 
L 233.605111 85.95146 
L 256.438835 85.379746 
L 269.795707 85.418558 
L 279.272559 85.411281 
L 286.623376 85.347396 
L 292.629431 86.278563 
L 297.707479 86.046585 
L 302.106283 86.424216 
L 305.986304 86.589856 
L 309.4571 86.285808 
L 312.596818 86.473279 
L 315.463155 86.841267 
L 318.09993 86.971264 
L 320.541203 86.975275 
L 322.813973 87.07071 
L 324.940007 87.400769 
L 347.773731 87.499999 
L 370.607455 86.677444 
L 393.441179 85.374893 
L 416.274903 84.007543 
" style="fill:none;stroke:#e377c2;stroke-linecap:square;stroke-width:1.5;"/>
   </g>
   <g id="line2d_44">
    <path clip-path="url(#pe8b6f9316c)" d="M 73.769043 87.432684 
L 96.602767 87.085743 
L 119.436491 84.871348 
L 142.270215 86.644704 
L 165.103939 88.005376 
L 187.937663 87.480997 
L 210.771387 88.768467 
L 233.605111 89.075654 
L 256.438835 88.227291 
L 269.795707 88.977017 
L 279.272559 89.777871 
L 286.623376 89.692049 
L 292.629431 90.614053 
L 297.707479 90.696717 
L 302.106283 91.038713 
L 305.986304 91.215326 
L 309.4571 91.1157 
L 312.596818 91.486462 
L 315.463155 91.415111 
L 318.09993 91.55093 
L 320.541203 91.084772 
L 322.813973 91.173421 
L 324.940007 91.200901 
L 347.773731 91.187848 
L 370.607455 89.45515 
L 393.441179 88.696814 
L 416.274903 87.279264 
" style="fill:none;stroke:#7f7f7f;stroke-linecap:square;stroke-width:1.5;"/>
   </g>
   <g id="line2d_45">
    <path clip-path="url(#pe8b6f9316c)" d="M 73.769043 88.479917 
L 96.602767 88.07891 
L 119.436491 86.446023 
L 142.270215 86.549218 
L 165.103939 86.8154 
L 187.937663 86.965203 
L 210.771387 87.246401 
L 233.605111 87.394632 
L 256.438835 87.197174 
L 269.795707 89.569094 
L 279.272559 90.158697 
L 286.623376 90.361174 
L 292.629431 90.700008 
L 297.707479 90.800993 
L 302.106283 90.714088 
L 305.986304 91.252033 
L 309.4571 90.74408 
L 312.596818 90.714088 
L 315.463155 90.663885 
L 318.09993 90.643066 
L 320.541203 90.624082 
L 322.813973 90.643066 
L 324.940007 90.705517 
L 347.773731 89.248033 
L 370.607455 88.269289 
L 393.441179 87.034449 
L 416.274903 86.375319 
" style="fill:none;stroke:#bcbd22;stroke-linecap:square;stroke-width:1.5;"/>
   </g>
   <g id="line2d_46">
    <path clip-path="url(#pe8b6f9316c)" d="M 73.769043 88.961036 
L 96.602767 93.692258 
L 119.436491 87.046174 
L 142.270215 88.894319 
L 165.103939 88.966039 
L 187.937663 88.005376 
L 210.771387 88.179022 
L 233.605111 88.079655 
L 256.438835 88.171208 
L 269.795707 90.029308 
L 279.272559 90.827669 
L 286.623376 91.10168 
L 292.629431 91.563547 
L 297.707479 91.534472 
L 302.106283 91.569032 
L 305.986304 91.462041 
L 309.4571 91.507039 
L 312.596818 91.603586 
L 315.463155 91.638682 
L 318.09993 91.575066 
L 320.541203 91.544896 
L 322.813973 91.562998 
L 324.940007 91.502649 
L 347.773731 90.105036 
L 370.607455 89.236006 
L 393.441179 88.114271 
L 416.274903 87.624606 
" style="fill:none;stroke:#17becf;stroke-linecap:square;stroke-width:1.5;"/>
   </g>
   <g id="line2d_47">
    <path clip-path="url(#pe8b6f9316c)" d="M 119.436491 340.35625 
L 119.436491 31.43625 
" style="fill:none;stroke:#d62728;stroke-linecap:square;stroke-width:3;"/>
   </g>
   <g id="line2d_48">
    <path clip-path="url(#pe8b6f9316c)" d="M 233.605111 340.35625 
L 233.605111 31.43625 
" style="fill:none;stroke:#ff7f0e;stroke-linecap:square;stroke-width:3;"/>
   </g>
   <g id="patch_3">
    <path d="M 56.64375 340.35625 
L 56.64375 31.43625 
" style="fill:none;stroke:#000000;stroke-linecap:square;stroke-linejoin:miter;stroke-width:0.8;"/>
   </g>
   <g id="patch_4">
    <path d="M 433.400196 340.35625 
L 433.400196 31.43625 
" style="fill:none;stroke:#000000;stroke-linecap:square;stroke-linejoin:miter;stroke-width:0.8;"/>
   </g>
   <g id="patch_5">
    <path d="M 56.64375 340.35625 
L 433.400196 340.35625 
" style="fill:none;stroke:#000000;stroke-linecap:square;stroke-linejoin:miter;stroke-width:0.8;"/>
   </g>
   <g id="patch_6">
    <path d="M 56.64375 31.43625 
L 433.400196 31.43625 
" style="fill:none;stroke:#000000;stroke-linecap:square;stroke-linejoin:miter;stroke-width:0.8;"/>
   </g>
   <g id="text_15">
    <!-- L1d -->
    <g style="fill:#d62728;" transform="translate(115.485085 266.70887)rotate(-90)scale(0.19 -0.19)">
     <defs>
      <path d="M 9.8125 72.90625 
L 19.671875 72.90625 
L 19.671875 8.296875 
L 55.171875 8.296875 
L 55.171875 0 
L 9.8125 0 
z
" id="DejaVuSans-76"/>
      <path d="M 45.40625 46.390625 
L 45.40625 75.984375 
L 54.390625 75.984375 
L 54.390625 0 
L 45.40625 0 
L 45.40625 8.203125 
Q 42.578125 3.328125 38.25 0.953125 
Q 33.9375 -1.421875 27.875 -1.421875 
Q 17.96875 -1.421875 11.734375 6.484375 
Q 5.515625 14.40625 5.515625 27.296875 
Q 5.515625 40.1875 11.734375 48.09375 
Q 17.96875 56 27.875 56 
Q 33.9375 56 38.25 53.625 
Q 42.578125 51.265625 45.40625 46.390625 
z
M 14.796875 27.296875 
Q 14.796875 17.390625 18.875 11.75 
Q 22.953125 6.109375 30.078125 6.109375 
Q 37.203125 6.109375 41.296875 11.75 
Q 45.40625 17.390625 45.40625 27.296875 
Q 45.40625 37.203125 41.296875 42.84375 
Q 37.203125 48.484375 30.078125 48.484375 
Q 22.953125 48.484375 18.875 42.84375 
Q 14.796875 37.203125 14.796875 27.296875 
z
" id="DejaVuSans-100"/>
     </defs>
     <use xlink:href="#DejaVuSans-76"/>
     <use x="55.712891" xlink:href="#DejaVuSans-49"/>
     <use x="119.335938" xlink:href="#DejaVuSans-100"/>
    </g>
   </g>
   <g id="text_16">
    <!-- L2 -->
    <g style="fill:#ff7f0e;" transform="translate(229.653705 260.677854)rotate(-90)scale(0.19 -0.19)">
     <use xlink:href="#DejaVuSans-76"/>
     <use x="55.712891" xlink:href="#DejaVuSans-50"/>
    </g>
   </g>
   <g id="text_17">
    <!-- Non-Temporal Store -->
    <g transform="translate(127.393848 25.43625)scale(0.24 -0.24)">
     <defs>
      <path d="M 9.8125 72.90625 
L 23.09375 72.90625 
L 55.421875 11.921875 
L 55.421875 72.90625 
L 64.984375 72.90625 
L 64.984375 0 
L 51.703125 0 
L 19.390625 60.984375 
L 19.390625 0 
L 9.8125 0 
z
" id="DejaVuSans-78"/>
      <path d="M 4.890625 31.390625 
L 31.203125 31.390625 
L 31.203125 23.390625 
L 4.890625 23.390625 
z
" id="DejaVuSans-45"/>
      <path d="M 52 44.1875 
Q 55.375 50.25 60.0625 53.125 
Q 64.75 56 71.09375 56 
Q 79.640625 56 84.28125 50.015625 
Q 88.921875 44.046875 88.921875 33.015625 
L 88.921875 0 
L 79.890625 0 
L 79.890625 32.71875 
Q 79.890625 40.578125 77.09375 44.375 
Q 74.3125 48.1875 68.609375 48.1875 
Q 61.625 48.1875 57.5625 43.546875 
Q 53.515625 38.921875 53.515625 30.90625 
L 53.515625 0 
L 44.484375 0 
L 44.484375 32.71875 
Q 44.484375 40.625 41.703125 44.40625 
Q 38.921875 48.1875 33.109375 48.1875 
Q 26.21875 48.1875 22.15625 43.53125 
Q 18.109375 38.875 18.109375 30.90625 
L 18.109375 0 
L 9.078125 0 
L 9.078125 54.6875 
L 18.109375 54.6875 
L 18.109375 46.1875 
Q 21.1875 51.21875 25.484375 53.609375 
Q 29.78125 56 35.6875 56 
Q 41.65625 56 45.828125 52.96875 
Q 50 49.953125 52 44.1875 
z
" id="DejaVuSans-109"/>
     </defs>
     <use xlink:href="#DejaVuSans-78"/>
     <use x="74.804688" xlink:href="#DejaVuSans-111"/>
     <use x="135.986328" xlink:href="#DejaVuSans-110"/>
     <use x="199.365234" xlink:href="#DejaVuSans-45"/>
     <use x="226.324219" xlink:href="#DejaVuSans-84"/>
     <use x="270.408203" xlink:href="#DejaVuSans-101"/>
     <use x="331.931641" xlink:href="#DejaVuSans-109"/>
     <use x="429.34375" xlink:href="#DejaVuSans-112"/>
     <use x="492.820312" xlink:href="#DejaVuSans-111"/>
     <use x="554.001953" xlink:href="#DejaVuSans-114"/>
     <use x="595.115234" xlink:href="#DejaVuSans-97"/>
     <use x="656.394531" xlink:href="#DejaVuSans-108"/>
     <use x="684.177734" xlink:href="#DejaVuSans-32"/>
     <use x="715.964844" xlink:href="#DejaVuSans-83"/>
     <use x="779.441406" xlink:href="#DejaVuSans-116"/>
     <use x="818.650391" xlink:href="#DejaVuSans-111"/>
     <use x="879.832031" xlink:href="#DejaVuSans-114"/>
     <use x="918.695312" xlink:href="#DejaVuSans-101"/>
    </g>
   </g>
   <g id="legend_1">
    <g id="patch_7">
     <path d="M 244.389296 302.52425 
L 423.684196 302.52425 
Q 426.460196 302.52425 426.460196 299.74825 
L 426.460196 199.270062 
Q 426.460196 196.494062 423.684196 196.494062 
L 244.389296 196.494062 
Q 241.613296 196.494062 241.613296 199.270062 
L 241.613296 299.74825 
Q 241.613296 302.52425 244.389296 302.52425 
z
" style="fill:#ffffff;opacity:0.8;stroke:#cccccc;stroke-linejoin:miter;"/>
    </g>
    <g id="line2d_49">
     <path d="M 247.165296 207.734694 
L 261.045296 207.734694 
" style="fill:none;stroke:#1f77b4;stroke-linecap:square;stroke-width:1.5;"/>
    </g>
    <g id="line2d_50"/>
    <g id="text_18">
     <!-- 1 cores -->
     <g transform="translate(272.149296 212.592694)scale(0.1388 -0.1388)">
      <defs>
       <path d="M 48.78125 52.59375 
L 48.78125 44.1875 
Q 44.96875 46.296875 41.140625 47.34375 
Q 37.3125 48.390625 33.40625 48.390625 
Q 24.65625 48.390625 19.8125 42.84375 
Q 14.984375 37.3125 14.984375 27.296875 
Q 14.984375 17.28125 19.8125 11.734375 
Q 24.65625 6.203125 33.40625 6.203125 
Q 37.3125 6.203125 41.140625 7.25 
Q 44.96875 8.296875 48.78125 10.40625 
L 48.78125 2.09375 
Q 45.015625 0.34375 40.984375 -0.53125 
Q 36.96875 -1.421875 32.421875 -1.421875 
Q 20.0625 -1.421875 12.78125 6.34375 
Q 5.515625 14.109375 5.515625 27.296875 
Q 5.515625 40.671875 12.859375 48.328125 
Q 20.21875 56 33.015625 56 
Q 37.15625 56 41.109375 55.140625 
Q 45.0625 54.296875 48.78125 52.59375 
z
" id="DejaVuSans-99"/>
      </defs>
      <use xlink:href="#DejaVuSans-49"/>
      <use x="63.623047" xlink:href="#DejaVuSans-32"/>
      <use x="95.410156" xlink:href="#DejaVuSans-99"/>
      <use x="150.390625" xlink:href="#DejaVuSans-111"/>
      <use x="211.572266" xlink:href="#DejaVuSans-114"/>
      <use x="250.435547" xlink:href="#DejaVuSans-101"/>
      <use x="311.958984" xlink:href="#DejaVuSans-115"/>
     </g>
    </g>
    <g id="line2d_51">
     <path d="M 247.165296 228.107931 
L 261.045296 228.107931 
" style="fill:none;stroke:#ff7f0e;stroke-linecap:square;stroke-width:1.5;"/>
    </g>
    <g id="line2d_52"/>
    <g id="text_19">
     <!-- 2 cores -->
     <g transform="translate(272.149296 232.965931)scale(0.1388 -0.1388)">
      <use xlink:href="#DejaVuSans-50"/>
      <use x="63.623047" xlink:href="#DejaVuSans-32"/>
      <use x="95.410156" xlink:href="#DejaVuSans-99"/>
      <use x="150.390625" xlink:href="#DejaVuSans-111"/>
      <use x="211.572266" xlink:href="#DejaVuSans-114"/>
      <use x="250.435547" xlink:href="#DejaVuSans-101"/>
      <use x="311.958984" xlink:href="#DejaVuSans-115"/>
     </g>
    </g>
    <g id="line2d_53">
     <path d="M 247.165296 248.481169 
L 261.045296 248.481169 
" style="fill:none;stroke:#2ca02c;stroke-linecap:square;stroke-width:1.5;"/>
    </g>
    <g id="line2d_54"/>
    <g id="text_20">
     <!-- 3 cores -->
     <g transform="translate(272.149296 253.339169)scale(0.1388 -0.1388)">
      <use xlink:href="#DejaVuSans-51"/>
      <use x="63.623047" xlink:href="#DejaVuSans-32"/>
      <use x="95.410156" xlink:href="#DejaVuSans-99"/>
      <use x="150.390625" xlink:href="#DejaVuSans-111"/>
      <use x="211.572266" xlink:href="#DejaVuSans-114"/>
      <use x="250.435547" xlink:href="#DejaVuSans-101"/>
      <use x="311.958984" xlink:href="#DejaVuSans-115"/>
     </g>
    </g>
    <g id="line2d_55">
     <path d="M 247.165296 268.854406 
L 261.045296 268.854406 
" style="fill:none;stroke:#d62728;stroke-linecap:square;stroke-width:1.5;"/>
    </g>
    <g id="line2d_56"/>
    <g id="text_21">
     <!-- 4 cores -->
     <g transform="translate(272.149296 273.712406)scale(0.1388 -0.1388)">
      <use xlink:href="#DejaVuSans-52"/>
      <use x="63.623047" xlink:href="#DejaVuSans-32"/>
      <use x="95.410156" xlink:href="#DejaVuSans-99"/>
      <use x="150.390625" xlink:href="#DejaVuSans-111"/>
      <use x="211.572266" xlink:href="#DejaVuSans-114"/>
      <use x="250.435547" xlink:href="#DejaVuSans-101"/>
      <use x="311.958984" xlink:href="#DejaVuSans-115"/>
     </g>
    </g>
    <g id="line2d_57">
     <path d="M 247.165296 289.227644 
L 261.045296 289.227644 
" style="fill:none;stroke:#9467bd;stroke-linecap:square;stroke-width:1.5;"/>
    </g>
    <g id="line2d_58"/>
    <g id="text_22">
     <!-- 5 cores -->
     <g transform="translate(272.149296 294.085644)scale(0.1388 -0.1388)">
      <use xlink:href="#DejaVuSans-53"/>
      <use x="63.623047" xlink:href="#DejaVuSans-32"/>
      <use x="95.410156" xlink:href="#DejaVuSans-99"/>
      <use x="150.390625" xlink:href="#DejaVuSans-111"/>
      <use x="211.572266" xlink:href="#DejaVuSans-114"/>
      <use x="250.435547" xlink:href="#DejaVuSans-101"/>
      <use x="311.958984" xlink:href="#DejaVuSans-115"/>
     </g>
    </g>
    <g id="line2d_59">
     <path d="M 336.561171 207.734694 
L 350.441171 207.734694 
" style="fill:none;stroke:#8c564b;stroke-linecap:square;stroke-width:1.5;"/>
    </g>
    <g id="line2d_60"/>
    <g id="text_23">
     <!-- 6 cores -->
     <g transform="translate(361.545171 212.592694)scale(0.1388 -0.1388)">
      <use xlink:href="#DejaVuSans-54"/>
      <use x="63.623047" xlink:href="#DejaVuSans-32"/>
      <use x="95.410156" xlink:href="#DejaVuSans-99"/>
      <use x="150.390625" xlink:href="#DejaVuSans-111"/>
      <use x="211.572266" xlink:href="#DejaVuSans-114"/>
      <use x="250.435547" xlink:href="#DejaVuSans-101"/>
      <use x="311.958984" xlink:href="#DejaVuSans-115"/>
     </g>
    </g>
    <g id="line2d_61">
     <path d="M 336.561171 228.107931 
L 350.441171 228.107931 
" style="fill:none;stroke:#e377c2;stroke-linecap:square;stroke-width:1.5;"/>
    </g>
    <g id="line2d_62"/>
    <g id="text_24">
     <!-- 7 cores -->
     <g transform="translate(361.545171 232.965931)scale(0.1388 -0.1388)">
      <defs>
       <path d="M 8.203125 72.90625 
L 55.078125 72.90625 
L 55.078125 68.703125 
L 28.609375 0 
L 18.3125 0 
L 43.21875 64.59375 
L 8.203125 64.59375 
z
" id="DejaVuSans-55"/>
      </defs>
      <use xlink:href="#DejaVuSans-55"/>
      <use x="63.623047" xlink:href="#DejaVuSans-32"/>
      <use x="95.410156" xlink:href="#DejaVuSans-99"/>
      <use x="150.390625" xlink:href="#DejaVuSans-111"/>
      <use x="211.572266" xlink:href="#DejaVuSans-114"/>
      <use x="250.435547" xlink:href="#DejaVuSans-101"/>
      <use x="311.958984" xlink:href="#DejaVuSans-115"/>
     </g>
    </g>
    <g id="line2d_63">
     <path d="M 336.561171 248.481169 
L 350.441171 248.481169 
" style="fill:none;stroke:#7f7f7f;stroke-linecap:square;stroke-width:1.5;"/>
    </g>
    <g id="line2d_64"/>
    <g id="text_25">
     <!-- 8 cores -->
     <g transform="translate(361.545171 253.339169)scale(0.1388 -0.1388)">
      <defs>
       <path d="M 31.78125 34.625 
Q 24.75 34.625 20.71875 30.859375 
Q 16.703125 27.09375 16.703125 20.515625 
Q 16.703125 13.921875 20.71875 10.15625 
Q 24.75 6.390625 31.78125 6.390625 
Q 38.8125 6.390625 42.859375 10.171875 
Q 46.921875 13.96875 46.921875 20.515625 
Q 46.921875 27.09375 42.890625 30.859375 
Q 38.875 34.625 31.78125 34.625 
z
M 21.921875 38.8125 
Q 15.578125 40.375 12.03125 44.71875 
Q 8.5 49.078125 8.5 55.328125 
Q 8.5 64.0625 14.71875 69.140625 
Q 20.953125 74.21875 31.78125 74.21875 
Q 42.671875 74.21875 48.875 69.140625 
Q 55.078125 64.0625 55.078125 55.328125 
Q 55.078125 49.078125 51.53125 44.71875 
Q 48 40.375 41.703125 38.8125 
Q 48.828125 37.15625 52.796875 32.3125 
Q 56.78125 27.484375 56.78125 20.515625 
Q 56.78125 9.90625 50.3125 4.234375 
Q 43.84375 -1.421875 31.78125 -1.421875 
Q 19.734375 -1.421875 13.25 4.234375 
Q 6.78125 9.90625 6.78125 20.515625 
Q 6.78125 27.484375 10.78125 32.3125 
Q 14.796875 37.15625 21.921875 38.8125 
z
M 18.3125 54.390625 
Q 18.3125 48.734375 21.84375 45.5625 
Q 25.390625 42.390625 31.78125 42.390625 
Q 38.140625 42.390625 41.71875 45.5625 
Q 45.3125 48.734375 45.3125 54.390625 
Q 45.3125 60.0625 41.71875 63.234375 
Q 38.140625 66.40625 31.78125 66.40625 
Q 25.390625 66.40625 21.84375 63.234375 
Q 18.3125 60.0625 18.3125 54.390625 
z
" id="DejaVuSans-56"/>
      </defs>
      <use xlink:href="#DejaVuSans-56"/>
      <use x="63.623047" xlink:href="#DejaVuSans-32"/>
      <use x="95.410156" xlink:href="#DejaVuSans-99"/>
      <use x="150.390625" xlink:href="#DejaVuSans-111"/>
      <use x="211.572266" xlink:href="#DejaVuSans-114"/>
      <use x="250.435547" xlink:href="#DejaVuSans-101"/>
      <use x="311.958984" xlink:href="#DejaVuSans-115"/>
     </g>
    </g>
    <g id="line2d_65">
     <path d="M 336.561171 268.854406 
L 350.441171 268.854406 
" style="fill:none;stroke:#bcbd22;stroke-linecap:square;stroke-width:1.5;"/>
    </g>
    <g id="line2d_66"/>
    <g id="text_26">
     <!-- 9 cores -->
     <g transform="translate(361.545171 273.712406)scale(0.1388 -0.1388)">
      <defs>
       <path d="M 10.984375 1.515625 
L 10.984375 10.5 
Q 14.703125 8.734375 18.5 7.8125 
Q 22.3125 6.890625 25.984375 6.890625 
Q 35.75 6.890625 40.890625 13.453125 
Q 46.046875 20.015625 46.78125 33.40625 
Q 43.953125 29.203125 39.59375 26.953125 
Q 35.25 24.703125 29.984375 24.703125 
Q 19.046875 24.703125 12.671875 31.3125 
Q 6.296875 37.9375 6.296875 49.421875 
Q 6.296875 60.640625 12.9375 67.421875 
Q 19.578125 74.21875 30.609375 74.21875 
Q 43.265625 74.21875 49.921875 64.515625 
Q 56.59375 54.828125 56.59375 36.375 
Q 56.59375 19.140625 48.40625 8.859375 
Q 40.234375 -1.421875 26.421875 -1.421875 
Q 22.703125 -1.421875 18.890625 -0.6875 
Q 15.09375 0.046875 10.984375 1.515625 
z
M 30.609375 32.421875 
Q 37.25 32.421875 41.125 36.953125 
Q 45.015625 41.5 45.015625 49.421875 
Q 45.015625 57.28125 41.125 61.84375 
Q 37.25 66.40625 30.609375 66.40625 
Q 23.96875 66.40625 20.09375 61.84375 
Q 16.21875 57.28125 16.21875 49.421875 
Q 16.21875 41.5 20.09375 36.953125 
Q 23.96875 32.421875 30.609375 32.421875 
z
" id="DejaVuSans-57"/>
      </defs>
      <use xlink:href="#DejaVuSans-57"/>
      <use x="63.623047" xlink:href="#DejaVuSans-32"/>
      <use x="95.410156" xlink:href="#DejaVuSans-99"/>
      <use x="150.390625" xlink:href="#DejaVuSans-111"/>
      <use x="211.572266" xlink:href="#DejaVuSans-114"/>
      <use x="250.435547" xlink:href="#DejaVuSans-101"/>
      <use x="311.958984" xlink:href="#DejaVuSans-115"/>
     </g>
    </g>
    <g id="line2d_67">
     <path d="M 336.561171 289.227644 
L 350.441171 289.227644 
" style="fill:none;stroke:#17becf;stroke-linecap:square;stroke-width:1.5;"/>
    </g>
    <g id="line2d_68"/>
    <g id="text_27">
     <!-- 10 cores -->
     <g transform="translate(361.545171 294.085644)scale(0.1388 -0.1388)">
      <use xlink:href="#DejaVuSans-49"/>
      <use x="63.623047" xlink:href="#DejaVuSans-48"/>
      <use x="127.246094" xlink:href="#DejaVuSans-32"/>
      <use x="159.033203" xlink:href="#DejaVuSans-99"/>
      <use x="214.013672" xlink:href="#DejaVuSans-111"/>
      <use x="275.195312" xlink:href="#DejaVuSans-114"/>
      <use x="314.058594" xlink:href="#DejaVuSans-101"/>
      <use x="375.582031" xlink:href="#DejaVuSans-115"/>
     </g>
    </g>
   </g>
  </g>
  <g id="axes_2">
   <g id="patch_8">
    <path d="M 504.24375 340.35625 
L 881.000196 340.35625 
L 881.000196 31.43625 
L 504.24375 31.43625 
z
" style="fill:none;"/>
   </g>
   <g id="matplotlib.axis_3">
    <g id="xtick_17">
     <g id="line2d_69">
      <path clip-path="url(#p3fe259105c)" d="M 589.870215 340.35625 
L 589.870215 31.43625 
" style="fill:none;stroke:#b0b0b0;stroke-linecap:square;stroke-width:0.8;"/>
     </g>
     <g id="line2d_70">
      <g>
       <use style="stroke:#000000;stroke-width:0.8;" x="589.870215" xlink:href="#m005f0a59be" y="340.35625"/>
      </g>
     </g>
     <g id="text_28">
      <!-- 64 k -->
      <g transform="translate(573.599903 358.753906)scale(0.15 -0.15)">
       <use xlink:href="#DejaVuSans-54"/>
       <use x="63.623047" xlink:href="#DejaVuSans-52"/>
       <use x="127.246094" xlink:href="#DejaVuSans-32"/>
       <use x="159.033203" xlink:href="#DejaVuSans-107"/>
      </g>
     </g>
    </g>
    <g id="xtick_18">
     <g id="line2d_71">
      <path clip-path="url(#p3fe259105c)" d="M 681.205111 340.35625 
L 681.205111 31.43625 
" style="fill:none;stroke:#b0b0b0;stroke-linecap:square;stroke-width:0.8;"/>
     </g>
     <g id="line2d_72">
      <g>
       <use style="stroke:#000000;stroke-width:0.8;" x="681.205111" xlink:href="#m005f0a59be" y="340.35625"/>
      </g>
     </g>
     <g id="text_29">
      <!-- 1 M -->
      <g transform="translate(667.578549 358.753906)scale(0.15 -0.15)">
       <use xlink:href="#DejaVuSans-49"/>
       <use x="63.623047" xlink:href="#DejaVuSans-32"/>
       <use x="95.410156" xlink:href="#DejaVuSans-77"/>
      </g>
     </g>
    </g>
    <g id="xtick_19">
     <g id="line2d_73">
      <path clip-path="url(#p3fe259105c)" d="M 772.540007 340.35625 
L 772.540007 31.43625 
" style="fill:none;stroke:#b0b0b0;stroke-linecap:square;stroke-width:0.8;"/>
     </g>
     <g id="line2d_74">
      <g>
       <use style="stroke:#000000;stroke-width:0.8;" x="772.540007" xlink:href="#m005f0a59be" y="340.35625"/>
      </g>
     </g>
     <g id="text_30">
      <!-- 16 M -->
      <g transform="translate(754.14157 358.753906)scale(0.15 -0.15)">
       <use xlink:href="#DejaVuSans-49"/>
       <use x="63.623047" xlink:href="#DejaVuSans-54"/>
       <use x="127.246094" xlink:href="#DejaVuSans-32"/>
       <use x="159.033203" xlink:href="#DejaVuSans-77"/>
      </g>
     </g>
    </g>
    <g id="xtick_20">
     <g id="line2d_75">
      <path clip-path="url(#p3fe259105c)" d="M 863.874903 340.35625 
L 863.874903 31.43625 
" style="fill:none;stroke:#b0b0b0;stroke-linecap:square;stroke-width:0.8;"/>
     </g>
     <g id="line2d_76">
      <g>
       <use style="stroke:#000000;stroke-width:0.8;" x="863.874903" xlink:href="#m005f0a59be" y="340.35625"/>
      </g>
     </g>
     <g id="text_31">
      <!-- 256 M -->
      <g transform="translate(840.704591 358.753906)scale(0.15 -0.15)">
       <use xlink:href="#DejaVuSans-50"/>
       <use x="63.623047" xlink:href="#DejaVuSans-53"/>
       <use x="127.246094" xlink:href="#DejaVuSans-54"/>
       <use x="190.869141" xlink:href="#DejaVuSans-32"/>
       <use x="222.65625" xlink:href="#DejaVuSans-77"/>
      </g>
     </g>
    </g>
    <g id="xtick_21">
     <g id="line2d_77">
      <g>
       <use style="stroke:#000000;stroke-width:0.6;" x="521.369043" xlink:href="#m6449f80ab4" y="340.35625"/>
      </g>
     </g>
    </g>
    <g id="xtick_22">
     <g id="line2d_78">
      <g>
       <use style="stroke:#000000;stroke-width:0.6;" x="544.202767" xlink:href="#m6449f80ab4" y="340.35625"/>
      </g>
     </g>
    </g>
    <g id="xtick_23">
     <g id="line2d_79">
      <g>
       <use style="stroke:#000000;stroke-width:0.6;" x="567.036491" xlink:href="#m6449f80ab4" y="340.35625"/>
      </g>
     </g>
    </g>
    <g id="xtick_24">
     <g id="line2d_80">
      <g>
       <use style="stroke:#000000;stroke-width:0.6;" x="612.703939" xlink:href="#m6449f80ab4" y="340.35625"/>
      </g>
     </g>
    </g>
    <g id="xtick_25">
     <g id="line2d_81">
      <g>
       <use style="stroke:#000000;stroke-width:0.6;" x="635.537663" xlink:href="#m6449f80ab4" y="340.35625"/>
      </g>
     </g>
    </g>
    <g id="xtick_26">
     <g id="line2d_82">
      <g>
       <use style="stroke:#000000;stroke-width:0.6;" x="658.371387" xlink:href="#m6449f80ab4" y="340.35625"/>
      </g>
     </g>
    </g>
    <g id="xtick_27">
     <g id="line2d_83">
      <g>
       <use style="stroke:#000000;stroke-width:0.6;" x="704.038835" xlink:href="#m6449f80ab4" y="340.35625"/>
      </g>
     </g>
    </g>
    <g id="xtick_28">
     <g id="line2d_84">
      <g>
       <use style="stroke:#000000;stroke-width:0.6;" x="726.872559" xlink:href="#m6449f80ab4" y="340.35625"/>
      </g>
     </g>
    </g>
    <g id="xtick_29">
     <g id="line2d_85">
      <g>
       <use style="stroke:#000000;stroke-width:0.6;" x="749.706283" xlink:href="#m6449f80ab4" y="340.35625"/>
      </g>
     </g>
    </g>
    <g id="xtick_30">
     <g id="line2d_86">
      <g>
       <use style="stroke:#000000;stroke-width:0.6;" x="795.373731" xlink:href="#m6449f80ab4" y="340.35625"/>
      </g>
     </g>
    </g>
    <g id="xtick_31">
     <g id="line2d_87">
      <g>
       <use style="stroke:#000000;stroke-width:0.6;" x="818.207455" xlink:href="#m6449f80ab4" y="340.35625"/>
      </g>
     </g>
    </g>
    <g id="xtick_32">
     <g id="line2d_88">
      <g>
       <use style="stroke:#000000;stroke-width:0.6;" x="841.041179" xlink:href="#m6449f80ab4" y="340.35625"/>
      </g>
     </g>
    </g>
    <g id="text_32">
     <!-- Buffer Size -->
     <g transform="translate(638.412598 381.070312)scale(0.2 -0.2)">
      <use xlink:href="#DejaVuSans-66"/>
      <use x="68.603516" xlink:href="#DejaVuSans-117"/>
      <use x="131.982422" xlink:href="#DejaVuSans-102"/>
      <use x="167.1875" xlink:href="#DejaVuSans-102"/>
      <use x="202.392578" xlink:href="#DejaVuSans-101"/>
      <use x="263.916016" xlink:href="#DejaVuSans-114"/>
      <use x="305.029297" xlink:href="#DejaVuSans-32"/>
      <use x="336.816406" xlink:href="#DejaVuSans-83"/>
      <use x="400.292969" xlink:href="#DejaVuSans-105"/>
      <use x="428.076172" xlink:href="#DejaVuSans-122"/>
      <use x="480.566406" xlink:href="#DejaVuSans-101"/>
     </g>
    </g>
   </g>
   <g id="matplotlib.axis_4">
    <g id="ytick_9">
     <g id="line2d_89">
      <path clip-path="url(#p3fe259105c)" d="M 504.24375 316.946289 
L 881.000196 316.946289 
" style="fill:none;stroke:#b0b0b0;stroke-linecap:square;stroke-width:0.8;"/>
     </g>
     <g id="line2d_90">
      <g>
       <use style="stroke:#000000;stroke-width:0.8;" x="504.24375" xlink:href="#mc3ce260a5b" y="316.946289"/>
      </g>
     </g>
     <g id="text_33">
      <!-- 6 -->
      <g transform="translate(487.7 322.645117)scale(0.15 -0.15)">
       <use xlink:href="#DejaVuSans-54"/>
      </g>
     </g>
    </g>
    <g id="ytick_10">
     <g id="line2d_91">
      <path clip-path="url(#p3fe259105c)" d="M 504.24375 266.196175 
L 881.000196 266.196175 
" style="fill:none;stroke:#b0b0b0;stroke-linecap:square;stroke-width:0.8;"/>
     </g>
     <g id="line2d_92">
      <g>
       <use style="stroke:#000000;stroke-width:0.8;" x="504.24375" xlink:href="#mc3ce260a5b" y="266.196175"/>
      </g>
     </g>
     <g id="text_34">
      <!-- 8 -->
      <g transform="translate(487.7 271.895003)scale(0.15 -0.15)">
       <use xlink:href="#DejaVuSans-56"/>
      </g>
     </g>
    </g>
    <g id="ytick_11">
     <g id="line2d_93">
      <path clip-path="url(#p3fe259105c)" d="M 504.24375 215.446061 
L 881.000196 215.446061 
" style="fill:none;stroke:#b0b0b0;stroke-linecap:square;stroke-width:0.8;"/>
     </g>
     <g id="line2d_94">
      <g>
       <use style="stroke:#000000;stroke-width:0.8;" x="504.24375" xlink:href="#mc3ce260a5b" y="215.446061"/>
      </g>
     </g>
     <g id="text_35">
      <!-- 10 -->
      <g transform="translate(478.15625 221.144889)scale(0.15 -0.15)">
       <use xlink:href="#DejaVuSans-49"/>
       <use x="63.623047" xlink:href="#DejaVuSans-48"/>
      </g>
     </g>
    </g>
    <g id="ytick_12">
     <g id="line2d_95">
      <path clip-path="url(#p3fe259105c)" d="M 504.24375 164.695947 
L 881.000196 164.695947 
" style="fill:none;stroke:#b0b0b0;stroke-linecap:square;stroke-width:0.8;"/>
     </g>
     <g id="line2d_96">
      <g>
       <use style="stroke:#000000;stroke-width:0.8;" x="504.24375" xlink:href="#mc3ce260a5b" y="164.695947"/>
      </g>
     </g>
     <g id="text_36">
      <!-- 12 -->
      <g transform="translate(478.15625 170.394775)scale(0.15 -0.15)">
       <use xlink:href="#DejaVuSans-49"/>
       <use x="63.623047" xlink:href="#DejaVuSans-50"/>
      </g>
     </g>
    </g>
    <g id="ytick_13">
     <g id="line2d_97">
      <path clip-path="url(#p3fe259105c)" d="M 504.24375 113.945833 
L 881.000196 113.945833 
" style="fill:none;stroke:#b0b0b0;stroke-linecap:square;stroke-width:0.8;"/>
     </g>
     <g id="line2d_98">
      <g>
       <use style="stroke:#000000;stroke-width:0.8;" x="504.24375" xlink:href="#mc3ce260a5b" y="113.945833"/>
      </g>
     </g>
     <g id="text_37">
      <!-- 14 -->
      <g transform="translate(478.15625 119.644661)scale(0.15 -0.15)">
       <use xlink:href="#DejaVuSans-49"/>
       <use x="63.623047" xlink:href="#DejaVuSans-52"/>
      </g>
     </g>
    </g>
    <g id="ytick_14">
     <g id="line2d_99">
      <path clip-path="url(#p3fe259105c)" d="M 504.24375 63.195719 
L 881.000196 63.195719 
" style="fill:none;stroke:#b0b0b0;stroke-linecap:square;stroke-width:0.8;"/>
     </g>
     <g id="line2d_100">
      <g>
       <use style="stroke:#000000;stroke-width:0.8;" x="504.24375" xlink:href="#mc3ce260a5b" y="63.195719"/>
      </g>
     </g>
     <g id="text_38">
      <!-- 16 -->
      <g transform="translate(478.15625 68.894547)scale(0.15 -0.15)">
       <use xlink:href="#DejaVuSans-49"/>
       <use x="63.623047" xlink:href="#DejaVuSans-54"/>
      </g>
     </g>
    </g>
    <g id="text_39">
     <!-- Total Throughput (B/cycle) -->
     <g transform="translate(469.996875 317.565)rotate(-90)scale(0.2 -0.2)">
      <defs>
       <path d="M 32.171875 -5.078125 
Q 28.375 -14.84375 24.75 -17.8125 
Q 21.140625 -20.796875 15.09375 -20.796875 
L 7.90625 -20.796875 
L 7.90625 -13.28125 
L 13.1875 -13.28125 
Q 16.890625 -13.28125 18.9375 -11.515625 
Q 21 -9.765625 23.484375 -3.21875 
L 25.09375 0.875 
L 2.984375 54.6875 
L 12.5 54.6875 
L 29.59375 11.921875 
L 46.6875 54.6875 
L 56.203125 54.6875 
z
" id="DejaVuSans-121"/>
      </defs>
      <use xlink:href="#DejaVuSans-84"/>
      <use x="44.083984" xlink:href="#DejaVuSans-111"/>
      <use x="105.265625" xlink:href="#DejaVuSans-116"/>
      <use x="144.474609" xlink:href="#DejaVuSans-97"/>
      <use x="205.753906" xlink:href="#DejaVuSans-108"/>
      <use x="233.537109" xlink:href="#DejaVuSans-32"/>
      <use x="265.324219" xlink:href="#DejaVuSans-84"/>
      <use x="326.408203" xlink:href="#DejaVuSans-104"/>
      <use x="389.787109" xlink:href="#DejaVuSans-114"/>
      <use x="428.650391" xlink:href="#DejaVuSans-111"/>
      <use x="489.832031" xlink:href="#DejaVuSans-117"/>
      <use x="553.210938" xlink:href="#DejaVuSans-103"/>
      <use x="616.6875" xlink:href="#DejaVuSans-104"/>
      <use x="680.066406" xlink:href="#DejaVuSans-112"/>
      <use x="743.542969" xlink:href="#DejaVuSans-117"/>
      <use x="806.921875" xlink:href="#DejaVuSans-116"/>
      <use x="846.130859" xlink:href="#DejaVuSans-32"/>
      <use x="877.917969" xlink:href="#DejaVuSans-40"/>
      <use x="916.931641" xlink:href="#DejaVuSans-66"/>
      <use x="985.535156" xlink:href="#DejaVuSans-47"/>
      <use x="1019.226562" xlink:href="#DejaVuSans-99"/>
      <use x="1074.207031" xlink:href="#DejaVuSans-121"/>
      <use x="1133.386719" xlink:href="#DejaVuSans-99"/>
      <use x="1188.367188" xlink:href="#DejaVuSans-108"/>
      <use x="1216.150391" xlink:href="#DejaVuSans-101"/>
      <use x="1277.673828" xlink:href="#DejaVuSans-41"/>
     </g>
    </g>
   </g>
   <g id="line2d_101">
    <path clip-path="url(#p3fe259105c)" d="M 521.369043 319.580652 
L 544.202767 319.063023 
L 567.036491 320.86824 
L 589.870215 320.503621 
L 612.703939 319.818678 
L 635.537663 320.357314 
L 658.371387 320.784089 
L 681.205111 320.72808 
L 704.038835 320.774757 
L 717.395707 320.732206 
L 726.872559 320.09582 
L 734.223376 320.742629 
L 740.229431 320.81967 
L 745.307479 326.289487 
L 749.706283 326.109584 
L 753.586304 325.679859 
L 757.0571 326.132373 
L 760.196818 326.314432 
L 763.063155 326.104742 
L 765.69993 325.932867 
L 768.141203 324.767009 
L 770.413973 326.245409 
L 772.540007 326.148504 
L 795.373731 325.243666 
L 818.207455 326.180753 
L 841.041179 324.684344 
L 863.874903 326.159591 
" style="fill:none;stroke:#1f77b4;stroke-linecap:square;stroke-width:1.5;"/>
   </g>
   <g id="line2d_102">
    <path clip-path="url(#p3fe259105c)" d="M 521.369043 172.136994 
L 544.202767 170.401148 
L 567.036491 172.063511 
L 589.870215 173.023304 
L 612.703939 173.829152 
L 635.537663 172.168289 
L 658.371387 172.169158 
L 681.205111 173.528443 
L 704.038835 170.504464 
L 717.395707 170.774068 
L 726.872559 172.281244 
L 734.223376 171.339792 
L 740.229431 174.049027 
L 745.307479 181.42824 
L 749.706283 184.44477 
L 753.586304 183.880864 
L 757.0571 182.431104 
L 760.196818 182.787549 
L 763.063155 184.068013 
L 765.69993 180.835518 
L 768.141203 182.433535 
L 770.413973 179.654284 
L 772.540007 182.909128 
L 795.373731 182.849765 
L 818.207455 177.569533 
L 841.041179 181.387441 
L 863.874903 182.188247 
" style="fill:none;stroke:#ff7f0e;stroke-linecap:square;stroke-width:1.5;"/>
   </g>
   <g id="line2d_103">
    <path clip-path="url(#p3fe259105c)" d="M 521.369043 45.478068 
L 544.202767 79.767735 
L 567.036491 67.532089 
L 589.870215 66.32096 
L 612.703939 68.267736 
L 635.537663 65.817147 
L 658.371387 69.043819 
L 681.205111 71.342706 
L 704.038835 64.58166 
L 717.395707 66.730445 
L 726.872559 68.170052 
L 734.223376 66.648508 
L 740.229431 65.331358 
L 745.307479 62.315227 
L 749.706283 60.964047 
L 753.586304 60.578383 
L 757.0571 54.807375 
L 760.196818 59.635816 
L 763.063155 60.667742 
L 765.69993 61.616481 
L 768.141203 61.1145 
L 770.413973 58.27507 
L 772.540007 56.319386 
L 795.373731 54.496414 
L 818.207455 55.90582 
L 841.041179 52.755256 
L 863.874903 51.098179 
" style="fill:none;stroke:#2ca02c;stroke-linecap:square;stroke-width:1.5;"/>
   </g>
   <g id="line2d_104">
    <path clip-path="url(#p3fe259105c)" d="M 521.369043 82.1568 
L 544.202767 75.193125 
L 567.036491 78.649662 
L 589.870215 76.978272 
L 612.703939 78.077791 
L 635.537663 77.474008 
L 658.371387 77.89308 
L 681.205111 76.165738 
L 704.038835 73.884947 
L 717.395707 75.112813 
L 726.872559 75.368933 
L 734.223376 73.676989 
L 740.229431 75.212243 
L 745.307479 76.19237 
L 749.706283 74.553547 
L 753.586304 75.578931 
L 757.0571 73.769442 
L 760.196818 75.575115 
L 763.063155 75.437684 
L 765.69993 75.147237 
L 768.141203 71.741014 
L 770.413973 75.41095 
L 772.540007 73.911888 
L 795.373731 70.83627 
L 818.207455 72.156905 
L 841.041179 68.17639 
L 863.874903 68.421822 
" style="fill:none;stroke:#d62728;stroke-linecap:square;stroke-width:1.5;"/>
   </g>
   <g id="line2d_105">
    <path clip-path="url(#p3fe259105c)" d="M 521.369043 59.964421 
L 544.202767 64.481095 
L 567.036491 70.148729 
L 589.870215 70.70959 
L 612.703939 71.574414 
L 635.537663 71.200222 
L 658.371387 71.926135 
L 681.205111 72.385856 
L 704.038835 71.452879 
L 717.395707 70.578133 
L 726.872559 70.972244 
L 734.223376 70.862847 
L 740.229431 70.700203 
L 745.307479 71.215828 
L 749.706283 70.756518 
L 753.586304 70.089104 
L 757.0571 71.290717 
L 760.196818 70.565609 
L 763.063155 70.859721 
L 765.69993 70.953495 
L 768.141203 70.812817 
L 770.413973 71.200222 
L 772.540007 70.678299 
L 795.373731 70.208337 
L 818.207455 69.413151 
L 841.041179 68.355348 
L 863.874903 66.520215 
" style="fill:none;stroke:#9467bd;stroke-linecap:square;stroke-width:1.5;"/>
   </g>
   <g id="line2d_106">
    <path clip-path="url(#p3fe259105c)" d="M 521.369043 79.400829 
L 544.202767 69.024887 
L 567.036491 74.156758 
L 589.870215 74.686484 
L 612.703939 73.260417 
L 635.537663 75.688297 
L 658.371387 74.550989 
L 681.205111 74.837209 
L 704.038835 74.476811 
L 717.395707 74.584232 
L 726.872559 74.248987 
L 734.223376 74.400046 
L 740.229431 74.949539 
L 745.307479 74.079868 
L 749.706283 73.802817 
L 753.586304 73.872116 
L 757.0571 74.218249 
L 760.196818 73.969607 
L 763.063155 73.856718 
L 765.69993 74.313009 
L 768.141203 74.131132 
L 770.413973 74.446109 
L 772.540007 74.110628 
L 795.373731 74.090122 
L 818.207455 74.254109 
L 841.041179 73.461098 
L 863.874903 72.556427 
" style="fill:none;stroke:#8c564b;stroke-linecap:square;stroke-width:1.5;"/>
   </g>
   <g id="line2d_107">
    <path clip-path="url(#p3fe259105c)" d="M 521.369043 77.85644 
L 544.202767 74.970685 
L 567.036491 73.100388 
L 589.870215 74.78248 
L 612.703939 75.832812 
L 635.537663 76.743211 
L 658.371387 76.964198 
L 681.205111 76.975024 
L 704.038835 76.459029 
L 717.395707 76.654312 
L 726.872559 76.786561 
L 734.223376 76.702019 
L 740.229431 77.148164 
L 745.307479 77.44647 
L 749.706283 77.677454 
L 753.586304 77.804702 
L 757.0571 77.65372 
L 760.196818 77.670981 
L 763.063155 77.427029 
L 765.69993 78.480532 
L 768.141203 78.474087 
L 770.413973 78.28276 
L 772.540007 77.90601 
L 795.373731 78.39027 
L 818.207455 77.765889 
L 841.041179 76.389547 
L 863.874903 75.208965 
" style="fill:none;stroke:#e377c2;stroke-linecap:square;stroke-width:1.5;"/>
   </g>
   <g id="line2d_108">
    <path clip-path="url(#p3fe259105c)" d="M 521.369043 74.812309 
L 544.202767 74.338612 
L 567.036491 73.260417 
L 589.870215 73.576783 
L 612.703939 75.095599 
L 635.537663 75.294425 
L 658.371387 75.939225 
L 681.205111 75.933511 
L 704.038835 75.887795 
L 717.395707 75.922083 
L 726.872559 77.286835 
L 734.223376 77.779906 
L 740.229431 77.753489 
L 745.307479 78.540684 
L 749.706283 77.921363 
L 753.586304 78.495572 
L 757.0571 78.060835 
L 760.196818 78.749192 
L 763.063155 78.41284 
L 765.69993 78.775475 
L 768.141203 78.786738 
L 770.413973 79.188022 
L 772.540007 79.292894 
L 795.373731 78.318783 
L 818.207455 77.358701 
L 841.041179 76.236113 
L 863.874903 75.418589 
" style="fill:none;stroke:#7f7f7f;stroke-linecap:square;stroke-width:1.5;"/>
   </g>
   <g id="line2d_109">
    <path clip-path="url(#p3fe259105c)" d="M 521.369043 69.344555 
L 544.202767 68.938094 
L 567.036491 67.268589 
L 589.870215 67.381737 
L 612.703939 67.650207 
L 635.537663 67.809 
L 658.371387 68.09099 
L 681.205111 68.238876 
L 704.038835 68.041671 
L 717.395707 70.451115 
L 726.872559 71.052431 
L 734.223376 71.260556 
L 740.229431 71.584452 
L 745.307479 71.688264 
L 749.706283 71.601758 
L 753.586304 72.078803 
L 757.0571 71.624253 
L 760.196818 71.591375 
L 763.063155 71.544643 
L 765.69993 71.518676 
L 768.141203 71.496169 
L 770.413973 71.51002 
L 772.540007 71.572337 
L 795.373731 70.088755 
L 818.207455 69.092366 
L 841.041179 67.840744 
L 863.874903 67.164225 
" style="fill:none;stroke:#bcbd22;stroke-linecap:square;stroke-width:1.5;"/>
   </g>
   <g id="line2d_110">
    <path clip-path="url(#p3fe259105c)" d="M 521.369043 69.812711 
L 544.202767 74.630252 
L 567.036491 67.871954 
L 589.870215 69.757701 
L 612.703939 69.831569 
L 635.537663 68.847053 
L 658.371387 69.019102 
L 681.205111 68.921258 
L 704.038835 69.019102 
L 717.395707 70.911302 
L 726.872559 71.720781 
L 734.223376 71.996094 
L 740.229431 72.43239 
L 745.307479 72.415329 
L 749.706283 72.454102 
L 753.586304 72.339311 
L 757.0571 72.384305 
L 760.196818 72.472711 
L 763.063155 72.517674 
L 765.69993 72.455653 
L 768.141203 72.419982 
L 770.413973 72.435492 
L 772.540007 72.370342 
L 795.373731 70.951932 
L 818.207455 70.062424 
L 841.041179 68.924415 
L 863.874903 68.423405 
" style="fill:none;stroke:#17becf;stroke-linecap:square;stroke-width:1.5;"/>
   </g>
   <g id="line2d_111">
    <path clip-path="url(#p3fe259105c)" d="M 567.036491 340.35625 
L 567.036491 31.43625 
" style="fill:none;stroke:#d62728;stroke-linecap:square;stroke-width:3;"/>
   </g>
   <g id="line2d_112">
    <path clip-path="url(#p3fe259105c)" d="M 681.205111 340.35625 
L 681.205111 31.43625 
" style="fill:none;stroke:#ff7f0e;stroke-linecap:square;stroke-width:3;"/>
   </g>
   <g id="patch_9">
    <path d="M 504.24375 340.35625 
L 504.24375 31.43625 
" style="fill:none;stroke:#000000;stroke-linecap:square;stroke-linejoin:miter;stroke-width:0.8;"/>
   </g>
   <g id="patch_10">
    <path d="M 881.000196 340.35625 
L 881.000196 31.43625 
" style="fill:none;stroke:#000000;stroke-linecap:square;stroke-linejoin:miter;stroke-width:0.8;"/>
   </g>
   <g id="patch_11">
    <path d="M 504.24375 340.35625 
L 881.000196 340.35625 
" style="fill:none;stroke:#000000;stroke-linecap:square;stroke-linejoin:miter;stroke-width:0.8;"/>
   </g>
   <g id="patch_12">
    <path d="M 504.24375 31.43625 
L 881.000196 31.43625 
" style="fill:none;stroke:#000000;stroke-linecap:square;stroke-linejoin:miter;stroke-width:0.8;"/>
   </g>
   <g id="text_40">
    <!-- L1d -->
    <g style="fill:#d62728;" transform="translate(563.085085 250.577273)rotate(-90)scale(0.19 -0.19)">
     <use xlink:href="#DejaVuSans-76"/>
     <use x="55.712891" xlink:href="#DejaVuSans-49"/>
     <use x="119.335938" xlink:href="#DejaVuSans-100"/>
    </g>
   </g>
   <g id="text_41">
    <!-- L2 -->
    <g style="fill:#ff7f0e;" transform="translate(677.253705 244.546257)rotate(-90)scale(0.19 -0.19)">
     <use xlink:href="#DejaVuSans-76"/>
     <use x="55.712891" xlink:href="#DejaVuSans-50"/>
    </g>
   </g>
   <g id="text_42">
    <!-- Non-Temporal Store -->
    <g transform="translate(574.993848 25.43625)scale(0.24 -0.24)">
     <use xlink:href="#DejaVuSans-78"/>
     <use x="74.804688" xlink:href="#DejaVuSans-111"/>
     <use x="135.986328" xlink:href="#DejaVuSans-110"/>
     <use x="199.365234" xlink:href="#DejaVuSans-45"/>
     <use x="226.324219" xlink:href="#DejaVuSans-84"/>
     <use x="270.408203" xlink:href="#DejaVuSans-101"/>
     <use x="331.931641" xlink:href="#DejaVuSans-109"/>
     <use x="429.34375" xlink:href="#DejaVuSans-112"/>
     <use x="492.820312" xlink:href="#DejaVuSans-111"/>
     <use x="554.001953" xlink:href="#DejaVuSans-114"/>
     <use x="595.115234" xlink:href="#DejaVuSans-97"/>
     <use x="656.394531" xlink:href="#DejaVuSans-108"/>
     <use x="684.177734" xlink:href="#DejaVuSans-32"/>
     <use x="715.964844" xlink:href="#DejaVuSans-83"/>
     <use x="779.441406" xlink:href="#DejaVuSans-116"/>
     <use x="818.650391" xlink:href="#DejaVuSans-111"/>
     <use x="879.832031" xlink:href="#DejaVuSans-114"/>
     <use x="918.695312" xlink:href="#DejaVuSans-101"/>
    </g>
   </g>
   <g id="legend_2">
    <g id="patch_13">
     <path d="M 691.989296 302.52425 
L 871.284196 302.52425 
Q 874.060196 302.52425 874.060196 299.74825 
L 874.060196 199.270062 
Q 874.060196 196.494062 871.284196 196.494062 
L 691.989296 196.494062 
Q 689.213296 196.494062 689.213296 199.270062 
L 689.213296 299.74825 
Q 689.213296 302.52425 691.989296 302.52425 
z
" style="fill:#ffffff;opacity:0.8;stroke:#cccccc;stroke-linejoin:miter;"/>
    </g>
    <g id="line2d_113">
     <path d="M 694.765296 207.734694 
L 708.645296 207.734694 
" style="fill:none;stroke:#1f77b4;stroke-linecap:square;stroke-width:1.5;"/>
    </g>
    <g id="line2d_114"/>
    <g id="text_43">
     <!-- 1 cores -->
     <g transform="translate(719.749296 212.592694)scale(0.1388 -0.1388)">
      <use xlink:href="#DejaVuSans-49"/>
      <use x="63.623047" xlink:href="#DejaVuSans-32"/>
      <use x="95.410156" xlink:href="#DejaVuSans-99"/>
      <use x="150.390625" xlink:href="#DejaVuSans-111"/>
      <use x="211.572266" xlink:href="#DejaVuSans-114"/>
      <use x="250.435547" xlink:href="#DejaVuSans-101"/>
      <use x="311.958984" xlink:href="#DejaVuSans-115"/>
     </g>
    </g>
    <g id="line2d_115">
     <path d="M 694.765296 228.107931 
L 708.645296 228.107931 
" style="fill:none;stroke:#ff7f0e;stroke-linecap:square;stroke-width:1.5;"/>
    </g>
    <g id="line2d_116"/>
    <g id="text_44">
     <!-- 2 cores -->
     <g transform="translate(719.749296 232.965931)scale(0.1388 -0.1388)">
      <use xlink:href="#DejaVuSans-50"/>
      <use x="63.623047" xlink:href="#DejaVuSans-32"/>
      <use x="95.410156" xlink:href="#DejaVuSans-99"/>
      <use x="150.390625" xlink:href="#DejaVuSans-111"/>
      <use x="211.572266" xlink:href="#DejaVuSans-114"/>
      <use x="250.435547" xlink:href="#DejaVuSans-101"/>
      <use x="311.958984" xlink:href="#DejaVuSans-115"/>
     </g>
    </g>
    <g id="line2d_117">
     <path d="M 694.765296 248.481169 
L 708.645296 248.481169 
" style="fill:none;stroke:#2ca02c;stroke-linecap:square;stroke-width:1.5;"/>
    </g>
    <g id="line2d_118"/>
    <g id="text_45">
     <!-- 3 cores -->
     <g transform="translate(719.749296 253.339169)scale(0.1388 -0.1388)">
      <use xlink:href="#DejaVuSans-51"/>
      <use x="63.623047" xlink:href="#DejaVuSans-32"/>
      <use x="95.410156" xlink:href="#DejaVuSans-99"/>
      <use x="150.390625" xlink:href="#DejaVuSans-111"/>
      <use x="211.572266" xlink:href="#DejaVuSans-114"/>
      <use x="250.435547" xlink:href="#DejaVuSans-101"/>
      <use x="311.958984" xlink:href="#DejaVuSans-115"/>
     </g>
    </g>
    <g id="line2d_119">
     <path d="M 694.765296 268.854406 
L 708.645296 268.854406 
" style="fill:none;stroke:#d62728;stroke-linecap:square;stroke-width:1.5;"/>
    </g>
    <g id="line2d_120"/>
    <g id="text_46">
     <!-- 4 cores -->
     <g transform="translate(719.749296 273.712406)scale(0.1388 -0.1388)">
      <use xlink:href="#DejaVuSans-52"/>
      <use x="63.623047" xlink:href="#DejaVuSans-32"/>
      <use x="95.410156" xlink:href="#DejaVuSans-99"/>
      <use x="150.390625" xlink:href="#DejaVuSans-111"/>
      <use x="211.572266" xlink:href="#DejaVuSans-114"/>
      <use x="250.435547" xlink:href="#DejaVuSans-101"/>
      <use x="311.958984" xlink:href="#DejaVuSans-115"/>
     </g>
    </g>
    <g id="line2d_121">
     <path d="M 694.765296 289.227644 
L 708.645296 289.227644 
" style="fill:none;stroke:#9467bd;stroke-linecap:square;stroke-width:1.5;"/>
    </g>
    <g id="line2d_122"/>
    <g id="text_47">
     <!-- 5 cores -->
     <g transform="translate(719.749296 294.085644)scale(0.1388 -0.1388)">
      <use xlink:href="#DejaVuSans-53"/>
      <use x="63.623047" xlink:href="#DejaVuSans-32"/>
      <use x="95.410156" xlink:href="#DejaVuSans-99"/>
      <use x="150.390625" xlink:href="#DejaVuSans-111"/>
      <use x="211.572266" xlink:href="#DejaVuSans-114"/>
      <use x="250.435547" xlink:href="#DejaVuSans-101"/>
      <use x="311.958984" xlink:href="#DejaVuSans-115"/>
     </g>
    </g>
    <g id="line2d_123">
     <path d="M 784.161171 207.734694 
L 798.041171 207.734694 
" style="fill:none;stroke:#8c564b;stroke-linecap:square;stroke-width:1.5;"/>
    </g>
    <g id="line2d_124"/>
    <g id="text_48">
     <!-- 6 cores -->
     <g transform="translate(809.145171 212.592694)scale(0.1388 -0.1388)">
      <use xlink:href="#DejaVuSans-54"/>
      <use x="63.623047" xlink:href="#DejaVuSans-32"/>
      <use x="95.410156" xlink:href="#DejaVuSans-99"/>
      <use x="150.390625" xlink:href="#DejaVuSans-111"/>
      <use x="211.572266" xlink:href="#DejaVuSans-114"/>
      <use x="250.435547" xlink:href="#DejaVuSans-101"/>
      <use x="311.958984" xlink:href="#DejaVuSans-115"/>
     </g>
    </g>
    <g id="line2d_125">
     <path d="M 784.161171 228.107931 
L 798.041171 228.107931 
" style="fill:none;stroke:#e377c2;stroke-linecap:square;stroke-width:1.5;"/>
    </g>
    <g id="line2d_126"/>
    <g id="text_49">
     <!-- 7 cores -->
     <g transform="translate(809.145171 232.965931)scale(0.1388 -0.1388)">
      <use xlink:href="#DejaVuSans-55"/>
      <use x="63.623047" xlink:href="#DejaVuSans-32"/>
      <use x="95.410156" xlink:href="#DejaVuSans-99"/>
      <use x="150.390625" xlink:href="#DejaVuSans-111"/>
      <use x="211.572266" xlink:href="#DejaVuSans-114"/>
      <use x="250.435547" xlink:href="#DejaVuSans-101"/>
      <use x="311.958984" xlink:href="#DejaVuSans-115"/>
     </g>
    </g>
    <g id="line2d_127">
     <path d="M 784.161171 248.481169 
L 798.041171 248.481169 
" style="fill:none;stroke:#7f7f7f;stroke-linecap:square;stroke-width:1.5;"/>
    </g>
    <g id="line2d_128"/>
    <g id="text_50">
     <!-- 8 cores -->
     <g transform="translate(809.145171 253.339169)scale(0.1388 -0.1388)">
      <use xlink:href="#DejaVuSans-56"/>
      <use x="63.623047" xlink:href="#DejaVuSans-32"/>
      <use x="95.410156" xlink:href="#DejaVuSans-99"/>
      <use x="150.390625" xlink:href="#DejaVuSans-111"/>
      <use x="211.572266" xlink:href="#DejaVuSans-114"/>
      <use x="250.435547" xlink:href="#DejaVuSans-101"/>
      <use x="311.958984" xlink:href="#DejaVuSans-115"/>
     </g>
    </g>
    <g id="line2d_129">
     <path d="M 784.161171 268.854406 
L 798.041171 268.854406 
" style="fill:none;stroke:#bcbd22;stroke-linecap:square;stroke-width:1.5;"/>
    </g>
    <g id="line2d_130"/>
    <g id="text_51">
     <!-- 9 cores -->
     <g transform="translate(809.145171 273.712406)scale(0.1388 -0.1388)">
      <use xlink:href="#DejaVuSans-57"/>
      <use x="63.623047" xlink:href="#DejaVuSans-32"/>
      <use x="95.410156" xlink:href="#DejaVuSans-99"/>
      <use x="150.390625" xlink:href="#DejaVuSans-111"/>
      <use x="211.572266" xlink:href="#DejaVuSans-114"/>
      <use x="250.435547" xlink:href="#DejaVuSans-101"/>
      <use x="311.958984" xlink:href="#DejaVuSans-115"/>
     </g>
    </g>
    <g id="line2d_131">
     <path d="M 784.161171 289.227644 
L 798.041171 289.227644 
" style="fill:none;stroke:#17becf;stroke-linecap:square;stroke-width:1.5;"/>
    </g>
    <g id="line2d_132"/>
    <g id="text_52">
     <!-- 10 cores -->
     <g transform="translate(809.145171 294.085644)scale(0.1388 -0.1388)">
      <use xlink:href="#DejaVuSans-49"/>
      <use x="63.623047" xlink:href="#DejaVuSans-48"/>
      <use x="127.246094" xlink:href="#DejaVuSans-32"/>
      <use x="159.033203" xlink:href="#DejaVuSans-99"/>
      <use x="214.013672" xlink:href="#DejaVuSans-111"/>
      <use x="275.195312" xlink:href="#DejaVuSans-114"/>
      <use x="314.058594" xlink:href="#DejaVuSans-101"/>
      <use x="375.582031" xlink:href="#DejaVuSans-115"/>
     </g>
    </g>
   </g>
  </g>
 </g>
 <defs>
  <clipPath id="pe8b6f9316c">
   <rect height="308.92" width="376.756446" x="56.64375" y="31.43625"/>
  </clipPath>
  <clipPath id="p3fe259105c">
   <rect height="308.92" width="376.756446" x="504.24375" y="31.43625"/>
  </clipPath>
 </defs>
</svg>
