<?xml version="1.0" encoding="utf-8" standalone="no"?>
<!DOCTYPE svg PUBLIC "-//W3C//DTD SVG 1.1//EN"
  "http://www.w3.org/Graphics/SVG/1.1/DTD/svg11.dtd">
<!-- Created with matplotlib (https://matplotlib.org/) -->
<svg height="392.913437pt" version="1.1" viewBox="0 0 885.748784 392.913437" width="885.748784pt" xmlns="http://www.w3.org/2000/svg" xmlns:xlink="http://www.w3.org/1999/xlink">
 <defs>
  <style type="text/css">*{stroke-linecap:butt;stroke-linejoin:round;}</style>
 </defs>
 <g id="figure_1">
  <g id="patch_1">
   <path d="M 0 392.913437 
L 885.748784 392.913437 
L 885.748784 0 
L 0 0 
z
" style="fill:none;"/>
  </g>
  <g id="axes_1">
   <g id="patch_2">
    <path d="M 83.896875 340.84 
L 430.948784 340.84 
L 430.948784 7.2 
L 83.896875 7.2 
z
" style="fill:none;"/>
   </g>
   <g id="matplotlib.axis_1">
    <g id="xtick_1">
     <g id="line2d_1">
      <path clip-path="url(#p8d522e8fbd)" d="M 99.671962 340.84 
L 99.671962 7.2 
" style="fill:none;stroke:#b0b0b0;stroke-linecap:square;stroke-width:0.8;"/>
     </g>
     <g id="line2d_2">
      <defs>
       <path d="M 0 0 
L 0 3.5 
" id="m005f0a59be" style="stroke:#000000;stroke-width:0.8;"/>
      </defs>
      <g>
       <use style="stroke:#000000;stroke-width:0.8;" x="99.671962" xlink:href="#m005f0a59be" y="340.84"/>
      </g>
     </g>
     <g id="text_1">
      <!-- 32 -->
      <g transform="translate(90.128212 359.237656)scale(0.15 -0.15)">
       <defs>
        <path d="M 40.578125 39.3125 
Q 47.65625 37.796875 51.625 33 
Q 55.609375 28.21875 55.609375 21.1875 
Q 55.609375 10.40625 48.1875 4.484375 
Q 40.765625 -1.421875 27.09375 -1.421875 
Q 22.515625 -1.421875 17.65625 -0.515625 
Q 12.796875 0.390625 7.625 2.203125 
L 7.625 11.71875 
Q 11.71875 9.328125 16.59375 8.109375 
Q 21.484375 6.890625 26.8125 6.890625 
Q 36.078125 6.890625 40.9375 10.546875 
Q 45.796875 14.203125 45.796875 21.1875 
Q 45.796875 27.640625 41.28125 31.265625 
Q 36.765625 34.90625 28.71875 34.90625 
L 20.21875 34.90625 
L 20.21875 43.015625 
L 29.109375 43.015625 
Q 36.375 43.015625 40.234375 45.921875 
Q 44.09375 48.828125 44.09375 54.296875 
Q 44.09375 59.90625 40.109375 62.90625 
Q 36.140625 65.921875 28.71875 65.921875 
Q 24.65625 65.921875 20.015625 65.03125 
Q 15.375 64.15625 9.8125 62.3125 
L 9.8125 71.09375 
Q 15.4375 72.65625 20.34375 73.4375 
Q 25.25 74.21875 29.59375 74.21875 
Q 40.828125 74.21875 47.359375 69.109375 
Q 53.90625 64.015625 53.90625 55.328125 
Q 53.90625 49.265625 50.4375 45.09375 
Q 46.96875 40.921875 40.578125 39.3125 
z
" id="DejaVuSans-51"/>
        <path d="M 19.1875 8.296875 
L 53.609375 8.296875 
L 53.609375 0 
L 7.328125 0 
L 7.328125 8.296875 
Q 12.9375 14.109375 22.625 23.890625 
Q 32.328125 33.6875 34.8125 36.53125 
Q 39.546875 41.84375 41.421875 45.53125 
Q 43.3125 49.21875 43.3125 52.78125 
Q 43.3125 58.59375 39.234375 62.25 
Q 35.15625 65.921875 28.609375 65.921875 
Q 23.96875 65.921875 18.8125 64.3125 
Q 13.671875 62.703125 7.8125 59.421875 
L 7.8125 69.390625 
Q 13.765625 71.78125 18.9375 73 
Q 24.125 74.21875 28.421875 74.21875 
Q 39.75 74.21875 46.484375 68.546875 
Q 53.21875 62.890625 53.21875 53.421875 
Q 53.21875 48.921875 51.53125 44.890625 
Q 49.859375 40.875 45.40625 35.40625 
Q 44.1875 33.984375 37.640625 27.21875 
Q 31.109375 20.453125 19.1875 8.296875 
z
" id="DejaVuSans-50"/>
       </defs>
       <use xlink:href="#DejaVuSans-51"/>
       <use x="63.623047" xlink:href="#DejaVuSans-50"/>
      </g>
     </g>
    </g>
    <g id="xtick_2">
     <g id="line2d_3">
      <path clip-path="url(#p8d522e8fbd)" d="M 204.839207 340.84 
L 204.839207 7.2 
" style="fill:none;stroke:#b0b0b0;stroke-linecap:square;stroke-width:0.8;"/>
     </g>
     <g id="line2d_4">
      <g>
       <use style="stroke:#000000;stroke-width:0.8;" x="204.839207" xlink:href="#m005f0a59be" y="340.84"/>
      </g>
     </g>
     <g id="text_2">
      <!-- 64 -->
      <g transform="translate(195.295457 359.237656)scale(0.15 -0.15)">
       <defs>
        <path d="M 33.015625 40.375 
Q 26.375 40.375 22.484375 35.828125 
Q 18.609375 31.296875 18.609375 23.390625 
Q 18.609375 15.53125 22.484375 10.953125 
Q 26.375 6.390625 33.015625 6.390625 
Q 39.65625 6.390625 43.53125 10.953125 
Q 47.40625 15.53125 47.40625 23.390625 
Q 47.40625 31.296875 43.53125 35.828125 
Q 39.65625 40.375 33.015625 40.375 
z
M 52.59375 71.296875 
L 52.59375 62.3125 
Q 48.875 64.0625 45.09375 64.984375 
Q 41.3125 65.921875 37.59375 65.921875 
Q 27.828125 65.921875 22.671875 59.328125 
Q 17.53125 52.734375 16.796875 39.40625 
Q 19.671875 43.65625 24.015625 45.921875 
Q 28.375 48.1875 33.59375 48.1875 
Q 44.578125 48.1875 50.953125 41.515625 
Q 57.328125 34.859375 57.328125 23.390625 
Q 57.328125 12.15625 50.6875 5.359375 
Q 44.046875 -1.421875 33.015625 -1.421875 
Q 20.359375 -1.421875 13.671875 8.265625 
Q 6.984375 17.96875 6.984375 36.375 
Q 6.984375 53.65625 15.1875 63.9375 
Q 23.390625 74.21875 37.203125 74.21875 
Q 40.921875 74.21875 44.703125 73.484375 
Q 48.484375 72.75 52.59375 71.296875 
z
" id="DejaVuSans-54"/>
        <path d="M 37.796875 64.3125 
L 12.890625 25.390625 
L 37.796875 25.390625 
z
M 35.203125 72.90625 
L 47.609375 72.90625 
L 47.609375 25.390625 
L 58.015625 25.390625 
L 58.015625 17.1875 
L 47.609375 17.1875 
L 47.609375 0 
L 37.796875 0 
L 37.796875 17.1875 
L 4.890625 17.1875 
L 4.890625 26.703125 
z
" id="DejaVuSans-52"/>
       </defs>
       <use xlink:href="#DejaVuSans-54"/>
       <use x="63.623047" xlink:href="#DejaVuSans-52"/>
      </g>
     </g>
    </g>
    <g id="xtick_3">
     <g id="line2d_5">
      <path clip-path="url(#p8d522e8fbd)" d="M 310.006452 340.84 
L 310.006452 7.2 
" style="fill:none;stroke:#b0b0b0;stroke-linecap:square;stroke-width:0.8;"/>
     </g>
     <g id="line2d_6">
      <g>
       <use style="stroke:#000000;stroke-width:0.8;" x="310.006452" xlink:href="#m005f0a59be" y="340.84"/>
      </g>
     </g>
     <g id="text_3">
      <!-- 128 -->
      <g transform="translate(295.690827 359.237656)scale(0.15 -0.15)">
       <defs>
        <path d="M 12.40625 8.296875 
L 28.515625 8.296875 
L 28.515625 63.921875 
L 10.984375 60.40625 
L 10.984375 69.390625 
L 28.421875 72.90625 
L 38.28125 72.90625 
L 38.28125 8.296875 
L 54.390625 8.296875 
L 54.390625 0 
L 12.40625 0 
z
" id="DejaVuSans-49"/>
        <path d="M 31.78125 34.625 
Q 24.75 34.625 20.71875 30.859375 
Q 16.703125 27.09375 16.703125 20.515625 
Q 16.703125 13.921875 20.71875 10.15625 
Q 24.75 6.390625 31.78125 6.390625 
Q 38.8125 6.390625 42.859375 10.171875 
Q 46.921875 13.96875 46.921875 20.515625 
Q 46.921875 27.09375 42.890625 30.859375 
Q 38.875 34.625 31.78125 34.625 
z
M 21.921875 38.8125 
Q 15.578125 40.375 12.03125 44.71875 
Q 8.5 49.078125 8.5 55.328125 
Q 8.5 64.0625 14.71875 69.140625 
Q 20.953125 74.21875 31.78125 74.21875 
Q 42.671875 74.21875 48.875 69.140625 
Q 55.078125 64.0625 55.078125 55.328125 
Q 55.078125 49.078125 51.53125 44.71875 
Q 48 40.375 41.703125 38.8125 
Q 48.828125 37.15625 52.796875 32.3125 
Q 56.78125 27.484375 56.78125 20.515625 
Q 56.78125 9.90625 50.3125 4.234375 
Q 43.84375 -1.421875 31.78125 -1.421875 
Q 19.734375 -1.421875 13.25 4.234375 
Q 6.78125 9.90625 6.78125 20.515625 
Q 6.78125 27.484375 10.78125 32.3125 
Q 14.796875 37.15625 21.921875 38.8125 
z
M 18.3125 54.390625 
Q 18.3125 48.734375 21.84375 45.5625 
Q 25.390625 42.390625 31.78125 42.390625 
Q 38.140625 42.390625 41.71875 45.5625 
Q 45.3125 48.734375 45.3125 54.390625 
Q 45.3125 60.0625 41.71875 63.234375 
Q 38.140625 66.40625 31.78125 66.40625 
Q 25.390625 66.40625 21.84375 63.234375 
Q 18.3125 60.0625 18.3125 54.390625 
z
" id="DejaVuSans-56"/>
       </defs>
       <use xlink:href="#DejaVuSans-49"/>
       <use x="63.623047" xlink:href="#DejaVuSans-50"/>
       <use x="127.246094" xlink:href="#DejaVuSans-56"/>
      </g>
     </g>
    </g>
    <g id="xtick_4">
     <g id="line2d_7">
      <path clip-path="url(#p8d522e8fbd)" d="M 415.173697 340.84 
L 415.173697 7.2 
" style="fill:none;stroke:#b0b0b0;stroke-linecap:square;stroke-width:0.8;"/>
     </g>
     <g id="line2d_8">
      <g>
       <use style="stroke:#000000;stroke-width:0.8;" x="415.173697" xlink:href="#m005f0a59be" y="340.84"/>
      </g>
     </g>
     <g id="text_4">
      <!-- 256 -->
      <g transform="translate(400.858072 359.237656)scale(0.15 -0.15)">
       <defs>
        <path d="M 10.796875 72.90625 
L 49.515625 72.90625 
L 49.515625 64.59375 
L 19.828125 64.59375 
L 19.828125 46.734375 
Q 21.96875 47.46875 24.109375 47.828125 
Q 26.265625 48.1875 28.421875 48.1875 
Q 40.625 48.1875 47.75 41.5 
Q 54.890625 34.8125 54.890625 23.390625 
Q 54.890625 11.625 47.5625 5.09375 
Q 40.234375 -1.421875 26.90625 -1.421875 
Q 22.3125 -1.421875 17.546875 -0.640625 
Q 12.796875 0.140625 7.71875 1.703125 
L 7.71875 11.625 
Q 12.109375 9.234375 16.796875 8.0625 
Q 21.484375 6.890625 26.703125 6.890625 
Q 35.15625 6.890625 40.078125 11.328125 
Q 45.015625 15.765625 45.015625 23.390625 
Q 45.015625 31 40.078125 35.4375 
Q 35.15625 39.890625 26.703125 39.890625 
Q 22.75 39.890625 18.8125 39.015625 
Q 14.890625 38.140625 10.796875 36.28125 
z
" id="DejaVuSans-53"/>
       </defs>
       <use xlink:href="#DejaVuSans-50"/>
       <use x="63.623047" xlink:href="#DejaVuSans-53"/>
       <use x="127.246094" xlink:href="#DejaVuSans-54"/>
      </g>
     </g>
    </g>
    <g id="text_5">
     <!-- Repetition -->
     <g transform="translate(206.41658 381.554062)scale(0.2 -0.2)">
      <defs>
       <path d="M 44.390625 34.1875 
Q 47.5625 33.109375 50.5625 29.59375 
Q 53.5625 26.078125 56.59375 19.921875 
L 66.609375 0 
L 56 0 
L 46.6875 18.703125 
Q 43.0625 26.03125 39.671875 28.421875 
Q 36.28125 30.8125 30.421875 30.8125 
L 19.671875 30.8125 
L 19.671875 0 
L 9.8125 0 
L 9.8125 72.90625 
L 32.078125 72.90625 
Q 44.578125 72.90625 50.734375 67.671875 
Q 56.890625 62.453125 56.890625 51.90625 
Q 56.890625 45.015625 53.6875 40.46875 
Q 50.484375 35.9375 44.390625 34.1875 
z
M 19.671875 64.796875 
L 19.671875 38.921875 
L 32.078125 38.921875 
Q 39.203125 38.921875 42.84375 42.21875 
Q 46.484375 45.515625 46.484375 51.90625 
Q 46.484375 58.296875 42.84375 61.546875 
Q 39.203125 64.796875 32.078125 64.796875 
z
" id="DejaVuSans-82"/>
       <path d="M 56.203125 29.59375 
L 56.203125 25.203125 
L 14.890625 25.203125 
Q 15.484375 15.921875 20.484375 11.0625 
Q 25.484375 6.203125 34.421875 6.203125 
Q 39.59375 6.203125 44.453125 7.46875 
Q 49.3125 8.734375 54.109375 11.28125 
L 54.109375 2.78125 
Q 49.265625 0.734375 44.1875 -0.34375 
Q 39.109375 -1.421875 33.890625 -1.421875 
Q 20.796875 -1.421875 13.15625 6.1875 
Q 5.515625 13.8125 5.515625 26.8125 
Q 5.515625 40.234375 12.765625 48.109375 
Q 20.015625 56 32.328125 56 
Q 43.359375 56 49.78125 48.890625 
Q 56.203125 41.796875 56.203125 29.59375 
z
M 47.21875 32.234375 
Q 47.125 39.59375 43.09375 43.984375 
Q 39.0625 48.390625 32.421875 48.390625 
Q 24.90625 48.390625 20.390625 44.140625 
Q 15.875 39.890625 15.1875 32.171875 
z
" id="DejaVuSans-101"/>
       <path d="M 18.109375 8.203125 
L 18.109375 -20.796875 
L 9.078125 -20.796875 
L 9.078125 54.6875 
L 18.109375 54.6875 
L 18.109375 46.390625 
Q 20.953125 51.265625 25.265625 53.625 
Q 29.59375 56 35.59375 56 
Q 45.5625 56 51.78125 48.09375 
Q 58.015625 40.1875 58.015625 27.296875 
Q 58.015625 14.40625 51.78125 6.484375 
Q 45.5625 -1.421875 35.59375 -1.421875 
Q 29.59375 -1.421875 25.265625 0.953125 
Q 20.953125 3.328125 18.109375 8.203125 
z
M 48.6875 27.296875 
Q 48.6875 37.203125 44.609375 42.84375 
Q 40.53125 48.484375 33.40625 48.484375 
Q 26.265625 48.484375 22.1875 42.84375 
Q 18.109375 37.203125 18.109375 27.296875 
Q 18.109375 17.390625 22.1875 11.75 
Q 26.265625 6.109375 33.40625 6.109375 
Q 40.53125 6.109375 44.609375 11.75 
Q 48.6875 17.390625 48.6875 27.296875 
z
" id="DejaVuSans-112"/>
       <path d="M 18.3125 70.21875 
L 18.3125 54.6875 
L 36.8125 54.6875 
L 36.8125 47.703125 
L 18.3125 47.703125 
L 18.3125 18.015625 
Q 18.3125 11.328125 20.140625 9.421875 
Q 21.96875 7.515625 27.59375 7.515625 
L 36.8125 7.515625 
L 36.8125 0 
L 27.59375 0 
Q 17.1875 0 13.234375 3.875 
Q 9.28125 7.765625 9.28125 18.015625 
L 9.28125 47.703125 
L 2.6875 47.703125 
L 2.6875 54.6875 
L 9.28125 54.6875 
L 9.28125 70.21875 
z
" id="DejaVuSans-116"/>
       <path d="M 9.421875 54.6875 
L 18.40625 54.6875 
L 18.40625 0 
L 9.421875 0 
z
M 9.421875 75.984375 
L 18.40625 75.984375 
L 18.40625 64.59375 
L 9.421875 64.59375 
z
" id="DejaVuSans-105"/>
       <path d="M 30.609375 48.390625 
Q 23.390625 48.390625 19.1875 42.75 
Q 14.984375 37.109375 14.984375 27.296875 
Q 14.984375 17.484375 19.15625 11.84375 
Q 23.34375 6.203125 30.609375 6.203125 
Q 37.796875 6.203125 41.984375 11.859375 
Q 46.1875 17.53125 46.1875 27.296875 
Q 46.1875 37.015625 41.984375 42.703125 
Q 37.796875 48.390625 30.609375 48.390625 
z
M 30.609375 56 
Q 42.328125 56 49.015625 48.375 
Q 55.71875 40.765625 55.71875 27.296875 
Q 55.71875 13.875 49.015625 6.21875 
Q 42.328125 -1.421875 30.609375 -1.421875 
Q 18.84375 -1.421875 12.171875 6.21875 
Q 5.515625 13.875 5.515625 27.296875 
Q 5.515625 40.765625 12.171875 48.375 
Q 18.84375 56 30.609375 56 
z
" id="DejaVuSans-111"/>
       <path d="M 54.890625 33.015625 
L 54.890625 0 
L 45.90625 0 
L 45.90625 32.71875 
Q 45.90625 40.484375 42.875 44.328125 
Q 39.84375 48.1875 33.796875 48.1875 
Q 26.515625 48.1875 22.3125 43.546875 
Q 18.109375 38.921875 18.109375 30.90625 
L 18.109375 0 
L 9.078125 0 
L 9.078125 54.6875 
L 18.109375 54.6875 
L 18.109375 46.1875 
Q 21.34375 51.125 25.703125 53.5625 
Q 30.078125 56 35.796875 56 
Q 45.21875 56 50.046875 50.171875 
Q 54.890625 44.34375 54.890625 33.015625 
z
" id="DejaVuSans-110"/>
      </defs>
      <use xlink:href="#DejaVuSans-82"/>
      <use x="64.982422" xlink:href="#DejaVuSans-101"/>
      <use x="126.505859" xlink:href="#DejaVuSans-112"/>
      <use x="189.982422" xlink:href="#DejaVuSans-101"/>
      <use x="251.505859" xlink:href="#DejaVuSans-116"/>
      <use x="290.714844" xlink:href="#DejaVuSans-105"/>
      <use x="318.498047" xlink:href="#DejaVuSans-116"/>
      <use x="357.707031" xlink:href="#DejaVuSans-105"/>
      <use x="385.490234" xlink:href="#DejaVuSans-111"/>
      <use x="446.671875" xlink:href="#DejaVuSans-110"/>
     </g>
    </g>
   </g>
   <g id="matplotlib.axis_2">
    <g id="ytick_1">
     <g id="line2d_9">
      <path clip-path="url(#p8d522e8fbd)" d="M 83.896875 324.080173 
L 430.948784 324.080173 
" style="fill:none;stroke:#b0b0b0;stroke-linecap:square;stroke-width:0.8;"/>
     </g>
     <g id="line2d_10">
      <defs>
       <path d="M 0 0 
L -3.5 0 
" id="mc3ce260a5b" style="stroke:#000000;stroke-width:0.8;"/>
      </defs>
      <g>
       <use style="stroke:#000000;stroke-width:0.8;" x="83.896875" xlink:href="#mc3ce260a5b" y="324.080173"/>
      </g>
     </g>
     <g id="text_6">
      <!-- 512 M -->
      <g transform="translate(30.55625 329.779001)scale(0.15 -0.15)">
       <defs>
        <path id="DejaVuSans-32"/>
        <path d="M 9.8125 72.90625 
L 24.515625 72.90625 
L 43.109375 23.296875 
L 61.8125 72.90625 
L 76.515625 72.90625 
L 76.515625 0 
L 66.890625 0 
L 66.890625 64.015625 
L 48.09375 14.015625 
L 38.1875 14.015625 
L 19.390625 64.015625 
L 19.390625 0 
L 9.8125 0 
z
" id="DejaVuSans-77"/>
       </defs>
       <use xlink:href="#DejaVuSans-53"/>
       <use x="63.623047" xlink:href="#DejaVuSans-49"/>
       <use x="127.246094" xlink:href="#DejaVuSans-50"/>
       <use x="190.869141" xlink:href="#DejaVuSans-32"/>
       <use x="222.65625" xlink:href="#DejaVuSans-77"/>
      </g>
     </g>
    </g>
    <g id="ytick_2">
     <g id="line2d_11">
      <path clip-path="url(#p8d522e8fbd)" d="M 83.896875 253.882682 
L 430.948784 253.882682 
" style="fill:none;stroke:#b0b0b0;stroke-linecap:square;stroke-width:0.8;"/>
     </g>
     <g id="line2d_12">
      <g>
       <use style="stroke:#000000;stroke-width:0.8;" x="83.896875" xlink:href="#mc3ce260a5b" y="253.882682"/>
      </g>
     </g>
     <g id="text_7">
      <!-- 2 G -->
      <g transform="translate(50.963281 259.58151)scale(0.15 -0.15)">
       <defs>
        <path d="M 59.515625 10.40625 
L 59.515625 29.984375 
L 43.40625 29.984375 
L 43.40625 38.09375 
L 69.28125 38.09375 
L 69.28125 6.78125 
Q 63.578125 2.734375 56.6875 0.65625 
Q 49.8125 -1.421875 42 -1.421875 
Q 24.90625 -1.421875 15.25 8.5625 
Q 5.609375 18.5625 5.609375 36.375 
Q 5.609375 54.25 15.25 64.234375 
Q 24.90625 74.21875 42 74.21875 
Q 49.125 74.21875 55.546875 72.453125 
Q 61.96875 70.703125 67.390625 67.28125 
L 67.390625 56.78125 
Q 61.921875 61.421875 55.765625 63.765625 
Q 49.609375 66.109375 42.828125 66.109375 
Q 29.4375 66.109375 22.71875 58.640625 
Q 16.015625 51.171875 16.015625 36.375 
Q 16.015625 21.625 22.71875 14.15625 
Q 29.4375 6.6875 42.828125 6.6875 
Q 48.046875 6.6875 52.140625 7.59375 
Q 56.25 8.5 59.515625 10.40625 
z
" id="DejaVuSans-71"/>
       </defs>
       <use xlink:href="#DejaVuSans-50"/>
       <use x="63.623047" xlink:href="#DejaVuSans-32"/>
       <use x="95.410156" xlink:href="#DejaVuSans-71"/>
      </g>
     </g>
    </g>
    <g id="ytick_3">
     <g id="line2d_13">
      <path clip-path="url(#p8d522e8fbd)" d="M 83.896875 183.685191 
L 430.948784 183.685191 
" style="fill:none;stroke:#b0b0b0;stroke-linecap:square;stroke-width:0.8;"/>
     </g>
     <g id="line2d_14">
      <g>
       <use style="stroke:#000000;stroke-width:0.8;" x="83.896875" xlink:href="#mc3ce260a5b" y="183.685191"/>
      </g>
     </g>
     <g id="text_8">
      <!-- 8 G -->
      <g transform="translate(50.963281 189.384019)scale(0.15 -0.15)">
       <use xlink:href="#DejaVuSans-56"/>
       <use x="63.623047" xlink:href="#DejaVuSans-32"/>
       <use x="95.410156" xlink:href="#DejaVuSans-71"/>
      </g>
     </g>
    </g>
    <g id="ytick_4">
     <g id="line2d_15">
      <path clip-path="url(#p8d522e8fbd)" d="M 83.896875 113.4877 
L 430.948784 113.4877 
" style="fill:none;stroke:#b0b0b0;stroke-linecap:square;stroke-width:0.8;"/>
     </g>
     <g id="line2d_16">
      <g>
       <use style="stroke:#000000;stroke-width:0.8;" x="83.896875" xlink:href="#mc3ce260a5b" y="113.4877"/>
      </g>
     </g>
     <g id="text_9">
      <!-- 32 G -->
      <g transform="translate(41.419531 119.186528)scale(0.15 -0.15)">
       <use xlink:href="#DejaVuSans-51"/>
       <use x="63.623047" xlink:href="#DejaVuSans-50"/>
       <use x="127.246094" xlink:href="#DejaVuSans-32"/>
       <use x="159.033203" xlink:href="#DejaVuSans-71"/>
      </g>
     </g>
    </g>
    <g id="ytick_5">
     <g id="line2d_17">
      <path clip-path="url(#p8d522e8fbd)" d="M 83.896875 43.290209 
L 430.948784 43.290209 
" style="fill:none;stroke:#b0b0b0;stroke-linecap:square;stroke-width:0.8;"/>
     </g>
     <g id="line2d_18">
      <g>
       <use style="stroke:#000000;stroke-width:0.8;" x="83.896875" xlink:href="#mc3ce260a5b" y="43.290209"/>
      </g>
     </g>
     <g id="text_10">
      <!-- 128 G -->
      <g transform="translate(31.875781 48.989037)scale(0.15 -0.15)">
       <use xlink:href="#DejaVuSans-49"/>
       <use x="63.623047" xlink:href="#DejaVuSans-50"/>
       <use x="127.246094" xlink:href="#DejaVuSans-56"/>
       <use x="190.869141" xlink:href="#DejaVuSans-32"/>
       <use x="222.65625" xlink:href="#DejaVuSans-71"/>
      </g>
     </g>
    </g>
    <g id="ytick_6">
     <g id="line2d_19">
      <defs>
       <path d="M 0 0 
L 2 0 
" id="md3fbf4566d" style="stroke:#000000;stroke-width:0.6;"/>
      </defs>
      <g>
       <use style="stroke:#000000;stroke-width:0.6;" x="83.896875" xlink:href="#md3fbf4566d" y="288.981428"/>
      </g>
     </g>
     <g id="line2d_20">
      <defs>
       <path d="M 0 0 
L -2 0 
" id="md0f4fded07" style="stroke:#000000;stroke-width:0.6;"/>
      </defs>
      <g>
       <use style="stroke:#000000;stroke-width:0.6;" x="430.948784" xlink:href="#md0f4fded07" y="288.981428"/>
      </g>
     </g>
    </g>
    <g id="ytick_7">
     <g id="line2d_21">
      <g>
       <use style="stroke:#000000;stroke-width:0.6;" x="83.896875" xlink:href="#md3fbf4566d" y="218.783937"/>
      </g>
     </g>
     <g id="line2d_22">
      <g>
       <use style="stroke:#000000;stroke-width:0.6;" x="430.948784" xlink:href="#md0f4fded07" y="218.783937"/>
      </g>
     </g>
    </g>
    <g id="ytick_8">
     <g id="line2d_23">
      <g>
       <use style="stroke:#000000;stroke-width:0.6;" x="83.896875" xlink:href="#md3fbf4566d" y="148.586446"/>
      </g>
     </g>
     <g id="line2d_24">
      <g>
       <use style="stroke:#000000;stroke-width:0.6;" x="430.948784" xlink:href="#md0f4fded07" y="148.586446"/>
      </g>
     </g>
    </g>
    <g id="ytick_9">
     <g id="line2d_25">
      <g>
       <use style="stroke:#000000;stroke-width:0.6;" x="83.896875" xlink:href="#md3fbf4566d" y="78.388955"/>
      </g>
     </g>
     <g id="line2d_26">
      <g>
       <use style="stroke:#000000;stroke-width:0.6;" x="430.948784" xlink:href="#md0f4fded07" y="78.388955"/>
      </g>
     </g>
    </g>
    <g id="ytick_10">
     <g id="line2d_27">
      <g>
       <use style="stroke:#000000;stroke-width:0.6;" x="83.896875" xlink:href="#md3fbf4566d" y="8.191464"/>
      </g>
     </g>
     <g id="line2d_28">
      <g>
       <use style="stroke:#000000;stroke-width:0.6;" x="430.948784" xlink:href="#md0f4fded07" y="8.191464"/>
      </g>
     </g>
    </g>
    <g id="text_11">
     <!-- Memory Throughput (B/s) -->
     <g transform="translate(22.396875 302.368437)rotate(-90)scale(0.2 -0.2)">
      <defs>
       <path d="M 52 44.1875 
Q 55.375 50.25 60.0625 53.125 
Q 64.75 56 71.09375 56 
Q 79.640625 56 84.28125 50.015625 
Q 88.921875 44.046875 88.921875 33.015625 
L 88.921875 0 
L 79.890625 0 
L 79.890625 32.71875 
Q 79.890625 40.578125 77.09375 44.375 
Q 74.3125 48.1875 68.609375 48.1875 
Q 61.625 48.1875 57.5625 43.546875 
Q 53.515625 38.921875 53.515625 30.90625 
L 53.515625 0 
L 44.484375 0 
L 44.484375 32.71875 
Q 44.484375 40.625 41.703125 44.40625 
Q 38.921875 48.1875 33.109375 48.1875 
Q 26.21875 48.1875 22.15625 43.53125 
Q 18.109375 38.875 18.109375 30.90625 
L 18.109375 0 
L 9.078125 0 
L 9.078125 54.6875 
L 18.109375 54.6875 
L 18.109375 46.1875 
Q 21.1875 51.21875 25.484375 53.609375 
Q 29.78125 56 35.6875 56 
Q 41.65625 56 45.828125 52.96875 
Q 50 49.953125 52 44.1875 
z
" id="DejaVuSans-109"/>
       <path d="M 41.109375 46.296875 
Q 39.59375 47.171875 37.8125 47.578125 
Q 36.03125 48 33.890625 48 
Q 26.265625 48 22.1875 43.046875 
Q 18.109375 38.09375 18.109375 28.8125 
L 18.109375 0 
L 9.078125 0 
L 9.078125 54.6875 
L 18.109375 54.6875 
L 18.109375 46.1875 
Q 20.953125 51.171875 25.484375 53.578125 
Q 30.03125 56 36.53125 56 
Q 37.453125 56 38.578125 55.875 
Q 39.703125 55.765625 41.0625 55.515625 
z
" id="DejaVuSans-114"/>
       <path d="M 32.171875 -5.078125 
Q 28.375 -14.84375 24.75 -17.8125 
Q 21.140625 -20.796875 15.09375 -20.796875 
L 7.90625 -20.796875 
L 7.90625 -13.28125 
L 13.1875 -13.28125 
Q 16.890625 -13.28125 18.9375 -11.515625 
Q 21 -9.765625 23.484375 -3.21875 
L 25.09375 0.875 
L 2.984375 54.6875 
L 12.5 54.6875 
L 29.59375 11.921875 
L 46.6875 54.6875 
L 56.203125 54.6875 
z
" id="DejaVuSans-121"/>
       <path d="M -0.296875 72.90625 
L 61.375 72.90625 
L 61.375 64.59375 
L 35.5 64.59375 
L 35.5 0 
L 25.59375 0 
L 25.59375 64.59375 
L -0.296875 64.59375 
z
" id="DejaVuSans-84"/>
       <path d="M 54.890625 33.015625 
L 54.890625 0 
L 45.90625 0 
L 45.90625 32.71875 
Q 45.90625 40.484375 42.875 44.328125 
Q 39.84375 48.1875 33.796875 48.1875 
Q 26.515625 48.1875 22.3125 43.546875 
Q 18.109375 38.921875 18.109375 30.90625 
L 18.109375 0 
L 9.078125 0 
L 9.078125 75.984375 
L 18.109375 75.984375 
L 18.109375 46.1875 
Q 21.34375 51.125 25.703125 53.5625 
Q 30.078125 56 35.796875 56 
Q 45.21875 56 50.046875 50.171875 
Q 54.890625 44.34375 54.890625 33.015625 
z
" id="DejaVuSans-104"/>
       <path d="M 8.5 21.578125 
L 8.5 54.6875 
L 17.484375 54.6875 
L 17.484375 21.921875 
Q 17.484375 14.15625 20.5 10.265625 
Q 23.53125 6.390625 29.59375 6.390625 
Q 36.859375 6.390625 41.078125 11.03125 
Q 45.3125 15.671875 45.3125 23.6875 
L 45.3125 54.6875 
L 54.296875 54.6875 
L 54.296875 0 
L 45.3125 0 
L 45.3125 8.40625 
Q 42.046875 3.421875 37.71875 1 
Q 33.40625 -1.421875 27.6875 -1.421875 
Q 18.265625 -1.421875 13.375 4.4375 
Q 8.5 10.296875 8.5 21.578125 
z
M 31.109375 56 
z
" id="DejaVuSans-117"/>
       <path d="M 45.40625 27.984375 
Q 45.40625 37.75 41.375 43.109375 
Q 37.359375 48.484375 30.078125 48.484375 
Q 22.859375 48.484375 18.828125 43.109375 
Q 14.796875 37.75 14.796875 27.984375 
Q 14.796875 18.265625 18.828125 12.890625 
Q 22.859375 7.515625 30.078125 7.515625 
Q 37.359375 7.515625 41.375 12.890625 
Q 45.40625 18.265625 45.40625 27.984375 
z
M 54.390625 6.78125 
Q 54.390625 -7.171875 48.1875 -13.984375 
Q 42 -20.796875 29.203125 -20.796875 
Q 24.46875 -20.796875 20.265625 -20.09375 
Q 16.0625 -19.390625 12.109375 -17.921875 
L 12.109375 -9.1875 
Q 16.0625 -11.328125 19.921875 -12.34375 
Q 23.78125 -13.375 27.78125 -13.375 
Q 36.625 -13.375 41.015625 -8.765625 
Q 45.40625 -4.15625 45.40625 5.171875 
L 45.40625 9.625 
Q 42.625 4.78125 38.28125 2.390625 
Q 33.9375 0 27.875 0 
Q 17.828125 0 11.671875 7.65625 
Q 5.515625 15.328125 5.515625 27.984375 
Q 5.515625 40.671875 11.671875 48.328125 
Q 17.828125 56 27.875 56 
Q 33.9375 56 38.28125 53.609375 
Q 42.625 51.21875 45.40625 46.390625 
L 45.40625 54.6875 
L 54.390625 54.6875 
z
" id="DejaVuSans-103"/>
       <path d="M 31 75.875 
Q 24.46875 64.65625 21.28125 53.65625 
Q 18.109375 42.671875 18.109375 31.390625 
Q 18.109375 20.125 21.3125 9.0625 
Q 24.515625 -2 31 -13.1875 
L 23.1875 -13.1875 
Q 15.875 -1.703125 12.234375 9.375 
Q 8.59375 20.453125 8.59375 31.390625 
Q 8.59375 42.28125 12.203125 53.3125 
Q 15.828125 64.359375 23.1875 75.875 
z
" id="DejaVuSans-40"/>
       <path d="M 19.671875 34.8125 
L 19.671875 8.109375 
L 35.5 8.109375 
Q 43.453125 8.109375 47.28125 11.40625 
Q 51.125 14.703125 51.125 21.484375 
Q 51.125 28.328125 47.28125 31.5625 
Q 43.453125 34.8125 35.5 34.8125 
z
M 19.671875 64.796875 
L 19.671875 42.828125 
L 34.28125 42.828125 
Q 41.5 42.828125 45.03125 45.53125 
Q 48.578125 48.25 48.578125 53.8125 
Q 48.578125 59.328125 45.03125 62.0625 
Q 41.5 64.796875 34.28125 64.796875 
z
M 9.8125 72.90625 
L 35.015625 72.90625 
Q 46.296875 72.90625 52.390625 68.21875 
Q 58.5 63.53125 58.5 54.890625 
Q 58.5 48.1875 55.375 44.234375 
Q 52.25 40.28125 46.1875 39.3125 
Q 53.46875 37.75 57.5 32.78125 
Q 61.53125 27.828125 61.53125 20.40625 
Q 61.53125 10.640625 54.890625 5.3125 
Q 48.25 0 35.984375 0 
L 9.8125 0 
z
" id="DejaVuSans-66"/>
       <path d="M 25.390625 72.90625 
L 33.6875 72.90625 
L 8.296875 -9.28125 
L 0 -9.28125 
z
" id="DejaVuSans-47"/>
       <path d="M 44.28125 53.078125 
L 44.28125 44.578125 
Q 40.484375 46.53125 36.375 47.5 
Q 32.28125 48.484375 27.875 48.484375 
Q 21.1875 48.484375 17.84375 46.4375 
Q 14.5 44.390625 14.5 40.28125 
Q 14.5 37.15625 16.890625 35.375 
Q 19.28125 33.59375 26.515625 31.984375 
L 29.59375 31.296875 
Q 39.15625 29.25 43.1875 25.515625 
Q 47.21875 21.78125 47.21875 15.09375 
Q 47.21875 7.46875 41.1875 3.015625 
Q 35.15625 -1.421875 24.609375 -1.421875 
Q 20.21875 -1.421875 15.453125 -0.5625 
Q 10.6875 0.296875 5.421875 2 
L 5.421875 11.28125 
Q 10.40625 8.6875 15.234375 7.390625 
Q 20.0625 6.109375 24.8125 6.109375 
Q 31.15625 6.109375 34.5625 8.28125 
Q 37.984375 10.453125 37.984375 14.40625 
Q 37.984375 18.0625 35.515625 20.015625 
Q 33.0625 21.96875 24.703125 23.78125 
L 21.578125 24.515625 
Q 13.234375 26.265625 9.515625 29.90625 
Q 5.8125 33.546875 5.8125 39.890625 
Q 5.8125 47.609375 11.28125 51.796875 
Q 16.75 56 26.8125 56 
Q 31.78125 56 36.171875 55.265625 
Q 40.578125 54.546875 44.28125 53.078125 
z
" id="DejaVuSans-115"/>
       <path d="M 8.015625 75.875 
L 15.828125 75.875 
Q 23.140625 64.359375 26.78125 53.3125 
Q 30.421875 42.28125 30.421875 31.390625 
Q 30.421875 20.453125 26.78125 9.375 
Q 23.140625 -1.703125 15.828125 -13.1875 
L 8.015625 -13.1875 
Q 14.5 -2 17.703125 9.0625 
Q 20.90625 20.125 20.90625 31.390625 
Q 20.90625 42.671875 17.703125 53.65625 
Q 14.5 64.65625 8.015625 75.875 
z
" id="DejaVuSans-41"/>
      </defs>
      <use xlink:href="#DejaVuSans-77"/>
      <use x="86.279297" xlink:href="#DejaVuSans-101"/>
      <use x="147.802734" xlink:href="#DejaVuSans-109"/>
      <use x="245.214844" xlink:href="#DejaVuSans-111"/>
      <use x="306.396484" xlink:href="#DejaVuSans-114"/>
      <use x="347.509766" xlink:href="#DejaVuSans-121"/>
      <use x="406.689453" xlink:href="#DejaVuSans-32"/>
      <use x="438.476562" xlink:href="#DejaVuSans-84"/>
      <use x="499.560547" xlink:href="#DejaVuSans-104"/>
      <use x="562.939453" xlink:href="#DejaVuSans-114"/>
      <use x="601.802734" xlink:href="#DejaVuSans-111"/>
      <use x="662.984375" xlink:href="#DejaVuSans-117"/>
      <use x="726.363281" xlink:href="#DejaVuSans-103"/>
      <use x="789.839844" xlink:href="#DejaVuSans-104"/>
      <use x="853.21875" xlink:href="#DejaVuSans-112"/>
      <use x="916.695312" xlink:href="#DejaVuSans-117"/>
      <use x="980.074219" xlink:href="#DejaVuSans-116"/>
      <use x="1019.283203" xlink:href="#DejaVuSans-32"/>
      <use x="1051.070312" xlink:href="#DejaVuSans-40"/>
      <use x="1090.083984" xlink:href="#DejaVuSans-66"/>
      <use x="1158.6875" xlink:href="#DejaVuSans-47"/>
      <use x="1192.378906" xlink:href="#DejaVuSans-115"/>
      <use x="1244.478516" xlink:href="#DejaVuSans-41"/>
     </g>
    </g>
   </g>
   <g id="line2d_29">
    <path clip-path="url(#p8d522e8fbd)" d="M 99.671962 325.674545 
L 99.671962 323.679408 
L 99.671962 322.305843 
L 99.671962 325.067776 
L 204.839207 310.96892 
L 204.839207 293.168435 
L 204.839207 303.432415 
L 204.839207 305.752393 
L 310.006452 313.31051 
L 310.006452 316.479526 
L 310.006452 304.42958 
L 310.006452 318.507231 
L 415.173697 296.98279 
L 415.173697 295.372613 
L 415.173697 310.742762 
L 415.173697 308.894576 
" style="fill:none;stroke:#1f77b4;stroke-dasharray:5.55,2.4;stroke-dashoffset:0;stroke-width:1.5;"/>
   </g>
   <g id="line2d_30">
    <path clip-path="url(#p8d522e8fbd)" d="M 99.671962 291.569255 
L 99.671962 288.054672 
L 99.671962 289.463707 
L 99.671962 286.523724 
L 204.839207 265.840717 
L 204.839207 273.380871 
L 204.839207 268.206128 
L 204.839207 272.587936 
L 310.006452 274.201326 
L 310.006452 291.930303 
L 310.006452 282.372593 
L 310.006452 289.934949 
L 415.173697 264.351209 
L 415.173697 274.836935 
L 415.173697 260.902353 
L 415.173697 260.975292 
" style="fill:none;stroke:#ff7f0e;stroke-dasharray:5.55,2.4;stroke-dashoffset:0;stroke-width:1.5;"/>
   </g>
   <g id="line2d_31">
    <path clip-path="url(#p8d522e8fbd)" d="M 99.671962 250.009603 
L 99.671962 244.231507 
L 99.671962 255.107708 
L 99.671962 242.84188 
L 204.839207 226.615909 
L 204.839207 234.528407 
L 204.839207 238.914761 
L 204.839207 240.364312 
L 310.006452 246.296207 
L 310.006452 253.882604 
L 310.006452 248.447088 
L 310.006452 251.175234 
L 415.173697 231.728269 
L 415.173697 234.219781 
L 415.173697 227.107514 
L 415.173697 240.842343 
" style="fill:none;stroke:#2ca02c;stroke-dasharray:5.55,2.4;stroke-dashoffset:0;stroke-width:1.5;"/>
   </g>
   <g id="line2d_32">
    <path clip-path="url(#p8d522e8fbd)" d="M 99.671962 213.594541 
L 99.671962 213.202427 
L 99.671962 214.115364 
L 99.671962 208.696985 
L 204.839207 204.27932 
L 204.839207 207.735783 
L 204.839207 205.022143 
L 204.839207 206.121435 
L 310.006452 219.921166 
L 310.006452 219.254762 
L 310.006452 211.261373 
L 310.006452 197.806206 
L 415.173697 207.007945 
L 415.173697 206.040171 
L 415.173697 194.019882 
L 415.173697 206.387569 
" style="fill:none;stroke:#d62728;stroke-dasharray:5.55,2.4;stroke-dashoffset:0;stroke-width:1.5;"/>
   </g>
   <g id="line2d_33">
    <path clip-path="url(#p8d522e8fbd)" d="M 99.671962 170.197804 
L 99.671962 185.3653 
L 99.671962 173.984553 
L 99.671962 183.194871 
L 204.839207 170.621069 
L 204.839207 167.207339 
L 204.839207 166.057444 
L 204.839207 180.395297 
L 310.006452 175.765361 
L 310.006452 184.230707 
L 310.006452 177.098685 
L 310.006452 174.440625 
L 415.173697 164.042581 
L 415.173697 163.675412 
L 415.173697 163.777155 
L 415.173697 173.96395 
" style="fill:none;stroke:#9467bd;stroke-dasharray:5.55,2.4;stroke-dashoffset:0;stroke-width:1.5;"/>
   </g>
   <g id="line2d_34">
    <path clip-path="url(#p8d522e8fbd)" d="M 99.671962 156.608343 
L 99.671962 148.976603 
L 99.671962 152.813346 
L 99.671962 154.852019 
L 204.839207 154.596868 
L 204.839207 134.077476 
L 204.839207 133.785494 
L 204.839207 134.057722 
L 310.006452 124.972704 
L 310.006452 154.551761 
L 310.006452 152.22703 
L 310.006452 152.601356 
L 415.173697 128.48236 
L 415.173697 142.487124 
L 415.173697 140.65364 
L 415.173697 137.783229 
" style="fill:none;stroke:#8c564b;stroke-dasharray:5.55,2.4;stroke-dashoffset:0;stroke-width:1.5;"/>
   </g>
   <g id="line2d_35">
    <path clip-path="url(#p8d522e8fbd)" d="M 99.671962 128.633642 
L 99.671962 123.556773 
L 99.671962 119.74081 
L 99.671962 124.384368 
L 204.839207 106.680974 
L 204.839207 132.911745 
L 204.839207 125.404704 
L 204.839207 127.28787 
L 310.006452 120.807842 
L 310.006452 113.476992 
L 310.006452 105.325924 
L 310.006452 120.726322 
L 415.173697 108.982287 
L 415.173697 113.256614 
L 415.173697 101.353735 
L 415.173697 108.730718 
" style="fill:none;stroke:#e377c2;stroke-dasharray:5.55,2.4;stroke-dashoffset:0;stroke-width:1.5;"/>
   </g>
   <g id="line2d_36">
    <path clip-path="url(#p8d522e8fbd)" d="M 99.671962 85.877495 
L 99.671962 91.875373 
L 99.671962 94.256077 
L 99.671962 89.522231 
L 204.839207 105.639714 
L 204.839207 97.334394 
L 204.839207 99.112041 
L 204.839207 100.958656 
L 310.006452 94.94428 
L 310.006452 81.463297 
L 310.006452 89.635388 
L 310.006452 99.16718 
L 415.173697 83.926955 
L 415.173697 82.435852 
L 415.173697 88.861057 
L 415.173697 95.541328 
" style="fill:none;stroke:#1f77b4;stroke-linecap:square;stroke-width:1.5;"/>
   </g>
   <g id="line2d_37">
    <path clip-path="url(#p8d522e8fbd)" d="M 99.671962 122.201497 
L 99.671962 125.600081 
L 99.671962 124.386584 
L 99.671962 119.329159 
L 204.839207 122.252896 
L 204.839207 120.6427 
L 204.839207 125.157409 
L 204.839207 127.102377 
L 310.006452 105.875647 
L 310.006452 99.166578 
L 310.006452 102.208646 
L 310.006452 104.957676 
L 415.173697 91.255734 
L 415.173697 92.036759 
L 415.173697 90.749794 
L 415.173697 92.303111 
" style="fill:none;stroke:#ff7f0e;stroke-linecap:square;stroke-width:1.5;"/>
   </g>
   <g id="line2d_38">
    <path clip-path="url(#p8d522e8fbd)" d="M 99.671962 111.477076 
L 99.671962 123.846379 
L 99.671962 115.195013 
L 99.671962 126.538098 
L 204.839207 99.425899 
L 204.839207 102.307952 
L 204.839207 102.480709 
L 204.839207 108.726418 
L 310.006452 89.112613 
L 310.006452 87.863511 
L 310.006452 79.587162 
L 310.006452 87.889349 
L 415.173697 66.512595 
L 415.173697 63.479657 
L 415.173697 70.244119 
L 415.173697 70.148354 
" style="fill:none;stroke:#2ca02c;stroke-linecap:square;stroke-width:1.5;"/>
   </g>
   <g id="line2d_39">
    <path clip-path="url(#p8d522e8fbd)" d="M 99.671962 104.589175 
L 99.671962 99.574723 
L 99.671962 101.04793 
L 99.671962 99.965199 
L 204.839207 79.57917 
L 204.839207 82.623701 
L 204.839207 77.752519 
L 204.839207 84.984935 
L 310.006452 60.121105 
L 310.006452 60.403332 
L 310.006452 61.137808 
L 310.006452 64.473359 
L 415.173697 49.048108 
L 415.173697 47.651194 
L 415.173697 49.919527 
L 415.173697 48.324176 
" style="fill:none;stroke:#d62728;stroke-linecap:square;stroke-width:1.5;"/>
   </g>
   <g id="line2d_40">
    <path clip-path="url(#p8d522e8fbd)" d="M 99.671962 77.95836 
L 99.671962 85.365882 
L 99.671962 73.850935 
L 99.671962 83.338943 
L 204.839207 63.748258 
L 204.839207 57.473067 
L 204.839207 58.942285 
L 204.839207 62.959185 
L 310.006452 45.314022 
L 310.006452 47.626676 
L 310.006452 45.377094 
L 310.006452 48.700087 
L 415.173697 36.579591 
L 415.173697 36.656363 
L 415.173697 35.50993 
L 415.173697 40.501308 
" style="fill:none;stroke:#9467bd;stroke-linecap:square;stroke-width:1.5;"/>
   </g>
   <g id="line2d_41">
    <path clip-path="url(#p8d522e8fbd)" d="M 99.671962 50.631596 
L 99.671962 52.715502 
L 99.671962 51.007642 
L 99.671962 51.018549 
L 204.839207 38.661549 
L 204.839207 38.099301 
L 204.839207 37.183568 
L 204.839207 40.632329 
L 310.006452 28.708976 
L 310.006452 28.741603 
L 310.006452 30.841079 
L 310.006452 33.918319 
L 415.173697 26.609789 
L 415.173697 26.585029 
L 415.173697 25.966026 
L 415.173697 30.774186 
" style="fill:none;stroke:#8c564b;stroke-linecap:square;stroke-width:1.5;"/>
   </g>
   <g id="line2d_42">
    <path clip-path="url(#p8d522e8fbd)" d="M 99.671962 34.703763 
L 99.671962 34.627416 
L 99.671962 40.704547 
L 99.671962 37.831432 
L 204.839207 28.208852 
L 204.839207 28.312257 
L 204.839207 26.608685 
L 204.839207 32.123719 
L 310.006452 24.724145 
L 310.006452 24.596345 
L 310.006452 24.40304 
L 310.006452 29.262586 
L 415.173697 23.038066 
L 415.173697 22.365455 
L 415.173697 22.463245 
L 415.173697 26.873092 
" style="fill:none;stroke:#e377c2;stroke-linecap:square;stroke-width:1.5;"/>
   </g>
   <g id="patch_3">
    <path d="M 83.896875 340.84 
L 83.896875 7.2 
" style="fill:none;stroke:#000000;stroke-linecap:square;stroke-linejoin:miter;stroke-width:0.8;"/>
   </g>
   <g id="patch_4">
    <path d="M 430.948784 340.84 
L 430.948784 7.2 
" style="fill:none;stroke:#000000;stroke-linecap:square;stroke-linejoin:miter;stroke-width:0.8;"/>
   </g>
   <g id="patch_5">
    <path d="M 83.896875 340.84 
L 430.948784 340.84 
" style="fill:none;stroke:#000000;stroke-linecap:square;stroke-linejoin:miter;stroke-width:0.8;"/>
   </g>
   <g id="patch_6">
    <path d="M 83.896875 7.2 
L 430.948784 7.2 
" style="fill:none;stroke:#000000;stroke-linecap:square;stroke-linejoin:miter;stroke-width:0.8;"/>
   </g>
   <g id="legend_1">
    <g id="patch_7">
     <path d="M 89.122005 335.05 
L 425.723655 335.05 
Q 428.039655 335.05 428.039655 332.734 
L 428.039655 282.900194 
Q 428.039655 280.584194 425.723655 280.584194 
L 89.122005 280.584194 
Q 86.806005 280.584194 86.806005 282.900194 
L 86.806005 332.734 
Q 86.806005 335.05 89.122005 335.05 
z
" style="fill:#ffffff;opacity:0.8;stroke:#cccccc;stroke-linejoin:miter;"/>
    </g>
    <g id="line2d_43">
     <path d="M 91.438005 289.962184 
L 103.018005 289.962184 
" style="fill:none;stroke:#1f77b4;stroke-dasharray:5.55,2.4;stroke-dashoffset:0;stroke-width:1.5;"/>
    </g>
    <g id="line2d_44"/>
    <g id="text_12">
     <!-- 4 k -->
     <g transform="translate(112.282005 294.015184)scale(0.1158 -0.1158)">
      <defs>
       <path d="M 9.078125 75.984375 
L 18.109375 75.984375 
L 18.109375 31.109375 
L 44.921875 54.6875 
L 56.390625 54.6875 
L 27.390625 29.109375 
L 57.625 0 
L 45.90625 0 
L 18.109375 26.703125 
L 18.109375 0 
L 9.078125 0 
z
" id="DejaVuSans-107"/>
      </defs>
      <use xlink:href="#DejaVuSans-52"/>
      <use x="63.623047" xlink:href="#DejaVuSans-32"/>
      <use x="95.410156" xlink:href="#DejaVuSans-107"/>
     </g>
    </g>
    <g id="line2d_45">
     <path d="M 91.438005 306.959453 
L 103.018005 306.959453 
" style="fill:none;stroke:#ff7f0e;stroke-dasharray:5.55,2.4;stroke-dashoffset:0;stroke-width:1.5;"/>
    </g>
    <g id="line2d_46"/>
    <g id="text_13">
     <!-- 8 k -->
     <g transform="translate(112.282005 311.012453)scale(0.1158 -0.1158)">
      <use xlink:href="#DejaVuSans-56"/>
      <use x="63.623047" xlink:href="#DejaVuSans-32"/>
      <use x="95.410156" xlink:href="#DejaVuSans-107"/>
     </g>
    </g>
    <g id="line2d_47">
     <path d="M 91.438005 323.956722 
L 103.018005 323.956722 
" style="fill:none;stroke:#2ca02c;stroke-dasharray:5.55,2.4;stroke-dashoffset:0;stroke-width:1.5;"/>
    </g>
    <g id="line2d_48"/>
    <g id="text_14">
     <!-- 16 k -->
     <g transform="translate(112.282005 328.009722)scale(0.1158 -0.1158)">
      <use xlink:href="#DejaVuSans-49"/>
      <use x="63.623047" xlink:href="#DejaVuSans-54"/>
      <use x="127.246094" xlink:href="#DejaVuSans-32"/>
      <use x="159.033203" xlink:href="#DejaVuSans-107"/>
     </g>
    </g>
    <g id="line2d_49">
     <path d="M 146.667367 289.962184 
L 158.247367 289.962184 
" style="fill:none;stroke:#d62728;stroke-dasharray:5.55,2.4;stroke-dashoffset:0;stroke-width:1.5;"/>
    </g>
    <g id="line2d_50"/>
    <g id="text_15">
     <!-- 32 k -->
     <g transform="translate(167.511367 294.015184)scale(0.1158 -0.1158)">
      <use xlink:href="#DejaVuSans-51"/>
      <use x="63.623047" xlink:href="#DejaVuSans-50"/>
      <use x="127.246094" xlink:href="#DejaVuSans-32"/>
      <use x="159.033203" xlink:href="#DejaVuSans-107"/>
     </g>
    </g>
    <g id="line2d_51">
     <path d="M 146.667367 306.959453 
L 158.247367 306.959453 
" style="fill:none;stroke:#9467bd;stroke-dasharray:5.55,2.4;stroke-dashoffset:0;stroke-width:1.5;"/>
    </g>
    <g id="line2d_52"/>
    <g id="text_16">
     <!-- 64 k -->
     <g transform="translate(167.511367 311.012453)scale(0.1158 -0.1158)">
      <use xlink:href="#DejaVuSans-54"/>
      <use x="63.623047" xlink:href="#DejaVuSans-52"/>
      <use x="127.246094" xlink:href="#DejaVuSans-32"/>
      <use x="159.033203" xlink:href="#DejaVuSans-107"/>
     </g>
    </g>
    <g id="line2d_53">
     <path d="M 146.667367 323.956722 
L 158.247367 323.956722 
" style="fill:none;stroke:#8c564b;stroke-dasharray:5.55,2.4;stroke-dashoffset:0;stroke-width:1.5;"/>
    </g>
    <g id="line2d_54"/>
    <g id="text_17">
     <!-- 128 k -->
     <g transform="translate(167.511367 328.009722)scale(0.1158 -0.1158)">
      <use xlink:href="#DejaVuSans-49"/>
      <use x="63.623047" xlink:href="#DejaVuSans-50"/>
      <use x="127.246094" xlink:href="#DejaVuSans-56"/>
      <use x="190.869141" xlink:href="#DejaVuSans-32"/>
      <use x="222.65625" xlink:href="#DejaVuSans-107"/>
     </g>
    </g>
    <g id="line2d_55">
     <path d="M 209.264505 289.962184 
L 220.844505 289.962184 
" style="fill:none;stroke:#e377c2;stroke-dasharray:5.55,2.4;stroke-dashoffset:0;stroke-width:1.5;"/>
    </g>
    <g id="line2d_56"/>
    <g id="text_18">
     <!-- 256 k -->
     <g transform="translate(230.108505 294.015184)scale(0.1158 -0.1158)">
      <use xlink:href="#DejaVuSans-50"/>
      <use x="63.623047" xlink:href="#DejaVuSans-53"/>
      <use x="127.246094" xlink:href="#DejaVuSans-54"/>
      <use x="190.869141" xlink:href="#DejaVuSans-32"/>
      <use x="222.65625" xlink:href="#DejaVuSans-107"/>
     </g>
    </g>
    <g id="line2d_57">
     <path d="M 209.264505 306.959453 
L 220.844505 306.959453 
" style="fill:none;stroke:#1f77b4;stroke-linecap:square;stroke-width:1.5;"/>
    </g>
    <g id="line2d_58"/>
    <g id="text_19">
     <!-- 512 k -->
     <g transform="translate(230.108505 311.012453)scale(0.1158 -0.1158)">
      <use xlink:href="#DejaVuSans-53"/>
      <use x="63.623047" xlink:href="#DejaVuSans-49"/>
      <use x="127.246094" xlink:href="#DejaVuSans-50"/>
      <use x="190.869141" xlink:href="#DejaVuSans-32"/>
      <use x="222.65625" xlink:href="#DejaVuSans-107"/>
     </g>
    </g>
    <g id="line2d_59">
     <path d="M 271.861642 289.962184 
L 283.441642 289.962184 
" style="fill:none;stroke:#ff7f0e;stroke-linecap:square;stroke-width:1.5;"/>
    </g>
    <g id="line2d_60"/>
    <g id="text_20">
     <!-- 1 M -->
     <g transform="translate(292.705642 294.015184)scale(0.1158 -0.1158)">
      <use xlink:href="#DejaVuSans-49"/>
      <use x="63.623047" xlink:href="#DejaVuSans-32"/>
      <use x="95.410156" xlink:href="#DejaVuSans-77"/>
     </g>
    </g>
    <g id="line2d_61">
     <path d="M 271.861642 306.959453 
L 283.441642 306.959453 
" style="fill:none;stroke:#2ca02c;stroke-linecap:square;stroke-width:1.5;"/>
    </g>
    <g id="line2d_62"/>
    <g id="text_21">
     <!-- 2 M -->
     <g transform="translate(292.705642 311.012453)scale(0.1158 -0.1158)">
      <use xlink:href="#DejaVuSans-50"/>
      <use x="63.623047" xlink:href="#DejaVuSans-32"/>
      <use x="95.410156" xlink:href="#DejaVuSans-77"/>
     </g>
    </g>
    <g id="line2d_63">
     <path d="M 323.009055 289.962184 
L 334.589055 289.962184 
" style="fill:none;stroke:#d62728;stroke-linecap:square;stroke-width:1.5;"/>
    </g>
    <g id="line2d_64"/>
    <g id="text_22">
     <!-- 4 M -->
     <g transform="translate(343.853055 294.015184)scale(0.1158 -0.1158)">
      <use xlink:href="#DejaVuSans-52"/>
      <use x="63.623047" xlink:href="#DejaVuSans-32"/>
      <use x="95.410156" xlink:href="#DejaVuSans-77"/>
     </g>
    </g>
    <g id="line2d_65">
     <path d="M 323.009055 306.959453 
L 334.589055 306.959453 
" style="fill:none;stroke:#9467bd;stroke-linecap:square;stroke-width:1.5;"/>
    </g>
    <g id="line2d_66"/>
    <g id="text_23">
     <!-- 8 M -->
     <g transform="translate(343.853055 311.012453)scale(0.1158 -0.1158)">
      <use xlink:href="#DejaVuSans-56"/>
      <use x="63.623047" xlink:href="#DejaVuSans-32"/>
      <use x="95.410156" xlink:href="#DejaVuSans-77"/>
     </g>
    </g>
    <g id="line2d_67">
     <path d="M 374.156467 289.962184 
L 385.736467 289.962184 
" style="fill:none;stroke:#8c564b;stroke-linecap:square;stroke-width:1.5;"/>
    </g>
    <g id="line2d_68"/>
    <g id="text_24">
     <!-- 16 M -->
     <g transform="translate(395.000467 294.015184)scale(0.1158 -0.1158)">
      <use xlink:href="#DejaVuSans-49"/>
      <use x="63.623047" xlink:href="#DejaVuSans-54"/>
      <use x="127.246094" xlink:href="#DejaVuSans-32"/>
      <use x="159.033203" xlink:href="#DejaVuSans-77"/>
     </g>
    </g>
    <g id="line2d_69">
     <path d="M 374.156467 306.959453 
L 385.736467 306.959453 
" style="fill:none;stroke:#e377c2;stroke-linecap:square;stroke-width:1.5;"/>
    </g>
    <g id="line2d_70"/>
    <g id="text_25">
     <!-- 32 M -->
     <g transform="translate(395.000467 311.012453)scale(0.1158 -0.1158)">
      <use xlink:href="#DejaVuSans-51"/>
      <use x="63.623047" xlink:href="#DejaVuSans-50"/>
      <use x="127.246094" xlink:href="#DejaVuSans-32"/>
      <use x="159.033203" xlink:href="#DejaVuSans-77"/>
     </g>
    </g>
   </g>
  </g>
  <g id="axes_2">
   <g id="patch_8">
    <path d="M 531.496875 340.84 
L 878.548784 340.84 
L 878.548784 7.2 
L 531.496875 7.2 
z
" style="fill:none;"/>
   </g>
   <g id="matplotlib.axis_3">
    <g id="xtick_5">
     <g id="line2d_71">
      <path clip-path="url(#p9ca8e3de40)" d="M 547.271962 340.84 
L 547.271962 7.2 
" style="fill:none;stroke:#b0b0b0;stroke-linecap:square;stroke-width:0.8;"/>
     </g>
     <g id="line2d_72">
      <g>
       <use style="stroke:#000000;stroke-width:0.8;" x="547.271962" xlink:href="#m005f0a59be" y="340.84"/>
      </g>
     </g>
     <g id="text_26">
      <!-- 4 -->
      <g transform="translate(542.500087 359.237656)scale(0.15 -0.15)">
       <use xlink:href="#DejaVuSans-52"/>
      </g>
     </g>
    </g>
    <g id="xtick_6">
     <g id="line2d_73">
      <path clip-path="url(#p9ca8e3de40)" d="M 599.855584 340.84 
L 599.855584 7.2 
" style="fill:none;stroke:#b0b0b0;stroke-linecap:square;stroke-width:0.8;"/>
     </g>
     <g id="line2d_74">
      <g>
       <use style="stroke:#000000;stroke-width:0.8;" x="599.855584" xlink:href="#m005f0a59be" y="340.84"/>
      </g>
     </g>
     <g id="text_27">
      <!-- 6 -->
      <g transform="translate(595.083709 359.237656)scale(0.15 -0.15)">
       <use xlink:href="#DejaVuSans-54"/>
      </g>
     </g>
    </g>
    <g id="xtick_7">
     <g id="line2d_75">
      <path clip-path="url(#p9ca8e3de40)" d="M 652.439207 340.84 
L 652.439207 7.2 
" style="fill:none;stroke:#b0b0b0;stroke-linecap:square;stroke-width:0.8;"/>
     </g>
     <g id="line2d_76">
      <g>
       <use style="stroke:#000000;stroke-width:0.8;" x="652.439207" xlink:href="#m005f0a59be" y="340.84"/>
      </g>
     </g>
     <g id="text_28">
      <!-- 8 -->
      <g transform="translate(647.667332 359.237656)scale(0.15 -0.15)">
       <use xlink:href="#DejaVuSans-56"/>
      </g>
     </g>
    </g>
    <g id="xtick_8">
     <g id="line2d_77">
      <path clip-path="url(#p9ca8e3de40)" d="M 705.02283 340.84 
L 705.02283 7.2 
" style="fill:none;stroke:#b0b0b0;stroke-linecap:square;stroke-width:0.8;"/>
     </g>
     <g id="line2d_78">
      <g>
       <use style="stroke:#000000;stroke-width:0.8;" x="705.02283" xlink:href="#m005f0a59be" y="340.84"/>
      </g>
     </g>
     <g id="text_29">
      <!-- 10 -->
      <g transform="translate(695.47908 359.237656)scale(0.15 -0.15)">
       <defs>
        <path d="M 31.78125 66.40625 
Q 24.171875 66.40625 20.328125 58.90625 
Q 16.5 51.421875 16.5 36.375 
Q 16.5 21.390625 20.328125 13.890625 
Q 24.171875 6.390625 31.78125 6.390625 
Q 39.453125 6.390625 43.28125 13.890625 
Q 47.125 21.390625 47.125 36.375 
Q 47.125 51.421875 43.28125 58.90625 
Q 39.453125 66.40625 31.78125 66.40625 
z
M 31.78125 74.21875 
Q 44.046875 74.21875 50.515625 64.515625 
Q 56.984375 54.828125 56.984375 36.375 
Q 56.984375 17.96875 50.515625 8.265625 
Q 44.046875 -1.421875 31.78125 -1.421875 
Q 19.53125 -1.421875 13.0625 8.265625 
Q 6.59375 17.96875 6.59375 36.375 
Q 6.59375 54.828125 13.0625 64.515625 
Q 19.53125 74.21875 31.78125 74.21875 
z
" id="DejaVuSans-48"/>
       </defs>
       <use xlink:href="#DejaVuSans-49"/>
       <use x="63.623047" xlink:href="#DejaVuSans-48"/>
      </g>
     </g>
    </g>
    <g id="xtick_9">
     <g id="line2d_79">
      <path clip-path="url(#p9ca8e3de40)" d="M 757.606452 340.84 
L 757.606452 7.2 
" style="fill:none;stroke:#b0b0b0;stroke-linecap:square;stroke-width:0.8;"/>
     </g>
     <g id="line2d_80">
      <g>
       <use style="stroke:#000000;stroke-width:0.8;" x="757.606452" xlink:href="#m005f0a59be" y="340.84"/>
      </g>
     </g>
     <g id="text_30">
      <!-- 12 -->
      <g transform="translate(748.062702 359.237656)scale(0.15 -0.15)">
       <use xlink:href="#DejaVuSans-49"/>
       <use x="63.623047" xlink:href="#DejaVuSans-50"/>
      </g>
     </g>
    </g>
    <g id="xtick_10">
     <g id="line2d_81">
      <path clip-path="url(#p9ca8e3de40)" d="M 810.190075 340.84 
L 810.190075 7.2 
" style="fill:none;stroke:#b0b0b0;stroke-linecap:square;stroke-width:0.8;"/>
     </g>
     <g id="line2d_82">
      <g>
       <use style="stroke:#000000;stroke-width:0.8;" x="810.190075" xlink:href="#m005f0a59be" y="340.84"/>
      </g>
     </g>
     <g id="text_31">
      <!-- 14 -->
      <g transform="translate(800.646325 359.237656)scale(0.15 -0.15)">
       <use xlink:href="#DejaVuSans-49"/>
       <use x="63.623047" xlink:href="#DejaVuSans-52"/>
      </g>
     </g>
    </g>
    <g id="xtick_11">
     <g id="line2d_83">
      <path clip-path="url(#p9ca8e3de40)" d="M 862.773697 340.84 
L 862.773697 7.2 
" style="fill:none;stroke:#b0b0b0;stroke-linecap:square;stroke-width:0.8;"/>
     </g>
     <g id="line2d_84">
      <g>
       <use style="stroke:#000000;stroke-width:0.8;" x="862.773697" xlink:href="#m005f0a59be" y="340.84"/>
      </g>
     </g>
     <g id="text_32">
      <!-- 16 -->
      <g transform="translate(853.229947 359.237656)scale(0.15 -0.15)">
       <use xlink:href="#DejaVuSans-49"/>
       <use x="63.623047" xlink:href="#DejaVuSans-54"/>
      </g>
     </g>
    </g>
    <g id="text_33">
     <!-- Memory Write per Kernel (B) -->
     <g transform="translate(562.54783 381.554062)scale(0.2 -0.2)">
      <defs>
       <path d="M 3.328125 72.90625 
L 13.28125 72.90625 
L 28.609375 11.28125 
L 43.890625 72.90625 
L 54.984375 72.90625 
L 70.3125 11.28125 
L 85.59375 72.90625 
L 95.609375 72.90625 
L 77.296875 0 
L 64.890625 0 
L 49.515625 63.28125 
L 33.984375 0 
L 21.578125 0 
z
" id="DejaVuSans-87"/>
       <path d="M 9.8125 72.90625 
L 19.671875 72.90625 
L 19.671875 42.09375 
L 52.390625 72.90625 
L 65.09375 72.90625 
L 28.90625 38.921875 
L 67.671875 0 
L 54.6875 0 
L 19.671875 35.109375 
L 19.671875 0 
L 9.8125 0 
z
" id="DejaVuSans-75"/>
       <path d="M 9.421875 75.984375 
L 18.40625 75.984375 
L 18.40625 0 
L 9.421875 0 
z
" id="DejaVuSans-108"/>
      </defs>
      <use xlink:href="#DejaVuSans-77"/>
      <use x="86.279297" xlink:href="#DejaVuSans-101"/>
      <use x="147.802734" xlink:href="#DejaVuSans-109"/>
      <use x="245.214844" xlink:href="#DejaVuSans-111"/>
      <use x="306.396484" xlink:href="#DejaVuSans-114"/>
      <use x="347.509766" xlink:href="#DejaVuSans-121"/>
      <use x="406.689453" xlink:href="#DejaVuSans-32"/>
      <use x="438.476562" xlink:href="#DejaVuSans-87"/>
      <use x="532.853516" xlink:href="#DejaVuSans-114"/>
      <use x="573.966797" xlink:href="#DejaVuSans-105"/>
      <use x="601.75" xlink:href="#DejaVuSans-116"/>
      <use x="640.958984" xlink:href="#DejaVuSans-101"/>
      <use x="702.482422" xlink:href="#DejaVuSans-32"/>
      <use x="734.269531" xlink:href="#DejaVuSans-112"/>
      <use x="797.746094" xlink:href="#DejaVuSans-101"/>
      <use x="859.269531" xlink:href="#DejaVuSans-114"/>
      <use x="900.382812" xlink:href="#DejaVuSans-32"/>
      <use x="932.169922" xlink:href="#DejaVuSans-75"/>
      <use x="992.746094" xlink:href="#DejaVuSans-101"/>
      <use x="1054.269531" xlink:href="#DejaVuSans-114"/>
      <use x="1093.632812" xlink:href="#DejaVuSans-110"/>
      <use x="1157.011719" xlink:href="#DejaVuSans-101"/>
      <use x="1218.535156" xlink:href="#DejaVuSans-108"/>
      <use x="1246.318359" xlink:href="#DejaVuSans-32"/>
      <use x="1278.105469" xlink:href="#DejaVuSans-40"/>
      <use x="1317.119141" xlink:href="#DejaVuSans-66"/>
      <use x="1385.722656" xlink:href="#DejaVuSans-41"/>
     </g>
    </g>
   </g>
   <g id="matplotlib.axis_4">
    <g id="ytick_11">
     <g id="line2d_85">
      <path clip-path="url(#p9ca8e3de40)" d="M 531.496875 324.080173 
L 878.548784 324.080173 
" style="fill:none;stroke:#b0b0b0;stroke-linecap:square;stroke-width:0.8;"/>
     </g>
     <g id="line2d_86">
      <g>
       <use style="stroke:#000000;stroke-width:0.8;" x="531.496875" xlink:href="#mc3ce260a5b" y="324.080173"/>
      </g>
     </g>
     <g id="text_34">
      <!-- 512 M -->
      <g transform="translate(478.15625 329.779001)scale(0.15 -0.15)">
       <use xlink:href="#DejaVuSans-53"/>
       <use x="63.623047" xlink:href="#DejaVuSans-49"/>
       <use x="127.246094" xlink:href="#DejaVuSans-50"/>
       <use x="190.869141" xlink:href="#DejaVuSans-32"/>
       <use x="222.65625" xlink:href="#DejaVuSans-77"/>
      </g>
     </g>
    </g>
    <g id="ytick_12">
     <g id="line2d_87">
      <path clip-path="url(#p9ca8e3de40)" d="M 531.496875 253.882682 
L 878.548784 253.882682 
" style="fill:none;stroke:#b0b0b0;stroke-linecap:square;stroke-width:0.8;"/>
     </g>
     <g id="line2d_88">
      <g>
       <use style="stroke:#000000;stroke-width:0.8;" x="531.496875" xlink:href="#mc3ce260a5b" y="253.882682"/>
      </g>
     </g>
     <g id="text_35">
      <!-- 2 G -->
      <g transform="translate(498.563281 259.58151)scale(0.15 -0.15)">
       <use xlink:href="#DejaVuSans-50"/>
       <use x="63.623047" xlink:href="#DejaVuSans-32"/>
       <use x="95.410156" xlink:href="#DejaVuSans-71"/>
      </g>
     </g>
    </g>
    <g id="ytick_13">
     <g id="line2d_89">
      <path clip-path="url(#p9ca8e3de40)" d="M 531.496875 183.685191 
L 878.548784 183.685191 
" style="fill:none;stroke:#b0b0b0;stroke-linecap:square;stroke-width:0.8;"/>
     </g>
     <g id="line2d_90">
      <g>
       <use style="stroke:#000000;stroke-width:0.8;" x="531.496875" xlink:href="#mc3ce260a5b" y="183.685191"/>
      </g>
     </g>
     <g id="text_36">
      <!-- 8 G -->
      <g transform="translate(498.563281 189.384019)scale(0.15 -0.15)">
       <use xlink:href="#DejaVuSans-56"/>
       <use x="63.623047" xlink:href="#DejaVuSans-32"/>
       <use x="95.410156" xlink:href="#DejaVuSans-71"/>
      </g>
     </g>
    </g>
    <g id="ytick_14">
     <g id="line2d_91">
      <path clip-path="url(#p9ca8e3de40)" d="M 531.496875 113.4877 
L 878.548784 113.4877 
" style="fill:none;stroke:#b0b0b0;stroke-linecap:square;stroke-width:0.8;"/>
     </g>
     <g id="line2d_92">
      <g>
       <use style="stroke:#000000;stroke-width:0.8;" x="531.496875" xlink:href="#mc3ce260a5b" y="113.4877"/>
      </g>
     </g>
     <g id="text_37">
      <!-- 32 G -->
      <g transform="translate(489.019531 119.186528)scale(0.15 -0.15)">
       <use xlink:href="#DejaVuSans-51"/>
       <use x="63.623047" xlink:href="#DejaVuSans-50"/>
       <use x="127.246094" xlink:href="#DejaVuSans-32"/>
       <use x="159.033203" xlink:href="#DejaVuSans-71"/>
      </g>
     </g>
    </g>
    <g id="ytick_15">
     <g id="line2d_93">
      <path clip-path="url(#p9ca8e3de40)" d="M 531.496875 43.290209 
L 878.548784 43.290209 
" style="fill:none;stroke:#b0b0b0;stroke-linecap:square;stroke-width:0.8;"/>
     </g>
     <g id="line2d_94">
      <g>
       <use style="stroke:#000000;stroke-width:0.8;" x="531.496875" xlink:href="#mc3ce260a5b" y="43.290209"/>
      </g>
     </g>
     <g id="text_38">
      <!-- 128 G -->
      <g transform="translate(479.475781 48.989037)scale(0.15 -0.15)">
       <use xlink:href="#DejaVuSans-49"/>
       <use x="63.623047" xlink:href="#DejaVuSans-50"/>
       <use x="127.246094" xlink:href="#DejaVuSans-56"/>
       <use x="190.869141" xlink:href="#DejaVuSans-32"/>
       <use x="222.65625" xlink:href="#DejaVuSans-71"/>
      </g>
     </g>
    </g>
    <g id="ytick_16">
     <g id="line2d_95">
      <g>
       <use style="stroke:#000000;stroke-width:0.6;" x="531.496875" xlink:href="#md3fbf4566d" y="288.981428"/>
      </g>
     </g>
     <g id="line2d_96">
      <g>
       <use style="stroke:#000000;stroke-width:0.6;" x="878.548784" xlink:href="#md0f4fded07" y="288.981428"/>
      </g>
     </g>
    </g>
    <g id="ytick_17">
     <g id="line2d_97">
      <g>
       <use style="stroke:#000000;stroke-width:0.6;" x="531.496875" xlink:href="#md3fbf4566d" y="218.783937"/>
      </g>
     </g>
     <g id="line2d_98">
      <g>
       <use style="stroke:#000000;stroke-width:0.6;" x="878.548784" xlink:href="#md0f4fded07" y="218.783937"/>
      </g>
     </g>
    </g>
    <g id="ytick_18">
     <g id="line2d_99">
      <g>
       <use style="stroke:#000000;stroke-width:0.6;" x="531.496875" xlink:href="#md3fbf4566d" y="148.586446"/>
      </g>
     </g>
     <g id="line2d_100">
      <g>
       <use style="stroke:#000000;stroke-width:0.6;" x="878.548784" xlink:href="#md0f4fded07" y="148.586446"/>
      </g>
     </g>
    </g>
    <g id="ytick_19">
     <g id="line2d_101">
      <g>
       <use style="stroke:#000000;stroke-width:0.6;" x="531.496875" xlink:href="#md3fbf4566d" y="78.388955"/>
      </g>
     </g>
     <g id="line2d_102">
      <g>
       <use style="stroke:#000000;stroke-width:0.6;" x="878.548784" xlink:href="#md0f4fded07" y="78.388955"/>
      </g>
     </g>
    </g>
    <g id="ytick_20">
     <g id="line2d_103">
      <g>
       <use style="stroke:#000000;stroke-width:0.6;" x="531.496875" xlink:href="#md3fbf4566d" y="8.191464"/>
      </g>
     </g>
     <g id="line2d_104">
      <g>
       <use style="stroke:#000000;stroke-width:0.6;" x="878.548784" xlink:href="#md0f4fded07" y="8.191464"/>
      </g>
     </g>
    </g>
    <g id="text_39">
     <!-- Memory Throughput (B/s) -->
     <g transform="translate(469.996875 302.368437)rotate(-90)scale(0.2 -0.2)">
      <use xlink:href="#DejaVuSans-77"/>
      <use x="86.279297" xlink:href="#DejaVuSans-101"/>
      <use x="147.802734" xlink:href="#DejaVuSans-109"/>
      <use x="245.214844" xlink:href="#DejaVuSans-111"/>
      <use x="306.396484" xlink:href="#DejaVuSans-114"/>
      <use x="347.509766" xlink:href="#DejaVuSans-121"/>
      <use x="406.689453" xlink:href="#DejaVuSans-32"/>
      <use x="438.476562" xlink:href="#DejaVuSans-84"/>
      <use x="499.560547" xlink:href="#DejaVuSans-104"/>
      <use x="562.939453" xlink:href="#DejaVuSans-114"/>
      <use x="601.802734" xlink:href="#DejaVuSans-111"/>
      <use x="662.984375" xlink:href="#DejaVuSans-117"/>
      <use x="726.363281" xlink:href="#DejaVuSans-103"/>
      <use x="789.839844" xlink:href="#DejaVuSans-104"/>
      <use x="853.21875" xlink:href="#DejaVuSans-112"/>
      <use x="916.695312" xlink:href="#DejaVuSans-117"/>
      <use x="980.074219" xlink:href="#DejaVuSans-116"/>
      <use x="1019.283203" xlink:href="#DejaVuSans-32"/>
      <use x="1051.070312" xlink:href="#DejaVuSans-40"/>
      <use x="1090.083984" xlink:href="#DejaVuSans-66"/>
      <use x="1158.6875" xlink:href="#DejaVuSans-47"/>
      <use x="1192.378906" xlink:href="#DejaVuSans-115"/>
      <use x="1244.478516" xlink:href="#DejaVuSans-41"/>
     </g>
    </g>
   </g>
   <g id="line2d_105">
    <path clip-path="url(#p9ca8e3de40)" d="M 547.271962 323.679408 
L 547.271962 293.168435 
L 547.271962 316.479526 
L 547.271962 295.372613 
L 652.439207 322.305843 
L 652.439207 303.432415 
L 652.439207 304.42958 
L 652.439207 310.742762 
L 757.606452 325.674545 
L 757.606452 310.96892 
L 757.606452 313.31051 
L 757.606452 296.98279 
L 862.773697 325.067776 
L 862.773697 305.752393 
L 862.773697 318.507231 
L 862.773697 308.894576 
" style="fill:none;stroke:#1f77b4;stroke-dasharray:5.55,2.4;stroke-dashoffset:0;stroke-width:1.5;"/>
   </g>
   <g id="line2d_106">
    <path clip-path="url(#p9ca8e3de40)" d="M 547.271962 288.054672 
L 547.271962 273.380871 
L 547.271962 291.930303 
L 547.271962 274.836935 
L 652.439207 289.463707 
L 652.439207 268.206128 
L 652.439207 282.372593 
L 652.439207 260.902353 
L 757.606452 291.569255 
L 757.606452 265.840717 
L 757.606452 274.201326 
L 757.606452 264.351209 
L 862.773697 286.523724 
L 862.773697 272.587936 
L 862.773697 289.934949 
L 862.773697 260.975292 
" style="fill:none;stroke:#ff7f0e;stroke-dasharray:5.55,2.4;stroke-dashoffset:0;stroke-width:1.5;"/>
   </g>
   <g id="line2d_107">
    <path clip-path="url(#p9ca8e3de40)" d="M 547.271962 244.231507 
L 547.271962 234.528407 
L 547.271962 253.882604 
L 547.271962 234.219781 
L 652.439207 255.107708 
L 652.439207 238.914761 
L 652.439207 248.447088 
L 652.439207 227.107514 
L 757.606452 250.009603 
L 757.606452 226.615909 
L 757.606452 246.296207 
L 757.606452 231.728269 
L 862.773697 242.84188 
L 862.773697 240.364312 
L 862.773697 251.175234 
L 862.773697 240.842343 
" style="fill:none;stroke:#2ca02c;stroke-dasharray:5.55,2.4;stroke-dashoffset:0;stroke-width:1.5;"/>
   </g>
   <g id="line2d_108">
    <path clip-path="url(#p9ca8e3de40)" d="M 547.271962 213.202427 
L 547.271962 207.735783 
L 547.271962 219.254762 
L 547.271962 206.040171 
L 652.439207 214.115364 
L 652.439207 205.022143 
L 652.439207 211.261373 
L 652.439207 194.019882 
L 757.606452 213.594541 
L 757.606452 204.27932 
L 757.606452 219.921166 
L 757.606452 207.007945 
L 862.773697 208.696985 
L 862.773697 206.121435 
L 862.773697 197.806206 
L 862.773697 206.387569 
" style="fill:none;stroke:#d62728;stroke-dasharray:5.55,2.4;stroke-dashoffset:0;stroke-width:1.5;"/>
   </g>
   <g id="line2d_109">
    <path clip-path="url(#p9ca8e3de40)" d="M 547.271962 185.3653 
L 547.271962 167.207339 
L 547.271962 184.230707 
L 547.271962 163.675412 
L 652.439207 173.984553 
L 652.439207 166.057444 
L 652.439207 177.098685 
L 652.439207 163.777155 
L 757.606452 170.197804 
L 757.606452 170.621069 
L 757.606452 175.765361 
L 757.606452 164.042581 
L 862.773697 183.194871 
L 862.773697 180.395297 
L 862.773697 174.440625 
L 862.773697 173.96395 
" style="fill:none;stroke:#9467bd;stroke-dasharray:5.55,2.4;stroke-dashoffset:0;stroke-width:1.5;"/>
   </g>
   <g id="line2d_110">
    <path clip-path="url(#p9ca8e3de40)" d="M 547.271962 148.976603 
L 547.271962 134.077476 
L 547.271962 154.551761 
L 547.271962 142.487124 
L 652.439207 152.813346 
L 652.439207 133.785494 
L 652.439207 152.22703 
L 652.439207 140.65364 
L 757.606452 156.608343 
L 757.606452 154.596868 
L 757.606452 124.972704 
L 757.606452 128.48236 
L 862.773697 154.852019 
L 862.773697 134.057722 
L 862.773697 152.601356 
L 862.773697 137.783229 
" style="fill:none;stroke:#8c564b;stroke-dasharray:5.55,2.4;stroke-dashoffset:0;stroke-width:1.5;"/>
   </g>
   <g id="line2d_111">
    <path clip-path="url(#p9ca8e3de40)" d="M 547.271962 123.556773 
L 547.271962 132.911745 
L 547.271962 113.476992 
L 547.271962 113.256614 
L 652.439207 119.74081 
L 652.439207 125.404704 
L 652.439207 105.325924 
L 652.439207 101.353735 
L 757.606452 128.633642 
L 757.606452 106.680974 
L 757.606452 120.807842 
L 757.606452 108.982287 
L 862.773697 124.384368 
L 862.773697 127.28787 
L 862.773697 120.726322 
L 862.773697 108.730718 
" style="fill:none;stroke:#e377c2;stroke-dasharray:5.55,2.4;stroke-dashoffset:0;stroke-width:1.5;"/>
   </g>
   <g id="line2d_112">
    <path clip-path="url(#p9ca8e3de40)" d="M 547.271962 91.875373 
L 547.271962 97.334394 
L 547.271962 81.463297 
L 547.271962 82.435852 
L 652.439207 94.256077 
L 652.439207 99.112041 
L 652.439207 89.635388 
L 652.439207 88.861057 
L 757.606452 85.877495 
L 757.606452 105.639714 
L 757.606452 94.94428 
L 757.606452 83.926955 
L 862.773697 89.522231 
L 862.773697 100.958656 
L 862.773697 99.16718 
L 862.773697 95.541328 
" style="fill:none;stroke:#1f77b4;stroke-linecap:square;stroke-width:1.5;"/>
   </g>
   <g id="line2d_113">
    <path clip-path="url(#p9ca8e3de40)" d="M 547.271962 125.600081 
L 547.271962 120.6427 
L 547.271962 99.166578 
L 547.271962 92.036759 
L 652.439207 124.386584 
L 652.439207 125.157409 
L 652.439207 102.208646 
L 652.439207 90.749794 
L 757.606452 122.201497 
L 757.606452 122.252896 
L 757.606452 105.875647 
L 757.606452 91.255734 
L 862.773697 119.329159 
L 862.773697 127.102377 
L 862.773697 104.957676 
L 862.773697 92.303111 
" style="fill:none;stroke:#ff7f0e;stroke-linecap:square;stroke-width:1.5;"/>
   </g>
   <g id="line2d_114">
    <path clip-path="url(#p9ca8e3de40)" d="M 547.271962 123.846379 
L 547.271962 102.307952 
L 547.271962 87.863511 
L 547.271962 63.479657 
L 652.439207 115.195013 
L 652.439207 102.480709 
L 652.439207 79.587162 
L 652.439207 70.244119 
L 757.606452 111.477076 
L 757.606452 99.425899 
L 757.606452 89.112613 
L 757.606452 66.512595 
L 862.773697 126.538098 
L 862.773697 108.726418 
L 862.773697 87.889349 
L 862.773697 70.148354 
" style="fill:none;stroke:#2ca02c;stroke-linecap:square;stroke-width:1.5;"/>
   </g>
   <g id="line2d_115">
    <path clip-path="url(#p9ca8e3de40)" d="M 547.271962 99.574723 
L 547.271962 82.623701 
L 547.271962 60.403332 
L 547.271962 47.651194 
L 652.439207 101.04793 
L 652.439207 77.752519 
L 652.439207 61.137808 
L 652.439207 49.919527 
L 757.606452 104.589175 
L 757.606452 79.57917 
L 757.606452 60.121105 
L 757.606452 49.048108 
L 862.773697 99.965199 
L 862.773697 84.984935 
L 862.773697 64.473359 
L 862.773697 48.324176 
" style="fill:none;stroke:#d62728;stroke-linecap:square;stroke-width:1.5;"/>
   </g>
   <g id="line2d_116">
    <path clip-path="url(#p9ca8e3de40)" d="M 547.271962 85.365882 
L 547.271962 57.473067 
L 547.271962 47.626676 
L 547.271962 36.656363 
L 652.439207 73.850935 
L 652.439207 58.942285 
L 652.439207 45.377094 
L 652.439207 35.50993 
L 757.606452 77.95836 
L 757.606452 63.748258 
L 757.606452 45.314022 
L 757.606452 36.579591 
L 862.773697 83.338943 
L 862.773697 62.959185 
L 862.773697 48.700087 
L 862.773697 40.501308 
" style="fill:none;stroke:#9467bd;stroke-linecap:square;stroke-width:1.5;"/>
   </g>
   <g id="line2d_117">
    <path clip-path="url(#p9ca8e3de40)" d="M 547.271962 52.715502 
L 547.271962 38.099301 
L 547.271962 28.741603 
L 547.271962 26.585029 
L 652.439207 51.007642 
L 652.439207 37.183568 
L 652.439207 30.841079 
L 652.439207 25.966026 
L 757.606452 50.631596 
L 757.606452 38.661549 
L 757.606452 28.708976 
L 757.606452 26.609789 
L 862.773697 51.018549 
L 862.773697 40.632329 
L 862.773697 33.918319 
L 862.773697 30.774186 
" style="fill:none;stroke:#8c564b;stroke-linecap:square;stroke-width:1.5;"/>
   </g>
   <g id="line2d_118">
    <path clip-path="url(#p9ca8e3de40)" d="M 547.271962 34.627416 
L 547.271962 28.312257 
L 547.271962 24.596345 
L 547.271962 22.365455 
L 652.439207 40.704547 
L 652.439207 26.608685 
L 652.439207 24.40304 
L 652.439207 22.463245 
L 757.606452 34.703763 
L 757.606452 28.208852 
L 757.606452 24.724145 
L 757.606452 23.038066 
L 862.773697 37.831432 
L 862.773697 32.123719 
L 862.773697 29.262586 
L 862.773697 26.873092 
" style="fill:none;stroke:#e377c2;stroke-linecap:square;stroke-width:1.5;"/>
   </g>
   <g id="patch_9">
    <path d="M 531.496875 340.84 
L 531.496875 7.2 
" style="fill:none;stroke:#000000;stroke-linecap:square;stroke-linejoin:miter;stroke-width:0.8;"/>
   </g>
   <g id="patch_10">
    <path d="M 878.548784 340.84 
L 878.548784 7.2 
" style="fill:none;stroke:#000000;stroke-linecap:square;stroke-linejoin:miter;stroke-width:0.8;"/>
   </g>
   <g id="patch_11">
    <path d="M 531.496875 340.84 
L 878.548784 340.84 
" style="fill:none;stroke:#000000;stroke-linecap:square;stroke-linejoin:miter;stroke-width:0.8;"/>
   </g>
   <g id="patch_12">
    <path d="M 531.496875 7.2 
L 878.548784 7.2 
" style="fill:none;stroke:#000000;stroke-linecap:square;stroke-linejoin:miter;stroke-width:0.8;"/>
   </g>
   <g id="legend_2">
    <g id="patch_13">
     <path d="M 536.722005 335.05 
L 873.323655 335.05 
Q 875.639655 335.05 875.639655 332.734 
L 875.639655 282.900194 
Q 875.639655 280.584194 873.323655 280.584194 
L 536.722005 280.584194 
Q 534.406005 280.584194 534.406005 282.900194 
L 534.406005 332.734 
Q 534.406005 335.05 536.722005 335.05 
z
" style="fill:#ffffff;opacity:0.8;stroke:#cccccc;stroke-linejoin:miter;"/>
    </g>
    <g id="line2d_119">
     <path d="M 539.038005 289.962184 
L 550.618005 289.962184 
" style="fill:none;stroke:#1f77b4;stroke-dasharray:5.55,2.4;stroke-dashoffset:0;stroke-width:1.5;"/>
    </g>
    <g id="line2d_120"/>
    <g id="text_40">
     <!-- 4 k -->
     <g transform="translate(559.882005 294.015184)scale(0.1158 -0.1158)">
      <use xlink:href="#DejaVuSans-52"/>
      <use x="63.623047" xlink:href="#DejaVuSans-32"/>
      <use x="95.410156" xlink:href="#DejaVuSans-107"/>
     </g>
    </g>
    <g id="line2d_121">
     <path d="M 539.038005 306.959453 
L 550.618005 306.959453 
" style="fill:none;stroke:#ff7f0e;stroke-dasharray:5.55,2.4;stroke-dashoffset:0;stroke-width:1.5;"/>
    </g>
    <g id="line2d_122"/>
    <g id="text_41">
     <!-- 8 k -->
     <g transform="translate(559.882005 311.012453)scale(0.1158 -0.1158)">
      <use xlink:href="#DejaVuSans-56"/>
      <use x="63.623047" xlink:href="#DejaVuSans-32"/>
      <use x="95.410156" xlink:href="#DejaVuSans-107"/>
     </g>
    </g>
    <g id="line2d_123">
     <path d="M 539.038005 323.956722 
L 550.618005 323.956722 
" style="fill:none;stroke:#2ca02c;stroke-dasharray:5.55,2.4;stroke-dashoffset:0;stroke-width:1.5;"/>
    </g>
    <g id="line2d_124"/>
    <g id="text_42">
     <!-- 16 k -->
     <g transform="translate(559.882005 328.009722)scale(0.1158 -0.1158)">
      <use xlink:href="#DejaVuSans-49"/>
      <use x="63.623047" xlink:href="#DejaVuSans-54"/>
      <use x="127.246094" xlink:href="#DejaVuSans-32"/>
      <use x="159.033203" xlink:href="#DejaVuSans-107"/>
     </g>
    </g>
    <g id="line2d_125">
     <path d="M 594.267367 289.962184 
L 605.847367 289.962184 
" style="fill:none;stroke:#d62728;stroke-dasharray:5.55,2.4;stroke-dashoffset:0;stroke-width:1.5;"/>
    </g>
    <g id="line2d_126"/>
    <g id="text_43">
     <!-- 32 k -->
     <g transform="translate(615.111367 294.015184)scale(0.1158 -0.1158)">
      <use xlink:href="#DejaVuSans-51"/>
      <use x="63.623047" xlink:href="#DejaVuSans-50"/>
      <use x="127.246094" xlink:href="#DejaVuSans-32"/>
      <use x="159.033203" xlink:href="#DejaVuSans-107"/>
     </g>
    </g>
    <g id="line2d_127">
     <path d="M 594.267367 306.959453 
L 605.847367 306.959453 
" style="fill:none;stroke:#9467bd;stroke-dasharray:5.55,2.4;stroke-dashoffset:0;stroke-width:1.5;"/>
    </g>
    <g id="line2d_128"/>
    <g id="text_44">
     <!-- 64 k -->
     <g transform="translate(615.111367 311.012453)scale(0.1158 -0.1158)">
      <use xlink:href="#DejaVuSans-54"/>
      <use x="63.623047" xlink:href="#DejaVuSans-52"/>
      <use x="127.246094" xlink:href="#DejaVuSans-32"/>
      <use x="159.033203" xlink:href="#DejaVuSans-107"/>
     </g>
    </g>
    <g id="line2d_129">
     <path d="M 594.267367 323.956722 
L 605.847367 323.956722 
" style="fill:none;stroke:#8c564b;stroke-dasharray:5.55,2.4;stroke-dashoffset:0;stroke-width:1.5;"/>
    </g>
    <g id="line2d_130"/>
    <g id="text_45">
     <!-- 128 k -->
     <g transform="translate(615.111367 328.009722)scale(0.1158 -0.1158)">
      <use xlink:href="#DejaVuSans-49"/>
      <use x="63.623047" xlink:href="#DejaVuSans-50"/>
      <use x="127.246094" xlink:href="#DejaVuSans-56"/>
      <use x="190.869141" xlink:href="#DejaVuSans-32"/>
      <use x="222.65625" xlink:href="#DejaVuSans-107"/>
     </g>
    </g>
    <g id="line2d_131">
     <path d="M 656.864505 289.962184 
L 668.444505 289.962184 
" style="fill:none;stroke:#e377c2;stroke-dasharray:5.55,2.4;stroke-dashoffset:0;stroke-width:1.5;"/>
    </g>
    <g id="line2d_132"/>
    <g id="text_46">
     <!-- 256 k -->
     <g transform="translate(677.708505 294.015184)scale(0.1158 -0.1158)">
      <use xlink:href="#DejaVuSans-50"/>
      <use x="63.623047" xlink:href="#DejaVuSans-53"/>
      <use x="127.246094" xlink:href="#DejaVuSans-54"/>
      <use x="190.869141" xlink:href="#DejaVuSans-32"/>
      <use x="222.65625" xlink:href="#DejaVuSans-107"/>
     </g>
    </g>
    <g id="line2d_133">
     <path d="M 656.864505 306.959453 
L 668.444505 306.959453 
" style="fill:none;stroke:#1f77b4;stroke-linecap:square;stroke-width:1.5;"/>
    </g>
    <g id="line2d_134"/>
    <g id="text_47">
     <!-- 512 k -->
     <g transform="translate(677.708505 311.012453)scale(0.1158 -0.1158)">
      <use xlink:href="#DejaVuSans-53"/>
      <use x="63.623047" xlink:href="#DejaVuSans-49"/>
      <use x="127.246094" xlink:href="#DejaVuSans-50"/>
      <use x="190.869141" xlink:href="#DejaVuSans-32"/>
      <use x="222.65625" xlink:href="#DejaVuSans-107"/>
     </g>
    </g>
    <g id="line2d_135">
     <path d="M 719.461642 289.962184 
L 731.041642 289.962184 
" style="fill:none;stroke:#ff7f0e;stroke-linecap:square;stroke-width:1.5;"/>
    </g>
    <g id="line2d_136"/>
    <g id="text_48">
     <!-- 1 M -->
     <g transform="translate(740.305642 294.015184)scale(0.1158 -0.1158)">
      <use xlink:href="#DejaVuSans-49"/>
      <use x="63.623047" xlink:href="#DejaVuSans-32"/>
      <use x="95.410156" xlink:href="#DejaVuSans-77"/>
     </g>
    </g>
    <g id="line2d_137">
     <path d="M 719.461642 306.959453 
L 731.041642 306.959453 
" style="fill:none;stroke:#2ca02c;stroke-linecap:square;stroke-width:1.5;"/>
    </g>
    <g id="line2d_138"/>
    <g id="text_49">
     <!-- 2 M -->
     <g transform="translate(740.305642 311.012453)scale(0.1158 -0.1158)">
      <use xlink:href="#DejaVuSans-50"/>
      <use x="63.623047" xlink:href="#DejaVuSans-32"/>
      <use x="95.410156" xlink:href="#DejaVuSans-77"/>
     </g>
    </g>
    <g id="line2d_139">
     <path d="M 770.609055 289.962184 
L 782.189055 289.962184 
" style="fill:none;stroke:#d62728;stroke-linecap:square;stroke-width:1.5;"/>
    </g>
    <g id="line2d_140"/>
    <g id="text_50">
     <!-- 4 M -->
     <g transform="translate(791.453055 294.015184)scale(0.1158 -0.1158)">
      <use xlink:href="#DejaVuSans-52"/>
      <use x="63.623047" xlink:href="#DejaVuSans-32"/>
      <use x="95.410156" xlink:href="#DejaVuSans-77"/>
     </g>
    </g>
    <g id="line2d_141">
     <path d="M 770.609055 306.959453 
L 782.189055 306.959453 
" style="fill:none;stroke:#9467bd;stroke-linecap:square;stroke-width:1.5;"/>
    </g>
    <g id="line2d_142"/>
    <g id="text_51">
     <!-- 8 M -->
     <g transform="translate(791.453055 311.012453)scale(0.1158 -0.1158)">
      <use xlink:href="#DejaVuSans-56"/>
      <use x="63.623047" xlink:href="#DejaVuSans-32"/>
      <use x="95.410156" xlink:href="#DejaVuSans-77"/>
     </g>
    </g>
    <g id="line2d_143">
     <path d="M 821.756467 289.962184 
L 833.336467 289.962184 
" style="fill:none;stroke:#8c564b;stroke-linecap:square;stroke-width:1.5;"/>
    </g>
    <g id="line2d_144"/>
    <g id="text_52">
     <!-- 16 M -->
     <g transform="translate(842.600467 294.015184)scale(0.1158 -0.1158)">
      <use xlink:href="#DejaVuSans-49"/>
      <use x="63.623047" xlink:href="#DejaVuSans-54"/>
      <use x="127.246094" xlink:href="#DejaVuSans-32"/>
      <use x="159.033203" xlink:href="#DejaVuSans-77"/>
     </g>
    </g>
    <g id="line2d_145">
     <path d="M 821.756467 306.959453 
L 833.336467 306.959453 
" style="fill:none;stroke:#e377c2;stroke-linecap:square;stroke-width:1.5;"/>
    </g>
    <g id="line2d_146"/>
    <g id="text_53">
     <!-- 32 M -->
     <g transform="translate(842.600467 311.012453)scale(0.1158 -0.1158)">
      <use xlink:href="#DejaVuSans-51"/>
      <use x="63.623047" xlink:href="#DejaVuSans-50"/>
      <use x="127.246094" xlink:href="#DejaVuSans-32"/>
      <use x="159.033203" xlink:href="#DejaVuSans-77"/>
     </g>
    </g>
   </g>
  </g>
 </g>
 <defs>
  <clipPath id="p8d522e8fbd">
   <rect height="333.64" width="347.051909" x="83.896875" y="7.2"/>
  </clipPath>
  <clipPath id="p9ca8e3de40">
   <rect height="333.64" width="347.051909" x="531.496875" y="7.2"/>
  </clipPath>
 </defs>
</svg>
