<?xml version="1.0" encoding="utf-8" standalone="no"?>
<!DOCTYPE svg PUBLIC "-//W3C//DTD SVG 1.1//EN"
  "http://www.w3.org/Graphics/SVG/1.1/DTD/svg11.dtd">
<!-- Created with matplotlib (https://matplotlib.org/) -->
<svg height="392.913437pt" version="1.1" viewBox="0 0 885.748784 392.913437" width="885.748784pt" xmlns="http://www.w3.org/2000/svg" xmlns:xlink="http://www.w3.org/1999/xlink">
 <defs>
  <style type="text/css">*{stroke-linecap:butt;stroke-linejoin:round;}</style>
 </defs>
 <g id="figure_1">
  <g id="patch_1">
   <path d="M 0 392.913437 
L 885.748784 392.913437 
L 885.748784 0 
L 0 0 
z
" style="fill:none;"/>
  </g>
  <g id="axes_1">
   <g id="patch_2">
    <path d="M 83.896875 340.84 
L 430.948784 340.84 
L 430.948784 7.2 
L 83.896875 7.2 
z
" style="fill:none;"/>
   </g>
   <g id="matplotlib.axis_1">
    <g id="xtick_1">
     <g id="line2d_1">
      <path clip-path="url(#paae51d3228)" d="M 99.671962 340.84 
L 99.671962 7.2 
" style="fill:none;stroke:#b0b0b0;stroke-linecap:square;stroke-width:0.8;"/>
     </g>
     <g id="line2d_2">
      <defs>
       <path d="M 0 0 
L 0 3.5 
" id="m005f0a59be" style="stroke:#000000;stroke-width:0.8;"/>
      </defs>
      <g>
       <use style="stroke:#000000;stroke-width:0.8;" x="99.671962" xlink:href="#m005f0a59be" y="340.84"/>
      </g>
     </g>
     <g id="text_1">
      <!-- 32 -->
      <g transform="translate(90.128212 359.237656)scale(0.15 -0.15)">
       <defs>
        <path d="M 40.578125 39.3125 
Q 47.65625 37.796875 51.625 33 
Q 55.609375 28.21875 55.609375 21.1875 
Q 55.609375 10.40625 48.1875 4.484375 
Q 40.765625 -1.421875 27.09375 -1.421875 
Q 22.515625 -1.421875 17.65625 -0.515625 
Q 12.796875 0.390625 7.625 2.203125 
L 7.625 11.71875 
Q 11.71875 9.328125 16.59375 8.109375 
Q 21.484375 6.890625 26.8125 6.890625 
Q 36.078125 6.890625 40.9375 10.546875 
Q 45.796875 14.203125 45.796875 21.1875 
Q 45.796875 27.640625 41.28125 31.265625 
Q 36.765625 34.90625 28.71875 34.90625 
L 20.21875 34.90625 
L 20.21875 43.015625 
L 29.109375 43.015625 
Q 36.375 43.015625 40.234375 45.921875 
Q 44.09375 48.828125 44.09375 54.296875 
Q 44.09375 59.90625 40.109375 62.90625 
Q 36.140625 65.921875 28.71875 65.921875 
Q 24.65625 65.921875 20.015625 65.03125 
Q 15.375 64.15625 9.8125 62.3125 
L 9.8125 71.09375 
Q 15.4375 72.65625 20.34375 73.4375 
Q 25.25 74.21875 29.59375 74.21875 
Q 40.828125 74.21875 47.359375 69.109375 
Q 53.90625 64.015625 53.90625 55.328125 
Q 53.90625 49.265625 50.4375 45.09375 
Q 46.96875 40.921875 40.578125 39.3125 
z
" id="DejaVuSans-51"/>
        <path d="M 19.1875 8.296875 
L 53.609375 8.296875 
L 53.609375 0 
L 7.328125 0 
L 7.328125 8.296875 
Q 12.9375 14.109375 22.625 23.890625 
Q 32.328125 33.6875 34.8125 36.53125 
Q 39.546875 41.84375 41.421875 45.53125 
Q 43.3125 49.21875 43.3125 52.78125 
Q 43.3125 58.59375 39.234375 62.25 
Q 35.15625 65.921875 28.609375 65.921875 
Q 23.96875 65.921875 18.8125 64.3125 
Q 13.671875 62.703125 7.8125 59.421875 
L 7.8125 69.390625 
Q 13.765625 71.78125 18.9375 73 
Q 24.125 74.21875 28.421875 74.21875 
Q 39.75 74.21875 46.484375 68.546875 
Q 53.21875 62.890625 53.21875 53.421875 
Q 53.21875 48.921875 51.53125 44.890625 
Q 49.859375 40.875 45.40625 35.40625 
Q 44.1875 33.984375 37.640625 27.21875 
Q 31.109375 20.453125 19.1875 8.296875 
z
" id="DejaVuSans-50"/>
       </defs>
       <use xlink:href="#DejaVuSans-51"/>
       <use x="63.623047" xlink:href="#DejaVuSans-50"/>
      </g>
     </g>
    </g>
    <g id="xtick_2">
     <g id="line2d_3">
      <path clip-path="url(#paae51d3228)" d="M 204.839207 340.84 
L 204.839207 7.2 
" style="fill:none;stroke:#b0b0b0;stroke-linecap:square;stroke-width:0.8;"/>
     </g>
     <g id="line2d_4">
      <g>
       <use style="stroke:#000000;stroke-width:0.8;" x="204.839207" xlink:href="#m005f0a59be" y="340.84"/>
      </g>
     </g>
     <g id="text_2">
      <!-- 64 -->
      <g transform="translate(195.295457 359.237656)scale(0.15 -0.15)">
       <defs>
        <path d="M 33.015625 40.375 
Q 26.375 40.375 22.484375 35.828125 
Q 18.609375 31.296875 18.609375 23.390625 
Q 18.609375 15.53125 22.484375 10.953125 
Q 26.375 6.390625 33.015625 6.390625 
Q 39.65625 6.390625 43.53125 10.953125 
Q 47.40625 15.53125 47.40625 23.390625 
Q 47.40625 31.296875 43.53125 35.828125 
Q 39.65625 40.375 33.015625 40.375 
z
M 52.59375 71.296875 
L 52.59375 62.3125 
Q 48.875 64.0625 45.09375 64.984375 
Q 41.3125 65.921875 37.59375 65.921875 
Q 27.828125 65.921875 22.671875 59.328125 
Q 17.53125 52.734375 16.796875 39.40625 
Q 19.671875 43.65625 24.015625 45.921875 
Q 28.375 48.1875 33.59375 48.1875 
Q 44.578125 48.1875 50.953125 41.515625 
Q 57.328125 34.859375 57.328125 23.390625 
Q 57.328125 12.15625 50.6875 5.359375 
Q 44.046875 -1.421875 33.015625 -1.421875 
Q 20.359375 -1.421875 13.671875 8.265625 
Q 6.984375 17.96875 6.984375 36.375 
Q 6.984375 53.65625 15.1875 63.9375 
Q 23.390625 74.21875 37.203125 74.21875 
Q 40.921875 74.21875 44.703125 73.484375 
Q 48.484375 72.75 52.59375 71.296875 
z
" id="DejaVuSans-54"/>
        <path d="M 37.796875 64.3125 
L 12.890625 25.390625 
L 37.796875 25.390625 
z
M 35.203125 72.90625 
L 47.609375 72.90625 
L 47.609375 25.390625 
L 58.015625 25.390625 
L 58.015625 17.1875 
L 47.609375 17.1875 
L 47.609375 0 
L 37.796875 0 
L 37.796875 17.1875 
L 4.890625 17.1875 
L 4.890625 26.703125 
z
" id="DejaVuSans-52"/>
       </defs>
       <use xlink:href="#DejaVuSans-54"/>
       <use x="63.623047" xlink:href="#DejaVuSans-52"/>
      </g>
     </g>
    </g>
    <g id="xtick_3">
     <g id="line2d_5">
      <path clip-path="url(#paae51d3228)" d="M 310.006452 340.84 
L 310.006452 7.2 
" style="fill:none;stroke:#b0b0b0;stroke-linecap:square;stroke-width:0.8;"/>
     </g>
     <g id="line2d_6">
      <g>
       <use style="stroke:#000000;stroke-width:0.8;" x="310.006452" xlink:href="#m005f0a59be" y="340.84"/>
      </g>
     </g>
     <g id="text_3">
      <!-- 128 -->
      <g transform="translate(295.690827 359.237656)scale(0.15 -0.15)">
       <defs>
        <path d="M 12.40625 8.296875 
L 28.515625 8.296875 
L 28.515625 63.921875 
L 10.984375 60.40625 
L 10.984375 69.390625 
L 28.421875 72.90625 
L 38.28125 72.90625 
L 38.28125 8.296875 
L 54.390625 8.296875 
L 54.390625 0 
L 12.40625 0 
z
" id="DejaVuSans-49"/>
        <path d="M 31.78125 34.625 
Q 24.75 34.625 20.71875 30.859375 
Q 16.703125 27.09375 16.703125 20.515625 
Q 16.703125 13.921875 20.71875 10.15625 
Q 24.75 6.390625 31.78125 6.390625 
Q 38.8125 6.390625 42.859375 10.171875 
Q 46.921875 13.96875 46.921875 20.515625 
Q 46.921875 27.09375 42.890625 30.859375 
Q 38.875 34.625 31.78125 34.625 
z
M 21.921875 38.8125 
Q 15.578125 40.375 12.03125 44.71875 
Q 8.5 49.078125 8.5 55.328125 
Q 8.5 64.0625 14.71875 69.140625 
Q 20.953125 74.21875 31.78125 74.21875 
Q 42.671875 74.21875 48.875 69.140625 
Q 55.078125 64.0625 55.078125 55.328125 
Q 55.078125 49.078125 51.53125 44.71875 
Q 48 40.375 41.703125 38.8125 
Q 48.828125 37.15625 52.796875 32.3125 
Q 56.78125 27.484375 56.78125 20.515625 
Q 56.78125 9.90625 50.3125 4.234375 
Q 43.84375 -1.421875 31.78125 -1.421875 
Q 19.734375 -1.421875 13.25 4.234375 
Q 6.78125 9.90625 6.78125 20.515625 
Q 6.78125 27.484375 10.78125 32.3125 
Q 14.796875 37.15625 21.921875 38.8125 
z
M 18.3125 54.390625 
Q 18.3125 48.734375 21.84375 45.5625 
Q 25.390625 42.390625 31.78125 42.390625 
Q 38.140625 42.390625 41.71875 45.5625 
Q 45.3125 48.734375 45.3125 54.390625 
Q 45.3125 60.0625 41.71875 63.234375 
Q 38.140625 66.40625 31.78125 66.40625 
Q 25.390625 66.40625 21.84375 63.234375 
Q 18.3125 60.0625 18.3125 54.390625 
z
" id="DejaVuSans-56"/>
       </defs>
       <use xlink:href="#DejaVuSans-49"/>
       <use x="63.623047" xlink:href="#DejaVuSans-50"/>
       <use x="127.246094" xlink:href="#DejaVuSans-56"/>
      </g>
     </g>
    </g>
    <g id="xtick_4">
     <g id="line2d_7">
      <path clip-path="url(#paae51d3228)" d="M 415.173697 340.84 
L 415.173697 7.2 
" style="fill:none;stroke:#b0b0b0;stroke-linecap:square;stroke-width:0.8;"/>
     </g>
     <g id="line2d_8">
      <g>
       <use style="stroke:#000000;stroke-width:0.8;" x="415.173697" xlink:href="#m005f0a59be" y="340.84"/>
      </g>
     </g>
     <g id="text_4">
      <!-- 256 -->
      <g transform="translate(400.858072 359.237656)scale(0.15 -0.15)">
       <defs>
        <path d="M 10.796875 72.90625 
L 49.515625 72.90625 
L 49.515625 64.59375 
L 19.828125 64.59375 
L 19.828125 46.734375 
Q 21.96875 47.46875 24.109375 47.828125 
Q 26.265625 48.1875 28.421875 48.1875 
Q 40.625 48.1875 47.75 41.5 
Q 54.890625 34.8125 54.890625 23.390625 
Q 54.890625 11.625 47.5625 5.09375 
Q 40.234375 -1.421875 26.90625 -1.421875 
Q 22.3125 -1.421875 17.546875 -0.640625 
Q 12.796875 0.140625 7.71875 1.703125 
L 7.71875 11.625 
Q 12.109375 9.234375 16.796875 8.0625 
Q 21.484375 6.890625 26.703125 6.890625 
Q 35.15625 6.890625 40.078125 11.328125 
Q 45.015625 15.765625 45.015625 23.390625 
Q 45.015625 31 40.078125 35.4375 
Q 35.15625 39.890625 26.703125 39.890625 
Q 22.75 39.890625 18.8125 39.015625 
Q 14.890625 38.140625 10.796875 36.28125 
z
" id="DejaVuSans-53"/>
       </defs>
       <use xlink:href="#DejaVuSans-50"/>
       <use x="63.623047" xlink:href="#DejaVuSans-53"/>
       <use x="127.246094" xlink:href="#DejaVuSans-54"/>
      </g>
     </g>
    </g>
    <g id="text_5">
     <!-- Repetition -->
     <g transform="translate(206.41658 381.554062)scale(0.2 -0.2)">
      <defs>
       <path d="M 44.390625 34.1875 
Q 47.5625 33.109375 50.5625 29.59375 
Q 53.5625 26.078125 56.59375 19.921875 
L 66.609375 0 
L 56 0 
L 46.6875 18.703125 
Q 43.0625 26.03125 39.671875 28.421875 
Q 36.28125 30.8125 30.421875 30.8125 
L 19.671875 30.8125 
L 19.671875 0 
L 9.8125 0 
L 9.8125 72.90625 
L 32.078125 72.90625 
Q 44.578125 72.90625 50.734375 67.671875 
Q 56.890625 62.453125 56.890625 51.90625 
Q 56.890625 45.015625 53.6875 40.46875 
Q 50.484375 35.9375 44.390625 34.1875 
z
M 19.671875 64.796875 
L 19.671875 38.921875 
L 32.078125 38.921875 
Q 39.203125 38.921875 42.84375 42.21875 
Q 46.484375 45.515625 46.484375 51.90625 
Q 46.484375 58.296875 42.84375 61.546875 
Q 39.203125 64.796875 32.078125 64.796875 
z
" id="DejaVuSans-82"/>
       <path d="M 56.203125 29.59375 
L 56.203125 25.203125 
L 14.890625 25.203125 
Q 15.484375 15.921875 20.484375 11.0625 
Q 25.484375 6.203125 34.421875 6.203125 
Q 39.59375 6.203125 44.453125 7.46875 
Q 49.3125 8.734375 54.109375 11.28125 
L 54.109375 2.78125 
Q 49.265625 0.734375 44.1875 -0.34375 
Q 39.109375 -1.421875 33.890625 -1.421875 
Q 20.796875 -1.421875 13.15625 6.1875 
Q 5.515625 13.8125 5.515625 26.8125 
Q 5.515625 40.234375 12.765625 48.109375 
Q 20.015625 56 32.328125 56 
Q 43.359375 56 49.78125 48.890625 
Q 56.203125 41.796875 56.203125 29.59375 
z
M 47.21875 32.234375 
Q 47.125 39.59375 43.09375 43.984375 
Q 39.0625 48.390625 32.421875 48.390625 
Q 24.90625 48.390625 20.390625 44.140625 
Q 15.875 39.890625 15.1875 32.171875 
z
" id="DejaVuSans-101"/>
       <path d="M 18.109375 8.203125 
L 18.109375 -20.796875 
L 9.078125 -20.796875 
L 9.078125 54.6875 
L 18.109375 54.6875 
L 18.109375 46.390625 
Q 20.953125 51.265625 25.265625 53.625 
Q 29.59375 56 35.59375 56 
Q 45.5625 56 51.78125 48.09375 
Q 58.015625 40.1875 58.015625 27.296875 
Q 58.015625 14.40625 51.78125 6.484375 
Q 45.5625 -1.421875 35.59375 -1.421875 
Q 29.59375 -1.421875 25.265625 0.953125 
Q 20.953125 3.328125 18.109375 8.203125 
z
M 48.6875 27.296875 
Q 48.6875 37.203125 44.609375 42.84375 
Q 40.53125 48.484375 33.40625 48.484375 
Q 26.265625 48.484375 22.1875 42.84375 
Q 18.109375 37.203125 18.109375 27.296875 
Q 18.109375 17.390625 22.1875 11.75 
Q 26.265625 6.109375 33.40625 6.109375 
Q 40.53125 6.109375 44.609375 11.75 
Q 48.6875 17.390625 48.6875 27.296875 
z
" id="DejaVuSans-112"/>
       <path d="M 18.3125 70.21875 
L 18.3125 54.6875 
L 36.8125 54.6875 
L 36.8125 47.703125 
L 18.3125 47.703125 
L 18.3125 18.015625 
Q 18.3125 11.328125 20.140625 9.421875 
Q 21.96875 7.515625 27.59375 7.515625 
L 36.8125 7.515625 
L 36.8125 0 
L 27.59375 0 
Q 17.1875 0 13.234375 3.875 
Q 9.28125 7.765625 9.28125 18.015625 
L 9.28125 47.703125 
L 2.6875 47.703125 
L 2.6875 54.6875 
L 9.28125 54.6875 
L 9.28125 70.21875 
z
" id="DejaVuSans-116"/>
       <path d="M 9.421875 54.6875 
L 18.40625 54.6875 
L 18.40625 0 
L 9.421875 0 
z
M 9.421875 75.984375 
L 18.40625 75.984375 
L 18.40625 64.59375 
L 9.421875 64.59375 
z
" id="DejaVuSans-105"/>
       <path d="M 30.609375 48.390625 
Q 23.390625 48.390625 19.1875 42.75 
Q 14.984375 37.109375 14.984375 27.296875 
Q 14.984375 17.484375 19.15625 11.84375 
Q 23.34375 6.203125 30.609375 6.203125 
Q 37.796875 6.203125 41.984375 11.859375 
Q 46.1875 17.53125 46.1875 27.296875 
Q 46.1875 37.015625 41.984375 42.703125 
Q 37.796875 48.390625 30.609375 48.390625 
z
M 30.609375 56 
Q 42.328125 56 49.015625 48.375 
Q 55.71875 40.765625 55.71875 27.296875 
Q 55.71875 13.875 49.015625 6.21875 
Q 42.328125 -1.421875 30.609375 -1.421875 
Q 18.84375 -1.421875 12.171875 6.21875 
Q 5.515625 13.875 5.515625 27.296875 
Q 5.515625 40.765625 12.171875 48.375 
Q 18.84375 56 30.609375 56 
z
" id="DejaVuSans-111"/>
       <path d="M 54.890625 33.015625 
L 54.890625 0 
L 45.90625 0 
L 45.90625 32.71875 
Q 45.90625 40.484375 42.875 44.328125 
Q 39.84375 48.1875 33.796875 48.1875 
Q 26.515625 48.1875 22.3125 43.546875 
Q 18.109375 38.921875 18.109375 30.90625 
L 18.109375 0 
L 9.078125 0 
L 9.078125 54.6875 
L 18.109375 54.6875 
L 18.109375 46.1875 
Q 21.34375 51.125 25.703125 53.5625 
Q 30.078125 56 35.796875 56 
Q 45.21875 56 50.046875 50.171875 
Q 54.890625 44.34375 54.890625 33.015625 
z
" id="DejaVuSans-110"/>
      </defs>
      <use xlink:href="#DejaVuSans-82"/>
      <use x="64.982422" xlink:href="#DejaVuSans-101"/>
      <use x="126.505859" xlink:href="#DejaVuSans-112"/>
      <use x="189.982422" xlink:href="#DejaVuSans-101"/>
      <use x="251.505859" xlink:href="#DejaVuSans-116"/>
      <use x="290.714844" xlink:href="#DejaVuSans-105"/>
      <use x="318.498047" xlink:href="#DejaVuSans-116"/>
      <use x="357.707031" xlink:href="#DejaVuSans-105"/>
      <use x="385.490234" xlink:href="#DejaVuSans-111"/>
      <use x="446.671875" xlink:href="#DejaVuSans-110"/>
     </g>
    </g>
   </g>
   <g id="matplotlib.axis_2">
    <g id="ytick_1">
     <g id="line2d_9">
      <path clip-path="url(#paae51d3228)" d="M 83.896875 326.49014 
L 430.948784 326.49014 
" style="fill:none;stroke:#b0b0b0;stroke-linecap:square;stroke-width:0.8;"/>
     </g>
     <g id="line2d_10">
      <defs>
       <path d="M 0 0 
L -3.5 0 
" id="mc3ce260a5b" style="stroke:#000000;stroke-width:0.8;"/>
      </defs>
      <g>
       <use style="stroke:#000000;stroke-width:0.8;" x="83.896875" xlink:href="#mc3ce260a5b" y="326.49014"/>
      </g>
     </g>
     <g id="text_6">
      <!-- 16 M -->
      <g transform="translate(40.1 332.188968)scale(0.15 -0.15)">
       <defs>
        <path id="DejaVuSans-32"/>
        <path d="M 9.8125 72.90625 
L 24.515625 72.90625 
L 43.109375 23.296875 
L 61.8125 72.90625 
L 76.515625 72.90625 
L 76.515625 0 
L 66.890625 0 
L 66.890625 64.015625 
L 48.09375 14.015625 
L 38.1875 14.015625 
L 19.390625 64.015625 
L 19.390625 0 
L 9.8125 0 
z
" id="DejaVuSans-77"/>
       </defs>
       <use xlink:href="#DejaVuSans-49"/>
       <use x="63.623047" xlink:href="#DejaVuSans-54"/>
       <use x="127.246094" xlink:href="#DejaVuSans-32"/>
       <use x="159.033203" xlink:href="#DejaVuSans-77"/>
      </g>
     </g>
    </g>
    <g id="ytick_2">
     <g id="line2d_11">
      <path clip-path="url(#paae51d3228)" d="M 83.896875 271.139657 
L 430.948784 271.139657 
" style="fill:none;stroke:#b0b0b0;stroke-linecap:square;stroke-width:0.8;"/>
     </g>
     <g id="line2d_12">
      <g>
       <use style="stroke:#000000;stroke-width:0.8;" x="83.896875" xlink:href="#mc3ce260a5b" y="271.139657"/>
      </g>
     </g>
     <g id="text_7">
      <!-- 64 M -->
      <g transform="translate(40.1 276.838485)scale(0.15 -0.15)">
       <use xlink:href="#DejaVuSans-54"/>
       <use x="63.623047" xlink:href="#DejaVuSans-52"/>
       <use x="127.246094" xlink:href="#DejaVuSans-32"/>
       <use x="159.033203" xlink:href="#DejaVuSans-77"/>
      </g>
     </g>
    </g>
    <g id="ytick_3">
     <g id="line2d_13">
      <path clip-path="url(#paae51d3228)" d="M 83.896875 215.789174 
L 430.948784 215.789174 
" style="fill:none;stroke:#b0b0b0;stroke-linecap:square;stroke-width:0.8;"/>
     </g>
     <g id="line2d_14">
      <g>
       <use style="stroke:#000000;stroke-width:0.8;" x="83.896875" xlink:href="#mc3ce260a5b" y="215.789174"/>
      </g>
     </g>
     <g id="text_8">
      <!-- 256 M -->
      <g transform="translate(30.55625 221.488003)scale(0.15 -0.15)">
       <use xlink:href="#DejaVuSans-50"/>
       <use x="63.623047" xlink:href="#DejaVuSans-53"/>
       <use x="127.246094" xlink:href="#DejaVuSans-54"/>
       <use x="190.869141" xlink:href="#DejaVuSans-32"/>
       <use x="222.65625" xlink:href="#DejaVuSans-77"/>
      </g>
     </g>
    </g>
    <g id="ytick_4">
     <g id="line2d_15">
      <path clip-path="url(#paae51d3228)" d="M 83.896875 160.438692 
L 430.948784 160.438692 
" style="fill:none;stroke:#b0b0b0;stroke-linecap:square;stroke-width:0.8;"/>
     </g>
     <g id="line2d_16">
      <g>
       <use style="stroke:#000000;stroke-width:0.8;" x="83.896875" xlink:href="#mc3ce260a5b" y="160.438692"/>
      </g>
     </g>
     <g id="text_9">
      <!-- 1 G -->
      <g transform="translate(50.963281 166.13752)scale(0.15 -0.15)">
       <defs>
        <path d="M 59.515625 10.40625 
L 59.515625 29.984375 
L 43.40625 29.984375 
L 43.40625 38.09375 
L 69.28125 38.09375 
L 69.28125 6.78125 
Q 63.578125 2.734375 56.6875 0.65625 
Q 49.8125 -1.421875 42 -1.421875 
Q 24.90625 -1.421875 15.25 8.5625 
Q 5.609375 18.5625 5.609375 36.375 
Q 5.609375 54.25 15.25 64.234375 
Q 24.90625 74.21875 42 74.21875 
Q 49.125 74.21875 55.546875 72.453125 
Q 61.96875 70.703125 67.390625 67.28125 
L 67.390625 56.78125 
Q 61.921875 61.421875 55.765625 63.765625 
Q 49.609375 66.109375 42.828125 66.109375 
Q 29.4375 66.109375 22.71875 58.640625 
Q 16.015625 51.171875 16.015625 36.375 
Q 16.015625 21.625 22.71875 14.15625 
Q 29.4375 6.6875 42.828125 6.6875 
Q 48.046875 6.6875 52.140625 7.59375 
Q 56.25 8.5 59.515625 10.40625 
z
" id="DejaVuSans-71"/>
       </defs>
       <use xlink:href="#DejaVuSans-49"/>
       <use x="63.623047" xlink:href="#DejaVuSans-32"/>
       <use x="95.410156" xlink:href="#DejaVuSans-71"/>
      </g>
     </g>
    </g>
    <g id="ytick_5">
     <g id="line2d_17">
      <path clip-path="url(#paae51d3228)" d="M 83.896875 105.088209 
L 430.948784 105.088209 
" style="fill:none;stroke:#b0b0b0;stroke-linecap:square;stroke-width:0.8;"/>
     </g>
     <g id="line2d_18">
      <g>
       <use style="stroke:#000000;stroke-width:0.8;" x="83.896875" xlink:href="#mc3ce260a5b" y="105.088209"/>
      </g>
     </g>
     <g id="text_10">
      <!-- 4 G -->
      <g transform="translate(50.963281 110.787037)scale(0.15 -0.15)">
       <use xlink:href="#DejaVuSans-52"/>
       <use x="63.623047" xlink:href="#DejaVuSans-32"/>
       <use x="95.410156" xlink:href="#DejaVuSans-71"/>
      </g>
     </g>
    </g>
    <g id="ytick_6">
     <g id="line2d_19">
      <path clip-path="url(#paae51d3228)" d="M 83.896875 49.737726 
L 430.948784 49.737726 
" style="fill:none;stroke:#b0b0b0;stroke-linecap:square;stroke-width:0.8;"/>
     </g>
     <g id="line2d_20">
      <g>
       <use style="stroke:#000000;stroke-width:0.8;" x="83.896875" xlink:href="#mc3ce260a5b" y="49.737726"/>
      </g>
     </g>
     <g id="text_11">
      <!-- 16 G -->
      <g transform="translate(41.419531 55.436555)scale(0.15 -0.15)">
       <use xlink:href="#DejaVuSans-49"/>
       <use x="63.623047" xlink:href="#DejaVuSans-54"/>
       <use x="127.246094" xlink:href="#DejaVuSans-32"/>
       <use x="159.033203" xlink:href="#DejaVuSans-71"/>
      </g>
     </g>
    </g>
    <g id="ytick_7">
     <g id="line2d_21">
      <defs>
       <path d="M 0 0 
L 2 0 
" id="md3fbf4566d" style="stroke:#000000;stroke-width:0.6;"/>
      </defs>
      <g>
       <use style="stroke:#000000;stroke-width:0.6;" x="83.896875" xlink:href="#md3fbf4566d" y="298.814898"/>
      </g>
     </g>
     <g id="line2d_22">
      <defs>
       <path d="M 0 0 
L -2 0 
" id="md0f4fded07" style="stroke:#000000;stroke-width:0.6;"/>
      </defs>
      <g>
       <use style="stroke:#000000;stroke-width:0.6;" x="430.948784" xlink:href="#md0f4fded07" y="298.814898"/>
      </g>
     </g>
    </g>
    <g id="ytick_8">
     <g id="line2d_23">
      <g>
       <use style="stroke:#000000;stroke-width:0.6;" x="83.896875" xlink:href="#md3fbf4566d" y="243.464416"/>
      </g>
     </g>
     <g id="line2d_24">
      <g>
       <use style="stroke:#000000;stroke-width:0.6;" x="430.948784" xlink:href="#md0f4fded07" y="243.464416"/>
      </g>
     </g>
    </g>
    <g id="ytick_9">
     <g id="line2d_25">
      <g>
       <use style="stroke:#000000;stroke-width:0.6;" x="83.896875" xlink:href="#md3fbf4566d" y="188.113933"/>
      </g>
     </g>
     <g id="line2d_26">
      <g>
       <use style="stroke:#000000;stroke-width:0.6;" x="430.948784" xlink:href="#md0f4fded07" y="188.113933"/>
      </g>
     </g>
    </g>
    <g id="ytick_10">
     <g id="line2d_27">
      <g>
       <use style="stroke:#000000;stroke-width:0.6;" x="83.896875" xlink:href="#md3fbf4566d" y="132.76345"/>
      </g>
     </g>
     <g id="line2d_28">
      <g>
       <use style="stroke:#000000;stroke-width:0.6;" x="430.948784" xlink:href="#md0f4fded07" y="132.76345"/>
      </g>
     </g>
    </g>
    <g id="ytick_11">
     <g id="line2d_29">
      <g>
       <use style="stroke:#000000;stroke-width:0.6;" x="83.896875" xlink:href="#md3fbf4566d" y="77.412968"/>
      </g>
     </g>
     <g id="line2d_30">
      <g>
       <use style="stroke:#000000;stroke-width:0.6;" x="430.948784" xlink:href="#md0f4fded07" y="77.412968"/>
      </g>
     </g>
    </g>
    <g id="ytick_12">
     <g id="line2d_31">
      <g>
       <use style="stroke:#000000;stroke-width:0.6;" x="83.896875" xlink:href="#md3fbf4566d" y="22.062485"/>
      </g>
     </g>
     <g id="line2d_32">
      <g>
       <use style="stroke:#000000;stroke-width:0.6;" x="430.948784" xlink:href="#md0f4fded07" y="22.062485"/>
      </g>
     </g>
    </g>
    <g id="text_12">
     <!-- Memory Throughput (B/s) -->
     <g transform="translate(22.396875 302.368437)rotate(-90)scale(0.2 -0.2)">
      <defs>
       <path d="M 52 44.1875 
Q 55.375 50.25 60.0625 53.125 
Q 64.75 56 71.09375 56 
Q 79.640625 56 84.28125 50.015625 
Q 88.921875 44.046875 88.921875 33.015625 
L 88.921875 0 
L 79.890625 0 
L 79.890625 32.71875 
Q 79.890625 40.578125 77.09375 44.375 
Q 74.3125 48.1875 68.609375 48.1875 
Q 61.625 48.1875 57.5625 43.546875 
Q 53.515625 38.921875 53.515625 30.90625 
L 53.515625 0 
L 44.484375 0 
L 44.484375 32.71875 
Q 44.484375 40.625 41.703125 44.40625 
Q 38.921875 48.1875 33.109375 48.1875 
Q 26.21875 48.1875 22.15625 43.53125 
Q 18.109375 38.875 18.109375 30.90625 
L 18.109375 0 
L 9.078125 0 
L 9.078125 54.6875 
L 18.109375 54.6875 
L 18.109375 46.1875 
Q 21.1875 51.21875 25.484375 53.609375 
Q 29.78125 56 35.6875 56 
Q 41.65625 56 45.828125 52.96875 
Q 50 49.953125 52 44.1875 
z
" id="DejaVuSans-109"/>
       <path d="M 41.109375 46.296875 
Q 39.59375 47.171875 37.8125 47.578125 
Q 36.03125 48 33.890625 48 
Q 26.265625 48 22.1875 43.046875 
Q 18.109375 38.09375 18.109375 28.8125 
L 18.109375 0 
L 9.078125 0 
L 9.078125 54.6875 
L 18.109375 54.6875 
L 18.109375 46.1875 
Q 20.953125 51.171875 25.484375 53.578125 
Q 30.03125 56 36.53125 56 
Q 37.453125 56 38.578125 55.875 
Q 39.703125 55.765625 41.0625 55.515625 
z
" id="DejaVuSans-114"/>
       <path d="M 32.171875 -5.078125 
Q 28.375 -14.84375 24.75 -17.8125 
Q 21.140625 -20.796875 15.09375 -20.796875 
L 7.90625 -20.796875 
L 7.90625 -13.28125 
L 13.1875 -13.28125 
Q 16.890625 -13.28125 18.9375 -11.515625 
Q 21 -9.765625 23.484375 -3.21875 
L 25.09375 0.875 
L 2.984375 54.6875 
L 12.5 54.6875 
L 29.59375 11.921875 
L 46.6875 54.6875 
L 56.203125 54.6875 
z
" id="DejaVuSans-121"/>
       <path d="M -0.296875 72.90625 
L 61.375 72.90625 
L 61.375 64.59375 
L 35.5 64.59375 
L 35.5 0 
L 25.59375 0 
L 25.59375 64.59375 
L -0.296875 64.59375 
z
" id="DejaVuSans-84"/>
       <path d="M 54.890625 33.015625 
L 54.890625 0 
L 45.90625 0 
L 45.90625 32.71875 
Q 45.90625 40.484375 42.875 44.328125 
Q 39.84375 48.1875 33.796875 48.1875 
Q 26.515625 48.1875 22.3125 43.546875 
Q 18.109375 38.921875 18.109375 30.90625 
L 18.109375 0 
L 9.078125 0 
L 9.078125 75.984375 
L 18.109375 75.984375 
L 18.109375 46.1875 
Q 21.34375 51.125 25.703125 53.5625 
Q 30.078125 56 35.796875 56 
Q 45.21875 56 50.046875 50.171875 
Q 54.890625 44.34375 54.890625 33.015625 
z
" id="DejaVuSans-104"/>
       <path d="M 8.5 21.578125 
L 8.5 54.6875 
L 17.484375 54.6875 
L 17.484375 21.921875 
Q 17.484375 14.15625 20.5 10.265625 
Q 23.53125 6.390625 29.59375 6.390625 
Q 36.859375 6.390625 41.078125 11.03125 
Q 45.3125 15.671875 45.3125 23.6875 
L 45.3125 54.6875 
L 54.296875 54.6875 
L 54.296875 0 
L 45.3125 0 
L 45.3125 8.40625 
Q 42.046875 3.421875 37.71875 1 
Q 33.40625 -1.421875 27.6875 -1.421875 
Q 18.265625 -1.421875 13.375 4.4375 
Q 8.5 10.296875 8.5 21.578125 
z
M 31.109375 56 
z
" id="DejaVuSans-117"/>
       <path d="M 45.40625 27.984375 
Q 45.40625 37.75 41.375 43.109375 
Q 37.359375 48.484375 30.078125 48.484375 
Q 22.859375 48.484375 18.828125 43.109375 
Q 14.796875 37.75 14.796875 27.984375 
Q 14.796875 18.265625 18.828125 12.890625 
Q 22.859375 7.515625 30.078125 7.515625 
Q 37.359375 7.515625 41.375 12.890625 
Q 45.40625 18.265625 45.40625 27.984375 
z
M 54.390625 6.78125 
Q 54.390625 -7.171875 48.1875 -13.984375 
Q 42 -20.796875 29.203125 -20.796875 
Q 24.46875 -20.796875 20.265625 -20.09375 
Q 16.0625 -19.390625 12.109375 -17.921875 
L 12.109375 -9.1875 
Q 16.0625 -11.328125 19.921875 -12.34375 
Q 23.78125 -13.375 27.78125 -13.375 
Q 36.625 -13.375 41.015625 -8.765625 
Q 45.40625 -4.15625 45.40625 5.171875 
L 45.40625 9.625 
Q 42.625 4.78125 38.28125 2.390625 
Q 33.9375 0 27.875 0 
Q 17.828125 0 11.671875 7.65625 
Q 5.515625 15.328125 5.515625 27.984375 
Q 5.515625 40.671875 11.671875 48.328125 
Q 17.828125 56 27.875 56 
Q 33.9375 56 38.28125 53.609375 
Q 42.625 51.21875 45.40625 46.390625 
L 45.40625 54.6875 
L 54.390625 54.6875 
z
" id="DejaVuSans-103"/>
       <path d="M 31 75.875 
Q 24.46875 64.65625 21.28125 53.65625 
Q 18.109375 42.671875 18.109375 31.390625 
Q 18.109375 20.125 21.3125 9.0625 
Q 24.515625 -2 31 -13.1875 
L 23.1875 -13.1875 
Q 15.875 -1.703125 12.234375 9.375 
Q 8.59375 20.453125 8.59375 31.390625 
Q 8.59375 42.28125 12.203125 53.3125 
Q 15.828125 64.359375 23.1875 75.875 
z
" id="DejaVuSans-40"/>
       <path d="M 19.671875 34.8125 
L 19.671875 8.109375 
L 35.5 8.109375 
Q 43.453125 8.109375 47.28125 11.40625 
Q 51.125 14.703125 51.125 21.484375 
Q 51.125 28.328125 47.28125 31.5625 
Q 43.453125 34.8125 35.5 34.8125 
z
M 19.671875 64.796875 
L 19.671875 42.828125 
L 34.28125 42.828125 
Q 41.5 42.828125 45.03125 45.53125 
Q 48.578125 48.25 48.578125 53.8125 
Q 48.578125 59.328125 45.03125 62.0625 
Q 41.5 64.796875 34.28125 64.796875 
z
M 9.8125 72.90625 
L 35.015625 72.90625 
Q 46.296875 72.90625 52.390625 68.21875 
Q 58.5 63.53125 58.5 54.890625 
Q 58.5 48.1875 55.375 44.234375 
Q 52.25 40.28125 46.1875 39.3125 
Q 53.46875 37.75 57.5 32.78125 
Q 61.53125 27.828125 61.53125 20.40625 
Q 61.53125 10.640625 54.890625 5.3125 
Q 48.25 0 35.984375 0 
L 9.8125 0 
z
" id="DejaVuSans-66"/>
       <path d="M 25.390625 72.90625 
L 33.6875 72.90625 
L 8.296875 -9.28125 
L 0 -9.28125 
z
" id="DejaVuSans-47"/>
       <path d="M 44.28125 53.078125 
L 44.28125 44.578125 
Q 40.484375 46.53125 36.375 47.5 
Q 32.28125 48.484375 27.875 48.484375 
Q 21.1875 48.484375 17.84375 46.4375 
Q 14.5 44.390625 14.5 40.28125 
Q 14.5 37.15625 16.890625 35.375 
Q 19.28125 33.59375 26.515625 31.984375 
L 29.59375 31.296875 
Q 39.15625 29.25 43.1875 25.515625 
Q 47.21875 21.78125 47.21875 15.09375 
Q 47.21875 7.46875 41.1875 3.015625 
Q 35.15625 -1.421875 24.609375 -1.421875 
Q 20.21875 -1.421875 15.453125 -0.5625 
Q 10.6875 0.296875 5.421875 2 
L 5.421875 11.28125 
Q 10.40625 8.6875 15.234375 7.390625 
Q 20.0625 6.109375 24.8125 6.109375 
Q 31.15625 6.109375 34.5625 8.28125 
Q 37.984375 10.453125 37.984375 14.40625 
Q 37.984375 18.0625 35.515625 20.015625 
Q 33.0625 21.96875 24.703125 23.78125 
L 21.578125 24.515625 
Q 13.234375 26.265625 9.515625 29.90625 
Q 5.8125 33.546875 5.8125 39.890625 
Q 5.8125 47.609375 11.28125 51.796875 
Q 16.75 56 26.8125 56 
Q 31.78125 56 36.171875 55.265625 
Q 40.578125 54.546875 44.28125 53.078125 
z
" id="DejaVuSans-115"/>
       <path d="M 8.015625 75.875 
L 15.828125 75.875 
Q 23.140625 64.359375 26.78125 53.3125 
Q 30.421875 42.28125 30.421875 31.390625 
Q 30.421875 20.453125 26.78125 9.375 
Q 23.140625 -1.703125 15.828125 -13.1875 
L 8.015625 -13.1875 
Q 14.5 -2 17.703125 9.0625 
Q 20.90625 20.125 20.90625 31.390625 
Q 20.90625 42.671875 17.703125 53.65625 
Q 14.5 64.65625 8.015625 75.875 
z
" id="DejaVuSans-41"/>
      </defs>
      <use xlink:href="#DejaVuSans-77"/>
      <use x="86.279297" xlink:href="#DejaVuSans-101"/>
      <use x="147.802734" xlink:href="#DejaVuSans-109"/>
      <use x="245.214844" xlink:href="#DejaVuSans-111"/>
      <use x="306.396484" xlink:href="#DejaVuSans-114"/>
      <use x="347.509766" xlink:href="#DejaVuSans-121"/>
      <use x="406.689453" xlink:href="#DejaVuSans-32"/>
      <use x="438.476562" xlink:href="#DejaVuSans-84"/>
      <use x="499.560547" xlink:href="#DejaVuSans-104"/>
      <use x="562.939453" xlink:href="#DejaVuSans-114"/>
      <use x="601.802734" xlink:href="#DejaVuSans-111"/>
      <use x="662.984375" xlink:href="#DejaVuSans-117"/>
      <use x="726.363281" xlink:href="#DejaVuSans-103"/>
      <use x="789.839844" xlink:href="#DejaVuSans-104"/>
      <use x="853.21875" xlink:href="#DejaVuSans-112"/>
      <use x="916.695312" xlink:href="#DejaVuSans-117"/>
      <use x="980.074219" xlink:href="#DejaVuSans-116"/>
      <use x="1019.283203" xlink:href="#DejaVuSans-32"/>
      <use x="1051.070312" xlink:href="#DejaVuSans-40"/>
      <use x="1090.083984" xlink:href="#DejaVuSans-66"/>
      <use x="1158.6875" xlink:href="#DejaVuSans-47"/>
      <use x="1192.378906" xlink:href="#DejaVuSans-115"/>
      <use x="1244.478516" xlink:href="#DejaVuSans-41"/>
     </g>
    </g>
   </g>
   <g id="line2d_33">
    <path clip-path="url(#paae51d3228)" d="M 99.671962 230.428187 
L 99.671962 226.107164 
L 99.671962 232.273672 
L 99.671962 230.498906 
L 204.839207 229.204697 
L 204.839207 241.307232 
L 204.839207 238.574886 
L 204.839207 237.026937 
L 310.006452 325.674545 
L 310.006452 239.063882 
L 310.006452 239.256546 
L 310.006452 226.047143 
L 415.173697 232.371465 
L 415.173697 225.006372 
L 415.173697 225.607776 
L 415.173697 225.531082 
" style="fill:none;stroke:#1f77b4;stroke-dasharray:5.55,2.4;stroke-dashoffset:0;stroke-width:1.5;"/>
   </g>
   <g id="line2d_34">
    <path clip-path="url(#paae51d3228)" d="M 99.671962 205.362939 
L 99.671962 202.253391 
L 99.671962 202.261883 
L 99.671962 201.409586 
L 204.839207 202.516233 
L 204.839207 202.686868 
L 204.839207 203.230873 
L 204.839207 202.881156 
L 310.006452 209.905669 
L 310.006452 202.023607 
L 310.006452 200.540376 
L 310.006452 203.016178 
L 415.173697 212.598014 
L 415.173697 202.656749 
L 415.173697 208.255336 
L 415.173697 216.519793 
" style="fill:none;stroke:#ff7f0e;stroke-dasharray:5.55,2.4;stroke-dashoffset:0;stroke-width:1.5;"/>
   </g>
   <g id="line2d_35">
    <path clip-path="url(#paae51d3228)" d="M 99.671962 182.054277 
L 99.671962 174.109502 
L 99.671962 175.992197 
L 99.671962 181.906781 
L 204.839207 174.663489 
L 204.839207 180.50995 
L 204.839207 174.179695 
L 204.839207 174.909175 
L 310.006452 174.425283 
L 310.006452 187.83137 
L 310.006452 173.207922 
L 310.006452 174.081883 
L 415.173697 174.918426 
L 415.173697 174.213487 
L 415.173697 173.848531 
L 415.173697 173.003855 
" style="fill:none;stroke:#2ca02c;stroke-dasharray:5.55,2.4;stroke-dashoffset:0;stroke-width:1.5;"/>
   </g>
   <g id="line2d_36">
    <path clip-path="url(#paae51d3228)" d="M 99.671962 152.974234 
L 99.671962 160.359849 
L 99.671962 146.987003 
L 99.671962 159.419591 
L 204.839207 147.625912 
L 204.839207 147.524176 
L 204.839207 146.674784 
L 204.839207 148.019775 
L 310.006452 147.589101 
L 310.006452 153.047805 
L 310.006452 145.947426 
L 310.006452 158.831786 
L 415.173697 145.764702 
L 415.173697 160.191889 
L 415.173697 158.906209 
L 415.173697 146.106484 
" style="fill:none;stroke:#d62728;stroke-dasharray:5.55,2.4;stroke-dashoffset:0;stroke-width:1.5;"/>
   </g>
   <g id="line2d_37">
    <path clip-path="url(#paae51d3228)" d="M 99.671962 121.168214 
L 99.671962 120.337419 
L 99.671962 119.283864 
L 99.671962 119.344618 
L 204.839207 115.268642 
L 204.839207 120.165903 
L 204.839207 119.796639 
L 204.839207 140.249624 
L 310.006452 117.262119 
L 310.006452 118.125464 
L 310.006452 121.584758 
L 310.006452 117.758033 
L 415.173697 117.160085 
L 415.173697 125.7886 
L 415.173697 118.061422 
L 415.173697 117.785396 
" style="fill:none;stroke:#9467bd;stroke-dasharray:5.55,2.4;stroke-dashoffset:0;stroke-width:1.5;"/>
   </g>
   <g id="line2d_38">
    <path clip-path="url(#paae51d3228)" d="M 99.671962 91.702584 
L 99.671962 90.943426 
L 99.671962 91.603408 
L 99.671962 91.343631 
L 204.839207 90.720317 
L 204.839207 106.151992 
L 204.839207 91.537904 
L 204.839207 98.266964 
L 310.006452 104.347138 
L 310.006452 89.679651 
L 310.006452 89.182696 
L 310.006452 89.87131 
L 415.173697 103.716763 
L 415.173697 88.869542 
L 415.173697 89.367802 
L 415.173697 90.11365 
" style="fill:none;stroke:#8c564b;stroke-dasharray:5.55,2.4;stroke-dashoffset:0;stroke-width:1.5;"/>
   </g>
   <g id="line2d_39">
    <path clip-path="url(#paae51d3228)" d="M 99.671962 67.392628 
L 99.671962 76.617254 
L 99.671962 69.206459 
L 99.671962 66.97545 
L 204.839207 68.24722 
L 204.839207 75.430502 
L 204.839207 68.685972 
L 204.839207 67.871529 
L 310.006452 69.861792 
L 310.006452 74.762335 
L 310.006452 66.191679 
L 310.006452 75.029997 
L 415.173697 119.503424 
L 415.173697 74.364421 
L 415.173697 66.284822 
L 415.173697 65.029226 
" style="fill:none;stroke:#e377c2;stroke-dasharray:5.55,2.4;stroke-dashoffset:0;stroke-width:1.5;"/>
   </g>
   <g id="line2d_40">
    <path clip-path="url(#paae51d3228)" d="M 99.671962 58.688176 
L 99.671962 70.773965 
L 99.671962 137.512405 
L 99.671962 58.374261 
L 204.839207 57.83887 
L 204.839207 70.441422 
L 204.839207 60.285389 
L 204.839207 58.049946 
L 310.006452 57.462395 
L 310.006452 131.312522 
L 310.006452 59.849144 
L 310.006452 57.387034 
L 415.173697 57.867455 
L 415.173697 69.713894 
L 415.173697 59.603877 
L 415.173697 56.774653 
" style="fill:none;stroke:#1f77b4;stroke-linecap:square;stroke-width:1.5;"/>
   </g>
   <g id="line2d_41">
    <path clip-path="url(#paae51d3228)" d="M 99.671962 46.087805 
L 99.671962 60.902991 
L 99.671962 47.631778 
L 99.671962 46.612724 
L 204.839207 45.456266 
L 204.839207 60.516519 
L 204.839207 47.48976 
L 204.839207 45.916299 
L 310.006452 45.151653 
L 310.006452 61.683684 
L 310.006452 46.862781 
L 310.006452 45.797868 
L 415.173697 45.028678 
L 415.173697 60.229317 
L 415.173697 46.727347 
L 415.173697 76.390771 
" style="fill:none;stroke:#ff7f0e;stroke-linecap:square;stroke-width:1.5;"/>
   </g>
   <g id="line2d_42">
    <path clip-path="url(#paae51d3228)" d="M 99.671962 37.976268 
L 99.671962 55.099946 
L 99.671962 38.737998 
L 99.671962 39.632623 
L 204.839207 37.60701 
L 204.839207 54.723215 
L 204.839207 38.425635 
L 204.839207 39.358695 
L 310.006452 37.415839 
L 310.006452 56.546071 
L 310.006452 38.193835 
L 310.006452 40.192799 
L 415.173697 38.047856 
L 415.173697 54.751742 
L 415.173697 71.168585 
L 415.173697 39.066129 
" style="fill:none;stroke:#2ca02c;stroke-linecap:square;stroke-width:1.5;"/>
   </g>
   <g id="line2d_43">
    <path clip-path="url(#paae51d3228)" d="M 99.671962 33.918726 
L 99.671962 51.728076 
L 99.671962 33.43851 
L 99.671962 35.876843 
L 204.839207 33.482721 
L 204.839207 51.421686 
L 204.839207 33.145901 
L 204.839207 35.652212 
L 310.006452 35.047788 
L 310.006452 53.730258 
L 310.006452 33.133131 
L 310.006452 80.490383 
L 415.173697 35.04894 
L 415.173697 51.945959 
L 415.173697 34.056939 
L 415.173697 35.652781 
" style="fill:none;stroke:#d62728;stroke-linecap:square;stroke-width:1.5;"/>
   </g>
   <g id="line2d_44">
    <path clip-path="url(#paae51d3228)" d="M 99.671962 38.362106 
L 99.671962 50.109861 
L 99.671962 36.751541 
L 99.671962 38.901103 
L 204.839207 36.705885 
L 204.839207 50.059913 
L 204.839207 35.924939 
L 204.839207 38.590039 
L 310.006452 38.412201 
L 310.006452 51.122376 
L 310.006452 35.86487 
L 310.006452 39.832674 
L 415.173697 39.363491 
L 415.173697 59.050343 
L 415.173697 37.489173 
L 415.173697 47.754849 
" style="fill:none;stroke:#9467bd;stroke-linecap:square;stroke-width:1.5;"/>
   </g>
   <g id="line2d_45">
    <path clip-path="url(#paae51d3228)" d="M 99.671962 57.512812 
L 99.671962 49.301354 
L 99.671962 58.082493 
L 99.671962 58.034505 
L 204.839207 58.614514 
L 204.839207 59.562836 
L 204.839207 57.750625 
L 204.839207 58.25211 
L 310.006452 58.206734 
L 310.006452 50.825611 
L 310.006452 76.674201 
L 310.006452 59.373357 
L 415.173697 58.361623 
L 415.173697 50.680471 
L 415.173697 64.112528 
L 415.173697 59.435931 
" style="fill:none;stroke:#8c564b;stroke-linecap:square;stroke-width:1.5;"/>
   </g>
   <g id="line2d_46">
    <path clip-path="url(#paae51d3228)" d="M 99.671962 57.4091 
L 99.671962 48.783739 
L 99.671962 58.844825 
L 99.671962 59.633641 
L 204.839207 58.328992 
L 204.839207 64.040671 
L 204.839207 57.922346 
L 204.839207 63.229393 
L 310.006452 58.725783 
L 310.006452 56.231705 
L 310.006452 64.872877 
L 310.006452 58.810466 
L 415.173697 63.99543 
L 415.173697 53.097608 
L 415.173697 62.940901 
L 415.173697 66.41716 
" style="fill:none;stroke:#e377c2;stroke-linecap:square;stroke-width:1.5;"/>
   </g>
   <g id="line2d_47">
    <path clip-path="url(#paae51d3228)" d="M 83.896875 22.365455 
L 430.948784 22.365455 
" style="fill:none;stroke:#ff0000;stroke-dasharray:2,3.3;stroke-dashoffset:0;stroke-width:2;"/>
   </g>
   <g id="patch_3">
    <path d="M 83.896875 340.84 
L 83.896875 7.2 
" style="fill:none;stroke:#000000;stroke-linecap:square;stroke-linejoin:miter;stroke-width:0.8;"/>
   </g>
   <g id="patch_4">
    <path d="M 430.948784 340.84 
L 430.948784 7.2 
" style="fill:none;stroke:#000000;stroke-linecap:square;stroke-linejoin:miter;stroke-width:0.8;"/>
   </g>
   <g id="patch_5">
    <path d="M 83.896875 340.84 
L 430.948784 340.84 
" style="fill:none;stroke:#000000;stroke-linecap:square;stroke-linejoin:miter;stroke-width:0.8;"/>
   </g>
   <g id="patch_6">
    <path d="M 83.896875 7.2 
L 430.948784 7.2 
" style="fill:none;stroke:#000000;stroke-linecap:square;stroke-linejoin:miter;stroke-width:0.8;"/>
   </g>
   <g id="legend_1">
    <g id="patch_7">
     <path d="M 89.122005 335.05 
L 425.723655 335.05 
Q 428.039655 335.05 428.039655 332.734 
L 428.039655 282.900194 
Q 428.039655 280.584194 425.723655 280.584194 
L 89.122005 280.584194 
Q 86.806005 280.584194 86.806005 282.900194 
L 86.806005 332.734 
Q 86.806005 335.05 89.122005 335.05 
z
" style="fill:#ffffff;opacity:0.8;stroke:#cccccc;stroke-linejoin:miter;"/>
    </g>
    <g id="line2d_48">
     <path d="M 91.438005 289.962184 
L 103.018005 289.962184 
" style="fill:none;stroke:#1f77b4;stroke-dasharray:5.55,2.4;stroke-dashoffset:0;stroke-width:1.5;"/>
    </g>
    <g id="line2d_49"/>
    <g id="text_13">
     <!-- 4 k -->
     <g transform="translate(112.282005 294.015184)scale(0.1158 -0.1158)">
      <defs>
       <path d="M 9.078125 75.984375 
L 18.109375 75.984375 
L 18.109375 31.109375 
L 44.921875 54.6875 
L 56.390625 54.6875 
L 27.390625 29.109375 
L 57.625 0 
L 45.90625 0 
L 18.109375 26.703125 
L 18.109375 0 
L 9.078125 0 
z
" id="DejaVuSans-107"/>
      </defs>
      <use xlink:href="#DejaVuSans-52"/>
      <use x="63.623047" xlink:href="#DejaVuSans-32"/>
      <use x="95.410156" xlink:href="#DejaVuSans-107"/>
     </g>
    </g>
    <g id="line2d_50">
     <path d="M 91.438005 306.959453 
L 103.018005 306.959453 
" style="fill:none;stroke:#ff7f0e;stroke-dasharray:5.55,2.4;stroke-dashoffset:0;stroke-width:1.5;"/>
    </g>
    <g id="line2d_51"/>
    <g id="text_14">
     <!-- 8 k -->
     <g transform="translate(112.282005 311.012453)scale(0.1158 -0.1158)">
      <use xlink:href="#DejaVuSans-56"/>
      <use x="63.623047" xlink:href="#DejaVuSans-32"/>
      <use x="95.410156" xlink:href="#DejaVuSans-107"/>
     </g>
    </g>
    <g id="line2d_52">
     <path d="M 91.438005 323.956722 
L 103.018005 323.956722 
" style="fill:none;stroke:#2ca02c;stroke-dasharray:5.55,2.4;stroke-dashoffset:0;stroke-width:1.5;"/>
    </g>
    <g id="line2d_53"/>
    <g id="text_15">
     <!-- 16 k -->
     <g transform="translate(112.282005 328.009722)scale(0.1158 -0.1158)">
      <use xlink:href="#DejaVuSans-49"/>
      <use x="63.623047" xlink:href="#DejaVuSans-54"/>
      <use x="127.246094" xlink:href="#DejaVuSans-32"/>
      <use x="159.033203" xlink:href="#DejaVuSans-107"/>
     </g>
    </g>
    <g id="line2d_54">
     <path d="M 146.667367 289.962184 
L 158.247367 289.962184 
" style="fill:none;stroke:#d62728;stroke-dasharray:5.55,2.4;stroke-dashoffset:0;stroke-width:1.5;"/>
    </g>
    <g id="line2d_55"/>
    <g id="text_16">
     <!-- 32 k -->
     <g transform="translate(167.511367 294.015184)scale(0.1158 -0.1158)">
      <use xlink:href="#DejaVuSans-51"/>
      <use x="63.623047" xlink:href="#DejaVuSans-50"/>
      <use x="127.246094" xlink:href="#DejaVuSans-32"/>
      <use x="159.033203" xlink:href="#DejaVuSans-107"/>
     </g>
    </g>
    <g id="line2d_56">
     <path d="M 146.667367 306.959453 
L 158.247367 306.959453 
" style="fill:none;stroke:#9467bd;stroke-dasharray:5.55,2.4;stroke-dashoffset:0;stroke-width:1.5;"/>
    </g>
    <g id="line2d_57"/>
    <g id="text_17">
     <!-- 64 k -->
     <g transform="translate(167.511367 311.012453)scale(0.1158 -0.1158)">
      <use xlink:href="#DejaVuSans-54"/>
      <use x="63.623047" xlink:href="#DejaVuSans-52"/>
      <use x="127.246094" xlink:href="#DejaVuSans-32"/>
      <use x="159.033203" xlink:href="#DejaVuSans-107"/>
     </g>
    </g>
    <g id="line2d_58">
     <path d="M 146.667367 323.956722 
L 158.247367 323.956722 
" style="fill:none;stroke:#8c564b;stroke-dasharray:5.55,2.4;stroke-dashoffset:0;stroke-width:1.5;"/>
    </g>
    <g id="line2d_59"/>
    <g id="text_18">
     <!-- 128 k -->
     <g transform="translate(167.511367 328.009722)scale(0.1158 -0.1158)">
      <use xlink:href="#DejaVuSans-49"/>
      <use x="63.623047" xlink:href="#DejaVuSans-50"/>
      <use x="127.246094" xlink:href="#DejaVuSans-56"/>
      <use x="190.869141" xlink:href="#DejaVuSans-32"/>
      <use x="222.65625" xlink:href="#DejaVuSans-107"/>
     </g>
    </g>
    <g id="line2d_60">
     <path d="M 209.264505 289.962184 
L 220.844505 289.962184 
" style="fill:none;stroke:#e377c2;stroke-dasharray:5.55,2.4;stroke-dashoffset:0;stroke-width:1.5;"/>
    </g>
    <g id="line2d_61"/>
    <g id="text_19">
     <!-- 256 k -->
     <g transform="translate(230.108505 294.015184)scale(0.1158 -0.1158)">
      <use xlink:href="#DejaVuSans-50"/>
      <use x="63.623047" xlink:href="#DejaVuSans-53"/>
      <use x="127.246094" xlink:href="#DejaVuSans-54"/>
      <use x="190.869141" xlink:href="#DejaVuSans-32"/>
      <use x="222.65625" xlink:href="#DejaVuSans-107"/>
     </g>
    </g>
    <g id="line2d_62">
     <path d="M 209.264505 306.959453 
L 220.844505 306.959453 
" style="fill:none;stroke:#1f77b4;stroke-linecap:square;stroke-width:1.5;"/>
    </g>
    <g id="line2d_63"/>
    <g id="text_20">
     <!-- 512 k -->
     <g transform="translate(230.108505 311.012453)scale(0.1158 -0.1158)">
      <use xlink:href="#DejaVuSans-53"/>
      <use x="63.623047" xlink:href="#DejaVuSans-49"/>
      <use x="127.246094" xlink:href="#DejaVuSans-50"/>
      <use x="190.869141" xlink:href="#DejaVuSans-32"/>
      <use x="222.65625" xlink:href="#DejaVuSans-107"/>
     </g>
    </g>
    <g id="line2d_64">
     <path d="M 271.861642 289.962184 
L 283.441642 289.962184 
" style="fill:none;stroke:#ff7f0e;stroke-linecap:square;stroke-width:1.5;"/>
    </g>
    <g id="line2d_65"/>
    <g id="text_21">
     <!-- 1 M -->
     <g transform="translate(292.705642 294.015184)scale(0.1158 -0.1158)">
      <use xlink:href="#DejaVuSans-49"/>
      <use x="63.623047" xlink:href="#DejaVuSans-32"/>
      <use x="95.410156" xlink:href="#DejaVuSans-77"/>
     </g>
    </g>
    <g id="line2d_66">
     <path d="M 271.861642 306.959453 
L 283.441642 306.959453 
" style="fill:none;stroke:#2ca02c;stroke-linecap:square;stroke-width:1.5;"/>
    </g>
    <g id="line2d_67"/>
    <g id="text_22">
     <!-- 2 M -->
     <g transform="translate(292.705642 311.012453)scale(0.1158 -0.1158)">
      <use xlink:href="#DejaVuSans-50"/>
      <use x="63.623047" xlink:href="#DejaVuSans-32"/>
      <use x="95.410156" xlink:href="#DejaVuSans-77"/>
     </g>
    </g>
    <g id="line2d_68">
     <path d="M 323.009055 289.962184 
L 334.589055 289.962184 
" style="fill:none;stroke:#d62728;stroke-linecap:square;stroke-width:1.5;"/>
    </g>
    <g id="line2d_69"/>
    <g id="text_23">
     <!-- 4 M -->
     <g transform="translate(343.853055 294.015184)scale(0.1158 -0.1158)">
      <use xlink:href="#DejaVuSans-52"/>
      <use x="63.623047" xlink:href="#DejaVuSans-32"/>
      <use x="95.410156" xlink:href="#DejaVuSans-77"/>
     </g>
    </g>
    <g id="line2d_70">
     <path d="M 323.009055 306.959453 
L 334.589055 306.959453 
" style="fill:none;stroke:#9467bd;stroke-linecap:square;stroke-width:1.5;"/>
    </g>
    <g id="line2d_71"/>
    <g id="text_24">
     <!-- 8 M -->
     <g transform="translate(343.853055 311.012453)scale(0.1158 -0.1158)">
      <use xlink:href="#DejaVuSans-56"/>
      <use x="63.623047" xlink:href="#DejaVuSans-32"/>
      <use x="95.410156" xlink:href="#DejaVuSans-77"/>
     </g>
    </g>
    <g id="line2d_72">
     <path d="M 374.156467 289.962184 
L 385.736467 289.962184 
" style="fill:none;stroke:#8c564b;stroke-linecap:square;stroke-width:1.5;"/>
    </g>
    <g id="line2d_73"/>
    <g id="text_25">
     <!-- 16 M -->
     <g transform="translate(395.000467 294.015184)scale(0.1158 -0.1158)">
      <use xlink:href="#DejaVuSans-49"/>
      <use x="63.623047" xlink:href="#DejaVuSans-54"/>
      <use x="127.246094" xlink:href="#DejaVuSans-32"/>
      <use x="159.033203" xlink:href="#DejaVuSans-77"/>
     </g>
    </g>
    <g id="line2d_74">
     <path d="M 374.156467 306.959453 
L 385.736467 306.959453 
" style="fill:none;stroke:#e377c2;stroke-linecap:square;stroke-width:1.5;"/>
    </g>
    <g id="line2d_75"/>
    <g id="text_26">
     <!-- 32 M -->
     <g transform="translate(395.000467 311.012453)scale(0.1158 -0.1158)">
      <use xlink:href="#DejaVuSans-51"/>
      <use x="63.623047" xlink:href="#DejaVuSans-50"/>
      <use x="127.246094" xlink:href="#DejaVuSans-32"/>
      <use x="159.033203" xlink:href="#DejaVuSans-77"/>
     </g>
    </g>
   </g>
  </g>
  <g id="axes_2">
   <g id="patch_8">
    <path d="M 531.496875 340.84 
L 878.548784 340.84 
L 878.548784 7.2 
L 531.496875 7.2 
z
" style="fill:none;"/>
   </g>
   <g id="matplotlib.axis_3">
    <g id="xtick_5">
     <g id="line2d_76">
      <path clip-path="url(#p32405a2785)" d="M 547.271962 340.84 
L 547.271962 7.2 
" style="fill:none;stroke:#b0b0b0;stroke-linecap:square;stroke-width:0.8;"/>
     </g>
     <g id="line2d_77">
      <g>
       <use style="stroke:#000000;stroke-width:0.8;" x="547.271962" xlink:href="#m005f0a59be" y="340.84"/>
      </g>
     </g>
     <g id="text_27">
      <!-- 4 -->
      <g transform="translate(542.500087 359.237656)scale(0.15 -0.15)">
       <use xlink:href="#DejaVuSans-52"/>
      </g>
     </g>
    </g>
    <g id="xtick_6">
     <g id="line2d_78">
      <path clip-path="url(#p32405a2785)" d="M 599.855584 340.84 
L 599.855584 7.2 
" style="fill:none;stroke:#b0b0b0;stroke-linecap:square;stroke-width:0.8;"/>
     </g>
     <g id="line2d_79">
      <g>
       <use style="stroke:#000000;stroke-width:0.8;" x="599.855584" xlink:href="#m005f0a59be" y="340.84"/>
      </g>
     </g>
     <g id="text_28">
      <!-- 6 -->
      <g transform="translate(595.083709 359.237656)scale(0.15 -0.15)">
       <use xlink:href="#DejaVuSans-54"/>
      </g>
     </g>
    </g>
    <g id="xtick_7">
     <g id="line2d_80">
      <path clip-path="url(#p32405a2785)" d="M 652.439207 340.84 
L 652.439207 7.2 
" style="fill:none;stroke:#b0b0b0;stroke-linecap:square;stroke-width:0.8;"/>
     </g>
     <g id="line2d_81">
      <g>
       <use style="stroke:#000000;stroke-width:0.8;" x="652.439207" xlink:href="#m005f0a59be" y="340.84"/>
      </g>
     </g>
     <g id="text_29">
      <!-- 8 -->
      <g transform="translate(647.667332 359.237656)scale(0.15 -0.15)">
       <use xlink:href="#DejaVuSans-56"/>
      </g>
     </g>
    </g>
    <g id="xtick_8">
     <g id="line2d_82">
      <path clip-path="url(#p32405a2785)" d="M 705.02283 340.84 
L 705.02283 7.2 
" style="fill:none;stroke:#b0b0b0;stroke-linecap:square;stroke-width:0.8;"/>
     </g>
     <g id="line2d_83">
      <g>
       <use style="stroke:#000000;stroke-width:0.8;" x="705.02283" xlink:href="#m005f0a59be" y="340.84"/>
      </g>
     </g>
     <g id="text_30">
      <!-- 10 -->
      <g transform="translate(695.47908 359.237656)scale(0.15 -0.15)">
       <defs>
        <path d="M 31.78125 66.40625 
Q 24.171875 66.40625 20.328125 58.90625 
Q 16.5 51.421875 16.5 36.375 
Q 16.5 21.390625 20.328125 13.890625 
Q 24.171875 6.390625 31.78125 6.390625 
Q 39.453125 6.390625 43.28125 13.890625 
Q 47.125 21.390625 47.125 36.375 
Q 47.125 51.421875 43.28125 58.90625 
Q 39.453125 66.40625 31.78125 66.40625 
z
M 31.78125 74.21875 
Q 44.046875 74.21875 50.515625 64.515625 
Q 56.984375 54.828125 56.984375 36.375 
Q 56.984375 17.96875 50.515625 8.265625 
Q 44.046875 -1.421875 31.78125 -1.421875 
Q 19.53125 -1.421875 13.0625 8.265625 
Q 6.59375 17.96875 6.59375 36.375 
Q 6.59375 54.828125 13.0625 64.515625 
Q 19.53125 74.21875 31.78125 74.21875 
z
" id="DejaVuSans-48"/>
       </defs>
       <use xlink:href="#DejaVuSans-49"/>
       <use x="63.623047" xlink:href="#DejaVuSans-48"/>
      </g>
     </g>
    </g>
    <g id="xtick_9">
     <g id="line2d_84">
      <path clip-path="url(#p32405a2785)" d="M 757.606452 340.84 
L 757.606452 7.2 
" style="fill:none;stroke:#b0b0b0;stroke-linecap:square;stroke-width:0.8;"/>
     </g>
     <g id="line2d_85">
      <g>
       <use style="stroke:#000000;stroke-width:0.8;" x="757.606452" xlink:href="#m005f0a59be" y="340.84"/>
      </g>
     </g>
     <g id="text_31">
      <!-- 12 -->
      <g transform="translate(748.062702 359.237656)scale(0.15 -0.15)">
       <use xlink:href="#DejaVuSans-49"/>
       <use x="63.623047" xlink:href="#DejaVuSans-50"/>
      </g>
     </g>
    </g>
    <g id="xtick_10">
     <g id="line2d_86">
      <path clip-path="url(#p32405a2785)" d="M 810.190075 340.84 
L 810.190075 7.2 
" style="fill:none;stroke:#b0b0b0;stroke-linecap:square;stroke-width:0.8;"/>
     </g>
     <g id="line2d_87">
      <g>
       <use style="stroke:#000000;stroke-width:0.8;" x="810.190075" xlink:href="#m005f0a59be" y="340.84"/>
      </g>
     </g>
     <g id="text_32">
      <!-- 14 -->
      <g transform="translate(800.646325 359.237656)scale(0.15 -0.15)">
       <use xlink:href="#DejaVuSans-49"/>
       <use x="63.623047" xlink:href="#DejaVuSans-52"/>
      </g>
     </g>
    </g>
    <g id="xtick_11">
     <g id="line2d_88">
      <path clip-path="url(#p32405a2785)" d="M 862.773697 340.84 
L 862.773697 7.2 
" style="fill:none;stroke:#b0b0b0;stroke-linecap:square;stroke-width:0.8;"/>
     </g>
     <g id="line2d_89">
      <g>
       <use style="stroke:#000000;stroke-width:0.8;" x="862.773697" xlink:href="#m005f0a59be" y="340.84"/>
      </g>
     </g>
     <g id="text_33">
      <!-- 16 -->
      <g transform="translate(853.229947 359.237656)scale(0.15 -0.15)">
       <use xlink:href="#DejaVuSans-49"/>
       <use x="63.623047" xlink:href="#DejaVuSans-54"/>
      </g>
     </g>
    </g>
    <g id="text_34">
     <!-- Memory Write per Kernel (B) -->
     <g transform="translate(562.54783 381.554062)scale(0.2 -0.2)">
      <defs>
       <path d="M 3.328125 72.90625 
L 13.28125 72.90625 
L 28.609375 11.28125 
L 43.890625 72.90625 
L 54.984375 72.90625 
L 70.3125 11.28125 
L 85.59375 72.90625 
L 95.609375 72.90625 
L 77.296875 0 
L 64.890625 0 
L 49.515625 63.28125 
L 33.984375 0 
L 21.578125 0 
z
" id="DejaVuSans-87"/>
       <path d="M 9.8125 72.90625 
L 19.671875 72.90625 
L 19.671875 42.09375 
L 52.390625 72.90625 
L 65.09375 72.90625 
L 28.90625 38.921875 
L 67.671875 0 
L 54.6875 0 
L 19.671875 35.109375 
L 19.671875 0 
L 9.8125 0 
z
" id="DejaVuSans-75"/>
       <path d="M 9.421875 75.984375 
L 18.40625 75.984375 
L 18.40625 0 
L 9.421875 0 
z
" id="DejaVuSans-108"/>
      </defs>
      <use xlink:href="#DejaVuSans-77"/>
      <use x="86.279297" xlink:href="#DejaVuSans-101"/>
      <use x="147.802734" xlink:href="#DejaVuSans-109"/>
      <use x="245.214844" xlink:href="#DejaVuSans-111"/>
      <use x="306.396484" xlink:href="#DejaVuSans-114"/>
      <use x="347.509766" xlink:href="#DejaVuSans-121"/>
      <use x="406.689453" xlink:href="#DejaVuSans-32"/>
      <use x="438.476562" xlink:href="#DejaVuSans-87"/>
      <use x="532.853516" xlink:href="#DejaVuSans-114"/>
      <use x="573.966797" xlink:href="#DejaVuSans-105"/>
      <use x="601.75" xlink:href="#DejaVuSans-116"/>
      <use x="640.958984" xlink:href="#DejaVuSans-101"/>
      <use x="702.482422" xlink:href="#DejaVuSans-32"/>
      <use x="734.269531" xlink:href="#DejaVuSans-112"/>
      <use x="797.746094" xlink:href="#DejaVuSans-101"/>
      <use x="859.269531" xlink:href="#DejaVuSans-114"/>
      <use x="900.382812" xlink:href="#DejaVuSans-32"/>
      <use x="932.169922" xlink:href="#DejaVuSans-75"/>
      <use x="992.746094" xlink:href="#DejaVuSans-101"/>
      <use x="1054.269531" xlink:href="#DejaVuSans-114"/>
      <use x="1093.632812" xlink:href="#DejaVuSans-110"/>
      <use x="1157.011719" xlink:href="#DejaVuSans-101"/>
      <use x="1218.535156" xlink:href="#DejaVuSans-108"/>
      <use x="1246.318359" xlink:href="#DejaVuSans-32"/>
      <use x="1278.105469" xlink:href="#DejaVuSans-40"/>
      <use x="1317.119141" xlink:href="#DejaVuSans-66"/>
      <use x="1385.722656" xlink:href="#DejaVuSans-41"/>
     </g>
    </g>
   </g>
   <g id="matplotlib.axis_4">
    <g id="ytick_13">
     <g id="line2d_90">
      <path clip-path="url(#p32405a2785)" d="M 531.496875 326.49014 
L 878.548784 326.49014 
" style="fill:none;stroke:#b0b0b0;stroke-linecap:square;stroke-width:0.8;"/>
     </g>
     <g id="line2d_91">
      <g>
       <use style="stroke:#000000;stroke-width:0.8;" x="531.496875" xlink:href="#mc3ce260a5b" y="326.49014"/>
      </g>
     </g>
     <g id="text_35">
      <!-- 16 M -->
      <g transform="translate(487.7 332.188968)scale(0.15 -0.15)">
       <use xlink:href="#DejaVuSans-49"/>
       <use x="63.623047" xlink:href="#DejaVuSans-54"/>
       <use x="127.246094" xlink:href="#DejaVuSans-32"/>
       <use x="159.033203" xlink:href="#DejaVuSans-77"/>
      </g>
     </g>
    </g>
    <g id="ytick_14">
     <g id="line2d_92">
      <path clip-path="url(#p32405a2785)" d="M 531.496875 271.139657 
L 878.548784 271.139657 
" style="fill:none;stroke:#b0b0b0;stroke-linecap:square;stroke-width:0.8;"/>
     </g>
     <g id="line2d_93">
      <g>
       <use style="stroke:#000000;stroke-width:0.8;" x="531.496875" xlink:href="#mc3ce260a5b" y="271.139657"/>
      </g>
     </g>
     <g id="text_36">
      <!-- 64 M -->
      <g transform="translate(487.7 276.838485)scale(0.15 -0.15)">
       <use xlink:href="#DejaVuSans-54"/>
       <use x="63.623047" xlink:href="#DejaVuSans-52"/>
       <use x="127.246094" xlink:href="#DejaVuSans-32"/>
       <use x="159.033203" xlink:href="#DejaVuSans-77"/>
      </g>
     </g>
    </g>
    <g id="ytick_15">
     <g id="line2d_94">
      <path clip-path="url(#p32405a2785)" d="M 531.496875 215.789174 
L 878.548784 215.789174 
" style="fill:none;stroke:#b0b0b0;stroke-linecap:square;stroke-width:0.8;"/>
     </g>
     <g id="line2d_95">
      <g>
       <use style="stroke:#000000;stroke-width:0.8;" x="531.496875" xlink:href="#mc3ce260a5b" y="215.789174"/>
      </g>
     </g>
     <g id="text_37">
      <!-- 256 M -->
      <g transform="translate(478.15625 221.488003)scale(0.15 -0.15)">
       <use xlink:href="#DejaVuSans-50"/>
       <use x="63.623047" xlink:href="#DejaVuSans-53"/>
       <use x="127.246094" xlink:href="#DejaVuSans-54"/>
       <use x="190.869141" xlink:href="#DejaVuSans-32"/>
       <use x="222.65625" xlink:href="#DejaVuSans-77"/>
      </g>
     </g>
    </g>
    <g id="ytick_16">
     <g id="line2d_96">
      <path clip-path="url(#p32405a2785)" d="M 531.496875 160.438692 
L 878.548784 160.438692 
" style="fill:none;stroke:#b0b0b0;stroke-linecap:square;stroke-width:0.8;"/>
     </g>
     <g id="line2d_97">
      <g>
       <use style="stroke:#000000;stroke-width:0.8;" x="531.496875" xlink:href="#mc3ce260a5b" y="160.438692"/>
      </g>
     </g>
     <g id="text_38">
      <!-- 1 G -->
      <g transform="translate(498.563281 166.13752)scale(0.15 -0.15)">
       <use xlink:href="#DejaVuSans-49"/>
       <use x="63.623047" xlink:href="#DejaVuSans-32"/>
       <use x="95.410156" xlink:href="#DejaVuSans-71"/>
      </g>
     </g>
    </g>
    <g id="ytick_17">
     <g id="line2d_98">
      <path clip-path="url(#p32405a2785)" d="M 531.496875 105.088209 
L 878.548784 105.088209 
" style="fill:none;stroke:#b0b0b0;stroke-linecap:square;stroke-width:0.8;"/>
     </g>
     <g id="line2d_99">
      <g>
       <use style="stroke:#000000;stroke-width:0.8;" x="531.496875" xlink:href="#mc3ce260a5b" y="105.088209"/>
      </g>
     </g>
     <g id="text_39">
      <!-- 4 G -->
      <g transform="translate(498.563281 110.787037)scale(0.15 -0.15)">
       <use xlink:href="#DejaVuSans-52"/>
       <use x="63.623047" xlink:href="#DejaVuSans-32"/>
       <use x="95.410156" xlink:href="#DejaVuSans-71"/>
      </g>
     </g>
    </g>
    <g id="ytick_18">
     <g id="line2d_100">
      <path clip-path="url(#p32405a2785)" d="M 531.496875 49.737726 
L 878.548784 49.737726 
" style="fill:none;stroke:#b0b0b0;stroke-linecap:square;stroke-width:0.8;"/>
     </g>
     <g id="line2d_101">
      <g>
       <use style="stroke:#000000;stroke-width:0.8;" x="531.496875" xlink:href="#mc3ce260a5b" y="49.737726"/>
      </g>
     </g>
     <g id="text_40">
      <!-- 16 G -->
      <g transform="translate(489.019531 55.436555)scale(0.15 -0.15)">
       <use xlink:href="#DejaVuSans-49"/>
       <use x="63.623047" xlink:href="#DejaVuSans-54"/>
       <use x="127.246094" xlink:href="#DejaVuSans-32"/>
       <use x="159.033203" xlink:href="#DejaVuSans-71"/>
      </g>
     </g>
    </g>
    <g id="ytick_19">
     <g id="line2d_102">
      <g>
       <use style="stroke:#000000;stroke-width:0.6;" x="531.496875" xlink:href="#md3fbf4566d" y="298.814898"/>
      </g>
     </g>
     <g id="line2d_103">
      <g>
       <use style="stroke:#000000;stroke-width:0.6;" x="878.548784" xlink:href="#md0f4fded07" y="298.814898"/>
      </g>
     </g>
    </g>
    <g id="ytick_20">
     <g id="line2d_104">
      <g>
       <use style="stroke:#000000;stroke-width:0.6;" x="531.496875" xlink:href="#md3fbf4566d" y="243.464416"/>
      </g>
     </g>
     <g id="line2d_105">
      <g>
       <use style="stroke:#000000;stroke-width:0.6;" x="878.548784" xlink:href="#md0f4fded07" y="243.464416"/>
      </g>
     </g>
    </g>
    <g id="ytick_21">
     <g id="line2d_106">
      <g>
       <use style="stroke:#000000;stroke-width:0.6;" x="531.496875" xlink:href="#md3fbf4566d" y="188.113933"/>
      </g>
     </g>
     <g id="line2d_107">
      <g>
       <use style="stroke:#000000;stroke-width:0.6;" x="878.548784" xlink:href="#md0f4fded07" y="188.113933"/>
      </g>
     </g>
    </g>
    <g id="ytick_22">
     <g id="line2d_108">
      <g>
       <use style="stroke:#000000;stroke-width:0.6;" x="531.496875" xlink:href="#md3fbf4566d" y="132.76345"/>
      </g>
     </g>
     <g id="line2d_109">
      <g>
       <use style="stroke:#000000;stroke-width:0.6;" x="878.548784" xlink:href="#md0f4fded07" y="132.76345"/>
      </g>
     </g>
    </g>
    <g id="ytick_23">
     <g id="line2d_110">
      <g>
       <use style="stroke:#000000;stroke-width:0.6;" x="531.496875" xlink:href="#md3fbf4566d" y="77.412968"/>
      </g>
     </g>
     <g id="line2d_111">
      <g>
       <use style="stroke:#000000;stroke-width:0.6;" x="878.548784" xlink:href="#md0f4fded07" y="77.412968"/>
      </g>
     </g>
    </g>
    <g id="ytick_24">
     <g id="line2d_112">
      <g>
       <use style="stroke:#000000;stroke-width:0.6;" x="531.496875" xlink:href="#md3fbf4566d" y="22.062485"/>
      </g>
     </g>
     <g id="line2d_113">
      <g>
       <use style="stroke:#000000;stroke-width:0.6;" x="878.548784" xlink:href="#md0f4fded07" y="22.062485"/>
      </g>
     </g>
    </g>
    <g id="text_41">
     <!-- Memory Throughput (B/s) -->
     <g transform="translate(469.996875 302.368437)rotate(-90)scale(0.2 -0.2)">
      <use xlink:href="#DejaVuSans-77"/>
      <use x="86.279297" xlink:href="#DejaVuSans-101"/>
      <use x="147.802734" xlink:href="#DejaVuSans-109"/>
      <use x="245.214844" xlink:href="#DejaVuSans-111"/>
      <use x="306.396484" xlink:href="#DejaVuSans-114"/>
      <use x="347.509766" xlink:href="#DejaVuSans-121"/>
      <use x="406.689453" xlink:href="#DejaVuSans-32"/>
      <use x="438.476562" xlink:href="#DejaVuSans-84"/>
      <use x="499.560547" xlink:href="#DejaVuSans-104"/>
      <use x="562.939453" xlink:href="#DejaVuSans-114"/>
      <use x="601.802734" xlink:href="#DejaVuSans-111"/>
      <use x="662.984375" xlink:href="#DejaVuSans-117"/>
      <use x="726.363281" xlink:href="#DejaVuSans-103"/>
      <use x="789.839844" xlink:href="#DejaVuSans-104"/>
      <use x="853.21875" xlink:href="#DejaVuSans-112"/>
      <use x="916.695312" xlink:href="#DejaVuSans-117"/>
      <use x="980.074219" xlink:href="#DejaVuSans-116"/>
      <use x="1019.283203" xlink:href="#DejaVuSans-32"/>
      <use x="1051.070312" xlink:href="#DejaVuSans-40"/>
      <use x="1090.083984" xlink:href="#DejaVuSans-66"/>
      <use x="1158.6875" xlink:href="#DejaVuSans-47"/>
      <use x="1192.378906" xlink:href="#DejaVuSans-115"/>
      <use x="1244.478516" xlink:href="#DejaVuSans-41"/>
     </g>
    </g>
   </g>
   <g id="line2d_114">
    <path clip-path="url(#p32405a2785)" d="M 547.271962 226.107164 
L 547.271962 241.307232 
L 547.271962 239.063882 
L 547.271962 225.006372 
L 652.439207 232.273672 
L 652.439207 238.574886 
L 652.439207 239.256546 
L 652.439207 225.607776 
L 757.606452 230.428187 
L 757.606452 229.204697 
L 757.606452 325.674545 
L 757.606452 232.371465 
L 862.773697 230.498906 
L 862.773697 237.026937 
L 862.773697 226.047143 
L 862.773697 225.531082 
" style="fill:none;stroke:#1f77b4;stroke-dasharray:5.55,2.4;stroke-dashoffset:0;stroke-width:1.5;"/>
   </g>
   <g id="line2d_115">
    <path clip-path="url(#p32405a2785)" d="M 547.271962 202.253391 
L 547.271962 202.686868 
L 547.271962 202.023607 
L 547.271962 202.656749 
L 652.439207 202.261883 
L 652.439207 203.230873 
L 652.439207 200.540376 
L 652.439207 208.255336 
L 757.606452 205.362939 
L 757.606452 202.516233 
L 757.606452 209.905669 
L 757.606452 212.598014 
L 862.773697 201.409586 
L 862.773697 202.881156 
L 862.773697 203.016178 
L 862.773697 216.519793 
" style="fill:none;stroke:#ff7f0e;stroke-dasharray:5.55,2.4;stroke-dashoffset:0;stroke-width:1.5;"/>
   </g>
   <g id="line2d_116">
    <path clip-path="url(#p32405a2785)" d="M 547.271962 174.109502 
L 547.271962 180.50995 
L 547.271962 187.83137 
L 547.271962 174.213487 
L 652.439207 175.992197 
L 652.439207 174.179695 
L 652.439207 173.207922 
L 652.439207 173.848531 
L 757.606452 182.054277 
L 757.606452 174.663489 
L 757.606452 174.425283 
L 757.606452 174.918426 
L 862.773697 181.906781 
L 862.773697 174.909175 
L 862.773697 174.081883 
L 862.773697 173.003855 
" style="fill:none;stroke:#2ca02c;stroke-dasharray:5.55,2.4;stroke-dashoffset:0;stroke-width:1.5;"/>
   </g>
   <g id="line2d_117">
    <path clip-path="url(#p32405a2785)" d="M 547.271962 160.359849 
L 547.271962 147.524176 
L 547.271962 153.047805 
L 547.271962 160.191889 
L 652.439207 146.987003 
L 652.439207 146.674784 
L 652.439207 145.947426 
L 652.439207 158.906209 
L 757.606452 152.974234 
L 757.606452 147.625912 
L 757.606452 147.589101 
L 757.606452 145.764702 
L 862.773697 159.419591 
L 862.773697 148.019775 
L 862.773697 158.831786 
L 862.773697 146.106484 
" style="fill:none;stroke:#d62728;stroke-dasharray:5.55,2.4;stroke-dashoffset:0;stroke-width:1.5;"/>
   </g>
   <g id="line2d_118">
    <path clip-path="url(#p32405a2785)" d="M 547.271962 120.337419 
L 547.271962 120.165903 
L 547.271962 118.125464 
L 547.271962 125.7886 
L 652.439207 119.283864 
L 652.439207 119.796639 
L 652.439207 121.584758 
L 652.439207 118.061422 
L 757.606452 121.168214 
L 757.606452 115.268642 
L 757.606452 117.262119 
L 757.606452 117.160085 
L 862.773697 119.344618 
L 862.773697 140.249624 
L 862.773697 117.758033 
L 862.773697 117.785396 
" style="fill:none;stroke:#9467bd;stroke-dasharray:5.55,2.4;stroke-dashoffset:0;stroke-width:1.5;"/>
   </g>
   <g id="line2d_119">
    <path clip-path="url(#p32405a2785)" d="M 547.271962 90.943426 
L 547.271962 106.151992 
L 547.271962 89.679651 
L 547.271962 88.869542 
L 652.439207 91.603408 
L 652.439207 91.537904 
L 652.439207 89.182696 
L 652.439207 89.367802 
L 757.606452 91.702584 
L 757.606452 90.720317 
L 757.606452 104.347138 
L 757.606452 103.716763 
L 862.773697 91.343631 
L 862.773697 98.266964 
L 862.773697 89.87131 
L 862.773697 90.11365 
" style="fill:none;stroke:#8c564b;stroke-dasharray:5.55,2.4;stroke-dashoffset:0;stroke-width:1.5;"/>
   </g>
   <g id="line2d_120">
    <path clip-path="url(#p32405a2785)" d="M 547.271962 76.617254 
L 547.271962 75.430502 
L 547.271962 74.762335 
L 547.271962 74.364421 
L 652.439207 69.206459 
L 652.439207 68.685972 
L 652.439207 66.191679 
L 652.439207 66.284822 
L 757.606452 67.392628 
L 757.606452 68.24722 
L 757.606452 69.861792 
L 757.606452 119.503424 
L 862.773697 66.97545 
L 862.773697 67.871529 
L 862.773697 75.029997 
L 862.773697 65.029226 
" style="fill:none;stroke:#e377c2;stroke-dasharray:5.55,2.4;stroke-dashoffset:0;stroke-width:1.5;"/>
   </g>
   <g id="line2d_121">
    <path clip-path="url(#p32405a2785)" d="M 547.271962 70.773965 
L 547.271962 70.441422 
L 547.271962 131.312522 
L 547.271962 69.713894 
L 652.439207 137.512405 
L 652.439207 60.285389 
L 652.439207 59.849144 
L 652.439207 59.603877 
L 757.606452 58.688176 
L 757.606452 57.83887 
L 757.606452 57.462395 
L 757.606452 57.867455 
L 862.773697 58.374261 
L 862.773697 58.049946 
L 862.773697 57.387034 
L 862.773697 56.774653 
" style="fill:none;stroke:#1f77b4;stroke-linecap:square;stroke-width:1.5;"/>
   </g>
   <g id="line2d_122">
    <path clip-path="url(#p32405a2785)" d="M 547.271962 60.902991 
L 547.271962 60.516519 
L 547.271962 61.683684 
L 547.271962 60.229317 
L 652.439207 47.631778 
L 652.439207 47.48976 
L 652.439207 46.862781 
L 652.439207 46.727347 
L 757.606452 46.087805 
L 757.606452 45.456266 
L 757.606452 45.151653 
L 757.606452 45.028678 
L 862.773697 46.612724 
L 862.773697 45.916299 
L 862.773697 45.797868 
L 862.773697 76.390771 
" style="fill:none;stroke:#ff7f0e;stroke-linecap:square;stroke-width:1.5;"/>
   </g>
   <g id="line2d_123">
    <path clip-path="url(#p32405a2785)" d="M 547.271962 55.099946 
L 547.271962 54.723215 
L 547.271962 56.546071 
L 547.271962 54.751742 
L 652.439207 38.737998 
L 652.439207 38.425635 
L 652.439207 38.193835 
L 652.439207 71.168585 
L 757.606452 37.976268 
L 757.606452 37.60701 
L 757.606452 37.415839 
L 757.606452 38.047856 
L 862.773697 39.632623 
L 862.773697 39.358695 
L 862.773697 40.192799 
L 862.773697 39.066129 
" style="fill:none;stroke:#2ca02c;stroke-linecap:square;stroke-width:1.5;"/>
   </g>
   <g id="line2d_124">
    <path clip-path="url(#p32405a2785)" d="M 547.271962 51.728076 
L 547.271962 51.421686 
L 547.271962 53.730258 
L 547.271962 51.945959 
L 652.439207 33.43851 
L 652.439207 33.145901 
L 652.439207 33.133131 
L 652.439207 34.056939 
L 757.606452 33.918726 
L 757.606452 33.482721 
L 757.606452 35.047788 
L 757.606452 35.04894 
L 862.773697 35.876843 
L 862.773697 35.652212 
L 862.773697 80.490383 
L 862.773697 35.652781 
" style="fill:none;stroke:#d62728;stroke-linecap:square;stroke-width:1.5;"/>
   </g>
   <g id="line2d_125">
    <path clip-path="url(#p32405a2785)" d="M 547.271962 50.109861 
L 547.271962 50.059913 
L 547.271962 51.122376 
L 547.271962 59.050343 
L 652.439207 36.751541 
L 652.439207 35.924939 
L 652.439207 35.86487 
L 652.439207 37.489173 
L 757.606452 38.362106 
L 757.606452 36.705885 
L 757.606452 38.412201 
L 757.606452 39.363491 
L 862.773697 38.901103 
L 862.773697 38.590039 
L 862.773697 39.832674 
L 862.773697 47.754849 
" style="fill:none;stroke:#9467bd;stroke-linecap:square;stroke-width:1.5;"/>
   </g>
   <g id="line2d_126">
    <path clip-path="url(#p32405a2785)" d="M 547.271962 49.301354 
L 547.271962 59.562836 
L 547.271962 50.825611 
L 547.271962 50.680471 
L 652.439207 58.082493 
L 652.439207 57.750625 
L 652.439207 76.674201 
L 652.439207 64.112528 
L 757.606452 57.512812 
L 757.606452 58.614514 
L 757.606452 58.206734 
L 757.606452 58.361623 
L 862.773697 58.034505 
L 862.773697 58.25211 
L 862.773697 59.373357 
L 862.773697 59.435931 
" style="fill:none;stroke:#8c564b;stroke-linecap:square;stroke-width:1.5;"/>
   </g>
   <g id="line2d_127">
    <path clip-path="url(#p32405a2785)" d="M 547.271962 48.783739 
L 547.271962 64.040671 
L 547.271962 56.231705 
L 547.271962 53.097608 
L 652.439207 58.844825 
L 652.439207 57.922346 
L 652.439207 64.872877 
L 652.439207 62.940901 
L 757.606452 57.4091 
L 757.606452 58.328992 
L 757.606452 58.725783 
L 757.606452 63.99543 
L 862.773697 59.633641 
L 862.773697 63.229393 
L 862.773697 58.810466 
L 862.773697 66.41716 
" style="fill:none;stroke:#e377c2;stroke-linecap:square;stroke-width:1.5;"/>
   </g>
   <g id="line2d_128">
    <path clip-path="url(#p32405a2785)" d="M 531.496875 22.365455 
L 878.548784 22.365455 
" style="fill:none;stroke:#ff0000;stroke-dasharray:2,3.3;stroke-dashoffset:0;stroke-width:2;"/>
   </g>
   <g id="patch_9">
    <path d="M 531.496875 340.84 
L 531.496875 7.2 
" style="fill:none;stroke:#000000;stroke-linecap:square;stroke-linejoin:miter;stroke-width:0.8;"/>
   </g>
   <g id="patch_10">
    <path d="M 878.548784 340.84 
L 878.548784 7.2 
" style="fill:none;stroke:#000000;stroke-linecap:square;stroke-linejoin:miter;stroke-width:0.8;"/>
   </g>
   <g id="patch_11">
    <path d="M 531.496875 340.84 
L 878.548784 340.84 
" style="fill:none;stroke:#000000;stroke-linecap:square;stroke-linejoin:miter;stroke-width:0.8;"/>
   </g>
   <g id="patch_12">
    <path d="M 531.496875 7.2 
L 878.548784 7.2 
" style="fill:none;stroke:#000000;stroke-linecap:square;stroke-linejoin:miter;stroke-width:0.8;"/>
   </g>
   <g id="legend_2">
    <g id="patch_13">
     <path d="M 536.722005 335.05 
L 873.323655 335.05 
Q 875.639655 335.05 875.639655 332.734 
L 875.639655 282.900194 
Q 875.639655 280.584194 873.323655 280.584194 
L 536.722005 280.584194 
Q 534.406005 280.584194 534.406005 282.900194 
L 534.406005 332.734 
Q 534.406005 335.05 536.722005 335.05 
z
" style="fill:#ffffff;opacity:0.8;stroke:#cccccc;stroke-linejoin:miter;"/>
    </g>
    <g id="line2d_129">
     <path d="M 539.038005 289.962184 
L 550.618005 289.962184 
" style="fill:none;stroke:#1f77b4;stroke-dasharray:5.55,2.4;stroke-dashoffset:0;stroke-width:1.5;"/>
    </g>
    <g id="line2d_130"/>
    <g id="text_42">
     <!-- 4 k -->
     <g transform="translate(559.882005 294.015184)scale(0.1158 -0.1158)">
      <use xlink:href="#DejaVuSans-52"/>
      <use x="63.623047" xlink:href="#DejaVuSans-32"/>
      <use x="95.410156" xlink:href="#DejaVuSans-107"/>
     </g>
    </g>
    <g id="line2d_131">
     <path d="M 539.038005 306.959453 
L 550.618005 306.959453 
" style="fill:none;stroke:#ff7f0e;stroke-dasharray:5.55,2.4;stroke-dashoffset:0;stroke-width:1.5;"/>
    </g>
    <g id="line2d_132"/>
    <g id="text_43">
     <!-- 8 k -->
     <g transform="translate(559.882005 311.012453)scale(0.1158 -0.1158)">
      <use xlink:href="#DejaVuSans-56"/>
      <use x="63.623047" xlink:href="#DejaVuSans-32"/>
      <use x="95.410156" xlink:href="#DejaVuSans-107"/>
     </g>
    </g>
    <g id="line2d_133">
     <path d="M 539.038005 323.956722 
L 550.618005 323.956722 
" style="fill:none;stroke:#2ca02c;stroke-dasharray:5.55,2.4;stroke-dashoffset:0;stroke-width:1.5;"/>
    </g>
    <g id="line2d_134"/>
    <g id="text_44">
     <!-- 16 k -->
     <g transform="translate(559.882005 328.009722)scale(0.1158 -0.1158)">
      <use xlink:href="#DejaVuSans-49"/>
      <use x="63.623047" xlink:href="#DejaVuSans-54"/>
      <use x="127.246094" xlink:href="#DejaVuSans-32"/>
      <use x="159.033203" xlink:href="#DejaVuSans-107"/>
     </g>
    </g>
    <g id="line2d_135">
     <path d="M 594.267367 289.962184 
L 605.847367 289.962184 
" style="fill:none;stroke:#d62728;stroke-dasharray:5.55,2.4;stroke-dashoffset:0;stroke-width:1.5;"/>
    </g>
    <g id="line2d_136"/>
    <g id="text_45">
     <!-- 32 k -->
     <g transform="translate(615.111367 294.015184)scale(0.1158 -0.1158)">
      <use xlink:href="#DejaVuSans-51"/>
      <use x="63.623047" xlink:href="#DejaVuSans-50"/>
      <use x="127.246094" xlink:href="#DejaVuSans-32"/>
      <use x="159.033203" xlink:href="#DejaVuSans-107"/>
     </g>
    </g>
    <g id="line2d_137">
     <path d="M 594.267367 306.959453 
L 605.847367 306.959453 
" style="fill:none;stroke:#9467bd;stroke-dasharray:5.55,2.4;stroke-dashoffset:0;stroke-width:1.5;"/>
    </g>
    <g id="line2d_138"/>
    <g id="text_46">
     <!-- 64 k -->
     <g transform="translate(615.111367 311.012453)scale(0.1158 -0.1158)">
      <use xlink:href="#DejaVuSans-54"/>
      <use x="63.623047" xlink:href="#DejaVuSans-52"/>
      <use x="127.246094" xlink:href="#DejaVuSans-32"/>
      <use x="159.033203" xlink:href="#DejaVuSans-107"/>
     </g>
    </g>
    <g id="line2d_139">
     <path d="M 594.267367 323.956722 
L 605.847367 323.956722 
" style="fill:none;stroke:#8c564b;stroke-dasharray:5.55,2.4;stroke-dashoffset:0;stroke-width:1.5;"/>
    </g>
    <g id="line2d_140"/>
    <g id="text_47">
     <!-- 128 k -->
     <g transform="translate(615.111367 328.009722)scale(0.1158 -0.1158)">
      <use xlink:href="#DejaVuSans-49"/>
      <use x="63.623047" xlink:href="#DejaVuSans-50"/>
      <use x="127.246094" xlink:href="#DejaVuSans-56"/>
      <use x="190.869141" xlink:href="#DejaVuSans-32"/>
      <use x="222.65625" xlink:href="#DejaVuSans-107"/>
     </g>
    </g>
    <g id="line2d_141">
     <path d="M 656.864505 289.962184 
L 668.444505 289.962184 
" style="fill:none;stroke:#e377c2;stroke-dasharray:5.55,2.4;stroke-dashoffset:0;stroke-width:1.5;"/>
    </g>
    <g id="line2d_142"/>
    <g id="text_48">
     <!-- 256 k -->
     <g transform="translate(677.708505 294.015184)scale(0.1158 -0.1158)">
      <use xlink:href="#DejaVuSans-50"/>
      <use x="63.623047" xlink:href="#DejaVuSans-53"/>
      <use x="127.246094" xlink:href="#DejaVuSans-54"/>
      <use x="190.869141" xlink:href="#DejaVuSans-32"/>
      <use x="222.65625" xlink:href="#DejaVuSans-107"/>
     </g>
    </g>
    <g id="line2d_143">
     <path d="M 656.864505 306.959453 
L 668.444505 306.959453 
" style="fill:none;stroke:#1f77b4;stroke-linecap:square;stroke-width:1.5;"/>
    </g>
    <g id="line2d_144"/>
    <g id="text_49">
     <!-- 512 k -->
     <g transform="translate(677.708505 311.012453)scale(0.1158 -0.1158)">
      <use xlink:href="#DejaVuSans-53"/>
      <use x="63.623047" xlink:href="#DejaVuSans-49"/>
      <use x="127.246094" xlink:href="#DejaVuSans-50"/>
      <use x="190.869141" xlink:href="#DejaVuSans-32"/>
      <use x="222.65625" xlink:href="#DejaVuSans-107"/>
     </g>
    </g>
    <g id="line2d_145">
     <path d="M 719.461642 289.962184 
L 731.041642 289.962184 
" style="fill:none;stroke:#ff7f0e;stroke-linecap:square;stroke-width:1.5;"/>
    </g>
    <g id="line2d_146"/>
    <g id="text_50">
     <!-- 1 M -->
     <g transform="translate(740.305642 294.015184)scale(0.1158 -0.1158)">
      <use xlink:href="#DejaVuSans-49"/>
      <use x="63.623047" xlink:href="#DejaVuSans-32"/>
      <use x="95.410156" xlink:href="#DejaVuSans-77"/>
     </g>
    </g>
    <g id="line2d_147">
     <path d="M 719.461642 306.959453 
L 731.041642 306.959453 
" style="fill:none;stroke:#2ca02c;stroke-linecap:square;stroke-width:1.5;"/>
    </g>
    <g id="line2d_148"/>
    <g id="text_51">
     <!-- 2 M -->
     <g transform="translate(740.305642 311.012453)scale(0.1158 -0.1158)">
      <use xlink:href="#DejaVuSans-50"/>
      <use x="63.623047" xlink:href="#DejaVuSans-32"/>
      <use x="95.410156" xlink:href="#DejaVuSans-77"/>
     </g>
    </g>
    <g id="line2d_149">
     <path d="M 770.609055 289.962184 
L 782.189055 289.962184 
" style="fill:none;stroke:#d62728;stroke-linecap:square;stroke-width:1.5;"/>
    </g>
    <g id="line2d_150"/>
    <g id="text_52">
     <!-- 4 M -->
     <g transform="translate(791.453055 294.015184)scale(0.1158 -0.1158)">
      <use xlink:href="#DejaVuSans-52"/>
      <use x="63.623047" xlink:href="#DejaVuSans-32"/>
      <use x="95.410156" xlink:href="#DejaVuSans-77"/>
     </g>
    </g>
    <g id="line2d_151">
     <path d="M 770.609055 306.959453 
L 782.189055 306.959453 
" style="fill:none;stroke:#9467bd;stroke-linecap:square;stroke-width:1.5;"/>
    </g>
    <g id="line2d_152"/>
    <g id="text_53">
     <!-- 8 M -->
     <g transform="translate(791.453055 311.012453)scale(0.1158 -0.1158)">
      <use xlink:href="#DejaVuSans-56"/>
      <use x="63.623047" xlink:href="#DejaVuSans-32"/>
      <use x="95.410156" xlink:href="#DejaVuSans-77"/>
     </g>
    </g>
    <g id="line2d_153">
     <path d="M 821.756467 289.962184 
L 833.336467 289.962184 
" style="fill:none;stroke:#8c564b;stroke-linecap:square;stroke-width:1.5;"/>
    </g>
    <g id="line2d_154"/>
    <g id="text_54">
     <!-- 16 M -->
     <g transform="translate(842.600467 294.015184)scale(0.1158 -0.1158)">
      <use xlink:href="#DejaVuSans-49"/>
      <use x="63.623047" xlink:href="#DejaVuSans-54"/>
      <use x="127.246094" xlink:href="#DejaVuSans-32"/>
      <use x="159.033203" xlink:href="#DejaVuSans-77"/>
     </g>
    </g>
    <g id="line2d_155">
     <path d="M 821.756467 306.959453 
L 833.336467 306.959453 
" style="fill:none;stroke:#e377c2;stroke-linecap:square;stroke-width:1.5;"/>
    </g>
    <g id="line2d_156"/>
    <g id="text_55">
     <!-- 32 M -->
     <g transform="translate(842.600467 311.012453)scale(0.1158 -0.1158)">
      <use xlink:href="#DejaVuSans-51"/>
      <use x="63.623047" xlink:href="#DejaVuSans-50"/>
      <use x="127.246094" xlink:href="#DejaVuSans-32"/>
      <use x="159.033203" xlink:href="#DejaVuSans-77"/>
     </g>
    </g>
   </g>
  </g>
 </g>
 <defs>
  <clipPath id="paae51d3228">
   <rect height="333.64" width="347.051909" x="83.896875" y="7.2"/>
  </clipPath>
  <clipPath id="p32405a2785">
   <rect height="333.64" width="347.051909" x="531.496875" y="7.2"/>
  </clipPath>
 </defs>
</svg>
