<?xml version="1.0" encoding="utf-8" standalone="no"?>
<!DOCTYPE svg PUBLIC "-//W3C//DTD SVG 1.1//EN"
  "http://www.w3.org/Graphics/SVG/1.1/DTD/svg11.dtd">
<!-- Created with matplotlib (https://matplotlib.org/) -->
<svg height="392.429687pt" version="1.1" viewBox="0 0 893.901686 392.429687" width="893.901686pt" xmlns="http://www.w3.org/2000/svg" xmlns:xlink="http://www.w3.org/1999/xlink">
 <defs>
  <style type="text/css">*{stroke-linecap:butt;stroke-linejoin:round;}</style>
 </defs>
 <g id="figure_1">
  <g id="patch_1">
   <path d="M 0 392.429687 
L 893.901686 392.429687 
L 893.901686 0 
L 0 0 
z
" style="fill:none;"/>
  </g>
  <g id="axes_1">
   <g id="patch_2">
    <path d="M 66.1875 340.35625 
L 439.101686 340.35625 
L 439.101686 31.43625 
L 66.1875 31.43625 
z
" style="fill:none;"/>
   </g>
   <g id="matplotlib.axis_1">
    <g id="xtick_1">
     <g id="line2d_1">
      <path clip-path="url(#p7df51faed5)" d="M 107.353352 340.35625 
L 107.353352 31.43625 
" style="fill:none;stroke:#b0b0b0;stroke-linecap:square;stroke-width:0.8;"/>
     </g>
     <g id="line2d_2">
      <defs>
       <path d="M 0 0 
L 0 3.5 
" id="m005f0a59be" style="stroke:#000000;stroke-width:0.8;"/>
      </defs>
      <g>
       <use style="stroke:#000000;stroke-width:0.8;" x="107.353352" xlink:href="#m005f0a59be" y="340.35625"/>
      </g>
     </g>
     <g id="text_1">
      <!-- 32 k -->
      <g transform="translate(91.083039 358.753906)scale(0.15 -0.15)">
       <defs>
        <path d="M 40.578125 39.3125 
Q 47.65625 37.796875 51.625 33 
Q 55.609375 28.21875 55.609375 21.1875 
Q 55.609375 10.40625 48.1875 4.484375 
Q 40.765625 -1.421875 27.09375 -1.421875 
Q 22.515625 -1.421875 17.65625 -0.515625 
Q 12.796875 0.390625 7.625 2.203125 
L 7.625 11.71875 
Q 11.71875 9.328125 16.59375 8.109375 
Q 21.484375 6.890625 26.8125 6.890625 
Q 36.078125 6.890625 40.9375 10.546875 
Q 45.796875 14.203125 45.796875 21.1875 
Q 45.796875 27.640625 41.28125 31.265625 
Q 36.765625 34.90625 28.71875 34.90625 
L 20.21875 34.90625 
L 20.21875 43.015625 
L 29.109375 43.015625 
Q 36.375 43.015625 40.234375 45.921875 
Q 44.09375 48.828125 44.09375 54.296875 
Q 44.09375 59.90625 40.109375 62.90625 
Q 36.140625 65.921875 28.71875 65.921875 
Q 24.65625 65.921875 20.015625 65.03125 
Q 15.375 64.15625 9.8125 62.3125 
L 9.8125 71.09375 
Q 15.4375 72.65625 20.34375 73.4375 
Q 25.25 74.21875 29.59375 74.21875 
Q 40.828125 74.21875 47.359375 69.109375 
Q 53.90625 64.015625 53.90625 55.328125 
Q 53.90625 49.265625 50.4375 45.09375 
Q 46.96875 40.921875 40.578125 39.3125 
z
" id="DejaVuSans-51"/>
        <path d="M 19.1875 8.296875 
L 53.609375 8.296875 
L 53.609375 0 
L 7.328125 0 
L 7.328125 8.296875 
Q 12.9375 14.109375 22.625 23.890625 
Q 32.328125 33.6875 34.8125 36.53125 
Q 39.546875 41.84375 41.421875 45.53125 
Q 43.3125 49.21875 43.3125 52.78125 
Q 43.3125 58.59375 39.234375 62.25 
Q 35.15625 65.921875 28.609375 65.921875 
Q 23.96875 65.921875 18.8125 64.3125 
Q 13.671875 62.703125 7.8125 59.421875 
L 7.8125 69.390625 
Q 13.765625 71.78125 18.9375 73 
Q 24.125 74.21875 28.421875 74.21875 
Q 39.75 74.21875 46.484375 68.546875 
Q 53.21875 62.890625 53.21875 53.421875 
Q 53.21875 48.921875 51.53125 44.890625 
Q 49.859375 40.875 45.40625 35.40625 
Q 44.1875 33.984375 37.640625 27.21875 
Q 31.109375 20.453125 19.1875 8.296875 
z
" id="DejaVuSans-50"/>
        <path id="DejaVuSans-32"/>
        <path d="M 9.078125 75.984375 
L 18.109375 75.984375 
L 18.109375 31.109375 
L 44.921875 54.6875 
L 56.390625 54.6875 
L 27.390625 29.109375 
L 57.625 0 
L 45.90625 0 
L 18.109375 26.703125 
L 18.109375 0 
L 9.078125 0 
z
" id="DejaVuSans-107"/>
       </defs>
       <use xlink:href="#DejaVuSans-51"/>
       <use x="63.623047" xlink:href="#DejaVuSans-50"/>
       <use x="127.246094" xlink:href="#DejaVuSans-32"/>
       <use x="159.033203" xlink:href="#DejaVuSans-107"/>
      </g>
     </g>
    </g>
    <g id="xtick_2">
     <g id="line2d_3">
      <path clip-path="url(#p7df51faed5)" d="M 204.214179 340.35625 
L 204.214179 31.43625 
" style="fill:none;stroke:#b0b0b0;stroke-linecap:square;stroke-width:0.8;"/>
     </g>
     <g id="line2d_4">
      <g>
       <use style="stroke:#000000;stroke-width:0.8;" x="204.214179" xlink:href="#m005f0a59be" y="340.35625"/>
      </g>
     </g>
     <g id="text_2">
      <!-- 512 k -->
      <g transform="translate(183.171992 358.753906)scale(0.15 -0.15)">
       <defs>
        <path d="M 10.796875 72.90625 
L 49.515625 72.90625 
L 49.515625 64.59375 
L 19.828125 64.59375 
L 19.828125 46.734375 
Q 21.96875 47.46875 24.109375 47.828125 
Q 26.265625 48.1875 28.421875 48.1875 
Q 40.625 48.1875 47.75 41.5 
Q 54.890625 34.8125 54.890625 23.390625 
Q 54.890625 11.625 47.5625 5.09375 
Q 40.234375 -1.421875 26.90625 -1.421875 
Q 22.3125 -1.421875 17.546875 -0.640625 
Q 12.796875 0.140625 7.71875 1.703125 
L 7.71875 11.625 
Q 12.109375 9.234375 16.796875 8.0625 
Q 21.484375 6.890625 26.703125 6.890625 
Q 35.15625 6.890625 40.078125 11.328125 
Q 45.015625 15.765625 45.015625 23.390625 
Q 45.015625 31 40.078125 35.4375 
Q 35.15625 39.890625 26.703125 39.890625 
Q 22.75 39.890625 18.8125 39.015625 
Q 14.890625 38.140625 10.796875 36.28125 
z
" id="DejaVuSans-53"/>
        <path d="M 12.40625 8.296875 
L 28.515625 8.296875 
L 28.515625 63.921875 
L 10.984375 60.40625 
L 10.984375 69.390625 
L 28.421875 72.90625 
L 38.28125 72.90625 
L 38.28125 8.296875 
L 54.390625 8.296875 
L 54.390625 0 
L 12.40625 0 
z
" id="DejaVuSans-49"/>
       </defs>
       <use xlink:href="#DejaVuSans-53"/>
       <use x="63.623047" xlink:href="#DejaVuSans-49"/>
       <use x="127.246094" xlink:href="#DejaVuSans-50"/>
       <use x="190.869141" xlink:href="#DejaVuSans-32"/>
       <use x="222.65625" xlink:href="#DejaVuSans-107"/>
      </g>
     </g>
    </g>
    <g id="xtick_3">
     <g id="line2d_5">
      <path clip-path="url(#p7df51faed5)" d="M 301.075006 340.35625 
L 301.075006 31.43625 
" style="fill:none;stroke:#b0b0b0;stroke-linecap:square;stroke-width:0.8;"/>
     </g>
     <g id="line2d_6">
      <g>
       <use style="stroke:#000000;stroke-width:0.8;" x="301.075006" xlink:href="#m005f0a59be" y="340.35625"/>
      </g>
     </g>
     <g id="text_3">
      <!-- 8 M -->
      <g transform="translate(287.448444 358.753906)scale(0.15 -0.15)">
       <defs>
        <path d="M 31.78125 34.625 
Q 24.75 34.625 20.71875 30.859375 
Q 16.703125 27.09375 16.703125 20.515625 
Q 16.703125 13.921875 20.71875 10.15625 
Q 24.75 6.390625 31.78125 6.390625 
Q 38.8125 6.390625 42.859375 10.171875 
Q 46.921875 13.96875 46.921875 20.515625 
Q 46.921875 27.09375 42.890625 30.859375 
Q 38.875 34.625 31.78125 34.625 
z
M 21.921875 38.8125 
Q 15.578125 40.375 12.03125 44.71875 
Q 8.5 49.078125 8.5 55.328125 
Q 8.5 64.0625 14.71875 69.140625 
Q 20.953125 74.21875 31.78125 74.21875 
Q 42.671875 74.21875 48.875 69.140625 
Q 55.078125 64.0625 55.078125 55.328125 
Q 55.078125 49.078125 51.53125 44.71875 
Q 48 40.375 41.703125 38.8125 
Q 48.828125 37.15625 52.796875 32.3125 
Q 56.78125 27.484375 56.78125 20.515625 
Q 56.78125 9.90625 50.3125 4.234375 
Q 43.84375 -1.421875 31.78125 -1.421875 
Q 19.734375 -1.421875 13.25 4.234375 
Q 6.78125 9.90625 6.78125 20.515625 
Q 6.78125 27.484375 10.78125 32.3125 
Q 14.796875 37.15625 21.921875 38.8125 
z
M 18.3125 54.390625 
Q 18.3125 48.734375 21.84375 45.5625 
Q 25.390625 42.390625 31.78125 42.390625 
Q 38.140625 42.390625 41.71875 45.5625 
Q 45.3125 48.734375 45.3125 54.390625 
Q 45.3125 60.0625 41.71875 63.234375 
Q 38.140625 66.40625 31.78125 66.40625 
Q 25.390625 66.40625 21.84375 63.234375 
Q 18.3125 60.0625 18.3125 54.390625 
z
" id="DejaVuSans-56"/>
        <path d="M 9.8125 72.90625 
L 24.515625 72.90625 
L 43.109375 23.296875 
L 61.8125 72.90625 
L 76.515625 72.90625 
L 76.515625 0 
L 66.890625 0 
L 66.890625 64.015625 
L 48.09375 14.015625 
L 38.1875 14.015625 
L 19.390625 64.015625 
L 19.390625 0 
L 9.8125 0 
z
" id="DejaVuSans-77"/>
       </defs>
       <use xlink:href="#DejaVuSans-56"/>
       <use x="63.623047" xlink:href="#DejaVuSans-32"/>
       <use x="95.410156" xlink:href="#DejaVuSans-77"/>
      </g>
     </g>
    </g>
    <g id="xtick_4">
     <g id="line2d_7">
      <path clip-path="url(#p7df51faed5)" d="M 397.935834 340.35625 
L 397.935834 31.43625 
" style="fill:none;stroke:#b0b0b0;stroke-linecap:square;stroke-width:0.8;"/>
     </g>
     <g id="line2d_8">
      <g>
       <use style="stroke:#000000;stroke-width:0.8;" x="397.935834" xlink:href="#m005f0a59be" y="340.35625"/>
      </g>
     </g>
     <g id="text_4">
      <!-- 128 M -->
      <g transform="translate(374.765521 358.753906)scale(0.15 -0.15)">
       <use xlink:href="#DejaVuSans-49"/>
       <use x="63.623047" xlink:href="#DejaVuSans-50"/>
       <use x="127.246094" xlink:href="#DejaVuSans-56"/>
       <use x="190.869141" xlink:href="#DejaVuSans-32"/>
       <use x="222.65625" xlink:href="#DejaVuSans-77"/>
      </g>
     </g>
    </g>
    <g id="xtick_5">
     <g id="line2d_9">
      <defs>
       <path d="M 0 0 
L 0 2 
" id="m6449f80ab4" style="stroke:#000000;stroke-width:0.6;"/>
      </defs>
      <g>
       <use style="stroke:#000000;stroke-width:0.6;" x="83.138145" xlink:href="#m6449f80ab4" y="340.35625"/>
      </g>
     </g>
    </g>
    <g id="xtick_6">
     <g id="line2d_10">
      <g>
       <use style="stroke:#000000;stroke-width:0.6;" x="131.568558" xlink:href="#m6449f80ab4" y="340.35625"/>
      </g>
     </g>
    </g>
    <g id="xtick_7">
     <g id="line2d_11">
      <g>
       <use style="stroke:#000000;stroke-width:0.6;" x="155.783765" xlink:href="#m6449f80ab4" y="340.35625"/>
      </g>
     </g>
    </g>
    <g id="xtick_8">
     <g id="line2d_12">
      <g>
       <use style="stroke:#000000;stroke-width:0.6;" x="179.998972" xlink:href="#m6449f80ab4" y="340.35625"/>
      </g>
     </g>
    </g>
    <g id="xtick_9">
     <g id="line2d_13">
      <g>
       <use style="stroke:#000000;stroke-width:0.6;" x="228.429386" xlink:href="#m6449f80ab4" y="340.35625"/>
      </g>
     </g>
    </g>
    <g id="xtick_10">
     <g id="line2d_14">
      <g>
       <use style="stroke:#000000;stroke-width:0.6;" x="252.644593" xlink:href="#m6449f80ab4" y="340.35625"/>
      </g>
     </g>
    </g>
    <g id="xtick_11">
     <g id="line2d_15">
      <g>
       <use style="stroke:#000000;stroke-width:0.6;" x="276.8598" xlink:href="#m6449f80ab4" y="340.35625"/>
      </g>
     </g>
    </g>
    <g id="xtick_12">
     <g id="line2d_16">
      <g>
       <use style="stroke:#000000;stroke-width:0.6;" x="325.290213" xlink:href="#m6449f80ab4" y="340.35625"/>
      </g>
     </g>
    </g>
    <g id="xtick_13">
     <g id="line2d_17">
      <g>
       <use style="stroke:#000000;stroke-width:0.6;" x="349.50542" xlink:href="#m6449f80ab4" y="340.35625"/>
      </g>
     </g>
    </g>
    <g id="xtick_14">
     <g id="line2d_18">
      <g>
       <use style="stroke:#000000;stroke-width:0.6;" x="373.720627" xlink:href="#m6449f80ab4" y="340.35625"/>
      </g>
     </g>
    </g>
    <g id="xtick_15">
     <g id="line2d_19">
      <g>
       <use style="stroke:#000000;stroke-width:0.6;" x="422.151041" xlink:href="#m6449f80ab4" y="340.35625"/>
      </g>
     </g>
    </g>
    <g id="text_5">
     <!-- Buffer Size -->
     <g transform="translate(198.435218 381.070312)scale(0.2 -0.2)">
      <defs>
       <path d="M 19.671875 34.8125 
L 19.671875 8.109375 
L 35.5 8.109375 
Q 43.453125 8.109375 47.28125 11.40625 
Q 51.125 14.703125 51.125 21.484375 
Q 51.125 28.328125 47.28125 31.5625 
Q 43.453125 34.8125 35.5 34.8125 
z
M 19.671875 64.796875 
L 19.671875 42.828125 
L 34.28125 42.828125 
Q 41.5 42.828125 45.03125 45.53125 
Q 48.578125 48.25 48.578125 53.8125 
Q 48.578125 59.328125 45.03125 62.0625 
Q 41.5 64.796875 34.28125 64.796875 
z
M 9.8125 72.90625 
L 35.015625 72.90625 
Q 46.296875 72.90625 52.390625 68.21875 
Q 58.5 63.53125 58.5 54.890625 
Q 58.5 48.1875 55.375 44.234375 
Q 52.25 40.28125 46.1875 39.3125 
Q 53.46875 37.75 57.5 32.78125 
Q 61.53125 27.828125 61.53125 20.40625 
Q 61.53125 10.640625 54.890625 5.3125 
Q 48.25 0 35.984375 0 
L 9.8125 0 
z
" id="DejaVuSans-66"/>
       <path d="M 8.5 21.578125 
L 8.5 54.6875 
L 17.484375 54.6875 
L 17.484375 21.921875 
Q 17.484375 14.15625 20.5 10.265625 
Q 23.53125 6.390625 29.59375 6.390625 
Q 36.859375 6.390625 41.078125 11.03125 
Q 45.3125 15.671875 45.3125 23.6875 
L 45.3125 54.6875 
L 54.296875 54.6875 
L 54.296875 0 
L 45.3125 0 
L 45.3125 8.40625 
Q 42.046875 3.421875 37.71875 1 
Q 33.40625 -1.421875 27.6875 -1.421875 
Q 18.265625 -1.421875 13.375 4.4375 
Q 8.5 10.296875 8.5 21.578125 
z
M 31.109375 56 
z
" id="DejaVuSans-117"/>
       <path d="M 37.109375 75.984375 
L 37.109375 68.5 
L 28.515625 68.5 
Q 23.6875 68.5 21.796875 66.546875 
Q 19.921875 64.59375 19.921875 59.515625 
L 19.921875 54.6875 
L 34.71875 54.6875 
L 34.71875 47.703125 
L 19.921875 47.703125 
L 19.921875 0 
L 10.890625 0 
L 10.890625 47.703125 
L 2.296875 47.703125 
L 2.296875 54.6875 
L 10.890625 54.6875 
L 10.890625 58.5 
Q 10.890625 67.625 15.140625 71.796875 
Q 19.390625 75.984375 28.609375 75.984375 
z
" id="DejaVuSans-102"/>
       <path d="M 56.203125 29.59375 
L 56.203125 25.203125 
L 14.890625 25.203125 
Q 15.484375 15.921875 20.484375 11.0625 
Q 25.484375 6.203125 34.421875 6.203125 
Q 39.59375 6.203125 44.453125 7.46875 
Q 49.3125 8.734375 54.109375 11.28125 
L 54.109375 2.78125 
Q 49.265625 0.734375 44.1875 -0.34375 
Q 39.109375 -1.421875 33.890625 -1.421875 
Q 20.796875 -1.421875 13.15625 6.1875 
Q 5.515625 13.8125 5.515625 26.8125 
Q 5.515625 40.234375 12.765625 48.109375 
Q 20.015625 56 32.328125 56 
Q 43.359375 56 49.78125 48.890625 
Q 56.203125 41.796875 56.203125 29.59375 
z
M 47.21875 32.234375 
Q 47.125 39.59375 43.09375 43.984375 
Q 39.0625 48.390625 32.421875 48.390625 
Q 24.90625 48.390625 20.390625 44.140625 
Q 15.875 39.890625 15.1875 32.171875 
z
" id="DejaVuSans-101"/>
       <path d="M 41.109375 46.296875 
Q 39.59375 47.171875 37.8125 47.578125 
Q 36.03125 48 33.890625 48 
Q 26.265625 48 22.1875 43.046875 
Q 18.109375 38.09375 18.109375 28.8125 
L 18.109375 0 
L 9.078125 0 
L 9.078125 54.6875 
L 18.109375 54.6875 
L 18.109375 46.1875 
Q 20.953125 51.171875 25.484375 53.578125 
Q 30.03125 56 36.53125 56 
Q 37.453125 56 38.578125 55.875 
Q 39.703125 55.765625 41.0625 55.515625 
z
" id="DejaVuSans-114"/>
       <path d="M 53.515625 70.515625 
L 53.515625 60.890625 
Q 47.90625 63.578125 42.921875 64.890625 
Q 37.9375 66.21875 33.296875 66.21875 
Q 25.25 66.21875 20.875 63.09375 
Q 16.5 59.96875 16.5 54.203125 
Q 16.5 49.359375 19.40625 46.890625 
Q 22.3125 44.4375 30.421875 42.921875 
L 36.375 41.703125 
Q 47.40625 39.59375 52.65625 34.296875 
Q 57.90625 29 57.90625 20.125 
Q 57.90625 9.515625 50.796875 4.046875 
Q 43.703125 -1.421875 29.984375 -1.421875 
Q 24.8125 -1.421875 18.96875 -0.25 
Q 13.140625 0.921875 6.890625 3.21875 
L 6.890625 13.375 
Q 12.890625 10.015625 18.65625 8.296875 
Q 24.421875 6.59375 29.984375 6.59375 
Q 38.421875 6.59375 43.015625 9.90625 
Q 47.609375 13.234375 47.609375 19.390625 
Q 47.609375 24.75 44.3125 27.78125 
Q 41.015625 30.8125 33.5 32.328125 
L 27.484375 33.5 
Q 16.453125 35.6875 11.515625 40.375 
Q 6.59375 45.0625 6.59375 53.421875 
Q 6.59375 63.09375 13.40625 68.65625 
Q 20.21875 74.21875 32.171875 74.21875 
Q 37.3125 74.21875 42.625 73.28125 
Q 47.953125 72.359375 53.515625 70.515625 
z
" id="DejaVuSans-83"/>
       <path d="M 9.421875 54.6875 
L 18.40625 54.6875 
L 18.40625 0 
L 9.421875 0 
z
M 9.421875 75.984375 
L 18.40625 75.984375 
L 18.40625 64.59375 
L 9.421875 64.59375 
z
" id="DejaVuSans-105"/>
       <path d="M 5.515625 54.6875 
L 48.1875 54.6875 
L 48.1875 46.484375 
L 14.40625 7.171875 
L 48.1875 7.171875 
L 48.1875 0 
L 4.296875 0 
L 4.296875 8.203125 
L 38.09375 47.515625 
L 5.515625 47.515625 
z
" id="DejaVuSans-122"/>
      </defs>
      <use xlink:href="#DejaVuSans-66"/>
      <use x="68.603516" xlink:href="#DejaVuSans-117"/>
      <use x="131.982422" xlink:href="#DejaVuSans-102"/>
      <use x="167.1875" xlink:href="#DejaVuSans-102"/>
      <use x="202.392578" xlink:href="#DejaVuSans-101"/>
      <use x="263.916016" xlink:href="#DejaVuSans-114"/>
      <use x="305.029297" xlink:href="#DejaVuSans-32"/>
      <use x="336.816406" xlink:href="#DejaVuSans-83"/>
      <use x="400.292969" xlink:href="#DejaVuSans-105"/>
      <use x="428.076172" xlink:href="#DejaVuSans-122"/>
      <use x="480.566406" xlink:href="#DejaVuSans-101"/>
     </g>
    </g>
   </g>
   <g id="matplotlib.axis_2">
    <g id="ytick_1">
     <g id="line2d_20">
      <path clip-path="url(#p7df51faed5)" d="M 66.1875 340.35625 
L 439.101686 340.35625 
" style="fill:none;stroke:#b0b0b0;stroke-linecap:square;stroke-width:0.8;"/>
     </g>
     <g id="line2d_21">
      <defs>
       <path d="M 0 0 
L -3.5 0 
" id="mc3ce260a5b" style="stroke:#000000;stroke-width:0.8;"/>
      </defs>
      <g>
       <use style="stroke:#000000;stroke-width:0.8;" x="66.1875" xlink:href="#mc3ce260a5b" y="340.35625"/>
      </g>
     </g>
     <g id="text_6">
      <!-- 0 -->
      <g transform="translate(49.64375 346.055078)scale(0.15 -0.15)">
       <defs>
        <path d="M 31.78125 66.40625 
Q 24.171875 66.40625 20.328125 58.90625 
Q 16.5 51.421875 16.5 36.375 
Q 16.5 21.390625 20.328125 13.890625 
Q 24.171875 6.390625 31.78125 6.390625 
Q 39.453125 6.390625 43.28125 13.890625 
Q 47.125 21.390625 47.125 36.375 
Q 47.125 51.421875 43.28125 58.90625 
Q 39.453125 66.40625 31.78125 66.40625 
z
M 31.78125 74.21875 
Q 44.046875 74.21875 50.515625 64.515625 
Q 56.984375 54.828125 56.984375 36.375 
Q 56.984375 17.96875 50.515625 8.265625 
Q 44.046875 -1.421875 31.78125 -1.421875 
Q 19.53125 -1.421875 13.0625 8.265625 
Q 6.59375 17.96875 6.59375 36.375 
Q 6.59375 54.828125 13.0625 64.515625 
Q 19.53125 74.21875 31.78125 74.21875 
z
" id="DejaVuSans-48"/>
       </defs>
       <use xlink:href="#DejaVuSans-48"/>
      </g>
     </g>
    </g>
    <g id="ytick_2">
     <g id="line2d_22">
      <path clip-path="url(#p7df51faed5)" d="M 66.1875 304.012721 
L 439.101686 304.012721 
" style="fill:none;stroke:#b0b0b0;stroke-linecap:square;stroke-width:0.8;"/>
     </g>
     <g id="line2d_23">
      <g>
       <use style="stroke:#000000;stroke-width:0.8;" x="66.1875" xlink:href="#mc3ce260a5b" y="304.012721"/>
      </g>
     </g>
     <g id="text_7">
      <!-- 20 -->
      <g transform="translate(40.1 309.711549)scale(0.15 -0.15)">
       <use xlink:href="#DejaVuSans-50"/>
       <use x="63.623047" xlink:href="#DejaVuSans-48"/>
      </g>
     </g>
    </g>
    <g id="ytick_3">
     <g id="line2d_24">
      <path clip-path="url(#p7df51faed5)" d="M 66.1875 267.669191 
L 439.101686 267.669191 
" style="fill:none;stroke:#b0b0b0;stroke-linecap:square;stroke-width:0.8;"/>
     </g>
     <g id="line2d_25">
      <g>
       <use style="stroke:#000000;stroke-width:0.8;" x="66.1875" xlink:href="#mc3ce260a5b" y="267.669191"/>
      </g>
     </g>
     <g id="text_8">
      <!-- 40 -->
      <g transform="translate(40.1 273.368019)scale(0.15 -0.15)">
       <defs>
        <path d="M 37.796875 64.3125 
L 12.890625 25.390625 
L 37.796875 25.390625 
z
M 35.203125 72.90625 
L 47.609375 72.90625 
L 47.609375 25.390625 
L 58.015625 25.390625 
L 58.015625 17.1875 
L 47.609375 17.1875 
L 47.609375 0 
L 37.796875 0 
L 37.796875 17.1875 
L 4.890625 17.1875 
L 4.890625 26.703125 
z
" id="DejaVuSans-52"/>
       </defs>
       <use xlink:href="#DejaVuSans-52"/>
       <use x="63.623047" xlink:href="#DejaVuSans-48"/>
      </g>
     </g>
    </g>
    <g id="ytick_4">
     <g id="line2d_26">
      <path clip-path="url(#p7df51faed5)" d="M 66.1875 231.325662 
L 439.101686 231.325662 
" style="fill:none;stroke:#b0b0b0;stroke-linecap:square;stroke-width:0.8;"/>
     </g>
     <g id="line2d_27">
      <g>
       <use style="stroke:#000000;stroke-width:0.8;" x="66.1875" xlink:href="#mc3ce260a5b" y="231.325662"/>
      </g>
     </g>
     <g id="text_9">
      <!-- 60 -->
      <g transform="translate(40.1 237.02449)scale(0.15 -0.15)">
       <defs>
        <path d="M 33.015625 40.375 
Q 26.375 40.375 22.484375 35.828125 
Q 18.609375 31.296875 18.609375 23.390625 
Q 18.609375 15.53125 22.484375 10.953125 
Q 26.375 6.390625 33.015625 6.390625 
Q 39.65625 6.390625 43.53125 10.953125 
Q 47.40625 15.53125 47.40625 23.390625 
Q 47.40625 31.296875 43.53125 35.828125 
Q 39.65625 40.375 33.015625 40.375 
z
M 52.59375 71.296875 
L 52.59375 62.3125 
Q 48.875 64.0625 45.09375 64.984375 
Q 41.3125 65.921875 37.59375 65.921875 
Q 27.828125 65.921875 22.671875 59.328125 
Q 17.53125 52.734375 16.796875 39.40625 
Q 19.671875 43.65625 24.015625 45.921875 
Q 28.375 48.1875 33.59375 48.1875 
Q 44.578125 48.1875 50.953125 41.515625 
Q 57.328125 34.859375 57.328125 23.390625 
Q 57.328125 12.15625 50.6875 5.359375 
Q 44.046875 -1.421875 33.015625 -1.421875 
Q 20.359375 -1.421875 13.671875 8.265625 
Q 6.984375 17.96875 6.984375 36.375 
Q 6.984375 53.65625 15.1875 63.9375 
Q 23.390625 74.21875 37.203125 74.21875 
Q 40.921875 74.21875 44.703125 73.484375 
Q 48.484375 72.75 52.59375 71.296875 
z
" id="DejaVuSans-54"/>
       </defs>
       <use xlink:href="#DejaVuSans-54"/>
       <use x="63.623047" xlink:href="#DejaVuSans-48"/>
      </g>
     </g>
    </g>
    <g id="ytick_5">
     <g id="line2d_28">
      <path clip-path="url(#p7df51faed5)" d="M 66.1875 194.982132 
L 439.101686 194.982132 
" style="fill:none;stroke:#b0b0b0;stroke-linecap:square;stroke-width:0.8;"/>
     </g>
     <g id="line2d_29">
      <g>
       <use style="stroke:#000000;stroke-width:0.8;" x="66.1875" xlink:href="#mc3ce260a5b" y="194.982132"/>
      </g>
     </g>
     <g id="text_10">
      <!-- 80 -->
      <g transform="translate(40.1 200.68096)scale(0.15 -0.15)">
       <use xlink:href="#DejaVuSans-56"/>
       <use x="63.623047" xlink:href="#DejaVuSans-48"/>
      </g>
     </g>
    </g>
    <g id="ytick_6">
     <g id="line2d_30">
      <path clip-path="url(#p7df51faed5)" d="M 66.1875 158.638603 
L 439.101686 158.638603 
" style="fill:none;stroke:#b0b0b0;stroke-linecap:square;stroke-width:0.8;"/>
     </g>
     <g id="line2d_31">
      <g>
       <use style="stroke:#000000;stroke-width:0.8;" x="66.1875" xlink:href="#mc3ce260a5b" y="158.638603"/>
      </g>
     </g>
     <g id="text_11">
      <!-- 100 -->
      <g transform="translate(30.55625 164.337431)scale(0.15 -0.15)">
       <use xlink:href="#DejaVuSans-49"/>
       <use x="63.623047" xlink:href="#DejaVuSans-48"/>
       <use x="127.246094" xlink:href="#DejaVuSans-48"/>
      </g>
     </g>
    </g>
    <g id="ytick_7">
     <g id="line2d_32">
      <path clip-path="url(#p7df51faed5)" d="M 66.1875 122.295074 
L 439.101686 122.295074 
" style="fill:none;stroke:#b0b0b0;stroke-linecap:square;stroke-width:0.8;"/>
     </g>
     <g id="line2d_33">
      <g>
       <use style="stroke:#000000;stroke-width:0.8;" x="66.1875" xlink:href="#mc3ce260a5b" y="122.295074"/>
      </g>
     </g>
     <g id="text_12">
      <!-- 120 -->
      <g transform="translate(30.55625 127.993902)scale(0.15 -0.15)">
       <use xlink:href="#DejaVuSans-49"/>
       <use x="63.623047" xlink:href="#DejaVuSans-50"/>
       <use x="127.246094" xlink:href="#DejaVuSans-48"/>
      </g>
     </g>
    </g>
    <g id="ytick_8">
     <g id="line2d_34">
      <path clip-path="url(#p7df51faed5)" d="M 66.1875 85.951544 
L 439.101686 85.951544 
" style="fill:none;stroke:#b0b0b0;stroke-linecap:square;stroke-width:0.8;"/>
     </g>
     <g id="line2d_35">
      <g>
       <use style="stroke:#000000;stroke-width:0.8;" x="66.1875" xlink:href="#mc3ce260a5b" y="85.951544"/>
      </g>
     </g>
     <g id="text_13">
      <!-- 140 -->
      <g transform="translate(30.55625 91.650372)scale(0.15 -0.15)">
       <use xlink:href="#DejaVuSans-49"/>
       <use x="63.623047" xlink:href="#DejaVuSans-52"/>
       <use x="127.246094" xlink:href="#DejaVuSans-48"/>
      </g>
     </g>
    </g>
    <g id="ytick_9">
     <g id="line2d_36">
      <path clip-path="url(#p7df51faed5)" d="M 66.1875 49.608015 
L 439.101686 49.608015 
" style="fill:none;stroke:#b0b0b0;stroke-linecap:square;stroke-width:0.8;"/>
     </g>
     <g id="line2d_37">
      <g>
       <use style="stroke:#000000;stroke-width:0.8;" x="66.1875" xlink:href="#mc3ce260a5b" y="49.608015"/>
      </g>
     </g>
     <g id="text_14">
      <!-- 160 -->
      <g transform="translate(30.55625 55.306843)scale(0.15 -0.15)">
       <use xlink:href="#DejaVuSans-49"/>
       <use x="63.623047" xlink:href="#DejaVuSans-54"/>
       <use x="127.246094" xlink:href="#DejaVuSans-48"/>
      </g>
     </g>
    </g>
    <g id="text_15">
     <!-- Time (ns/KiB) -->
     <g transform="translate(22.396875 252.457187)rotate(-90)scale(0.2 -0.2)">
      <defs>
       <path d="M -0.296875 72.90625 
L 61.375 72.90625 
L 61.375 64.59375 
L 35.5 64.59375 
L 35.5 0 
L 25.59375 0 
L 25.59375 64.59375 
L -0.296875 64.59375 
z
" id="DejaVuSans-84"/>
       <path d="M 52 44.1875 
Q 55.375 50.25 60.0625 53.125 
Q 64.75 56 71.09375 56 
Q 79.640625 56 84.28125 50.015625 
Q 88.921875 44.046875 88.921875 33.015625 
L 88.921875 0 
L 79.890625 0 
L 79.890625 32.71875 
Q 79.890625 40.578125 77.09375 44.375 
Q 74.3125 48.1875 68.609375 48.1875 
Q 61.625 48.1875 57.5625 43.546875 
Q 53.515625 38.921875 53.515625 30.90625 
L 53.515625 0 
L 44.484375 0 
L 44.484375 32.71875 
Q 44.484375 40.625 41.703125 44.40625 
Q 38.921875 48.1875 33.109375 48.1875 
Q 26.21875 48.1875 22.15625 43.53125 
Q 18.109375 38.875 18.109375 30.90625 
L 18.109375 0 
L 9.078125 0 
L 9.078125 54.6875 
L 18.109375 54.6875 
L 18.109375 46.1875 
Q 21.1875 51.21875 25.484375 53.609375 
Q 29.78125 56 35.6875 56 
Q 41.65625 56 45.828125 52.96875 
Q 50 49.953125 52 44.1875 
z
" id="DejaVuSans-109"/>
       <path d="M 31 75.875 
Q 24.46875 64.65625 21.28125 53.65625 
Q 18.109375 42.671875 18.109375 31.390625 
Q 18.109375 20.125 21.3125 9.0625 
Q 24.515625 -2 31 -13.1875 
L 23.1875 -13.1875 
Q 15.875 -1.703125 12.234375 9.375 
Q 8.59375 20.453125 8.59375 31.390625 
Q 8.59375 42.28125 12.203125 53.3125 
Q 15.828125 64.359375 23.1875 75.875 
z
" id="DejaVuSans-40"/>
       <path d="M 54.890625 33.015625 
L 54.890625 0 
L 45.90625 0 
L 45.90625 32.71875 
Q 45.90625 40.484375 42.875 44.328125 
Q 39.84375 48.1875 33.796875 48.1875 
Q 26.515625 48.1875 22.3125 43.546875 
Q 18.109375 38.921875 18.109375 30.90625 
L 18.109375 0 
L 9.078125 0 
L 9.078125 54.6875 
L 18.109375 54.6875 
L 18.109375 46.1875 
Q 21.34375 51.125 25.703125 53.5625 
Q 30.078125 56 35.796875 56 
Q 45.21875 56 50.046875 50.171875 
Q 54.890625 44.34375 54.890625 33.015625 
z
" id="DejaVuSans-110"/>
       <path d="M 44.28125 53.078125 
L 44.28125 44.578125 
Q 40.484375 46.53125 36.375 47.5 
Q 32.28125 48.484375 27.875 48.484375 
Q 21.1875 48.484375 17.84375 46.4375 
Q 14.5 44.390625 14.5 40.28125 
Q 14.5 37.15625 16.890625 35.375 
Q 19.28125 33.59375 26.515625 31.984375 
L 29.59375 31.296875 
Q 39.15625 29.25 43.1875 25.515625 
Q 47.21875 21.78125 47.21875 15.09375 
Q 47.21875 7.46875 41.1875 3.015625 
Q 35.15625 -1.421875 24.609375 -1.421875 
Q 20.21875 -1.421875 15.453125 -0.5625 
Q 10.6875 0.296875 5.421875 2 
L 5.421875 11.28125 
Q 10.40625 8.6875 15.234375 7.390625 
Q 20.0625 6.109375 24.8125 6.109375 
Q 31.15625 6.109375 34.5625 8.28125 
Q 37.984375 10.453125 37.984375 14.40625 
Q 37.984375 18.0625 35.515625 20.015625 
Q 33.0625 21.96875 24.703125 23.78125 
L 21.578125 24.515625 
Q 13.234375 26.265625 9.515625 29.90625 
Q 5.8125 33.546875 5.8125 39.890625 
Q 5.8125 47.609375 11.28125 51.796875 
Q 16.75 56 26.8125 56 
Q 31.78125 56 36.171875 55.265625 
Q 40.578125 54.546875 44.28125 53.078125 
z
" id="DejaVuSans-115"/>
       <path d="M 25.390625 72.90625 
L 33.6875 72.90625 
L 8.296875 -9.28125 
L 0 -9.28125 
z
" id="DejaVuSans-47"/>
       <path d="M 9.8125 72.90625 
L 19.671875 72.90625 
L 19.671875 42.09375 
L 52.390625 72.90625 
L 65.09375 72.90625 
L 28.90625 38.921875 
L 67.671875 0 
L 54.6875 0 
L 19.671875 35.109375 
L 19.671875 0 
L 9.8125 0 
z
" id="DejaVuSans-75"/>
       <path d="M 8.015625 75.875 
L 15.828125 75.875 
Q 23.140625 64.359375 26.78125 53.3125 
Q 30.421875 42.28125 30.421875 31.390625 
Q 30.421875 20.453125 26.78125 9.375 
Q 23.140625 -1.703125 15.828125 -13.1875 
L 8.015625 -13.1875 
Q 14.5 -2 17.703125 9.0625 
Q 20.90625 20.125 20.90625 31.390625 
Q 20.90625 42.671875 17.703125 53.65625 
Q 14.5 64.65625 8.015625 75.875 
z
" id="DejaVuSans-41"/>
      </defs>
      <use xlink:href="#DejaVuSans-84"/>
      <use x="57.958984" xlink:href="#DejaVuSans-105"/>
      <use x="85.742188" xlink:href="#DejaVuSans-109"/>
      <use x="183.154297" xlink:href="#DejaVuSans-101"/>
      <use x="244.677734" xlink:href="#DejaVuSans-32"/>
      <use x="276.464844" xlink:href="#DejaVuSans-40"/>
      <use x="315.478516" xlink:href="#DejaVuSans-110"/>
      <use x="378.857422" xlink:href="#DejaVuSans-115"/>
      <use x="430.957031" xlink:href="#DejaVuSans-47"/>
      <use x="464.648438" xlink:href="#DejaVuSans-75"/>
      <use x="530.224609" xlink:href="#DejaVuSans-105"/>
      <use x="558.007812" xlink:href="#DejaVuSans-66"/>
      <use x="626.611328" xlink:href="#DejaVuSans-41"/>
     </g>
    </g>
   </g>
   <g id="line2d_38">
    <path clip-path="url(#p7df51faed5)" d="M 83.138145 151.780899 
L 107.353352 161.230682 
L 131.568558 243.685486 
L 155.783765 243.301698 
L 179.998972 248.267213 
L 204.214179 247.611285 
L 228.429386 251.45707 
L 252.644593 254.669721 
L 276.8598 255.560341 
L 301.075006 250.713917 
L 325.290213 242.609717 
L 349.50542 209.687713 
L 373.720627 188.526126 
L 397.935834 178.218752 
L 422.151041 172.694536 
" style="fill:none;stroke:#1f77b4;stroke-linecap:square;stroke-width:1.5;"/>
   </g>
   <g id="line2d_39">
    <path clip-path="url(#p7df51faed5)" d="M 83.138145 144.130964 
L 107.353352 158.270865 
L 131.568558 238.010778 
L 155.783765 240.721714 
L 179.998972 243.975769 
L 204.214179 248.387699 
L 228.429386 248.559822 
L 252.644593 249.211795 
L 276.8598 254.174984 
L 301.075006 230.528546 
L 325.290213 241.840048 
L 349.50542 209.479537 
L 373.720627 187.752038 
L 397.935834 177.879856 
L 422.151041 173.028082 
" style="fill:none;stroke:#ff7f0e;stroke-linecap:square;stroke-width:1.5;"/>
   </g>
   <g id="line2d_40">
    <path clip-path="url(#p7df51faed5)" d="M 83.138145 143.17289 
L 107.353352 165.258824 
L 131.568558 224.307232 
L 155.783765 237.880057 
L 179.998972 241.285068 
L 204.214179 243.15423 
L 228.429386 247.072121 
L 252.644593 253.796314 
L 276.8598 252.993848 
L 301.075006 232.46586 
L 325.290213 218.040793 
L 349.50542 211.295667 
L 373.720627 188.007431 
L 397.935834 177.68959 
L 422.151041 173.119958 
" style="fill:none;stroke:#2ca02c;stroke-linecap:square;stroke-width:1.5;"/>
   </g>
   <g id="line2d_41">
    <path clip-path="url(#p7df51faed5)" d="M 83.138145 116.783417 
L 107.353352 162.397861 
L 131.568558 226.171975 
L 155.783765 210.924905 
L 179.998972 237.258787 
L 204.214179 240.624023 
L 228.429386 244.903837 
L 252.644593 249.474167 
L 276.8598 253.116661 
L 301.075006 230.845578 
L 325.290213 155.000761 
L 349.50542 181.21718 
L 373.720627 188.730347 
L 397.935834 176.867122 
L 422.151041 172.448446 
" style="fill:none;stroke:#d62728;stroke-linecap:square;stroke-width:1.5;"/>
   </g>
   <g id="line2d_42">
    <path clip-path="url(#p7df51faed5)" d="M 83.138145 43.245746 
L 107.353352 146.173645 
L 131.568558 223.987176 
L 155.783765 219.164477 
L 179.998972 232.533779 
L 204.214179 236.551919 
L 228.429386 240.786609 
L 252.644593 242.57506 
L 276.8598 250.054733 
L 301.075006 226.73184 
L 325.290213 150.212719 
L 349.50542 171.923704 
L 373.720627 173.191134 
L 397.935834 177.514676 
L 422.151041 172.418906 
" style="fill:none;stroke:#9467bd;stroke-linecap:square;stroke-width:1.5;"/>
   </g>
   <g id="line2d_43">
    <path clip-path="url(#p7df51faed5)" d="M 83.138145 289.699999 
L 107.353352 305.752093 
L 131.568558 326.663194 
L 155.783765 335.224009 
L 179.998972 337.073623 
L 204.214179 338.803713 
L 228.429386 339.353969 
L 252.644593 339.934521 
L 276.8598 340.119282 
L 301.075006 340.189756 
L 325.290213 340.216301 
L 349.50542 340.253908 
L 373.720627 340.278469 
L 397.935834 340.27225 
L 422.151041 340.265827 
" style="fill:none;stroke:#1f77b4;stroke-dasharray:5.55,2.4;stroke-dashoffset:0;stroke-width:1.5;"/>
   </g>
   <g id="line2d_44">
    <path clip-path="url(#p7df51faed5)" d="M 83.138145 272.297903 
L 107.353352 305.351698 
L 131.568558 322.243333 
L 155.783765 331.906781 
L 179.998972 336.481309 
L 204.214179 338.285664 
L 228.429386 339.245564 
L 252.644593 339.731041 
L 276.8598 340.015758 
L 301.075006 340.134474 
L 325.290213 340.213472 
L 349.50542 340.239831 
L 373.720627 340.255947 
L 397.935834 340.260188 
L 422.151041 340.270126 
" style="fill:none;stroke:#ff7f0e;stroke-dasharray:5.55,2.4;stroke-dashoffset:0;stroke-width:1.5;"/>
   </g>
   <g id="line2d_45">
    <path clip-path="url(#p7df51faed5)" d="M 83.138145 272.327676 
L 107.353352 301.225445 
L 131.568558 325.906109 
L 155.783765 330.678055 
L 179.998972 335.992556 
L 204.214179 338.157675 
L 228.429386 339.233101 
L 252.644593 339.713345 
L 276.8598 340.012932 
L 301.075006 340.136884 
L 325.290213 340.228964 
L 349.50542 340.237221 
L 373.720627 340.255141 
L 397.935834 340.263315 
L 422.151041 340.266978 
" style="fill:none;stroke:#2ca02c;stroke-dasharray:5.55,2.4;stroke-dashoffset:0;stroke-width:1.5;"/>
   </g>
   <g id="line2d_46">
    <path clip-path="url(#p7df51faed5)" d="M 83.138145 247.073284 
L 107.353352 292.061107 
L 131.568558 314.399155 
L 155.783765 327.008813 
L 179.998972 334.636069 
L 204.214179 336.770652 
L 228.429386 338.817808 
L 252.644593 339.56447 
L 276.8598 339.90578 
L 301.075006 340.104757 
L 325.290213 340.1691 
L 349.50542 340.234595 
L 373.720627 340.258324 
L 397.935834 340.207127 
L 422.151041 340.275498 
" style="fill:none;stroke:#d62728;stroke-dasharray:5.55,2.4;stroke-dashoffset:0;stroke-width:1.5;"/>
   </g>
   <g id="line2d_47">
    <path clip-path="url(#p7df51faed5)" d="M 83.138145 193.3251 
L 107.353352 273.880969 
L 131.568558 305.638561 
L 155.783765 323.492992 
L 179.998972 332.013567 
L 204.214179 336.066913 
L 228.429386 338.134203 
L 252.644593 339.265388 
L 276.8598 339.710349 
L 301.075006 340.025358 
L 325.290213 340.123912 
L 349.50542 340.183219 
L 373.720627 340.156376 
L 397.935834 340.250792 
L 422.151041 340.256146 
" style="fill:none;stroke:#9467bd;stroke-dasharray:5.55,2.4;stroke-dashoffset:0;stroke-width:1.5;"/>
   </g>
   <g id="line2d_48">
    <path clip-path="url(#p7df51faed5)" d="M 66.1875 253.807938 
L 439.101686 253.807938 
" style="fill:none;stroke:#ff0000;stroke-dasharray:2,3.3;stroke-dashoffset:0;stroke-width:2;"/>
   </g>
   <g id="line2d_49">
    <path clip-path="url(#p7df51faed5)" d="M 319.995794 340.35625 
L 319.995794 31.43625 
" style="fill:none;stroke:#2ca02c;stroke-linecap:square;stroke-width:3;"/>
   </g>
   <g id="line2d_50">
    <path clip-path="url(#p7df51faed5)" d="M 239.554618 340.35625 
L 239.554618 31.43625 
" style="fill:none;stroke:#2ca02c;stroke-dasharray:3,4.95;stroke-dashoffset:0;stroke-width:3;"/>
   </g>
   <g id="patch_3">
    <path d="M 66.1875 340.35625 
L 66.1875 31.43625 
" style="fill:none;stroke:#000000;stroke-linecap:square;stroke-linejoin:miter;stroke-width:0.8;"/>
   </g>
   <g id="patch_4">
    <path d="M 439.101686 340.35625 
L 439.101686 31.43625 
" style="fill:none;stroke:#000000;stroke-linecap:square;stroke-linejoin:miter;stroke-width:0.8;"/>
   </g>
   <g id="patch_5">
    <path d="M 66.1875 340.35625 
L 439.101686 340.35625 
" style="fill:none;stroke:#000000;stroke-linecap:square;stroke-linejoin:miter;stroke-width:0.8;"/>
   </g>
   <g id="patch_6">
    <path d="M 66.1875 31.43625 
L 439.101686 31.43625 
" style="fill:none;stroke:#000000;stroke-linecap:square;stroke-linejoin:miter;stroke-width:0.8;"/>
   </g>
   <g id="text_16">
    <!-- 21.5 B/ns -->
    <g style="fill:#ff0000;" transform="translate(345.280982 249.856532)scale(0.19 -0.19)">
     <defs>
      <path d="M 10.6875 12.40625 
L 21 12.40625 
L 21 0 
L 10.6875 0 
z
" id="DejaVuSans-46"/>
     </defs>
     <use xlink:href="#DejaVuSans-50"/>
     <use x="63.623047" xlink:href="#DejaVuSans-49"/>
     <use x="127.246094" xlink:href="#DejaVuSans-46"/>
     <use x="159.033203" xlink:href="#DejaVuSans-53"/>
     <use x="222.65625" xlink:href="#DejaVuSans-32"/>
     <use x="254.443359" xlink:href="#DejaVuSans-66"/>
     <use x="323.046875" xlink:href="#DejaVuSans-47"/>
     <use x="356.738281" xlink:href="#DejaVuSans-110"/>
     <use x="420.117188" xlink:href="#DejaVuSans-115"/>
    </g>
   </g>
   <g id="text_17">
    <!-- L3 -->
    <g style="fill:#2ca02c;" transform="translate(316.044387 151.804494)rotate(-90)scale(0.19 -0.19)">
     <defs>
      <path d="M 9.8125 72.90625 
L 19.671875 72.90625 
L 19.671875 8.296875 
L 55.171875 8.296875 
L 55.171875 0 
L 9.8125 0 
z
" id="DejaVuSans-76"/>
     </defs>
     <use xlink:href="#DejaVuSans-76"/>
     <use x="55.712891" xlink:href="#DejaVuSans-51"/>
    </g>
   </g>
   <g id="text_18">
    <!-- L3/core -->
    <g style="fill:#2ca02c;" transform="translate(235.603211 211.921774)rotate(-90)scale(0.19 -0.19)">
     <defs>
      <path d="M 48.78125 52.59375 
L 48.78125 44.1875 
Q 44.96875 46.296875 41.140625 47.34375 
Q 37.3125 48.390625 33.40625 48.390625 
Q 24.65625 48.390625 19.8125 42.84375 
Q 14.984375 37.3125 14.984375 27.296875 
Q 14.984375 17.28125 19.8125 11.734375 
Q 24.65625 6.203125 33.40625 6.203125 
Q 37.3125 6.203125 41.140625 7.25 
Q 44.96875 8.296875 48.78125 10.40625 
L 48.78125 2.09375 
Q 45.015625 0.34375 40.984375 -0.53125 
Q 36.96875 -1.421875 32.421875 -1.421875 
Q 20.0625 -1.421875 12.78125 6.34375 
Q 5.515625 14.109375 5.515625 27.296875 
Q 5.515625 40.671875 12.859375 48.328125 
Q 20.21875 56 33.015625 56 
Q 37.15625 56 41.109375 55.140625 
Q 45.0625 54.296875 48.78125 52.59375 
z
" id="DejaVuSans-99"/>
      <path d="M 30.609375 48.390625 
Q 23.390625 48.390625 19.1875 42.75 
Q 14.984375 37.109375 14.984375 27.296875 
Q 14.984375 17.484375 19.15625 11.84375 
Q 23.34375 6.203125 30.609375 6.203125 
Q 37.796875 6.203125 41.984375 11.859375 
Q 46.1875 17.53125 46.1875 27.296875 
Q 46.1875 37.015625 41.984375 42.703125 
Q 37.796875 48.390625 30.609375 48.390625 
z
M 30.609375 56 
Q 42.328125 56 49.015625 48.375 
Q 55.71875 40.765625 55.71875 27.296875 
Q 55.71875 13.875 49.015625 6.21875 
Q 42.328125 -1.421875 30.609375 -1.421875 
Q 18.84375 -1.421875 12.171875 6.21875 
Q 5.515625 13.875 5.515625 27.296875 
Q 5.515625 40.765625 12.171875 48.375 
Q 18.84375 56 30.609375 56 
z
" id="DejaVuSans-111"/>
     </defs>
     <use xlink:href="#DejaVuSans-76"/>
     <use x="55.712891" xlink:href="#DejaVuSans-51"/>
     <use x="119.335938" xlink:href="#DejaVuSans-47"/>
     <use x="153.027344" xlink:href="#DejaVuSans-99"/>
     <use x="208.007812" xlink:href="#DejaVuSans-111"/>
     <use x="269.189453" xlink:href="#DejaVuSans-114"/>
     <use x="308.052734" xlink:href="#DejaVuSans-101"/>
    </g>
   </g>
   <g id="text_19">
    <!-- BlockRing -->
    <g transform="translate(193.293343 25.43625)scale(0.24 -0.24)">
     <defs>
      <path d="M 9.421875 75.984375 
L 18.40625 75.984375 
L 18.40625 0 
L 9.421875 0 
z
" id="DejaVuSans-108"/>
      <path d="M 44.390625 34.1875 
Q 47.5625 33.109375 50.5625 29.59375 
Q 53.5625 26.078125 56.59375 19.921875 
L 66.609375 0 
L 56 0 
L 46.6875 18.703125 
Q 43.0625 26.03125 39.671875 28.421875 
Q 36.28125 30.8125 30.421875 30.8125 
L 19.671875 30.8125 
L 19.671875 0 
L 9.8125 0 
L 9.8125 72.90625 
L 32.078125 72.90625 
Q 44.578125 72.90625 50.734375 67.671875 
Q 56.890625 62.453125 56.890625 51.90625 
Q 56.890625 45.015625 53.6875 40.46875 
Q 50.484375 35.9375 44.390625 34.1875 
z
M 19.671875 64.796875 
L 19.671875 38.921875 
L 32.078125 38.921875 
Q 39.203125 38.921875 42.84375 42.21875 
Q 46.484375 45.515625 46.484375 51.90625 
Q 46.484375 58.296875 42.84375 61.546875 
Q 39.203125 64.796875 32.078125 64.796875 
z
" id="DejaVuSans-82"/>
      <path d="M 45.40625 27.984375 
Q 45.40625 37.75 41.375 43.109375 
Q 37.359375 48.484375 30.078125 48.484375 
Q 22.859375 48.484375 18.828125 43.109375 
Q 14.796875 37.75 14.796875 27.984375 
Q 14.796875 18.265625 18.828125 12.890625 
Q 22.859375 7.515625 30.078125 7.515625 
Q 37.359375 7.515625 41.375 12.890625 
Q 45.40625 18.265625 45.40625 27.984375 
z
M 54.390625 6.78125 
Q 54.390625 -7.171875 48.1875 -13.984375 
Q 42 -20.796875 29.203125 -20.796875 
Q 24.46875 -20.796875 20.265625 -20.09375 
Q 16.0625 -19.390625 12.109375 -17.921875 
L 12.109375 -9.1875 
Q 16.0625 -11.328125 19.921875 -12.34375 
Q 23.78125 -13.375 27.78125 -13.375 
Q 36.625 -13.375 41.015625 -8.765625 
Q 45.40625 -4.15625 45.40625 5.171875 
L 45.40625 9.625 
Q 42.625 4.78125 38.28125 2.390625 
Q 33.9375 0 27.875 0 
Q 17.828125 0 11.671875 7.65625 
Q 5.515625 15.328125 5.515625 27.984375 
Q 5.515625 40.671875 11.671875 48.328125 
Q 17.828125 56 27.875 56 
Q 33.9375 56 38.28125 53.609375 
Q 42.625 51.21875 45.40625 46.390625 
L 45.40625 54.6875 
L 54.390625 54.6875 
z
" id="DejaVuSans-103"/>
     </defs>
     <use xlink:href="#DejaVuSans-66"/>
     <use x="68.603516" xlink:href="#DejaVuSans-108"/>
     <use x="96.386719" xlink:href="#DejaVuSans-111"/>
     <use x="157.568359" xlink:href="#DejaVuSans-99"/>
     <use x="212.548828" xlink:href="#DejaVuSans-107"/>
     <use x="270.458984" xlink:href="#DejaVuSans-82"/>
     <use x="339.941406" xlink:href="#DejaVuSans-105"/>
     <use x="367.724609" xlink:href="#DejaVuSans-110"/>
     <use x="431.103516" xlink:href="#DejaVuSans-103"/>
    </g>
   </g>
   <g id="legend_1">
    <g id="patch_7">
     <path d="M 227.717961 103.659962 
L 429.385686 103.659962 
Q 432.161686 103.659962 432.161686 100.883962 
L 432.161686 41.15225 
Q 432.161686 38.37625 429.385686 38.37625 
L 227.717961 38.37625 
Q 224.941961 38.37625 224.941961 41.15225 
L 224.941961 100.883962 
Q 224.941961 103.659962 227.717961 103.659962 
z
" style="fill:#ffffff;opacity:0.8;stroke:#cccccc;stroke-linejoin:miter;"/>
    </g>
    <g id="line2d_51">
     <path d="M 230.493961 49.616881 
L 244.373961 49.616881 
" style="fill:none;stroke:#1f77b4;stroke-linecap:square;stroke-width:1.5;"/>
    </g>
    <g id="line2d_52"/>
    <g id="text_20">
     <!-- 4 blocks -->
     <g transform="translate(255.477961 54.474881)scale(0.1388 -0.1388)">
      <defs>
       <path d="M 48.6875 27.296875 
Q 48.6875 37.203125 44.609375 42.84375 
Q 40.53125 48.484375 33.40625 48.484375 
Q 26.265625 48.484375 22.1875 42.84375 
Q 18.109375 37.203125 18.109375 27.296875 
Q 18.109375 17.390625 22.1875 11.75 
Q 26.265625 6.109375 33.40625 6.109375 
Q 40.53125 6.109375 44.609375 11.75 
Q 48.6875 17.390625 48.6875 27.296875 
z
M 18.109375 46.390625 
Q 20.953125 51.265625 25.265625 53.625 
Q 29.59375 56 35.59375 56 
Q 45.5625 56 51.78125 48.09375 
Q 58.015625 40.1875 58.015625 27.296875 
Q 58.015625 14.40625 51.78125 6.484375 
Q 45.5625 -1.421875 35.59375 -1.421875 
Q 29.59375 -1.421875 25.265625 0.953125 
Q 20.953125 3.328125 18.109375 8.203125 
L 18.109375 0 
L 9.078125 0 
L 9.078125 75.984375 
L 18.109375 75.984375 
z
" id="DejaVuSans-98"/>
      </defs>
      <use xlink:href="#DejaVuSans-52"/>
      <use x="63.623047" xlink:href="#DejaVuSans-32"/>
      <use x="95.410156" xlink:href="#DejaVuSans-98"/>
      <use x="158.886719" xlink:href="#DejaVuSans-108"/>
      <use x="186.669922" xlink:href="#DejaVuSans-111"/>
      <use x="247.851562" xlink:href="#DejaVuSans-99"/>
      <use x="302.832031" xlink:href="#DejaVuSans-107"/>
      <use x="360.742188" xlink:href="#DejaVuSans-115"/>
     </g>
    </g>
    <g id="line2d_53">
     <path d="M 230.493961 69.990119 
L 244.373961 69.990119 
" style="fill:none;stroke:#ff7f0e;stroke-linecap:square;stroke-width:1.5;"/>
    </g>
    <g id="line2d_54"/>
    <g id="text_21">
     <!-- 8 blocks -->
     <g transform="translate(255.477961 74.848119)scale(0.1388 -0.1388)">
      <use xlink:href="#DejaVuSans-56"/>
      <use x="63.623047" xlink:href="#DejaVuSans-32"/>
      <use x="95.410156" xlink:href="#DejaVuSans-98"/>
      <use x="158.886719" xlink:href="#DejaVuSans-108"/>
      <use x="186.669922" xlink:href="#DejaVuSans-111"/>
      <use x="247.851562" xlink:href="#DejaVuSans-99"/>
      <use x="302.832031" xlink:href="#DejaVuSans-107"/>
      <use x="360.742188" xlink:href="#DejaVuSans-115"/>
     </g>
    </g>
    <g id="line2d_55">
     <path d="M 230.493961 90.363356 
L 244.373961 90.363356 
" style="fill:none;stroke:#2ca02c;stroke-linecap:square;stroke-width:1.5;"/>
    </g>
    <g id="line2d_56"/>
    <g id="text_22">
     <!-- 16 blocks -->
     <g transform="translate(255.477961 95.221356)scale(0.1388 -0.1388)">
      <use xlink:href="#DejaVuSans-49"/>
      <use x="63.623047" xlink:href="#DejaVuSans-54"/>
      <use x="127.246094" xlink:href="#DejaVuSans-32"/>
      <use x="159.033203" xlink:href="#DejaVuSans-98"/>
      <use x="222.509766" xlink:href="#DejaVuSans-108"/>
      <use x="250.292969" xlink:href="#DejaVuSans-111"/>
      <use x="311.474609" xlink:href="#DejaVuSans-99"/>
      <use x="366.455078" xlink:href="#DejaVuSans-107"/>
      <use x="424.365234" xlink:href="#DejaVuSans-115"/>
     </g>
    </g>
    <g id="line2d_57">
     <path d="M 335.491823 49.616881 
L 349.371823 49.616881 
" style="fill:none;stroke:#d62728;stroke-linecap:square;stroke-width:1.5;"/>
    </g>
    <g id="line2d_58"/>
    <g id="text_23">
     <!-- 32 blocks -->
     <g transform="translate(360.475823 54.474881)scale(0.1388 -0.1388)">
      <use xlink:href="#DejaVuSans-51"/>
      <use x="63.623047" xlink:href="#DejaVuSans-50"/>
      <use x="127.246094" xlink:href="#DejaVuSans-32"/>
      <use x="159.033203" xlink:href="#DejaVuSans-98"/>
      <use x="222.509766" xlink:href="#DejaVuSans-108"/>
      <use x="250.292969" xlink:href="#DejaVuSans-111"/>
      <use x="311.474609" xlink:href="#DejaVuSans-99"/>
      <use x="366.455078" xlink:href="#DejaVuSans-107"/>
      <use x="424.365234" xlink:href="#DejaVuSans-115"/>
     </g>
    </g>
    <g id="line2d_59">
     <path d="M 335.491823 69.990119 
L 349.371823 69.990119 
" style="fill:none;stroke:#9467bd;stroke-linecap:square;stroke-width:1.5;"/>
    </g>
    <g id="line2d_60"/>
    <g id="text_24">
     <!-- 64 blocks -->
     <g transform="translate(360.475823 74.848119)scale(0.1388 -0.1388)">
      <use xlink:href="#DejaVuSans-54"/>
      <use x="63.623047" xlink:href="#DejaVuSans-52"/>
      <use x="127.246094" xlink:href="#DejaVuSans-32"/>
      <use x="159.033203" xlink:href="#DejaVuSans-98"/>
      <use x="222.509766" xlink:href="#DejaVuSans-108"/>
      <use x="250.292969" xlink:href="#DejaVuSans-111"/>
      <use x="311.474609" xlink:href="#DejaVuSans-99"/>
      <use x="366.455078" xlink:href="#DejaVuSans-107"/>
      <use x="424.365234" xlink:href="#DejaVuSans-115"/>
     </g>
    </g>
   </g>
  </g>
  <g id="axes_2">
   <g id="patch_8">
    <path d="M 513.7875 340.35625 
L 886.701686 340.35625 
L 886.701686 31.43625 
L 513.7875 31.43625 
z
" style="fill:none;"/>
   </g>
   <g id="matplotlib.axis_3">
    <g id="xtick_16">
     <g id="line2d_61">
      <path clip-path="url(#p5dfd8e1c54)" d="M 554.953352 340.35625 
L 554.953352 31.43625 
" style="fill:none;stroke:#b0b0b0;stroke-linecap:square;stroke-width:0.8;"/>
     </g>
     <g id="line2d_62">
      <g>
       <use style="stroke:#000000;stroke-width:0.8;" x="554.953352" xlink:href="#m005f0a59be" y="340.35625"/>
      </g>
     </g>
     <g id="text_25">
      <!-- 32 k -->
      <g transform="translate(538.683039 358.753906)scale(0.15 -0.15)">
       <use xlink:href="#DejaVuSans-51"/>
       <use x="63.623047" xlink:href="#DejaVuSans-50"/>
       <use x="127.246094" xlink:href="#DejaVuSans-32"/>
       <use x="159.033203" xlink:href="#DejaVuSans-107"/>
      </g>
     </g>
    </g>
    <g id="xtick_17">
     <g id="line2d_63">
      <path clip-path="url(#p5dfd8e1c54)" d="M 651.814179 340.35625 
L 651.814179 31.43625 
" style="fill:none;stroke:#b0b0b0;stroke-linecap:square;stroke-width:0.8;"/>
     </g>
     <g id="line2d_64">
      <g>
       <use style="stroke:#000000;stroke-width:0.8;" x="651.814179" xlink:href="#m005f0a59be" y="340.35625"/>
      </g>
     </g>
     <g id="text_26">
      <!-- 512 k -->
      <g transform="translate(630.771992 358.753906)scale(0.15 -0.15)">
       <use xlink:href="#DejaVuSans-53"/>
       <use x="63.623047" xlink:href="#DejaVuSans-49"/>
       <use x="127.246094" xlink:href="#DejaVuSans-50"/>
       <use x="190.869141" xlink:href="#DejaVuSans-32"/>
       <use x="222.65625" xlink:href="#DejaVuSans-107"/>
      </g>
     </g>
    </g>
    <g id="xtick_18">
     <g id="line2d_65">
      <path clip-path="url(#p5dfd8e1c54)" d="M 748.675006 340.35625 
L 748.675006 31.43625 
" style="fill:none;stroke:#b0b0b0;stroke-linecap:square;stroke-width:0.8;"/>
     </g>
     <g id="line2d_66">
      <g>
       <use style="stroke:#000000;stroke-width:0.8;" x="748.675006" xlink:href="#m005f0a59be" y="340.35625"/>
      </g>
     </g>
     <g id="text_27">
      <!-- 8 M -->
      <g transform="translate(735.048444 358.753906)scale(0.15 -0.15)">
       <use xlink:href="#DejaVuSans-56"/>
       <use x="63.623047" xlink:href="#DejaVuSans-32"/>
       <use x="95.410156" xlink:href="#DejaVuSans-77"/>
      </g>
     </g>
    </g>
    <g id="xtick_19">
     <g id="line2d_67">
      <path clip-path="url(#p5dfd8e1c54)" d="M 845.535834 340.35625 
L 845.535834 31.43625 
" style="fill:none;stroke:#b0b0b0;stroke-linecap:square;stroke-width:0.8;"/>
     </g>
     <g id="line2d_68">
      <g>
       <use style="stroke:#000000;stroke-width:0.8;" x="845.535834" xlink:href="#m005f0a59be" y="340.35625"/>
      </g>
     </g>
     <g id="text_28">
      <!-- 128 M -->
      <g transform="translate(822.365521 358.753906)scale(0.15 -0.15)">
       <use xlink:href="#DejaVuSans-49"/>
       <use x="63.623047" xlink:href="#DejaVuSans-50"/>
       <use x="127.246094" xlink:href="#DejaVuSans-56"/>
       <use x="190.869141" xlink:href="#DejaVuSans-32"/>
       <use x="222.65625" xlink:href="#DejaVuSans-77"/>
      </g>
     </g>
    </g>
    <g id="xtick_20">
     <g id="line2d_69">
      <g>
       <use style="stroke:#000000;stroke-width:0.6;" x="530.738145" xlink:href="#m6449f80ab4" y="340.35625"/>
      </g>
     </g>
    </g>
    <g id="xtick_21">
     <g id="line2d_70">
      <g>
       <use style="stroke:#000000;stroke-width:0.6;" x="579.168558" xlink:href="#m6449f80ab4" y="340.35625"/>
      </g>
     </g>
    </g>
    <g id="xtick_22">
     <g id="line2d_71">
      <g>
       <use style="stroke:#000000;stroke-width:0.6;" x="603.383765" xlink:href="#m6449f80ab4" y="340.35625"/>
      </g>
     </g>
    </g>
    <g id="xtick_23">
     <g id="line2d_72">
      <g>
       <use style="stroke:#000000;stroke-width:0.6;" x="627.598972" xlink:href="#m6449f80ab4" y="340.35625"/>
      </g>
     </g>
    </g>
    <g id="xtick_24">
     <g id="line2d_73">
      <g>
       <use style="stroke:#000000;stroke-width:0.6;" x="676.029386" xlink:href="#m6449f80ab4" y="340.35625"/>
      </g>
     </g>
    </g>
    <g id="xtick_25">
     <g id="line2d_74">
      <g>
       <use style="stroke:#000000;stroke-width:0.6;" x="700.244593" xlink:href="#m6449f80ab4" y="340.35625"/>
      </g>
     </g>
    </g>
    <g id="xtick_26">
     <g id="line2d_75">
      <g>
       <use style="stroke:#000000;stroke-width:0.6;" x="724.4598" xlink:href="#m6449f80ab4" y="340.35625"/>
      </g>
     </g>
    </g>
    <g id="xtick_27">
     <g id="line2d_76">
      <g>
       <use style="stroke:#000000;stroke-width:0.6;" x="772.890213" xlink:href="#m6449f80ab4" y="340.35625"/>
      </g>
     </g>
    </g>
    <g id="xtick_28">
     <g id="line2d_77">
      <g>
       <use style="stroke:#000000;stroke-width:0.6;" x="797.10542" xlink:href="#m6449f80ab4" y="340.35625"/>
      </g>
     </g>
    </g>
    <g id="xtick_29">
     <g id="line2d_78">
      <g>
       <use style="stroke:#000000;stroke-width:0.6;" x="821.320627" xlink:href="#m6449f80ab4" y="340.35625"/>
      </g>
     </g>
    </g>
    <g id="xtick_30">
     <g id="line2d_79">
      <g>
       <use style="stroke:#000000;stroke-width:0.6;" x="869.751041" xlink:href="#m6449f80ab4" y="340.35625"/>
      </g>
     </g>
    </g>
    <g id="text_29">
     <!-- Buffer Size -->
     <g transform="translate(646.035218 381.070312)scale(0.2 -0.2)">
      <use xlink:href="#DejaVuSans-66"/>
      <use x="68.603516" xlink:href="#DejaVuSans-117"/>
      <use x="131.982422" xlink:href="#DejaVuSans-102"/>
      <use x="167.1875" xlink:href="#DejaVuSans-102"/>
      <use x="202.392578" xlink:href="#DejaVuSans-101"/>
      <use x="263.916016" xlink:href="#DejaVuSans-114"/>
      <use x="305.029297" xlink:href="#DejaVuSans-32"/>
      <use x="336.816406" xlink:href="#DejaVuSans-83"/>
      <use x="400.292969" xlink:href="#DejaVuSans-105"/>
      <use x="428.076172" xlink:href="#DejaVuSans-122"/>
      <use x="480.566406" xlink:href="#DejaVuSans-101"/>
     </g>
    </g>
   </g>
   <g id="matplotlib.axis_4">
    <g id="ytick_10">
     <g id="line2d_80">
      <path clip-path="url(#p5dfd8e1c54)" d="M 513.7875 340.35625 
L 886.701686 340.35625 
" style="fill:none;stroke:#b0b0b0;stroke-linecap:square;stroke-width:0.8;"/>
     </g>
     <g id="line2d_81">
      <g>
       <use style="stroke:#000000;stroke-width:0.8;" x="513.7875" xlink:href="#mc3ce260a5b" y="340.35625"/>
      </g>
     </g>
     <g id="text_30">
      <!-- 0 -->
      <g transform="translate(497.24375 346.055078)scale(0.15 -0.15)">
       <use xlink:href="#DejaVuSans-48"/>
      </g>
     </g>
    </g>
    <g id="ytick_11">
     <g id="line2d_82">
      <path clip-path="url(#p5dfd8e1c54)" d="M 513.7875 292.830096 
L 886.701686 292.830096 
" style="fill:none;stroke:#b0b0b0;stroke-linecap:square;stroke-width:0.8;"/>
     </g>
     <g id="line2d_83">
      <g>
       <use style="stroke:#000000;stroke-width:0.8;" x="513.7875" xlink:href="#mc3ce260a5b" y="292.830096"/>
      </g>
     </g>
     <g id="text_31">
      <!-- 20 -->
      <g transform="translate(487.7 298.528924)scale(0.15 -0.15)">
       <use xlink:href="#DejaVuSans-50"/>
       <use x="63.623047" xlink:href="#DejaVuSans-48"/>
      </g>
     </g>
    </g>
    <g id="ytick_12">
     <g id="line2d_84">
      <path clip-path="url(#p5dfd8e1c54)" d="M 513.7875 245.303942 
L 886.701686 245.303942 
" style="fill:none;stroke:#b0b0b0;stroke-linecap:square;stroke-width:0.8;"/>
     </g>
     <g id="line2d_85">
      <g>
       <use style="stroke:#000000;stroke-width:0.8;" x="513.7875" xlink:href="#mc3ce260a5b" y="245.303942"/>
      </g>
     </g>
     <g id="text_32">
      <!-- 40 -->
      <g transform="translate(487.7 251.00277)scale(0.15 -0.15)">
       <use xlink:href="#DejaVuSans-52"/>
       <use x="63.623047" xlink:href="#DejaVuSans-48"/>
      </g>
     </g>
    </g>
    <g id="ytick_13">
     <g id="line2d_86">
      <path clip-path="url(#p5dfd8e1c54)" d="M 513.7875 197.777788 
L 886.701686 197.777788 
" style="fill:none;stroke:#b0b0b0;stroke-linecap:square;stroke-width:0.8;"/>
     </g>
     <g id="line2d_87">
      <g>
       <use style="stroke:#000000;stroke-width:0.8;" x="513.7875" xlink:href="#mc3ce260a5b" y="197.777788"/>
      </g>
     </g>
     <g id="text_33">
      <!-- 60 -->
      <g transform="translate(487.7 203.476617)scale(0.15 -0.15)">
       <use xlink:href="#DejaVuSans-54"/>
       <use x="63.623047" xlink:href="#DejaVuSans-48"/>
      </g>
     </g>
    </g>
    <g id="ytick_14">
     <g id="line2d_88">
      <path clip-path="url(#p5dfd8e1c54)" d="M 513.7875 150.251635 
L 886.701686 150.251635 
" style="fill:none;stroke:#b0b0b0;stroke-linecap:square;stroke-width:0.8;"/>
     </g>
     <g id="line2d_89">
      <g>
       <use style="stroke:#000000;stroke-width:0.8;" x="513.7875" xlink:href="#mc3ce260a5b" y="150.251635"/>
      </g>
     </g>
     <g id="text_34">
      <!-- 80 -->
      <g transform="translate(487.7 155.950463)scale(0.15 -0.15)">
       <use xlink:href="#DejaVuSans-56"/>
       <use x="63.623047" xlink:href="#DejaVuSans-48"/>
      </g>
     </g>
    </g>
    <g id="ytick_15">
     <g id="line2d_90">
      <path clip-path="url(#p5dfd8e1c54)" d="M 513.7875 102.725481 
L 886.701686 102.725481 
" style="fill:none;stroke:#b0b0b0;stroke-linecap:square;stroke-width:0.8;"/>
     </g>
     <g id="line2d_91">
      <g>
       <use style="stroke:#000000;stroke-width:0.8;" x="513.7875" xlink:href="#mc3ce260a5b" y="102.725481"/>
      </g>
     </g>
     <g id="text_35">
      <!-- 100 -->
      <g transform="translate(478.15625 108.424309)scale(0.15 -0.15)">
       <use xlink:href="#DejaVuSans-49"/>
       <use x="63.623047" xlink:href="#DejaVuSans-48"/>
       <use x="127.246094" xlink:href="#DejaVuSans-48"/>
      </g>
     </g>
    </g>
    <g id="ytick_16">
     <g id="line2d_92">
      <path clip-path="url(#p5dfd8e1c54)" d="M 513.7875 55.199327 
L 886.701686 55.199327 
" style="fill:none;stroke:#b0b0b0;stroke-linecap:square;stroke-width:0.8;"/>
     </g>
     <g id="line2d_93">
      <g>
       <use style="stroke:#000000;stroke-width:0.8;" x="513.7875" xlink:href="#mc3ce260a5b" y="55.199327"/>
      </g>
     </g>
     <g id="text_36">
      <!-- 120 -->
      <g transform="translate(478.15625 60.898155)scale(0.15 -0.15)">
       <use xlink:href="#DejaVuSans-49"/>
       <use x="63.623047" xlink:href="#DejaVuSans-50"/>
       <use x="127.246094" xlink:href="#DejaVuSans-48"/>
      </g>
     </g>
    </g>
    <g id="text_37">
     <!-- Time (ns/KiB) -->
     <g transform="translate(469.996875 252.457187)rotate(-90)scale(0.2 -0.2)">
      <use xlink:href="#DejaVuSans-84"/>
      <use x="57.958984" xlink:href="#DejaVuSans-105"/>
      <use x="85.742188" xlink:href="#DejaVuSans-109"/>
      <use x="183.154297" xlink:href="#DejaVuSans-101"/>
      <use x="244.677734" xlink:href="#DejaVuSans-32"/>
      <use x="276.464844" xlink:href="#DejaVuSans-40"/>
      <use x="315.478516" xlink:href="#DejaVuSans-110"/>
      <use x="378.857422" xlink:href="#DejaVuSans-115"/>
      <use x="430.957031" xlink:href="#DejaVuSans-47"/>
      <use x="464.648438" xlink:href="#DejaVuSans-75"/>
      <use x="530.224609" xlink:href="#DejaVuSans-105"/>
      <use x="558.007812" xlink:href="#DejaVuSans-66"/>
      <use x="626.611328" xlink:href="#DejaVuSans-41"/>
     </g>
    </g>
   </g>
   <g id="line2d_94">
    <path clip-path="url(#p5dfd8e1c54)" d="M 530.738145 90.168843 
L 554.953352 103.723454 
L 579.168558 186.098673 
L 603.383765 212.581919 
L 627.598972 217.672769 
L 651.814179 215.885177 
L 676.029386 223.668212 
L 700.244593 228.308894 
L 724.4598 226.752469 
L 748.675006 221.663141 
L 772.890213 213.367279 
L 797.10542 169.471972 
L 821.320627 141.442643 
L 845.535834 127.707965 
L 869.751041 121.205779 
" style="fill:none;stroke:#1f77b4;stroke-linecap:square;stroke-width:1.5;"/>
   </g>
   <g id="line2d_95">
    <path clip-path="url(#p5dfd8e1c54)" d="M 530.738145 70.718859 
L 554.953352 108.204752 
L 579.168558 187.727186 
L 603.383765 201.011088 
L 627.598972 214.365557 
L 651.814179 217.033713 
L 676.029386 224.466651 
L 700.244593 227.021962 
L 724.4598 227.425896 
L 748.675006 200.208998 
L 772.890213 212.946616 
L 797.10542 168.27051 
L 821.320627 140.334865 
L 845.535834 127.307985 
L 869.751041 121.636784 
" style="fill:none;stroke:#ff7f0e;stroke-linecap:square;stroke-width:1.5;"/>
   </g>
   <g id="line2d_96">
    <path clip-path="url(#p5dfd8e1c54)" d="M 530.738145 75.061153 
L 554.953352 100.013829 
L 579.168558 175.424223 
L 603.383765 205.849174 
L 627.598972 209.763808 
L 651.814179 212.127189 
L 676.029386 221.560636 
L 700.244593 224.80884 
L 724.4598 226.550806 
L 748.675006 198.010781 
L 772.890213 182.305098 
L 797.10542 171.276901 
L 821.320627 140.950196 
L 845.535834 127.001992 
L 869.751041 121.28395 
" style="fill:none;stroke:#2ca02c;stroke-linecap:square;stroke-width:1.5;"/>
   </g>
   <g id="line2d_97">
    <path clip-path="url(#p5dfd8e1c54)" d="M 530.738145 41.665399 
L 554.953352 107.058649 
L 579.168558 173.788411 
L 603.383765 201.450914 
L 627.598972 209.53112 
L 651.814179 212.879091 
L 676.029386 202.249962 
L 700.244593 221.039293 
L 724.4598 225.233153 
L 748.675006 194.382976 
L 772.890213 98.619829 
L 797.10542 129.525973 
L 821.320627 142.631025 
L 845.535834 126.688091 
L 869.751041 121.033011 
" style="fill:none;stroke:#d62728;stroke-linecap:square;stroke-width:1.5;"/>
   </g>
   <g id="line2d_98">
    <path clip-path="url(#p5dfd8e1c54)" d="M 530.738145 9.723261 
L 554.953352 103.270549 
L 579.168558 176.139929 
L 603.383765 195.852105 
L 627.598972 207.555553 
L 651.814179 210.87554 
L 676.029386 212.226956 
L 700.244593 215.689597 
L 724.4598 221.686257 
L 748.675006 186.061565 
L 772.890213 92.009968 
L 797.10542 119.352791 
L 821.320627 120.730669 
L 845.535834 126.636383 
L 869.751041 121.108141 
" style="fill:none;stroke:#9467bd;stroke-linecap:square;stroke-width:1.5;"/>
   </g>
   <g id="line2d_99">
    <path clip-path="url(#p5dfd8e1c54)" d="M 530.738145 239.475487 
L 554.953352 276.469237 
L 579.168558 311.693919 
L 603.383765 325.62299 
L 627.598972 331.5948 
L 651.814179 336.845827 
L 676.029386 338.14057 
L 700.244593 339.414572 
L 724.4598 339.657584 
L 748.675006 339.948998 
L 772.890213 340.081003 
L 797.10542 340.18196 
L 821.320627 340.19136 
L 845.535834 340.174491 
L 869.751041 340.194097 
" style="fill:none;stroke:#1f77b4;stroke-dasharray:5.55,2.4;stroke-dashoffset:0;stroke-width:1.5;"/>
   </g>
   <g id="line2d_100">
    <path clip-path="url(#p5dfd8e1c54)" d="M 530.738145 215.194413 
L 554.953352 286.275897 
L 579.168558 313.286478 
L 603.383765 323.595928 
L 627.598972 332.823818 
L 651.814179 336.185023 
L 676.029386 338.135393 
L 700.244593 339.420503 
L 724.4598 339.689623 
L 748.675006 339.979863 
L 772.890213 340.069063 
L 797.10542 340.168127 
L 821.320627 340.158368 
L 845.535834 340.212475 
L 869.751041 340.219466 
" style="fill:none;stroke:#ff7f0e;stroke-dasharray:5.55,2.4;stroke-dashoffset:0;stroke-width:1.5;"/>
   </g>
   <g id="line2d_101">
    <path clip-path="url(#p5dfd8e1c54)" d="M 530.738145 217.121922 
L 554.953352 285.02437 
L 579.168558 312.134353 
L 603.383765 326.018803 
L 627.598972 333.294152 
L 651.814179 336.762993 
L 676.029386 338.490992 
L 700.244593 339.347269 
L 724.4598 339.760114 
L 748.675006 339.961853 
L 772.890213 340.089447 
L 797.10542 340.170134 
L 821.320627 340.152546 
L 845.535834 340.215954 
L 869.751041 340.164186 
" style="fill:none;stroke:#2ca02c;stroke-dasharray:5.55,2.4;stroke-dashoffset:0;stroke-width:1.5;"/>
   </g>
   <g id="line2d_102">
    <path clip-path="url(#p5dfd8e1c54)" d="M 530.738145 224.052071 
L 554.953352 281.536696 
L 579.168558 311.350605 
L 603.383765 325.670866 
L 627.598972 333.38303 
L 651.814179 336.568931 
L 676.029386 338.371524 
L 700.244593 339.308649 
L 724.4598 339.75929 
L 748.675006 339.941201 
L 772.890213 340.117486 
L 797.10542 340.125684 
L 821.320627 340.172941 
L 845.535834 340.151902 
L 869.751041 340.173928 
" style="fill:none;stroke:#d62728;stroke-dasharray:5.55,2.4;stroke-dashoffset:0;stroke-width:1.5;"/>
   </g>
   <g id="line2d_103">
    <path clip-path="url(#p5dfd8e1c54)" d="M 530.738145 212.412498 
L 554.953352 275.521755 
L 579.168558 308.064259 
L 603.383765 324.402093 
L 627.598972 332.299708 
L 651.814179 336.519717 
L 676.029386 338.330042 
L 700.244593 339.232166 
L 724.4598 339.699239 
L 748.675006 340.001126 
L 772.890213 340.069627 
L 797.10542 340.132508 
L 821.320627 340.167799 
L 845.535834 340.213039 
L 869.751041 340.186135 
" style="fill:none;stroke:#9467bd;stroke-dasharray:5.55,2.4;stroke-dashoffset:0;stroke-width:1.5;"/>
   </g>
   <g id="line2d_104">
    <path clip-path="url(#p5dfd8e1c54)" d="M 513.7875 227.177688 
L 886.701686 227.177688 
" style="fill:none;stroke:#ff0000;stroke-dasharray:2,3.3;stroke-dashoffset:0;stroke-width:2;"/>
   </g>
   <g id="line2d_105">
    <path clip-path="url(#p5dfd8e1c54)" d="M 767.595794 340.35625 
L 767.595794 31.43625 
" style="fill:none;stroke:#2ca02c;stroke-linecap:square;stroke-width:3;"/>
   </g>
   <g id="line2d_106">
    <path clip-path="url(#p5dfd8e1c54)" d="M 687.154618 340.35625 
L 687.154618 31.43625 
" style="fill:none;stroke:#2ca02c;stroke-dasharray:3,4.95;stroke-dashoffset:0;stroke-width:3;"/>
   </g>
   <g id="patch_9">
    <path d="M 513.7875 340.35625 
L 513.7875 31.43625 
" style="fill:none;stroke:#000000;stroke-linecap:square;stroke-linejoin:miter;stroke-width:0.8;"/>
   </g>
   <g id="patch_10">
    <path d="M 886.701686 340.35625 
L 886.701686 31.43625 
" style="fill:none;stroke:#000000;stroke-linecap:square;stroke-linejoin:miter;stroke-width:0.8;"/>
   </g>
   <g id="patch_11">
    <path d="M 513.7875 340.35625 
L 886.701686 340.35625 
" style="fill:none;stroke:#000000;stroke-linecap:square;stroke-linejoin:miter;stroke-width:0.8;"/>
   </g>
   <g id="patch_12">
    <path d="M 513.7875 31.43625 
L 886.701686 31.43625 
" style="fill:none;stroke:#000000;stroke-linecap:square;stroke-linejoin:miter;stroke-width:0.8;"/>
   </g>
   <g id="text_38">
    <!-- 21.5 B/ns -->
    <g style="fill:#ff0000;" transform="translate(792.880982 223.226282)scale(0.19 -0.19)">
     <use xlink:href="#DejaVuSans-50"/>
     <use x="63.623047" xlink:href="#DejaVuSans-49"/>
     <use x="127.246094" xlink:href="#DejaVuSans-46"/>
     <use x="159.033203" xlink:href="#DejaVuSans-53"/>
     <use x="222.65625" xlink:href="#DejaVuSans-32"/>
     <use x="254.443359" xlink:href="#DejaVuSans-66"/>
     <use x="323.046875" xlink:href="#DejaVuSans-47"/>
     <use x="356.738281" xlink:href="#DejaVuSans-110"/>
     <use x="420.117188" xlink:href="#DejaVuSans-115"/>
    </g>
   </g>
   <g id="text_39">
    <!-- L3 -->
    <g style="fill:#2ca02c;" transform="translate(763.644387 90.30006)rotate(-90)scale(0.19 -0.19)">
     <use xlink:href="#DejaVuSans-76"/>
     <use x="55.712891" xlink:href="#DejaVuSans-51"/>
    </g>
   </g>
   <g id="text_40">
    <!-- L3/core -->
    <g style="fill:#2ca02c;" transform="translate(683.203211 161.599964)rotate(-90)scale(0.19 -0.19)">
     <use xlink:href="#DejaVuSans-76"/>
     <use x="55.712891" xlink:href="#DejaVuSans-51"/>
     <use x="119.335938" xlink:href="#DejaVuSans-47"/>
     <use x="153.027344" xlink:href="#DejaVuSans-99"/>
     <use x="208.007812" xlink:href="#DejaVuSans-111"/>
     <use x="269.189453" xlink:href="#DejaVuSans-114"/>
     <use x="308.052734" xlink:href="#DejaVuSans-101"/>
    </g>
   </g>
   <g id="text_41">
    <!-- DataPipe -->
    <g transform="translate(646.291468 25.43625)scale(0.24 -0.24)">
     <defs>
      <path d="M 19.671875 64.796875 
L 19.671875 8.109375 
L 31.59375 8.109375 
Q 46.6875 8.109375 53.6875 14.9375 
Q 60.6875 21.78125 60.6875 36.53125 
Q 60.6875 51.171875 53.6875 57.984375 
Q 46.6875 64.796875 31.59375 64.796875 
z
M 9.8125 72.90625 
L 30.078125 72.90625 
Q 51.265625 72.90625 61.171875 64.09375 
Q 71.09375 55.28125 71.09375 36.53125 
Q 71.09375 17.671875 61.125 8.828125 
Q 51.171875 0 30.078125 0 
L 9.8125 0 
z
" id="DejaVuSans-68"/>
      <path d="M 34.28125 27.484375 
Q 23.390625 27.484375 19.1875 25 
Q 14.984375 22.515625 14.984375 16.5 
Q 14.984375 11.71875 18.140625 8.90625 
Q 21.296875 6.109375 26.703125 6.109375 
Q 34.1875 6.109375 38.703125 11.40625 
Q 43.21875 16.703125 43.21875 25.484375 
L 43.21875 27.484375 
z
M 52.203125 31.203125 
L 52.203125 0 
L 43.21875 0 
L 43.21875 8.296875 
Q 40.140625 3.328125 35.546875 0.953125 
Q 30.953125 -1.421875 24.3125 -1.421875 
Q 15.921875 -1.421875 10.953125 3.296875 
Q 6 8.015625 6 15.921875 
Q 6 25.140625 12.171875 29.828125 
Q 18.359375 34.515625 30.609375 34.515625 
L 43.21875 34.515625 
L 43.21875 35.40625 
Q 43.21875 41.609375 39.140625 45 
Q 35.0625 48.390625 27.6875 48.390625 
Q 23 48.390625 18.546875 47.265625 
Q 14.109375 46.140625 10.015625 43.890625 
L 10.015625 52.203125 
Q 14.9375 54.109375 19.578125 55.046875 
Q 24.21875 56 28.609375 56 
Q 40.484375 56 46.34375 49.84375 
Q 52.203125 43.703125 52.203125 31.203125 
z
" id="DejaVuSans-97"/>
      <path d="M 18.3125 70.21875 
L 18.3125 54.6875 
L 36.8125 54.6875 
L 36.8125 47.703125 
L 18.3125 47.703125 
L 18.3125 18.015625 
Q 18.3125 11.328125 20.140625 9.421875 
Q 21.96875 7.515625 27.59375 7.515625 
L 36.8125 7.515625 
L 36.8125 0 
L 27.59375 0 
Q 17.1875 0 13.234375 3.875 
Q 9.28125 7.765625 9.28125 18.015625 
L 9.28125 47.703125 
L 2.6875 47.703125 
L 2.6875 54.6875 
L 9.28125 54.6875 
L 9.28125 70.21875 
z
" id="DejaVuSans-116"/>
      <path d="M 19.671875 64.796875 
L 19.671875 37.40625 
L 32.078125 37.40625 
Q 38.96875 37.40625 42.71875 40.96875 
Q 46.484375 44.53125 46.484375 51.125 
Q 46.484375 57.671875 42.71875 61.234375 
Q 38.96875 64.796875 32.078125 64.796875 
z
M 9.8125 72.90625 
L 32.078125 72.90625 
Q 44.34375 72.90625 50.609375 67.359375 
Q 56.890625 61.8125 56.890625 51.125 
Q 56.890625 40.328125 50.609375 34.8125 
Q 44.34375 29.296875 32.078125 29.296875 
L 19.671875 29.296875 
L 19.671875 0 
L 9.8125 0 
z
" id="DejaVuSans-80"/>
      <path d="M 18.109375 8.203125 
L 18.109375 -20.796875 
L 9.078125 -20.796875 
L 9.078125 54.6875 
L 18.109375 54.6875 
L 18.109375 46.390625 
Q 20.953125 51.265625 25.265625 53.625 
Q 29.59375 56 35.59375 56 
Q 45.5625 56 51.78125 48.09375 
Q 58.015625 40.1875 58.015625 27.296875 
Q 58.015625 14.40625 51.78125 6.484375 
Q 45.5625 -1.421875 35.59375 -1.421875 
Q 29.59375 -1.421875 25.265625 0.953125 
Q 20.953125 3.328125 18.109375 8.203125 
z
M 48.6875 27.296875 
Q 48.6875 37.203125 44.609375 42.84375 
Q 40.53125 48.484375 33.40625 48.484375 
Q 26.265625 48.484375 22.1875 42.84375 
Q 18.109375 37.203125 18.109375 27.296875 
Q 18.109375 17.390625 22.1875 11.75 
Q 26.265625 6.109375 33.40625 6.109375 
Q 40.53125 6.109375 44.609375 11.75 
Q 48.6875 17.390625 48.6875 27.296875 
z
" id="DejaVuSans-112"/>
     </defs>
     <use xlink:href="#DejaVuSans-68"/>
     <use x="77.001953" xlink:href="#DejaVuSans-97"/>
     <use x="138.28125" xlink:href="#DejaVuSans-116"/>
     <use x="177.490234" xlink:href="#DejaVuSans-97"/>
     <use x="238.769531" xlink:href="#DejaVuSans-80"/>
     <use x="296.822266" xlink:href="#DejaVuSans-105"/>
     <use x="324.605469" xlink:href="#DejaVuSans-112"/>
     <use x="388.082031" xlink:href="#DejaVuSans-101"/>
    </g>
   </g>
   <g id="legend_2">
    <g id="patch_13">
     <path d="M 675.317961 333.41625 
L 876.985686 333.41625 
Q 879.761686 333.41625 879.761686 330.64025 
L 879.761686 270.908537 
Q 879.761686 268.132537 876.985686 268.132537 
L 675.317961 268.132537 
Q 672.541961 268.132537 672.541961 270.908537 
L 672.541961 330.64025 
Q 672.541961 333.41625 675.317961 333.41625 
z
" style="fill:#ffffff;opacity:0.8;stroke:#cccccc;stroke-linejoin:miter;"/>
    </g>
    <g id="line2d_107">
     <path d="M 678.093961 279.373169 
L 691.973961 279.373169 
" style="fill:none;stroke:#1f77b4;stroke-linecap:square;stroke-width:1.5;"/>
    </g>
    <g id="line2d_108"/>
    <g id="text_42">
     <!-- 4 blocks -->
     <g transform="translate(703.077961 284.231169)scale(0.1388 -0.1388)">
      <use xlink:href="#DejaVuSans-52"/>
      <use x="63.623047" xlink:href="#DejaVuSans-32"/>
      <use x="95.410156" xlink:href="#DejaVuSans-98"/>
      <use x="158.886719" xlink:href="#DejaVuSans-108"/>
      <use x="186.669922" xlink:href="#DejaVuSans-111"/>
      <use x="247.851562" xlink:href="#DejaVuSans-99"/>
      <use x="302.832031" xlink:href="#DejaVuSans-107"/>
      <use x="360.742188" xlink:href="#DejaVuSans-115"/>
     </g>
    </g>
    <g id="line2d_109">
     <path d="M 678.093961 299.746406 
L 691.973961 299.746406 
" style="fill:none;stroke:#ff7f0e;stroke-linecap:square;stroke-width:1.5;"/>
    </g>
    <g id="line2d_110"/>
    <g id="text_43">
     <!-- 8 blocks -->
     <g transform="translate(703.077961 304.604406)scale(0.1388 -0.1388)">
      <use xlink:href="#DejaVuSans-56"/>
      <use x="63.623047" xlink:href="#DejaVuSans-32"/>
      <use x="95.410156" xlink:href="#DejaVuSans-98"/>
      <use x="158.886719" xlink:href="#DejaVuSans-108"/>
      <use x="186.669922" xlink:href="#DejaVuSans-111"/>
      <use x="247.851562" xlink:href="#DejaVuSans-99"/>
      <use x="302.832031" xlink:href="#DejaVuSans-107"/>
      <use x="360.742188" xlink:href="#DejaVuSans-115"/>
     </g>
    </g>
    <g id="line2d_111">
     <path d="M 678.093961 320.119644 
L 691.973961 320.119644 
" style="fill:none;stroke:#2ca02c;stroke-linecap:square;stroke-width:1.5;"/>
    </g>
    <g id="line2d_112"/>
    <g id="text_44">
     <!-- 16 blocks -->
     <g transform="translate(703.077961 324.977644)scale(0.1388 -0.1388)">
      <use xlink:href="#DejaVuSans-49"/>
      <use x="63.623047" xlink:href="#DejaVuSans-54"/>
      <use x="127.246094" xlink:href="#DejaVuSans-32"/>
      <use x="159.033203" xlink:href="#DejaVuSans-98"/>
      <use x="222.509766" xlink:href="#DejaVuSans-108"/>
      <use x="250.292969" xlink:href="#DejaVuSans-111"/>
      <use x="311.474609" xlink:href="#DejaVuSans-99"/>
      <use x="366.455078" xlink:href="#DejaVuSans-107"/>
      <use x="424.365234" xlink:href="#DejaVuSans-115"/>
     </g>
    </g>
    <g id="line2d_113">
     <path d="M 783.091823 279.373169 
L 796.971823 279.373169 
" style="fill:none;stroke:#d62728;stroke-linecap:square;stroke-width:1.5;"/>
    </g>
    <g id="line2d_114"/>
    <g id="text_45">
     <!-- 32 blocks -->
     <g transform="translate(808.075823 284.231169)scale(0.1388 -0.1388)">
      <use xlink:href="#DejaVuSans-51"/>
      <use x="63.623047" xlink:href="#DejaVuSans-50"/>
      <use x="127.246094" xlink:href="#DejaVuSans-32"/>
      <use x="159.033203" xlink:href="#DejaVuSans-98"/>
      <use x="222.509766" xlink:href="#DejaVuSans-108"/>
      <use x="250.292969" xlink:href="#DejaVuSans-111"/>
      <use x="311.474609" xlink:href="#DejaVuSans-99"/>
      <use x="366.455078" xlink:href="#DejaVuSans-107"/>
      <use x="424.365234" xlink:href="#DejaVuSans-115"/>
     </g>
    </g>
    <g id="line2d_115">
     <path d="M 783.091823 299.746406 
L 796.971823 299.746406 
" style="fill:none;stroke:#9467bd;stroke-linecap:square;stroke-width:1.5;"/>
    </g>
    <g id="line2d_116"/>
    <g id="text_46">
     <!-- 64 blocks -->
     <g transform="translate(808.075823 304.604406)scale(0.1388 -0.1388)">
      <use xlink:href="#DejaVuSans-54"/>
      <use x="63.623047" xlink:href="#DejaVuSans-52"/>
      <use x="127.246094" xlink:href="#DejaVuSans-32"/>
      <use x="159.033203" xlink:href="#DejaVuSans-98"/>
      <use x="222.509766" xlink:href="#DejaVuSans-108"/>
      <use x="250.292969" xlink:href="#DejaVuSans-111"/>
      <use x="311.474609" xlink:href="#DejaVuSans-99"/>
      <use x="366.455078" xlink:href="#DejaVuSans-107"/>
      <use x="424.365234" xlink:href="#DejaVuSans-115"/>
     </g>
    </g>
   </g>
  </g>
 </g>
 <defs>
  <clipPath id="p7df51faed5">
   <rect height="308.92" width="372.914186" x="66.1875" y="31.43625"/>
  </clipPath>
  <clipPath id="p5dfd8e1c54">
   <rect height="308.92" width="372.914186" x="513.7875" y="31.43625"/>
  </clipPath>
 </defs>
</svg>
